%TF.GenerationSoftware,KiCad,Pcbnew,(5.1.6)-1*%
%TF.CreationDate,2020-11-25T01:46:52-08:00*%
%TF.ProjectId,rc-z80ram,72632d7a-3830-4726-916d-2e6b69636164,rev?*%
%TF.SameCoordinates,PX9157080PY9071968*%
%TF.FileFunction,Soldermask,Top*%
%TF.FilePolarity,Negative*%
%FSLAX46Y46*%
G04 Gerber Fmt 4.6, Leading zero omitted, Abs format (unit mm)*
G04 Created by KiCad (PCBNEW (5.1.6)-1) date 2020-11-25 01:46:52*
%MOMM*%
%LPD*%
G01*
G04 APERTURE LIST*
%ADD10O,1.854000X2.654000*%
%ADD11O,1.854000X1.854000*%
%ADD12O,1.954000X1.954000*%
%ADD13C,1.954000*%
%ADD14C,1.854000*%
%ADD15C,1.554000*%
%ADD16C,3.454000*%
G04 APERTURE END LIST*
D10*
%TO.C,U2*%
X19050000Y46050200D03*
X57150000Y30810200D03*
X21590000Y46050200D03*
X54610000Y30810200D03*
X24130000Y46050200D03*
X52070000Y30810200D03*
X26670000Y46050200D03*
X49530000Y30810200D03*
X29210000Y46050200D03*
X46990000Y30810200D03*
X31750000Y46050200D03*
X44450000Y30810200D03*
X34290000Y46050200D03*
X41910000Y30810200D03*
X36830000Y46050200D03*
X39370000Y30810200D03*
X39370000Y46050200D03*
X36830000Y30810200D03*
X41910000Y46050200D03*
X34290000Y30810200D03*
X44450000Y46050200D03*
X31750000Y30810200D03*
X46990000Y46050200D03*
X29210000Y30810200D03*
X49530000Y46050200D03*
X26670000Y30810200D03*
X52070000Y46050200D03*
X24130000Y30810200D03*
X54610000Y46050200D03*
X21590000Y30810200D03*
X57150000Y46050200D03*
G36*
G01*
X19513500Y29483200D02*
X18586500Y29483200D01*
G75*
G02*
X18123000Y29946700I0J463500D01*
G01*
X18123000Y31673700D01*
G75*
G02*
X18586500Y32137200I463500J0D01*
G01*
X19513500Y32137200D01*
G75*
G02*
X19977000Y31673700I0J-463500D01*
G01*
X19977000Y29946700D01*
G75*
G02*
X19513500Y29483200I-463500J0D01*
G01*
G37*
%TD*%
D11*
%TO.C,RN1*%
X64770000Y6680200D03*
X62230000Y6680200D03*
X59690000Y6680200D03*
X57150000Y6680200D03*
G36*
G01*
X53683000Y6216700D02*
X53683000Y7143700D01*
G75*
G02*
X54146500Y7607200I463500J0D01*
G01*
X55073500Y7607200D01*
G75*
G02*
X55537000Y7143700I0J-463500D01*
G01*
X55537000Y6216700D01*
G75*
G02*
X55073500Y5753200I-463500J0D01*
G01*
X54146500Y5753200D01*
G75*
G02*
X53683000Y6216700I0J463500D01*
G01*
G37*
%TD*%
D10*
%TO.C,U4*%
X77470000Y42240200D03*
X95250000Y34620200D03*
X80010000Y42240200D03*
X92710000Y34620200D03*
X82550000Y42240200D03*
X90170000Y34620200D03*
X85090000Y42240200D03*
X87630000Y34620200D03*
X87630000Y42240200D03*
X85090000Y34620200D03*
X90170000Y42240200D03*
X82550000Y34620200D03*
X92710000Y42240200D03*
X80010000Y34620200D03*
X95250000Y42240200D03*
G36*
G01*
X77933500Y33293200D02*
X77006500Y33293200D01*
G75*
G02*
X76543000Y33756700I0J463500D01*
G01*
X76543000Y35483700D01*
G75*
G02*
X77006500Y35947200I463500J0D01*
G01*
X77933500Y35947200D01*
G75*
G02*
X78397000Y35483700I0J-463500D01*
G01*
X78397000Y33756700D01*
G75*
G02*
X77933500Y33293200I-463500J0D01*
G01*
G37*
%TD*%
D12*
%TO.C,JP5*%
X95250000Y28270200D03*
X95250000Y25730200D03*
X92710000Y28270200D03*
X92710000Y25730200D03*
X90170000Y28270200D03*
X90170000Y25730200D03*
X87630000Y28270200D03*
X87630000Y25730200D03*
X85090000Y28270200D03*
D13*
X85090000Y25730200D03*
%TD*%
D12*
%TO.C,JP4*%
X82550000Y25730200D03*
X82550000Y28270200D03*
D13*
X82550000Y30810200D03*
%TD*%
D14*
%TO.C,C4*%
X77510000Y44780200D03*
X80010000Y44780200D03*
%TD*%
%TO.C,X1*%
X90170000Y7950200D03*
X90170000Y15570200D03*
X82550000Y15570200D03*
G36*
G01*
X81623000Y7486700D02*
X81623000Y8413700D01*
G75*
G02*
X82086500Y8877200I463500J0D01*
G01*
X83013500Y8877200D01*
G75*
G02*
X83477000Y8413700I0J-463500D01*
G01*
X83477000Y7486700D01*
G75*
G02*
X83013500Y7023200I-463500J0D01*
G01*
X82086500Y7023200D01*
G75*
G02*
X81623000Y7486700I0J463500D01*
G01*
G37*
%TD*%
D15*
%TO.C,U3*%
X7620000Y18110200D03*
X10160000Y18110200D03*
X8890000Y19380200D03*
%TD*%
D12*
%TO.C,JP3*%
X77470000Y25730200D03*
D13*
X77470000Y28270200D03*
%TD*%
%TO.C,JP2*%
X67310000Y38430200D03*
D12*
X67310000Y35890200D03*
X67310000Y33350200D03*
%TD*%
%TO.C,JP1*%
X64770000Y33350200D03*
X64770000Y35890200D03*
D13*
X64770000Y38430200D03*
%TD*%
D14*
%TO.C,C5*%
X10120000Y14935200D03*
X7620000Y14935200D03*
%TD*%
%TO.C,C1*%
X44410000Y7950200D03*
X41910000Y7950200D03*
%TD*%
%TO.C,C2*%
X16510000Y46010200D03*
X16510000Y43510200D03*
%TD*%
%TO.C,C3*%
X85050000Y19380200D03*
X82550000Y19380200D03*
%TD*%
D10*
%TO.C,U1*%
X19050000Y25730200D03*
X67310000Y10490200D03*
X21590000Y25730200D03*
X64770000Y10490200D03*
X24130000Y25730200D03*
X62230000Y10490200D03*
X26670000Y25730200D03*
X59690000Y10490200D03*
X29210000Y25730200D03*
X57150000Y10490200D03*
X31750000Y25730200D03*
X54610000Y10490200D03*
X34290000Y25730200D03*
X52070000Y10490200D03*
X36830000Y25730200D03*
X49530000Y10490200D03*
X39370000Y25730200D03*
X46990000Y10490200D03*
X41910000Y25730200D03*
X44450000Y10490200D03*
X44450000Y25730200D03*
X41910000Y10490200D03*
X46990000Y25730200D03*
X39370000Y10490200D03*
X49530000Y25730200D03*
X36830000Y10490200D03*
X52070000Y25730200D03*
X34290000Y10490200D03*
X54610000Y25730200D03*
X31750000Y10490200D03*
X57150000Y25730200D03*
X29210000Y10490200D03*
X59690000Y25730200D03*
X26670000Y10490200D03*
X62230000Y25730200D03*
X24130000Y10490200D03*
X64770000Y25730200D03*
X21590000Y10490200D03*
X67310000Y25730200D03*
G36*
G01*
X19513500Y9163200D02*
X18586500Y9163200D01*
G75*
G02*
X18123000Y9626700I0J463500D01*
G01*
X18123000Y11353700D01*
G75*
G02*
X18586500Y11817200I463500J0D01*
G01*
X19513500Y11817200D01*
G75*
G02*
X19977000Y11353700I0J-463500D01*
G01*
X19977000Y9626700D01*
G75*
G02*
X19513500Y9163200I-463500J0D01*
G01*
G37*
%TD*%
D12*
%TO.C,J2*%
X64770000Y4140200D03*
X62230000Y4140200D03*
X59690000Y4140200D03*
X57150000Y4140200D03*
X54610000Y4140200D03*
X52070000Y4140200D03*
X49530000Y4140200D03*
X46990000Y4140200D03*
X44450000Y4140200D03*
D13*
X41910000Y4140200D03*
%TD*%
D12*
%TO.C,J1*%
X97790000Y1600200D03*
X95250000Y1600200D03*
X92710000Y1600200D03*
X90170000Y1600200D03*
X87630000Y1600200D03*
X85090000Y1600200D03*
X82550000Y1600200D03*
X80010000Y1600200D03*
X77470000Y1600200D03*
X74930000Y1600200D03*
X72390000Y1600200D03*
X69850000Y1600200D03*
X67310000Y1600200D03*
X64770000Y1600200D03*
X62230000Y1600200D03*
X59690000Y1600200D03*
X57150000Y1600200D03*
X54610000Y1600200D03*
X52070000Y1600200D03*
X49530000Y1600200D03*
X46990000Y1600200D03*
X44450000Y1600200D03*
X41910000Y1600200D03*
X39370000Y1600200D03*
X36830000Y1600200D03*
X34290000Y1600200D03*
X31750000Y1600200D03*
X29210000Y1600200D03*
X26670000Y1600200D03*
X24130000Y1600200D03*
X21590000Y1600200D03*
X19050000Y1600200D03*
X16510000Y1600200D03*
X13970000Y1600200D03*
X11430000Y1600200D03*
X8890000Y1600200D03*
X6350000Y1600200D03*
X3810000Y1600200D03*
G36*
G01*
X1758500Y623200D02*
X781500Y623200D01*
G75*
G02*
X293000Y1111700I0J488500D01*
G01*
X293000Y2088700D01*
G75*
G02*
X781500Y2577200I488500J0D01*
G01*
X1758500Y2577200D01*
G75*
G02*
X2247000Y2088700I0J-488500D01*
G01*
X2247000Y1111700D01*
G75*
G02*
X1758500Y623200I-488500J0D01*
G01*
G37*
%TD*%
D16*
%TO.C,*%
X5080000Y33350200D03*
%TD*%
M02*
