%TF.GenerationSoftware,KiCad,Pcbnew,(5.1.6)-1*%
%TF.CreationDate,2020-11-22T17:12:32-08:00*%
%TF.ProjectId,rc-z80ram,72632d7a-3830-4726-916d-2e6b69636164,rev?*%
%TF.SameCoordinates,PX9157080PY9071968*%
%TF.FileFunction,Soldermask,Top*%
%TF.FilePolarity,Negative*%
%FSLAX46Y46*%
G04 Gerber Fmt 4.6, Leading zero omitted, Abs format (unit mm)*
G04 Created by KiCad (PCBNEW (5.1.6)-1) date 2020-11-22 17:12:32*
%MOMM*%
%LPD*%
G01*
G04 APERTURE LIST*
%ADD10O,1.854000X1.854000*%
%ADD11R,1.854000X1.854000*%
%ADD12O,1.854000X2.654000*%
%ADD13R,1.854000X2.654000*%
%ADD14O,1.954000X1.954000*%
%ADD15C,1.954000*%
%ADD16C,1.854000*%
%ADD17C,1.554000*%
%ADD18R,1.954000X1.954000*%
%ADD19C,3.454000*%
G04 APERTURE END LIST*
D10*
%TO.C,RN1*%
X64770000Y6680200D03*
X62230000Y6680200D03*
X59690000Y6680200D03*
X57150000Y6680200D03*
D11*
X54610000Y6680200D03*
%TD*%
D12*
%TO.C,U4*%
X78740000Y28270200D03*
X96520000Y20650200D03*
X81280000Y28270200D03*
X93980000Y20650200D03*
X83820000Y28270200D03*
X91440000Y20650200D03*
X86360000Y28270200D03*
X88900000Y20650200D03*
X88900000Y28270200D03*
X86360000Y20650200D03*
X91440000Y28270200D03*
X83820000Y20650200D03*
X93980000Y28270200D03*
X81280000Y20650200D03*
X96520000Y28270200D03*
D13*
X78740000Y20650200D03*
%TD*%
D14*
%TO.C,JP5*%
X96520000Y13030200D03*
X96520000Y10490200D03*
X93980000Y13030200D03*
X93980000Y10490200D03*
X91440000Y13030200D03*
X91440000Y10490200D03*
X88900000Y13030200D03*
X88900000Y10490200D03*
X86360000Y13030200D03*
D15*
X86360000Y10490200D03*
%TD*%
D14*
%TO.C,JP4*%
X83820000Y10490200D03*
X83820000Y13030200D03*
D15*
X83820000Y15570200D03*
%TD*%
D16*
%TO.C,C4*%
X78780000Y30810200D03*
X81280000Y30810200D03*
%TD*%
%TO.C,X1*%
X87630000Y35890200D03*
X87630000Y43510200D03*
X80010000Y43510200D03*
D11*
X80010000Y35890200D03*
%TD*%
D17*
%TO.C,U3*%
X6985000Y19380200D03*
X9525000Y19380200D03*
X8255000Y20650200D03*
%TD*%
D14*
%TO.C,JP3*%
X78740000Y10490200D03*
D15*
X78740000Y13030200D03*
%TD*%
%TO.C,JP2*%
X69850000Y38430200D03*
D14*
X69850000Y35890200D03*
X69850000Y33350200D03*
%TD*%
%TO.C,JP1*%
X67310000Y33350200D03*
X67310000Y35890200D03*
D15*
X67310000Y38430200D03*
%TD*%
D16*
%TO.C,C5*%
X9485000Y16205200D03*
X6985000Y16205200D03*
%TD*%
%TO.C,C1*%
X44410000Y7950200D03*
X41910000Y7950200D03*
%TD*%
%TO.C,C2*%
X21590000Y46010200D03*
X21590000Y43510200D03*
%TD*%
%TO.C,C3*%
X82510000Y47320200D03*
X80010000Y47320200D03*
%TD*%
D12*
%TO.C,U2*%
X24130000Y46050200D03*
X62230000Y30810200D03*
X26670000Y46050200D03*
X59690000Y30810200D03*
X29210000Y46050200D03*
X57150000Y30810200D03*
X31750000Y46050200D03*
X54610000Y30810200D03*
X34290000Y46050200D03*
X52070000Y30810200D03*
X36830000Y46050200D03*
X49530000Y30810200D03*
X39370000Y46050200D03*
X46990000Y30810200D03*
X41910000Y46050200D03*
X44450000Y30810200D03*
X44450000Y46050200D03*
X41910000Y30810200D03*
X46990000Y46050200D03*
X39370000Y30810200D03*
X49530000Y46050200D03*
X36830000Y30810200D03*
X52070000Y46050200D03*
X34290000Y30810200D03*
X54610000Y46050200D03*
X31750000Y30810200D03*
X57150000Y46050200D03*
X29210000Y30810200D03*
X59690000Y46050200D03*
X26670000Y30810200D03*
X62230000Y46050200D03*
D13*
X24130000Y30810200D03*
%TD*%
D12*
%TO.C,U1*%
X19050000Y25730200D03*
X67310000Y10490200D03*
X21590000Y25730200D03*
X64770000Y10490200D03*
X24130000Y25730200D03*
X62230000Y10490200D03*
X26670000Y25730200D03*
X59690000Y10490200D03*
X29210000Y25730200D03*
X57150000Y10490200D03*
X31750000Y25730200D03*
X54610000Y10490200D03*
X34290000Y25730200D03*
X52070000Y10490200D03*
X36830000Y25730200D03*
X49530000Y10490200D03*
X39370000Y25730200D03*
X46990000Y10490200D03*
X41910000Y25730200D03*
X44450000Y10490200D03*
X44450000Y25730200D03*
X41910000Y10490200D03*
X46990000Y25730200D03*
X39370000Y10490200D03*
X49530000Y25730200D03*
X36830000Y10490200D03*
X52070000Y25730200D03*
X34290000Y10490200D03*
X54610000Y25730200D03*
X31750000Y10490200D03*
X57150000Y25730200D03*
X29210000Y10490200D03*
X59690000Y25730200D03*
X26670000Y10490200D03*
X62230000Y25730200D03*
X24130000Y10490200D03*
X64770000Y25730200D03*
X21590000Y10490200D03*
X67310000Y25730200D03*
D13*
X19050000Y10490200D03*
%TD*%
D14*
%TO.C,J2*%
X64770000Y4140200D03*
X62230000Y4140200D03*
X59690000Y4140200D03*
X57150000Y4140200D03*
X54610000Y4140200D03*
X52070000Y4140200D03*
X49530000Y4140200D03*
X46990000Y4140200D03*
X44450000Y4140200D03*
D15*
X41910000Y4140200D03*
%TD*%
D14*
%TO.C,J1*%
X97790000Y1600200D03*
X95250000Y1600200D03*
X92710000Y1600200D03*
X90170000Y1600200D03*
X87630000Y1600200D03*
X85090000Y1600200D03*
X82550000Y1600200D03*
X80010000Y1600200D03*
X77470000Y1600200D03*
X74930000Y1600200D03*
X72390000Y1600200D03*
X69850000Y1600200D03*
X67310000Y1600200D03*
X64770000Y1600200D03*
X62230000Y1600200D03*
X59690000Y1600200D03*
X57150000Y1600200D03*
X54610000Y1600200D03*
X52070000Y1600200D03*
X49530000Y1600200D03*
X46990000Y1600200D03*
X44450000Y1600200D03*
X41910000Y1600200D03*
X39370000Y1600200D03*
X36830000Y1600200D03*
X34290000Y1600200D03*
X31750000Y1600200D03*
X29210000Y1600200D03*
X26670000Y1600200D03*
X24130000Y1600200D03*
X21590000Y1600200D03*
X19050000Y1600200D03*
X16510000Y1600200D03*
X13970000Y1600200D03*
X11430000Y1600200D03*
X8890000Y1600200D03*
X6350000Y1600200D03*
X3810000Y1600200D03*
D18*
X1270000Y1600200D03*
%TD*%
D19*
%TO.C,*%
X5080000Y33350200D03*
%TD*%
M02*
