%TF.GenerationSoftware,KiCad,Pcbnew,(5.1.6)-1*%
%TF.CreationDate,2020-11-25T01:46:52-08:00*%
%TF.ProjectId,rc-z80ram,72632d7a-3830-4726-916d-2e6b69636164,rev?*%
%TF.SameCoordinates,PX9157080PY9071968*%
%TF.FileFunction,Legend,Top*%
%TF.FilePolarity,Positive*%
%FSLAX46Y46*%
G04 Gerber Fmt 4.6, Leading zero omitted, Abs format (unit mm)*
G04 Created by KiCad (PCBNEW (5.1.6)-1) date 2020-11-25 01:46:52*
%MOMM*%
%LPD*%
G01*
G04 APERTURE LIST*
%ADD10C,0.150000*%
%ADD11C,0.203200*%
%ADD12C,0.152400*%
%ADD13C,0.300000*%
%ADD14C,0.200000*%
%ADD15C,0.120000*%
%ADD16C,0.100000*%
G04 APERTURE END LIST*
D10*
X76865238Y22648343D02*
X76816857Y22599962D01*
X76671714Y22551581D01*
X76574952Y22551581D01*
X76429809Y22599962D01*
X76333047Y22696724D01*
X76284666Y22793486D01*
X76236285Y22987010D01*
X76236285Y23132153D01*
X76284666Y23325677D01*
X76333047Y23422439D01*
X76429809Y23519200D01*
X76574952Y23567581D01*
X76671714Y23567581D01*
X76816857Y23519200D01*
X76865238Y23470820D01*
X77784476Y22551581D02*
X77300666Y22551581D01*
X77300666Y23567581D01*
X78123142Y22551581D02*
X78123142Y23567581D01*
X78703714Y22551581D02*
X78268285Y23132153D01*
X78703714Y23567581D02*
X78123142Y22987010D01*
X75099333Y21554915D02*
X75486380Y21554915D01*
X75244476Y21893581D02*
X75244476Y21022724D01*
X75292857Y20925962D01*
X75389619Y20877581D01*
X75486380Y20877581D01*
X75970190Y20877581D02*
X75873428Y20925962D01*
X75825047Y20974343D01*
X75776666Y21071105D01*
X75776666Y21361391D01*
X75825047Y21458153D01*
X75873428Y21506534D01*
X75970190Y21554915D01*
X76115333Y21554915D01*
X76212095Y21506534D01*
X76260476Y21458153D01*
X76308857Y21361391D01*
X76308857Y21071105D01*
X76260476Y20974343D01*
X76212095Y20925962D01*
X76115333Y20877581D01*
X75970190Y20877581D01*
X77518380Y20877581D02*
X77518380Y21893581D01*
X77518380Y21506534D02*
X77615142Y21554915D01*
X77808666Y21554915D01*
X77905428Y21506534D01*
X77953809Y21458153D01*
X78002190Y21361391D01*
X78002190Y21071105D01*
X77953809Y20974343D01*
X77905428Y20925962D01*
X77808666Y20877581D01*
X77615142Y20877581D01*
X77518380Y20925962D01*
X78873047Y21554915D02*
X78873047Y20877581D01*
X78437619Y21554915D02*
X78437619Y21022724D01*
X78486000Y20925962D01*
X78582761Y20877581D01*
X78727904Y20877581D01*
X78824666Y20925962D01*
X78873047Y20974343D01*
X79308476Y20925962D02*
X79405238Y20877581D01*
X79598761Y20877581D01*
X79695523Y20925962D01*
X79743904Y21022724D01*
X79743904Y21071105D01*
X79695523Y21167867D01*
X79598761Y21216248D01*
X79453619Y21216248D01*
X79356857Y21264629D01*
X79308476Y21361391D01*
X79308476Y21409772D01*
X79356857Y21506534D01*
X79453619Y21554915D01*
X79598761Y21554915D01*
X79695523Y21506534D01*
X67762380Y40670796D02*
X66762380Y40670796D01*
X66762380Y41051748D01*
X66810000Y41146986D01*
X66857619Y41194605D01*
X66952857Y41242224D01*
X67095714Y41242224D01*
X67190952Y41194605D01*
X67238571Y41146986D01*
X67286190Y41051748D01*
X67286190Y40670796D01*
X67762380Y42099367D02*
X67238571Y42099367D01*
X67143333Y42051748D01*
X67095714Y41956510D01*
X67095714Y41766034D01*
X67143333Y41670796D01*
X67714761Y42099367D02*
X67762380Y42004129D01*
X67762380Y41766034D01*
X67714761Y41670796D01*
X67619523Y41623177D01*
X67524285Y41623177D01*
X67429047Y41670796D01*
X67381428Y41766034D01*
X67381428Y42004129D01*
X67333809Y42099367D01*
X67095714Y43004129D02*
X67905238Y43004129D01*
X68000476Y42956510D01*
X68048095Y42908891D01*
X68095714Y42813653D01*
X68095714Y42670796D01*
X68048095Y42575558D01*
X67714761Y43004129D02*
X67762380Y42908891D01*
X67762380Y42718415D01*
X67714761Y42623177D01*
X67667142Y42575558D01*
X67571904Y42527939D01*
X67286190Y42527939D01*
X67190952Y42575558D01*
X67143333Y42623177D01*
X67095714Y42718415D01*
X67095714Y42908891D01*
X67143333Y43004129D01*
X67762380Y43480320D02*
X67095714Y43480320D01*
X66762380Y43480320D02*
X66810000Y43432700D01*
X66857619Y43480320D01*
X66810000Y43527939D01*
X66762380Y43480320D01*
X66857619Y43480320D01*
X67095714Y43956510D02*
X67762380Y43956510D01*
X67190952Y43956510D02*
X67143333Y44004129D01*
X67095714Y44099367D01*
X67095714Y44242224D01*
X67143333Y44337462D01*
X67238571Y44385081D01*
X67762380Y44385081D01*
X67095714Y45289843D02*
X67905238Y45289843D01*
X68000476Y45242224D01*
X68048095Y45194605D01*
X68095714Y45099367D01*
X68095714Y44956510D01*
X68048095Y44861272D01*
X67714761Y45289843D02*
X67762380Y45194605D01*
X67762380Y45004129D01*
X67714761Y44908891D01*
X67667142Y44861272D01*
X67571904Y44813653D01*
X67286190Y44813653D01*
X67190952Y44861272D01*
X67143333Y44908891D01*
X67095714Y45004129D01*
X67095714Y45194605D01*
X67143333Y45289843D01*
X65222380Y41242224D02*
X64746190Y40908891D01*
X65222380Y40670796D02*
X64222380Y40670796D01*
X64222380Y41051748D01*
X64270000Y41146986D01*
X64317619Y41194605D01*
X64412857Y41242224D01*
X64555714Y41242224D01*
X64650952Y41194605D01*
X64698571Y41146986D01*
X64746190Y41051748D01*
X64746190Y40670796D01*
X64936666Y41623177D02*
X64936666Y42099367D01*
X65222380Y41527939D02*
X64222380Y41861272D01*
X65222380Y42194605D01*
X65222380Y42527939D02*
X64222380Y42527939D01*
X64936666Y42861272D01*
X64222380Y43194605D01*
X65222380Y43194605D01*
X69366095Y34056629D02*
X69699428Y34056629D01*
X69842285Y33532820D02*
X69366095Y33532820D01*
X69366095Y34532820D01*
X69842285Y34532820D01*
X70270857Y34199486D02*
X70270857Y33532820D01*
X70270857Y34104248D02*
X70318476Y34151867D01*
X70413714Y34199486D01*
X70556571Y34199486D01*
X70651809Y34151867D01*
X70699428Y34056629D01*
X70699428Y33532820D01*
X71604190Y33532820D02*
X71604190Y34056629D01*
X71556571Y34151867D01*
X71461333Y34199486D01*
X71270857Y34199486D01*
X71175619Y34151867D01*
X71604190Y33580439D02*
X71508952Y33532820D01*
X71270857Y33532820D01*
X71175619Y33580439D01*
X71128000Y33675677D01*
X71128000Y33770915D01*
X71175619Y33866153D01*
X71270857Y33913772D01*
X71508952Y33913772D01*
X71604190Y33961391D01*
X72080380Y33532820D02*
X72080380Y34532820D01*
X72080380Y34151867D02*
X72175619Y34199486D01*
X72366095Y34199486D01*
X72461333Y34151867D01*
X72508952Y34104248D01*
X72556571Y34009010D01*
X72556571Y33723296D01*
X72508952Y33628058D01*
X72461333Y33580439D01*
X72366095Y33532820D01*
X72175619Y33532820D01*
X72080380Y33580439D01*
X73128000Y33532820D02*
X73032761Y33580439D01*
X72985142Y33675677D01*
X72985142Y34532820D01*
X73889904Y33580439D02*
X73794666Y33532820D01*
X73604190Y33532820D01*
X73508952Y33580439D01*
X73461333Y33675677D01*
X73461333Y34056629D01*
X73508952Y34151867D01*
X73604190Y34199486D01*
X73794666Y34199486D01*
X73889904Y34151867D01*
X73937523Y34056629D01*
X73937523Y33961391D01*
X73461333Y33866153D01*
X69128000Y37342820D02*
X69128000Y38342820D01*
X69366095Y38342820D01*
X69508952Y38295200D01*
X69604190Y38199962D01*
X69651809Y38104724D01*
X69699428Y37914248D01*
X69699428Y37771391D01*
X69651809Y37580915D01*
X69604190Y37485677D01*
X69508952Y37390439D01*
X69366095Y37342820D01*
X69128000Y37342820D01*
X70128000Y37342820D02*
X70128000Y38009486D01*
X70128000Y38342820D02*
X70080380Y38295200D01*
X70128000Y38247581D01*
X70175619Y38295200D01*
X70128000Y38342820D01*
X70128000Y38247581D01*
X70556571Y37390439D02*
X70651809Y37342820D01*
X70842285Y37342820D01*
X70937523Y37390439D01*
X70985142Y37485677D01*
X70985142Y37533296D01*
X70937523Y37628534D01*
X70842285Y37676153D01*
X70699428Y37676153D01*
X70604190Y37723772D01*
X70556571Y37819010D01*
X70556571Y37866629D01*
X70604190Y37961867D01*
X70699428Y38009486D01*
X70842285Y38009486D01*
X70937523Y37961867D01*
X71842285Y37342820D02*
X71842285Y37866629D01*
X71794666Y37961867D01*
X71699428Y38009486D01*
X71508952Y38009486D01*
X71413714Y37961867D01*
X71842285Y37390439D02*
X71747047Y37342820D01*
X71508952Y37342820D01*
X71413714Y37390439D01*
X71366095Y37485677D01*
X71366095Y37580915D01*
X71413714Y37676153D01*
X71508952Y37723772D01*
X71747047Y37723772D01*
X71842285Y37771391D01*
X72318476Y37342820D02*
X72318476Y38342820D01*
X72318476Y37961867D02*
X72413714Y38009486D01*
X72604190Y38009486D01*
X72699428Y37961867D01*
X72747047Y37914248D01*
X72794666Y37819010D01*
X72794666Y37533296D01*
X72747047Y37438058D01*
X72699428Y37390439D01*
X72604190Y37342820D01*
X72413714Y37342820D01*
X72318476Y37390439D01*
X73366095Y37342820D02*
X73270857Y37390439D01*
X73223238Y37485677D01*
X73223238Y38342820D01*
X74128000Y37390439D02*
X74032761Y37342820D01*
X73842285Y37342820D01*
X73747047Y37390439D01*
X73699428Y37485677D01*
X73699428Y37866629D01*
X73747047Y37961867D01*
X73842285Y38009486D01*
X74032761Y38009486D01*
X74128000Y37961867D01*
X74175619Y37866629D01*
X74175619Y37771391D01*
X73699428Y37676153D01*
X84860190Y20922343D02*
X84811809Y20873962D01*
X84666666Y20825581D01*
X84569904Y20825581D01*
X84424761Y20873962D01*
X84328000Y20970724D01*
X84279619Y21067486D01*
X84231238Y21261010D01*
X84231238Y21406153D01*
X84279619Y21599677D01*
X84328000Y21696439D01*
X84424761Y21793200D01*
X84569904Y21841581D01*
X84666666Y21841581D01*
X84811809Y21793200D01*
X84860190Y21744820D01*
X85779428Y20825581D02*
X85295619Y20825581D01*
X85295619Y21841581D01*
X86118095Y20825581D02*
X86118095Y21841581D01*
X86698666Y20825581D02*
X86263238Y21406153D01*
X86698666Y21841581D02*
X86118095Y21261010D01*
X87085714Y21744820D02*
X87134095Y21793200D01*
X87230857Y21841581D01*
X87472761Y21841581D01*
X87569523Y21793200D01*
X87617904Y21744820D01*
X87666285Y21648058D01*
X87666285Y21551296D01*
X87617904Y21406153D01*
X87037333Y20825581D01*
X87666285Y20825581D01*
X88875809Y20825581D02*
X88875809Y21841581D01*
X89117714Y21841581D01*
X89262857Y21793200D01*
X89359619Y21696439D01*
X89408000Y21599677D01*
X89456380Y21406153D01*
X89456380Y21261010D01*
X89408000Y21067486D01*
X89359619Y20970724D01*
X89262857Y20873962D01*
X89117714Y20825581D01*
X88875809Y20825581D01*
X89891809Y20825581D02*
X89891809Y21502915D01*
X89891809Y21841581D02*
X89843428Y21793200D01*
X89891809Y21744820D01*
X89940190Y21793200D01*
X89891809Y21841581D01*
X89891809Y21744820D01*
X90278857Y21502915D02*
X90520761Y20825581D01*
X90762666Y21502915D01*
X91149714Y20825581D02*
X91149714Y21502915D01*
X91149714Y21841581D02*
X91101333Y21793200D01*
X91149714Y21744820D01*
X91198095Y21793200D01*
X91149714Y21841581D01*
X91149714Y21744820D01*
X91585142Y20873962D02*
X91681904Y20825581D01*
X91875428Y20825581D01*
X91972190Y20873962D01*
X92020571Y20970724D01*
X92020571Y21019105D01*
X91972190Y21115867D01*
X91875428Y21164248D01*
X91730285Y21164248D01*
X91633523Y21212629D01*
X91585142Y21309391D01*
X91585142Y21357772D01*
X91633523Y21454534D01*
X91730285Y21502915D01*
X91875428Y21502915D01*
X91972190Y21454534D01*
X92601142Y20825581D02*
X92504380Y20873962D01*
X92456000Y20922343D01*
X92407619Y21019105D01*
X92407619Y21309391D01*
X92456000Y21406153D01*
X92504380Y21454534D01*
X92601142Y21502915D01*
X92746285Y21502915D01*
X92843047Y21454534D01*
X92891428Y21406153D01*
X92939809Y21309391D01*
X92939809Y21019105D01*
X92891428Y20922343D01*
X92843047Y20873962D01*
X92746285Y20825581D01*
X92601142Y20825581D01*
X93375238Y20825581D02*
X93375238Y21502915D01*
X93375238Y21309391D02*
X93423619Y21406153D01*
X93472000Y21454534D01*
X93568761Y21502915D01*
X93665523Y21502915D01*
D11*
X83007200Y22523753D02*
X82165371Y22523753D01*
X82586285Y22523753D02*
X82586285Y23996953D01*
X82445980Y23786496D01*
X82305676Y23646191D01*
X82165371Y23576039D01*
X84690857Y23856648D02*
X84761009Y23926800D01*
X84901314Y23996953D01*
X85252076Y23996953D01*
X85392380Y23926800D01*
X85462533Y23856648D01*
X85532685Y23716343D01*
X85532685Y23576039D01*
X85462533Y23365581D01*
X84620704Y22523753D01*
X85532685Y22523753D01*
X87146190Y23996953D02*
X88058171Y23996953D01*
X87567104Y23435734D01*
X87777561Y23435734D01*
X87917866Y23365581D01*
X87988019Y23295429D01*
X88058171Y23155124D01*
X88058171Y22804362D01*
X87988019Y22664058D01*
X87917866Y22593905D01*
X87777561Y22523753D01*
X87356647Y22523753D01*
X87216342Y22593905D01*
X87146190Y22664058D01*
X90443352Y23505886D02*
X90443352Y22523753D01*
X90092590Y24067105D02*
X89741828Y23014820D01*
X90653809Y23014820D01*
X92968838Y23996953D02*
X92688228Y23996953D01*
X92547923Y23926800D01*
X92477771Y23856648D01*
X92337466Y23646191D01*
X92267314Y23365581D01*
X92267314Y22804362D01*
X92337466Y22664058D01*
X92407619Y22593905D01*
X92547923Y22523753D01*
X92828533Y22523753D01*
X92968838Y22593905D01*
X93038990Y22664058D01*
X93109142Y22804362D01*
X93109142Y23155124D01*
X93038990Y23295429D01*
X92968838Y23365581D01*
X92828533Y23435734D01*
X92547923Y23435734D01*
X92407619Y23365581D01*
X92337466Y23295429D01*
X92267314Y23155124D01*
X95073409Y23365581D02*
X94933104Y23435734D01*
X94862952Y23505886D01*
X94792800Y23646191D01*
X94792800Y23716343D01*
X94862952Y23856648D01*
X94933104Y23926800D01*
X95073409Y23996953D01*
X95354019Y23996953D01*
X95494323Y23926800D01*
X95564476Y23856648D01*
X95634628Y23716343D01*
X95634628Y23646191D01*
X95564476Y23505886D01*
X95494323Y23435734D01*
X95354019Y23365581D01*
X95073409Y23365581D01*
X94933104Y23295429D01*
X94862952Y23225277D01*
X94792800Y23084972D01*
X94792800Y22804362D01*
X94862952Y22664058D01*
X94933104Y22593905D01*
X95073409Y22523753D01*
X95354019Y22523753D01*
X95494323Y22593905D01*
X95564476Y22664058D01*
X95634628Y22804362D01*
X95634628Y23084972D01*
X95564476Y23225277D01*
X95494323Y23295429D01*
X95354019Y23365581D01*
D12*
X32468457Y39097858D02*
X32468457Y38227000D01*
X32410400Y38052829D01*
X32294285Y37936715D01*
X32120114Y37878658D01*
X32004000Y37878658D01*
X33629600Y37878658D02*
X33049028Y37878658D01*
X33049028Y39097858D01*
X34732685Y37994772D02*
X34674628Y37936715D01*
X34500457Y37878658D01*
X34384342Y37878658D01*
X34210171Y37936715D01*
X34094057Y38052829D01*
X34036000Y38168943D01*
X33977942Y38401172D01*
X33977942Y38575343D01*
X34036000Y38807572D01*
X34094057Y38923686D01*
X34210171Y39039800D01*
X34384342Y39097858D01*
X34500457Y39097858D01*
X34674628Y39039800D01*
X34732685Y38981743D01*
X35603542Y39097858D02*
X35603542Y38227000D01*
X35545485Y38052829D01*
X35429371Y37936715D01*
X35255200Y37878658D01*
X35139085Y37878658D01*
X36764685Y37878658D02*
X36184114Y37878658D01*
X36184114Y39097858D01*
X37867771Y37994772D02*
X37809714Y37936715D01*
X37635542Y37878658D01*
X37519428Y37878658D01*
X37345257Y37936715D01*
X37229142Y38052829D01*
X37171085Y38168943D01*
X37113028Y38401172D01*
X37113028Y38575343D01*
X37171085Y38807572D01*
X37229142Y38923686D01*
X37345257Y39039800D01*
X37519428Y39097858D01*
X37635542Y39097858D01*
X37809714Y39039800D01*
X37867771Y38981743D01*
X38738628Y39097858D02*
X38738628Y38227000D01*
X38680571Y38052829D01*
X38564457Y37936715D01*
X38390285Y37878658D01*
X38274171Y37878658D01*
X39899771Y37878658D02*
X39319200Y37878658D01*
X39319200Y39097858D01*
X41002857Y37994772D02*
X40944800Y37936715D01*
X40770628Y37878658D01*
X40654514Y37878658D01*
X40480342Y37936715D01*
X40364228Y38052829D01*
X40306171Y38168943D01*
X40248114Y38401172D01*
X40248114Y38575343D01*
X40306171Y38807572D01*
X40364228Y38923686D01*
X40480342Y39039800D01*
X40654514Y39097858D01*
X40770628Y39097858D01*
X40944800Y39039800D01*
X41002857Y38981743D01*
X41873714Y39097858D02*
X41873714Y38227000D01*
X41815657Y38052829D01*
X41699542Y37936715D01*
X41525371Y37878658D01*
X41409257Y37878658D01*
X43034857Y37878658D02*
X42454285Y37878658D01*
X42454285Y39097858D01*
X44137942Y37994772D02*
X44079885Y37936715D01*
X43905714Y37878658D01*
X43789600Y37878658D01*
X43615428Y37936715D01*
X43499314Y38052829D01*
X43441257Y38168943D01*
X43383200Y38401172D01*
X43383200Y38575343D01*
X43441257Y38807572D01*
X43499314Y38923686D01*
X43615428Y39039800D01*
X43789600Y39097858D01*
X43905714Y39097858D01*
X44079885Y39039800D01*
X44137942Y38981743D01*
D11*
X1886857Y29453115D02*
X1814285Y29380543D01*
X1596571Y29307972D01*
X1451428Y29307972D01*
X1233714Y29380543D01*
X1088571Y29525686D01*
X1016000Y29670829D01*
X943428Y29961115D01*
X943428Y30178829D01*
X1016000Y30469115D01*
X1088571Y30614258D01*
X1233714Y30759400D01*
X1451428Y30831972D01*
X1596571Y30831972D01*
X1814285Y30759400D01*
X1886857Y30686829D01*
X2540000Y29307972D02*
X2540000Y30831972D01*
X3120571Y30831972D01*
X3265714Y30759400D01*
X3338285Y30686829D01*
X3410857Y30541686D01*
X3410857Y30323972D01*
X3338285Y30178829D01*
X3265714Y30106258D01*
X3120571Y30033686D01*
X2540000Y30033686D01*
X4064000Y30831972D02*
X4064000Y29598258D01*
X4136571Y29453115D01*
X4209142Y29380543D01*
X4354285Y29307972D01*
X4644571Y29307972D01*
X4789714Y29380543D01*
X4862285Y29453115D01*
X4934857Y29598258D01*
X4934857Y30831972D01*
X6821714Y29888543D02*
X7982857Y29888543D01*
X7402285Y29307972D02*
X7402285Y30469115D01*
X10740571Y29307972D02*
X10232571Y30033686D01*
X9869714Y29307972D02*
X9869714Y30831972D01*
X10450285Y30831972D01*
X10595428Y30759400D01*
X10668000Y30686829D01*
X10740571Y30541686D01*
X10740571Y30323972D01*
X10668000Y30178829D01*
X10595428Y30106258D01*
X10450285Y30033686D01*
X9869714Y30033686D01*
X11321142Y29743400D02*
X12046857Y29743400D01*
X11176000Y29307972D02*
X11684000Y30831972D01*
X12192000Y29307972D01*
X12700000Y29307972D02*
X12700000Y30831972D01*
X13208000Y29743400D01*
X13716000Y30831972D01*
X13716000Y29307972D01*
X15602857Y29888543D02*
X16764000Y29888543D01*
X16183428Y29307972D02*
X16183428Y30469115D01*
X1778000Y26963915D02*
X1705428Y26891343D01*
X1487714Y26818772D01*
X1342571Y26818772D01*
X1124857Y26891343D01*
X979714Y27036486D01*
X907142Y27181629D01*
X834571Y27471915D01*
X834571Y27689629D01*
X907142Y27979915D01*
X979714Y28125058D01*
X1124857Y28270200D01*
X1342571Y28342772D01*
X1487714Y28342772D01*
X1705428Y28270200D01*
X1778000Y28197629D01*
X2648857Y26818772D02*
X2503714Y26891343D01*
X2431142Y27036486D01*
X2431142Y28342772D01*
X3447142Y26818772D02*
X3302000Y26891343D01*
X3229428Y26963915D01*
X3156857Y27109058D01*
X3156857Y27544486D01*
X3229428Y27689629D01*
X3302000Y27762200D01*
X3447142Y27834772D01*
X3664857Y27834772D01*
X3810000Y27762200D01*
X3882571Y27689629D01*
X3955142Y27544486D01*
X3955142Y27109058D01*
X3882571Y26963915D01*
X3810000Y26891343D01*
X3664857Y26818772D01*
X3447142Y26818772D01*
X5261428Y26891343D02*
X5116285Y26818772D01*
X4826000Y26818772D01*
X4680857Y26891343D01*
X4608285Y26963915D01*
X4535714Y27109058D01*
X4535714Y27544486D01*
X4608285Y27689629D01*
X4680857Y27762200D01*
X4826000Y27834772D01*
X5116285Y27834772D01*
X5261428Y27762200D01*
X5914571Y26818772D02*
X5914571Y28342772D01*
X6059714Y27399343D02*
X6495142Y26818772D01*
X6495142Y27834772D02*
X5914571Y27254200D01*
X8309428Y27399343D02*
X9470571Y27399343D01*
X8890000Y26818772D02*
X8890000Y27979915D01*
X12228285Y26818772D02*
X11720285Y27544486D01*
X11357428Y26818772D02*
X11357428Y28342772D01*
X11938000Y28342772D01*
X12083142Y28270200D01*
X12155714Y28197629D01*
X12228285Y28052486D01*
X12228285Y27834772D01*
X12155714Y27689629D01*
X12083142Y27617058D01*
X11938000Y27544486D01*
X11357428Y27544486D01*
X13462000Y26891343D02*
X13316857Y26818772D01*
X13026571Y26818772D01*
X12881428Y26891343D01*
X12808857Y27036486D01*
X12808857Y27617058D01*
X12881428Y27762200D01*
X13026571Y27834772D01*
X13316857Y27834772D01*
X13462000Y27762200D01*
X13534571Y27617058D01*
X13534571Y27471915D01*
X12808857Y27326772D01*
X14115142Y26891343D02*
X14260285Y26818772D01*
X14550571Y26818772D01*
X14695714Y26891343D01*
X14768285Y27036486D01*
X14768285Y27109058D01*
X14695714Y27254200D01*
X14550571Y27326772D01*
X14332857Y27326772D01*
X14187714Y27399343D01*
X14115142Y27544486D01*
X14115142Y27617058D01*
X14187714Y27762200D01*
X14332857Y27834772D01*
X14550571Y27834772D01*
X14695714Y27762200D01*
X16002000Y26891343D02*
X15856857Y26818772D01*
X15566571Y26818772D01*
X15421428Y26891343D01*
X15348857Y27036486D01*
X15348857Y27617058D01*
X15421428Y27762200D01*
X15566571Y27834772D01*
X15856857Y27834772D01*
X16002000Y27762200D01*
X16074571Y27617058D01*
X16074571Y27471915D01*
X15348857Y27326772D01*
X16510000Y27834772D02*
X17090571Y27834772D01*
X16727714Y28342772D02*
X16727714Y27036486D01*
X16800285Y26891343D01*
X16945428Y26818772D01*
X17090571Y26818772D01*
X2576285Y24329572D02*
X2576285Y25853572D01*
X3156857Y25853572D01*
X3302000Y25781000D01*
X3374571Y25708429D01*
X3447142Y25563286D01*
X3447142Y25345572D01*
X3374571Y25200429D01*
X3302000Y25127858D01*
X3156857Y25055286D01*
X2576285Y25055286D01*
X4100285Y24329572D02*
X4100285Y25853572D01*
X4463142Y25853572D01*
X4680857Y25781000D01*
X4826000Y25635858D01*
X4898571Y25490715D01*
X4971142Y25200429D01*
X4971142Y24982715D01*
X4898571Y24692429D01*
X4826000Y24547286D01*
X4680857Y24402143D01*
X4463142Y24329572D01*
X4100285Y24329572D01*
X6422571Y24329572D02*
X5551714Y24329572D01*
X5987142Y24329572D02*
X5987142Y25853572D01*
X5842000Y25635858D01*
X5696857Y25490715D01*
X5551714Y25418143D01*
X7366000Y25853572D02*
X7511142Y25853572D01*
X7656285Y25781000D01*
X7728857Y25708429D01*
X7801428Y25563286D01*
X7874000Y25273000D01*
X7874000Y24910143D01*
X7801428Y24619858D01*
X7728857Y24474715D01*
X7656285Y24402143D01*
X7511142Y24329572D01*
X7366000Y24329572D01*
X7220857Y24402143D01*
X7148285Y24474715D01*
X7075714Y24619858D01*
X7003142Y24910143D01*
X7003142Y25273000D01*
X7075714Y25563286D01*
X7148285Y25708429D01*
X7220857Y25781000D01*
X7366000Y25853572D01*
X9325428Y24329572D02*
X8454571Y24329572D01*
X8890000Y24329572D02*
X8890000Y25853572D01*
X8744857Y25635858D01*
X8599714Y25490715D01*
X8454571Y25418143D01*
X10994571Y25345572D02*
X11357428Y24329572D01*
X11720285Y25345572D01*
X13099142Y24329572D02*
X12228285Y24329572D01*
X12663714Y24329572D02*
X12663714Y25853572D01*
X12518571Y25635858D01*
X12373428Y25490715D01*
X12228285Y25418143D01*
X13752285Y24474715D02*
X13824857Y24402143D01*
X13752285Y24329572D01*
X13679714Y24402143D01*
X13752285Y24474715D01*
X13752285Y24329572D01*
X15276285Y24329572D02*
X14405428Y24329572D01*
X14840857Y24329572D02*
X14840857Y25853572D01*
X14695714Y25635858D01*
X14550571Y25490715D01*
X14405428Y25418143D01*
D13*
X1613333Y-4991942D02*
X1613333Y-4277657D01*
X2039047Y-5134800D02*
X549047Y-4634800D01*
X2039047Y-4134800D01*
X2039047Y-2849085D02*
X2039047Y-3706228D01*
X2039047Y-3277657D02*
X549047Y-3277657D01*
X761904Y-3420514D01*
X903809Y-3563371D01*
X974761Y-3706228D01*
X549047Y-1491942D02*
X549047Y-2206228D01*
X1258571Y-2277657D01*
X1187619Y-2206228D01*
X1116666Y-2063371D01*
X1116666Y-1706228D01*
X1187619Y-1563371D01*
X1258571Y-1491942D01*
X1400476Y-1420514D01*
X1755238Y-1420514D01*
X1897142Y-1491942D01*
X1968095Y-1563371D01*
X2039047Y-1706228D01*
X2039047Y-2063371D01*
X1968095Y-2206228D01*
X1897142Y-2277657D01*
X4148333Y-4991942D02*
X4148333Y-4277657D01*
X4574047Y-5134800D02*
X3084047Y-4634800D01*
X4574047Y-4134800D01*
X4574047Y-2849085D02*
X4574047Y-3706228D01*
X4574047Y-3277657D02*
X3084047Y-3277657D01*
X3296904Y-3420514D01*
X3438809Y-3563371D01*
X3509761Y-3706228D01*
X3580714Y-1563371D02*
X4574047Y-1563371D01*
X3013095Y-1920514D02*
X4077380Y-2277657D01*
X4077380Y-1349085D01*
X6683333Y-4991942D02*
X6683333Y-4277657D01*
X7109047Y-5134800D02*
X5619047Y-4634800D01*
X7109047Y-4134800D01*
X7109047Y-2849085D02*
X7109047Y-3706228D01*
X7109047Y-3277657D02*
X5619047Y-3277657D01*
X5831904Y-3420514D01*
X5973809Y-3563371D01*
X6044761Y-3706228D01*
X5619047Y-2349085D02*
X5619047Y-1420514D01*
X6186666Y-1920514D01*
X6186666Y-1706228D01*
X6257619Y-1563371D01*
X6328571Y-1491942D01*
X6470476Y-1420514D01*
X6825238Y-1420514D01*
X6967142Y-1491942D01*
X7038095Y-1563371D01*
X7109047Y-1706228D01*
X7109047Y-2134800D01*
X7038095Y-2277657D01*
X6967142Y-2349085D01*
X9218333Y-4991942D02*
X9218333Y-4277657D01*
X9644047Y-5134800D02*
X8154047Y-4634800D01*
X9644047Y-4134800D01*
X9644047Y-2849085D02*
X9644047Y-3706228D01*
X9644047Y-3277657D02*
X8154047Y-3277657D01*
X8366904Y-3420514D01*
X8508809Y-3563371D01*
X8579761Y-3706228D01*
X8295952Y-2277657D02*
X8225000Y-2206228D01*
X8154047Y-2063371D01*
X8154047Y-1706228D01*
X8225000Y-1563371D01*
X8295952Y-1491942D01*
X8437857Y-1420514D01*
X8579761Y-1420514D01*
X8792619Y-1491942D01*
X9644047Y-2349085D01*
X9644047Y-1420514D01*
X11753333Y-4991942D02*
X11753333Y-4277657D01*
X12179047Y-5134800D02*
X10689047Y-4634800D01*
X12179047Y-4134800D01*
X12179047Y-2849085D02*
X12179047Y-3706228D01*
X12179047Y-3277657D02*
X10689047Y-3277657D01*
X10901904Y-3420514D01*
X11043809Y-3563371D01*
X11114761Y-3706228D01*
X12179047Y-1420514D02*
X12179047Y-2277657D01*
X12179047Y-1849085D02*
X10689047Y-1849085D01*
X10901904Y-1991942D01*
X11043809Y-2134800D01*
X11114761Y-2277657D01*
X14288333Y-4991942D02*
X14288333Y-4277657D01*
X14714047Y-5134800D02*
X13224047Y-4634800D01*
X14714047Y-4134800D01*
X14714047Y-2849085D02*
X14714047Y-3706228D01*
X14714047Y-3277657D02*
X13224047Y-3277657D01*
X13436904Y-3420514D01*
X13578809Y-3563371D01*
X13649761Y-3706228D01*
X13224047Y-1920514D02*
X13224047Y-1777657D01*
X13295000Y-1634800D01*
X13365952Y-1563371D01*
X13507857Y-1491942D01*
X13791666Y-1420514D01*
X14146428Y-1420514D01*
X14430238Y-1491942D01*
X14572142Y-1563371D01*
X14643095Y-1634800D01*
X14714047Y-1777657D01*
X14714047Y-1920514D01*
X14643095Y-2063371D01*
X14572142Y-2134800D01*
X14430238Y-2206228D01*
X14146428Y-2277657D01*
X13791666Y-2277657D01*
X13507857Y-2206228D01*
X13365952Y-2134800D01*
X13295000Y-2063371D01*
X13224047Y-1920514D01*
X16823333Y-3563371D02*
X16823333Y-2849085D01*
X17249047Y-3706228D02*
X15759047Y-3206228D01*
X17249047Y-2706228D01*
X17249047Y-2134800D02*
X17249047Y-1849085D01*
X17178095Y-1706228D01*
X17107142Y-1634800D01*
X16894285Y-1491942D01*
X16610476Y-1420514D01*
X16042857Y-1420514D01*
X15900952Y-1491942D01*
X15830000Y-1563371D01*
X15759047Y-1706228D01*
X15759047Y-1991942D01*
X15830000Y-2134800D01*
X15900952Y-2206228D01*
X16042857Y-2277657D01*
X16397619Y-2277657D01*
X16539523Y-2206228D01*
X16610476Y-2134800D01*
X16681428Y-1991942D01*
X16681428Y-1706228D01*
X16610476Y-1563371D01*
X16539523Y-1491942D01*
X16397619Y-1420514D01*
X19358333Y-3563371D02*
X19358333Y-2849085D01*
X19784047Y-3706228D02*
X18294047Y-3206228D01*
X19784047Y-2706228D01*
X18932619Y-1991942D02*
X18861666Y-2134800D01*
X18790714Y-2206228D01*
X18648809Y-2277657D01*
X18577857Y-2277657D01*
X18435952Y-2206228D01*
X18365000Y-2134800D01*
X18294047Y-1991942D01*
X18294047Y-1706228D01*
X18365000Y-1563371D01*
X18435952Y-1491942D01*
X18577857Y-1420514D01*
X18648809Y-1420514D01*
X18790714Y-1491942D01*
X18861666Y-1563371D01*
X18932619Y-1706228D01*
X18932619Y-1991942D01*
X19003571Y-2134800D01*
X19074523Y-2206228D01*
X19216428Y-2277657D01*
X19500238Y-2277657D01*
X19642142Y-2206228D01*
X19713095Y-2134800D01*
X19784047Y-1991942D01*
X19784047Y-1706228D01*
X19713095Y-1563371D01*
X19642142Y-1491942D01*
X19500238Y-1420514D01*
X19216428Y-1420514D01*
X19074523Y-1491942D01*
X19003571Y-1563371D01*
X18932619Y-1706228D01*
X21893333Y-3563371D02*
X21893333Y-2849085D01*
X22319047Y-3706228D02*
X20829047Y-3206228D01*
X22319047Y-2706228D01*
X20829047Y-2349085D02*
X20829047Y-1349085D01*
X22319047Y-1991942D01*
X24428333Y-3563371D02*
X24428333Y-2849085D01*
X24854047Y-3706228D02*
X23364047Y-3206228D01*
X24854047Y-2706228D01*
X23364047Y-1563371D02*
X23364047Y-1849085D01*
X23435000Y-1991942D01*
X23505952Y-2063371D01*
X23718809Y-2206228D01*
X24002619Y-2277657D01*
X24570238Y-2277657D01*
X24712142Y-2206228D01*
X24783095Y-2134800D01*
X24854047Y-1991942D01*
X24854047Y-1706228D01*
X24783095Y-1563371D01*
X24712142Y-1491942D01*
X24570238Y-1420514D01*
X24215476Y-1420514D01*
X24073571Y-1491942D01*
X24002619Y-1563371D01*
X23931666Y-1706228D01*
X23931666Y-1991942D01*
X24002619Y-2134800D01*
X24073571Y-2206228D01*
X24215476Y-2277657D01*
X26963333Y-3563371D02*
X26963333Y-2849085D01*
X27389047Y-3706228D02*
X25899047Y-3206228D01*
X27389047Y-2706228D01*
X25899047Y-1491942D02*
X25899047Y-2206228D01*
X26608571Y-2277657D01*
X26537619Y-2206228D01*
X26466666Y-2063371D01*
X26466666Y-1706228D01*
X26537619Y-1563371D01*
X26608571Y-1491942D01*
X26750476Y-1420514D01*
X27105238Y-1420514D01*
X27247142Y-1491942D01*
X27318095Y-1563371D01*
X27389047Y-1706228D01*
X27389047Y-2063371D01*
X27318095Y-2206228D01*
X27247142Y-2277657D01*
X29498333Y-3563371D02*
X29498333Y-2849085D01*
X29924047Y-3706228D02*
X28434047Y-3206228D01*
X29924047Y-2706228D01*
X28930714Y-1563371D02*
X29924047Y-1563371D01*
X28363095Y-1920514D02*
X29427380Y-2277657D01*
X29427380Y-1349085D01*
X32033333Y-3563371D02*
X32033333Y-2849085D01*
X32459047Y-3706228D02*
X30969047Y-3206228D01*
X32459047Y-2706228D01*
X30969047Y-2349085D02*
X30969047Y-1420514D01*
X31536666Y-1920514D01*
X31536666Y-1706228D01*
X31607619Y-1563371D01*
X31678571Y-1491942D01*
X31820476Y-1420514D01*
X32175238Y-1420514D01*
X32317142Y-1491942D01*
X32388095Y-1563371D01*
X32459047Y-1706228D01*
X32459047Y-2134800D01*
X32388095Y-2277657D01*
X32317142Y-2349085D01*
X34568333Y-3563371D02*
X34568333Y-2849085D01*
X34994047Y-3706228D02*
X33504047Y-3206228D01*
X34994047Y-2706228D01*
X33645952Y-2277657D02*
X33575000Y-2206228D01*
X33504047Y-2063371D01*
X33504047Y-1706228D01*
X33575000Y-1563371D01*
X33645952Y-1491942D01*
X33787857Y-1420514D01*
X33929761Y-1420514D01*
X34142619Y-1491942D01*
X34994047Y-2349085D01*
X34994047Y-1420514D01*
X37103333Y-3563371D02*
X37103333Y-2849085D01*
X37529047Y-3706228D02*
X36039047Y-3206228D01*
X37529047Y-2706228D01*
X37529047Y-1420514D02*
X37529047Y-2277657D01*
X37529047Y-1849085D02*
X36039047Y-1849085D01*
X36251904Y-1991942D01*
X36393809Y-2134800D01*
X36464761Y-2277657D01*
X39638333Y-3563371D02*
X39638333Y-2849085D01*
X40064047Y-3706228D02*
X38574047Y-3206228D01*
X40064047Y-2706228D01*
X38574047Y-1920514D02*
X38574047Y-1777657D01*
X38645000Y-1634800D01*
X38715952Y-1563371D01*
X38857857Y-1491942D01*
X39141666Y-1420514D01*
X39496428Y-1420514D01*
X39780238Y-1491942D01*
X39922142Y-1563371D01*
X39993095Y-1634800D01*
X40064047Y-1777657D01*
X40064047Y-1920514D01*
X39993095Y-2063371D01*
X39922142Y-2134800D01*
X39780238Y-2206228D01*
X39496428Y-2277657D01*
X39141666Y-2277657D01*
X38857857Y-2206228D01*
X38715952Y-2134800D01*
X38645000Y-2063371D01*
X38574047Y-1920514D01*
X41180000Y-4206228D02*
X41109047Y-4349085D01*
X41109047Y-4563371D01*
X41180000Y-4777657D01*
X41321904Y-4920514D01*
X41463809Y-4991942D01*
X41747619Y-5063371D01*
X41960476Y-5063371D01*
X42244285Y-4991942D01*
X42386190Y-4920514D01*
X42528095Y-4777657D01*
X42599047Y-4563371D01*
X42599047Y-4420514D01*
X42528095Y-4206228D01*
X42457142Y-4134800D01*
X41960476Y-4134800D01*
X41960476Y-4420514D01*
X41605714Y-3491942D02*
X42599047Y-3491942D01*
X41747619Y-3491942D02*
X41676666Y-3420514D01*
X41605714Y-3277657D01*
X41605714Y-3063371D01*
X41676666Y-2920514D01*
X41818571Y-2849085D01*
X42599047Y-2849085D01*
X42599047Y-1491942D02*
X41109047Y-1491942D01*
X42528095Y-1491942D02*
X42599047Y-1634800D01*
X42599047Y-1920514D01*
X42528095Y-2063371D01*
X42457142Y-2134800D01*
X42315238Y-2206228D01*
X41889523Y-2206228D01*
X41747619Y-2134800D01*
X41676666Y-2063371D01*
X41605714Y-1920514D01*
X41605714Y-1634800D01*
X41676666Y-1491942D01*
X43644047Y-2634800D02*
X43644047Y-3349085D01*
X44353571Y-3420514D01*
X44282619Y-3349085D01*
X44211666Y-3206228D01*
X44211666Y-2849085D01*
X44282619Y-2706228D01*
X44353571Y-2634800D01*
X44495476Y-2563371D01*
X44850238Y-2563371D01*
X44992142Y-2634800D01*
X45063095Y-2706228D01*
X45134047Y-2849085D01*
X45134047Y-3206228D01*
X45063095Y-3349085D01*
X44992142Y-3420514D01*
X44140714Y-2063371D02*
X45134047Y-1706228D01*
X44140714Y-1349085D01*
X47669047Y-3920514D02*
X46179047Y-3920514D01*
X47243333Y-3420514D01*
X46179047Y-2920514D01*
X47669047Y-2920514D01*
X47669047Y-1420514D02*
X47669047Y-2277657D01*
X47669047Y-1849085D02*
X46179047Y-1849085D01*
X46391904Y-1991942D01*
X46533809Y-2134800D01*
X46604761Y-2277657D01*
X50204047Y-6063371D02*
X49494523Y-6563371D01*
X50204047Y-6920514D02*
X48714047Y-6920514D01*
X48714047Y-6349085D01*
X48785000Y-6206228D01*
X48855952Y-6134800D01*
X48997857Y-6063371D01*
X49210714Y-6063371D01*
X49352619Y-6134800D01*
X49423571Y-6206228D01*
X49494523Y-6349085D01*
X49494523Y-6920514D01*
X50133095Y-4849085D02*
X50204047Y-4991942D01*
X50204047Y-5277657D01*
X50133095Y-5420514D01*
X49991190Y-5491942D01*
X49423571Y-5491942D01*
X49281666Y-5420514D01*
X49210714Y-5277657D01*
X49210714Y-4991942D01*
X49281666Y-4849085D01*
X49423571Y-4777657D01*
X49565476Y-4777657D01*
X49707380Y-5491942D01*
X50133095Y-4206228D02*
X50204047Y-4063371D01*
X50204047Y-3777657D01*
X50133095Y-3634800D01*
X49991190Y-3563371D01*
X49920238Y-3563371D01*
X49778333Y-3634800D01*
X49707380Y-3777657D01*
X49707380Y-3991942D01*
X49636428Y-4134800D01*
X49494523Y-4206228D01*
X49423571Y-4206228D01*
X49281666Y-4134800D01*
X49210714Y-3991942D01*
X49210714Y-3777657D01*
X49281666Y-3634800D01*
X50133095Y-2349085D02*
X50204047Y-2491942D01*
X50204047Y-2777657D01*
X50133095Y-2920514D01*
X49991190Y-2991942D01*
X49423571Y-2991942D01*
X49281666Y-2920514D01*
X49210714Y-2777657D01*
X49210714Y-2491942D01*
X49281666Y-2349085D01*
X49423571Y-2277657D01*
X49565476Y-2277657D01*
X49707380Y-2991942D01*
X49210714Y-1849085D02*
X49210714Y-1277657D01*
X48714047Y-1634800D02*
X49991190Y-1634800D01*
X50133095Y-1563371D01*
X50204047Y-1420514D01*
X50204047Y-1277657D01*
X52597142Y-6063371D02*
X52668095Y-6134800D01*
X52739047Y-6349085D01*
X52739047Y-6491942D01*
X52668095Y-6706228D01*
X52526190Y-6849085D01*
X52384285Y-6920514D01*
X52100476Y-6991942D01*
X51887619Y-6991942D01*
X51603809Y-6920514D01*
X51461904Y-6849085D01*
X51320000Y-6706228D01*
X51249047Y-6491942D01*
X51249047Y-6349085D01*
X51320000Y-6134800D01*
X51390952Y-6063371D01*
X52739047Y-5206228D02*
X52668095Y-5349085D01*
X52526190Y-5420514D01*
X51249047Y-5420514D01*
X52739047Y-4420514D02*
X52668095Y-4563371D01*
X52597142Y-4634800D01*
X52455238Y-4706228D01*
X52029523Y-4706228D01*
X51887619Y-4634800D01*
X51816666Y-4563371D01*
X51745714Y-4420514D01*
X51745714Y-4206228D01*
X51816666Y-4063371D01*
X51887619Y-3991942D01*
X52029523Y-3920514D01*
X52455238Y-3920514D01*
X52597142Y-3991942D01*
X52668095Y-4063371D01*
X52739047Y-4206228D01*
X52739047Y-4420514D01*
X52668095Y-2634800D02*
X52739047Y-2777657D01*
X52739047Y-3063371D01*
X52668095Y-3206228D01*
X52597142Y-3277657D01*
X52455238Y-3349085D01*
X52029523Y-3349085D01*
X51887619Y-3277657D01*
X51816666Y-3206228D01*
X51745714Y-3063371D01*
X51745714Y-2777657D01*
X51816666Y-2634800D01*
X52739047Y-1991942D02*
X51249047Y-1991942D01*
X52171428Y-1849085D02*
X52739047Y-1420514D01*
X51745714Y-1420514D02*
X52313333Y-1991942D01*
X55274047Y-4206228D02*
X53784047Y-4206228D01*
X55274047Y-3491942D02*
X53784047Y-3491942D01*
X55274047Y-2634800D01*
X53784047Y-2634800D01*
X53784047Y-2134800D02*
X53784047Y-1277657D01*
X55274047Y-1706228D02*
X53784047Y-1706228D01*
X57809047Y-6063371D02*
X56319047Y-6063371D01*
X57383333Y-5563371D01*
X56319047Y-5063371D01*
X57809047Y-5063371D01*
X57809047Y-4349085D02*
X56815714Y-4349085D01*
X57099523Y-4349085D02*
X56957619Y-4277657D01*
X56886666Y-4206228D01*
X56815714Y-4063371D01*
X56815714Y-3920514D01*
X57738095Y-2849085D02*
X57809047Y-2991942D01*
X57809047Y-3277657D01*
X57738095Y-3420514D01*
X57596190Y-3491942D01*
X57028571Y-3491942D01*
X56886666Y-3420514D01*
X56815714Y-3277657D01*
X56815714Y-2991942D01*
X56886666Y-2849085D01*
X57028571Y-2777657D01*
X57170476Y-2777657D01*
X57312380Y-3491942D01*
X56815714Y-1491942D02*
X58305714Y-1491942D01*
X57738095Y-1491942D02*
X57809047Y-1634800D01*
X57809047Y-1920514D01*
X57738095Y-2063371D01*
X57667142Y-2134800D01*
X57525238Y-2206228D01*
X57099523Y-2206228D01*
X56957619Y-2134800D01*
X56886666Y-2063371D01*
X56815714Y-1920514D01*
X56815714Y-1634800D01*
X56886666Y-1491942D01*
X58854047Y-3563371D02*
X60344047Y-3206228D01*
X59279761Y-2920514D01*
X60344047Y-2634800D01*
X58854047Y-2277657D01*
X60344047Y-1706228D02*
X59350714Y-1706228D01*
X59634523Y-1706228D02*
X59492619Y-1634800D01*
X59421666Y-1563371D01*
X59350714Y-1420514D01*
X59350714Y-1277657D01*
X62879047Y-2777657D02*
X62169523Y-3277657D01*
X62879047Y-3634800D02*
X61389047Y-3634800D01*
X61389047Y-3063371D01*
X61460000Y-2920514D01*
X61530952Y-2849085D01*
X61672857Y-2777657D01*
X61885714Y-2777657D01*
X62027619Y-2849085D01*
X62098571Y-2920514D01*
X62169523Y-3063371D01*
X62169523Y-3634800D01*
X62879047Y-1920514D02*
X62808095Y-2063371D01*
X62737142Y-2134800D01*
X62595238Y-2206228D01*
X62169523Y-2206228D01*
X62027619Y-2134800D01*
X61956666Y-2063371D01*
X61885714Y-1920514D01*
X61885714Y-1706228D01*
X61956666Y-1563371D01*
X62027619Y-1491942D01*
X62169523Y-1420514D01*
X62595238Y-1420514D01*
X62737142Y-1491942D01*
X62808095Y-1563371D01*
X62879047Y-1706228D01*
X62879047Y-1920514D01*
X65414047Y-6134800D02*
X63924047Y-6134800D01*
X63924047Y-5134800D02*
X63924047Y-4849085D01*
X63995000Y-4706228D01*
X64136904Y-4563371D01*
X64420714Y-4491942D01*
X64917380Y-4491942D01*
X65201190Y-4563371D01*
X65343095Y-4706228D01*
X65414047Y-4849085D01*
X65414047Y-5134800D01*
X65343095Y-5277657D01*
X65201190Y-5420514D01*
X64917380Y-5491942D01*
X64420714Y-5491942D01*
X64136904Y-5420514D01*
X63995000Y-5277657D01*
X63924047Y-5134800D01*
X65414047Y-2991942D02*
X64704523Y-3491942D01*
X65414047Y-3849085D02*
X63924047Y-3849085D01*
X63924047Y-3277657D01*
X63995000Y-3134800D01*
X64065952Y-3063371D01*
X64207857Y-2991942D01*
X64420714Y-2991942D01*
X64562619Y-3063371D01*
X64633571Y-3134800D01*
X64704523Y-3277657D01*
X64704523Y-3849085D01*
X65555952Y-1349085D02*
X65485000Y-1491942D01*
X65343095Y-1634800D01*
X65130238Y-1849085D01*
X65059285Y-1991942D01*
X65059285Y-2134800D01*
X65414047Y-2063371D02*
X65343095Y-2206228D01*
X65201190Y-2349085D01*
X64917380Y-2420514D01*
X64420714Y-2420514D01*
X64136904Y-2349085D01*
X63995000Y-2206228D01*
X63924047Y-2063371D01*
X63924047Y-1777657D01*
X63995000Y-1634800D01*
X64136904Y-1491942D01*
X64420714Y-1420514D01*
X64917380Y-1420514D01*
X65201190Y-1491942D01*
X65343095Y-1634800D01*
X65414047Y-1777657D01*
X65414047Y-2063371D01*
X67949047Y-3706228D02*
X66459047Y-3706228D01*
X66459047Y-3349085D01*
X66530000Y-3134800D01*
X66671904Y-2991942D01*
X66813809Y-2920514D01*
X67097619Y-2849085D01*
X67310476Y-2849085D01*
X67594285Y-2920514D01*
X67736190Y-2991942D01*
X67878095Y-3134800D01*
X67949047Y-3349085D01*
X67949047Y-3706228D01*
X66459047Y-1920514D02*
X66459047Y-1777657D01*
X66530000Y-1634800D01*
X66600952Y-1563371D01*
X66742857Y-1491942D01*
X67026666Y-1420514D01*
X67381428Y-1420514D01*
X67665238Y-1491942D01*
X67807142Y-1563371D01*
X67878095Y-1634800D01*
X67949047Y-1777657D01*
X67949047Y-1920514D01*
X67878095Y-2063371D01*
X67807142Y-2134800D01*
X67665238Y-2206228D01*
X67381428Y-2277657D01*
X67026666Y-2277657D01*
X66742857Y-2206228D01*
X66600952Y-2134800D01*
X66530000Y-2063371D01*
X66459047Y-1920514D01*
X70484047Y-3706228D02*
X68994047Y-3706228D01*
X68994047Y-3349085D01*
X69065000Y-3134800D01*
X69206904Y-2991942D01*
X69348809Y-2920514D01*
X69632619Y-2849085D01*
X69845476Y-2849085D01*
X70129285Y-2920514D01*
X70271190Y-2991942D01*
X70413095Y-3134800D01*
X70484047Y-3349085D01*
X70484047Y-3706228D01*
X70484047Y-1420514D02*
X70484047Y-2277657D01*
X70484047Y-1849085D02*
X68994047Y-1849085D01*
X69206904Y-1991942D01*
X69348809Y-2134800D01*
X69419761Y-2277657D01*
X73019047Y-3706228D02*
X71529047Y-3706228D01*
X71529047Y-3349085D01*
X71600000Y-3134800D01*
X71741904Y-2991942D01*
X71883809Y-2920514D01*
X72167619Y-2849085D01*
X72380476Y-2849085D01*
X72664285Y-2920514D01*
X72806190Y-2991942D01*
X72948095Y-3134800D01*
X73019047Y-3349085D01*
X73019047Y-3706228D01*
X71670952Y-2277657D02*
X71600000Y-2206228D01*
X71529047Y-2063371D01*
X71529047Y-1706228D01*
X71600000Y-1563371D01*
X71670952Y-1491942D01*
X71812857Y-1420514D01*
X71954761Y-1420514D01*
X72167619Y-1491942D01*
X73019047Y-2349085D01*
X73019047Y-1420514D01*
X75554047Y-3706228D02*
X74064047Y-3706228D01*
X74064047Y-3349085D01*
X74135000Y-3134800D01*
X74276904Y-2991942D01*
X74418809Y-2920514D01*
X74702619Y-2849085D01*
X74915476Y-2849085D01*
X75199285Y-2920514D01*
X75341190Y-2991942D01*
X75483095Y-3134800D01*
X75554047Y-3349085D01*
X75554047Y-3706228D01*
X74064047Y-2349085D02*
X74064047Y-1420514D01*
X74631666Y-1920514D01*
X74631666Y-1706228D01*
X74702619Y-1563371D01*
X74773571Y-1491942D01*
X74915476Y-1420514D01*
X75270238Y-1420514D01*
X75412142Y-1491942D01*
X75483095Y-1563371D01*
X75554047Y-1706228D01*
X75554047Y-2134800D01*
X75483095Y-2277657D01*
X75412142Y-2349085D01*
X78089047Y-3706228D02*
X76599047Y-3706228D01*
X76599047Y-3349085D01*
X76670000Y-3134800D01*
X76811904Y-2991942D01*
X76953809Y-2920514D01*
X77237619Y-2849085D01*
X77450476Y-2849085D01*
X77734285Y-2920514D01*
X77876190Y-2991942D01*
X78018095Y-3134800D01*
X78089047Y-3349085D01*
X78089047Y-3706228D01*
X77095714Y-1563371D02*
X78089047Y-1563371D01*
X76528095Y-1920514D02*
X77592380Y-2277657D01*
X77592380Y-1349085D01*
X80624047Y-3706228D02*
X79134047Y-3706228D01*
X79134047Y-3349085D01*
X79205000Y-3134800D01*
X79346904Y-2991942D01*
X79488809Y-2920514D01*
X79772619Y-2849085D01*
X79985476Y-2849085D01*
X80269285Y-2920514D01*
X80411190Y-2991942D01*
X80553095Y-3134800D01*
X80624047Y-3349085D01*
X80624047Y-3706228D01*
X79134047Y-1491942D02*
X79134047Y-2206228D01*
X79843571Y-2277657D01*
X79772619Y-2206228D01*
X79701666Y-2063371D01*
X79701666Y-1706228D01*
X79772619Y-1563371D01*
X79843571Y-1491942D01*
X79985476Y-1420514D01*
X80340238Y-1420514D01*
X80482142Y-1491942D01*
X80553095Y-1563371D01*
X80624047Y-1706228D01*
X80624047Y-2063371D01*
X80553095Y-2206228D01*
X80482142Y-2277657D01*
X83159047Y-3706228D02*
X81669047Y-3706228D01*
X81669047Y-3349085D01*
X81740000Y-3134800D01*
X81881904Y-2991942D01*
X82023809Y-2920514D01*
X82307619Y-2849085D01*
X82520476Y-2849085D01*
X82804285Y-2920514D01*
X82946190Y-2991942D01*
X83088095Y-3134800D01*
X83159047Y-3349085D01*
X83159047Y-3706228D01*
X81669047Y-1563371D02*
X81669047Y-1849085D01*
X81740000Y-1991942D01*
X81810952Y-2063371D01*
X82023809Y-2206228D01*
X82307619Y-2277657D01*
X82875238Y-2277657D01*
X83017142Y-2206228D01*
X83088095Y-2134800D01*
X83159047Y-1991942D01*
X83159047Y-1706228D01*
X83088095Y-1563371D01*
X83017142Y-1491942D01*
X82875238Y-1420514D01*
X82520476Y-1420514D01*
X82378571Y-1491942D01*
X82307619Y-1563371D01*
X82236666Y-1706228D01*
X82236666Y-1991942D01*
X82307619Y-2134800D01*
X82378571Y-2206228D01*
X82520476Y-2277657D01*
X85694047Y-3706228D02*
X84204047Y-3706228D01*
X84204047Y-3349085D01*
X84275000Y-3134800D01*
X84416904Y-2991942D01*
X84558809Y-2920514D01*
X84842619Y-2849085D01*
X85055476Y-2849085D01*
X85339285Y-2920514D01*
X85481190Y-2991942D01*
X85623095Y-3134800D01*
X85694047Y-3349085D01*
X85694047Y-3706228D01*
X84204047Y-2349085D02*
X84204047Y-1349085D01*
X85694047Y-1991942D01*
X86739047Y-3349085D02*
X86739047Y-2491942D01*
X88229047Y-2920514D02*
X86739047Y-2920514D01*
X88229047Y-2134800D02*
X87235714Y-1349085D01*
X87235714Y-2134800D02*
X88229047Y-1349085D01*
X90764047Y-2634800D02*
X90054523Y-3134800D01*
X90764047Y-3491942D02*
X89274047Y-3491942D01*
X89274047Y-2920514D01*
X89345000Y-2777657D01*
X89415952Y-2706228D01*
X89557857Y-2634800D01*
X89770714Y-2634800D01*
X89912619Y-2706228D01*
X89983571Y-2777657D01*
X90054523Y-2920514D01*
X90054523Y-3491942D01*
X90764047Y-2134800D02*
X89770714Y-1349085D01*
X89770714Y-2134800D02*
X90764047Y-1349085D01*
X91809047Y-6706228D02*
X93015238Y-6706228D01*
X93157142Y-6634800D01*
X93228095Y-6563371D01*
X93299047Y-6420514D01*
X93299047Y-6134800D01*
X93228095Y-5991942D01*
X93157142Y-5920514D01*
X93015238Y-5849085D01*
X91809047Y-5849085D01*
X93228095Y-5206228D02*
X93299047Y-4991942D01*
X93299047Y-4634800D01*
X93228095Y-4491942D01*
X93157142Y-4420514D01*
X93015238Y-4349085D01*
X92873333Y-4349085D01*
X92731428Y-4420514D01*
X92660476Y-4491942D01*
X92589523Y-4634800D01*
X92518571Y-4920514D01*
X92447619Y-5063371D01*
X92376666Y-5134800D01*
X92234761Y-5206228D01*
X92092857Y-5206228D01*
X91950952Y-5134800D01*
X91880000Y-5063371D01*
X91809047Y-4920514D01*
X91809047Y-4563371D01*
X91880000Y-4349085D01*
X93299047Y-2849085D02*
X92589523Y-3349085D01*
X93299047Y-3706228D02*
X91809047Y-3706228D01*
X91809047Y-3134800D01*
X91880000Y-2991942D01*
X91950952Y-2920514D01*
X92092857Y-2849085D01*
X92305714Y-2849085D01*
X92447619Y-2920514D01*
X92518571Y-2991942D01*
X92589523Y-3134800D01*
X92589523Y-3706228D01*
X93299047Y-1420514D02*
X93299047Y-2277657D01*
X93299047Y-1849085D02*
X91809047Y-1849085D01*
X92021904Y-1991942D01*
X92163809Y-2134800D01*
X92234761Y-2277657D01*
X94344047Y-6706228D02*
X95550238Y-6706228D01*
X95692142Y-6634800D01*
X95763095Y-6563371D01*
X95834047Y-6420514D01*
X95834047Y-6134800D01*
X95763095Y-5991942D01*
X95692142Y-5920514D01*
X95550238Y-5849085D01*
X94344047Y-5849085D01*
X95763095Y-5206228D02*
X95834047Y-4991942D01*
X95834047Y-4634800D01*
X95763095Y-4491942D01*
X95692142Y-4420514D01*
X95550238Y-4349085D01*
X95408333Y-4349085D01*
X95266428Y-4420514D01*
X95195476Y-4491942D01*
X95124523Y-4634800D01*
X95053571Y-4920514D01*
X94982619Y-5063371D01*
X94911666Y-5134800D01*
X94769761Y-5206228D01*
X94627857Y-5206228D01*
X94485952Y-5134800D01*
X94415000Y-5063371D01*
X94344047Y-4920514D01*
X94344047Y-4563371D01*
X94415000Y-4349085D01*
X95834047Y-2849085D02*
X95124523Y-3349085D01*
X95834047Y-3706228D02*
X94344047Y-3706228D01*
X94344047Y-3134800D01*
X94415000Y-2991942D01*
X94485952Y-2920514D01*
X94627857Y-2849085D01*
X94840714Y-2849085D01*
X94982619Y-2920514D01*
X95053571Y-2991942D01*
X95124523Y-3134800D01*
X95124523Y-3706228D01*
X94485952Y-2277657D02*
X94415000Y-2206228D01*
X94344047Y-2063371D01*
X94344047Y-1706228D01*
X94415000Y-1563371D01*
X94485952Y-1491942D01*
X94627857Y-1420514D01*
X94769761Y-1420514D01*
X94982619Y-1491942D01*
X95834047Y-2349085D01*
X95834047Y-1420514D01*
X96879047Y-6706228D02*
X98085238Y-6706228D01*
X98227142Y-6634800D01*
X98298095Y-6563371D01*
X98369047Y-6420514D01*
X98369047Y-6134800D01*
X98298095Y-5991942D01*
X98227142Y-5920514D01*
X98085238Y-5849085D01*
X96879047Y-5849085D01*
X98298095Y-5206228D02*
X98369047Y-4991942D01*
X98369047Y-4634800D01*
X98298095Y-4491942D01*
X98227142Y-4420514D01*
X98085238Y-4349085D01*
X97943333Y-4349085D01*
X97801428Y-4420514D01*
X97730476Y-4491942D01*
X97659523Y-4634800D01*
X97588571Y-4920514D01*
X97517619Y-5063371D01*
X97446666Y-5134800D01*
X97304761Y-5206228D01*
X97162857Y-5206228D01*
X97020952Y-5134800D01*
X96950000Y-5063371D01*
X96879047Y-4920514D01*
X96879047Y-4563371D01*
X96950000Y-4349085D01*
X98369047Y-2849085D02*
X97659523Y-3349085D01*
X98369047Y-3706228D02*
X96879047Y-3706228D01*
X96879047Y-3134800D01*
X96950000Y-2991942D01*
X97020952Y-2920514D01*
X97162857Y-2849085D01*
X97375714Y-2849085D01*
X97517619Y-2920514D01*
X97588571Y-2991942D01*
X97659523Y-3134800D01*
X97659523Y-3706228D01*
X96879047Y-2349085D02*
X96879047Y-1420514D01*
X97446666Y-1920514D01*
X97446666Y-1706228D01*
X97517619Y-1563371D01*
X97588571Y-1491942D01*
X97730476Y-1420514D01*
X98085238Y-1420514D01*
X98227142Y-1491942D01*
X98298095Y-1563371D01*
X98369047Y-1706228D01*
X98369047Y-2134800D01*
X98298095Y-2277657D01*
X98227142Y-2349085D01*
D14*
X2743200Y10345420D02*
X2743200Y233680D01*
X1173480Y10345420D02*
X2743200Y10345420D01*
X-7620Y9164320D02*
X1173480Y10345420D01*
X-7620Y233680D02*
X-7620Y9164320D01*
D13*
X2207651Y4049735D02*
X707651Y4049735D01*
X707651Y4621163D01*
X779080Y4764020D01*
X850508Y4835449D01*
X993365Y4906878D01*
X1207651Y4906878D01*
X1350508Y4835449D01*
X1421937Y4764020D01*
X1493365Y4621163D01*
X1493365Y4049735D01*
X2207651Y5549735D02*
X1207651Y5549735D01*
X707651Y5549735D02*
X779080Y5478306D01*
X850508Y5549735D01*
X779080Y5621163D01*
X707651Y5549735D01*
X850508Y5549735D01*
X1207651Y6264020D02*
X2207651Y6264020D01*
X1350508Y6264020D02*
X1279080Y6335449D01*
X1207651Y6478306D01*
X1207651Y6692592D01*
X1279080Y6835449D01*
X1421937Y6906878D01*
X2207651Y6906878D01*
X2207651Y9549735D02*
X2207651Y8692592D01*
X2207651Y9121163D02*
X707651Y9121163D01*
X921937Y8978306D01*
X1064794Y8835449D01*
X1136222Y8692592D01*
D15*
%TO.C,U2*%
X17720000Y44490200D02*
X17720000Y39430200D01*
X58480000Y44490200D02*
X17720000Y44490200D01*
X58480000Y32370200D02*
X58480000Y44490200D01*
X17720000Y32370200D02*
X58480000Y32370200D01*
X17720000Y37430200D02*
X17720000Y32370200D01*
X17720000Y39430200D02*
G75*
G02*
X17720000Y37430200I0J-1000000D01*
G01*
%TO.C,RN1*%
X55880000Y8080200D02*
X55880000Y5280200D01*
X66210000Y8080200D02*
X53170000Y8080200D01*
X66210000Y5280200D02*
X66210000Y8080200D01*
X53170000Y5280200D02*
X66210000Y5280200D01*
X53170000Y8080200D02*
X53170000Y5280200D01*
%TO.C,U4*%
X76140000Y40680200D02*
X76140000Y39430200D01*
X96580000Y40680200D02*
X76140000Y40680200D01*
X96580000Y36180200D02*
X96580000Y40680200D01*
X76140000Y36180200D02*
X96580000Y36180200D01*
X76140000Y37430200D02*
X76140000Y36180200D01*
X76140000Y39430200D02*
G75*
G02*
X76140000Y37430200I0J-1000000D01*
G01*
%TO.C,JP5*%
X83760000Y24400200D02*
X83760000Y25730200D01*
X85090000Y24400200D02*
X83760000Y24400200D01*
X83760000Y27000200D02*
X83760000Y29600200D01*
X86360000Y27000200D02*
X83760000Y27000200D01*
X86360000Y24400200D02*
X86360000Y27000200D01*
X83760000Y29600200D02*
X96580000Y29600200D01*
X86360000Y24400200D02*
X96580000Y24400200D01*
X96580000Y24400200D02*
X96580000Y29600200D01*
%TO.C,JP4*%
X81220000Y32140200D02*
X82550000Y32140200D01*
X81220000Y30810200D02*
X81220000Y32140200D01*
X81220000Y29540200D02*
X83880000Y29540200D01*
X83880000Y29540200D02*
X83880000Y24400200D01*
X81220000Y29540200D02*
X81220000Y24400200D01*
X81220000Y24400200D02*
X83880000Y24400200D01*
%TO.C,C4*%
X79389000Y45700200D02*
X78131000Y45700200D01*
X79389000Y43860200D02*
X78131000Y43860200D01*
%TO.C,X1*%
X79910000Y5310200D02*
X92060000Y5310200D01*
X92810000Y6060200D02*
X92810000Y17460200D01*
X92060000Y18210200D02*
X80660000Y18210200D01*
X79910000Y17460200D02*
X79910000Y5310200D01*
X80660000Y18210200D02*
G75*
G03*
X79910000Y17460200I0J-750000D01*
G01*
X92810000Y17460200D02*
G75*
G03*
X92060000Y18210200I-750000J0D01*
G01*
X92060000Y5310200D02*
G75*
G03*
X92810000Y6060200I0J750000D01*
G01*
%TO.C,U3*%
X7090000Y16260200D02*
X10690000Y16260200D01*
X10728478Y16271722D02*
G75*
G03*
X8890000Y20710200I-1838478J1838478D01*
G01*
X7051522Y16271722D02*
G75*
G02*
X8890000Y20710200I1838478J1838478D01*
G01*
%TO.C,JP3*%
X76140000Y29600200D02*
X77470000Y29600200D01*
X76140000Y28270200D02*
X76140000Y29600200D01*
X76140000Y27000200D02*
X78800000Y27000200D01*
X78800000Y27000200D02*
X78800000Y24400200D01*
X76140000Y27000200D02*
X76140000Y24400200D01*
X76140000Y24400200D02*
X78800000Y24400200D01*
%TO.C,JP2*%
X65980000Y32020200D02*
X68640000Y32020200D01*
X65980000Y37160200D02*
X65980000Y32020200D01*
X68640000Y37160200D02*
X68640000Y32020200D01*
X65980000Y37160200D02*
X68640000Y37160200D01*
X65980000Y38430200D02*
X65980000Y39760200D01*
X65980000Y39760200D02*
X67310000Y39760200D01*
%TO.C,JP1*%
X63440000Y39760200D02*
X64770000Y39760200D01*
X63440000Y38430200D02*
X63440000Y39760200D01*
X63440000Y37160200D02*
X66100000Y37160200D01*
X66100000Y37160200D02*
X66100000Y32020200D01*
X63440000Y37160200D02*
X63440000Y32020200D01*
X63440000Y32020200D02*
X66100000Y32020200D01*
%TO.C,C5*%
X8241000Y14015200D02*
X9499000Y14015200D01*
X8241000Y15855200D02*
X9499000Y15855200D01*
%TO.C,C1*%
X42531000Y7030200D02*
X43789000Y7030200D01*
X42531000Y8870200D02*
X43789000Y8870200D01*
%TO.C,C2*%
X17430000Y44131200D02*
X17430000Y45389200D01*
X15590000Y44131200D02*
X15590000Y45389200D01*
%TO.C,C3*%
X83171000Y18460200D02*
X84429000Y18460200D01*
X83171000Y20300200D02*
X84429000Y20300200D01*
%TO.C,U1*%
X17720000Y24170200D02*
X17720000Y19110200D01*
X68640000Y24170200D02*
X17720000Y24170200D01*
X68640000Y12050200D02*
X68640000Y24170200D01*
X17720000Y12050200D02*
X68640000Y12050200D01*
X17720000Y17110200D02*
X17720000Y12050200D01*
X17720000Y19110200D02*
G75*
G02*
X17720000Y17110200I0J-1000000D01*
G01*
%TO.C,J2*%
X40580000Y2810200D02*
X40580000Y4140200D01*
X41910000Y2810200D02*
X40580000Y2810200D01*
X43180000Y2810200D02*
X43180000Y5470200D01*
X43180000Y5470200D02*
X66100000Y5470200D01*
X43180000Y2810200D02*
X66100000Y2810200D01*
X66100000Y2810200D02*
X66100000Y5470200D01*
%TO.C,J1*%
X-60000Y270200D02*
X-60000Y1600200D01*
X1270000Y270200D02*
X-60000Y270200D01*
X2540000Y270200D02*
X2540000Y2930200D01*
X2540000Y2930200D02*
X99120000Y2930200D01*
X2540000Y270200D02*
X99120000Y270200D01*
X99120000Y270200D02*
X99120000Y2930200D01*
%TD*%
D16*
%TO.C,*%
X6630000Y33350200D02*
G75*
G03*
X6630000Y33350200I-1550000J0D01*
G01*
%TD*%
%TO.C,U2*%
D10*
X16172380Y37668296D02*
X16981904Y37668296D01*
X17077142Y37715915D01*
X17124761Y37763534D01*
X17172380Y37858772D01*
X17172380Y38049248D01*
X17124761Y38144486D01*
X17077142Y38192105D01*
X16981904Y38239724D01*
X16172380Y38239724D01*
X16267619Y38668296D02*
X16220000Y38715915D01*
X16172380Y38811153D01*
X16172380Y39049248D01*
X16220000Y39144486D01*
X16267619Y39192105D01*
X16362857Y39239724D01*
X16458095Y39239724D01*
X16600952Y39192105D01*
X17172380Y38620677D01*
X17172380Y39239724D01*
%TO.C,RN1*%
X50744523Y6227820D02*
X50411190Y6704010D01*
X50173095Y6227820D02*
X50173095Y7227820D01*
X50554047Y7227820D01*
X50649285Y7180200D01*
X50696904Y7132581D01*
X50744523Y7037343D01*
X50744523Y6894486D01*
X50696904Y6799248D01*
X50649285Y6751629D01*
X50554047Y6704010D01*
X50173095Y6704010D01*
X51173095Y6227820D02*
X51173095Y7227820D01*
X51744523Y6227820D01*
X51744523Y7227820D01*
X52744523Y6227820D02*
X52173095Y6227820D01*
X52458809Y6227820D02*
X52458809Y7227820D01*
X52363571Y7084962D01*
X52268333Y6989724D01*
X52173095Y6942105D01*
%TO.C,U4*%
X74592380Y37668296D02*
X75401904Y37668296D01*
X75497142Y37715915D01*
X75544761Y37763534D01*
X75592380Y37858772D01*
X75592380Y38049248D01*
X75544761Y38144486D01*
X75497142Y38192105D01*
X75401904Y38239724D01*
X74592380Y38239724D01*
X74925714Y39144486D02*
X75592380Y39144486D01*
X74544761Y38906391D02*
X75259047Y38668296D01*
X75259047Y39287343D01*
%TO.C,JP5*%
X89336666Y31357820D02*
X89336666Y30643534D01*
X89289047Y30500677D01*
X89193809Y30405439D01*
X89050952Y30357820D01*
X88955714Y30357820D01*
X89812857Y30357820D02*
X89812857Y31357820D01*
X90193809Y31357820D01*
X90289047Y31310200D01*
X90336666Y31262581D01*
X90384285Y31167343D01*
X90384285Y31024486D01*
X90336666Y30929248D01*
X90289047Y30881629D01*
X90193809Y30834010D01*
X89812857Y30834010D01*
X91289047Y31357820D02*
X90812857Y31357820D01*
X90765238Y30881629D01*
X90812857Y30929248D01*
X90908095Y30976867D01*
X91146190Y30976867D01*
X91241428Y30929248D01*
X91289047Y30881629D01*
X91336666Y30786391D01*
X91336666Y30548296D01*
X91289047Y30453058D01*
X91241428Y30405439D01*
X91146190Y30357820D01*
X90908095Y30357820D01*
X90812857Y30405439D01*
X90765238Y30453058D01*
%TO.C,JP4*%
X79462380Y29976867D02*
X80176666Y29976867D01*
X80319523Y29929248D01*
X80414761Y29834010D01*
X80462380Y29691153D01*
X80462380Y29595915D01*
X80462380Y30453058D02*
X79462380Y30453058D01*
X79462380Y30834010D01*
X79510000Y30929248D01*
X79557619Y30976867D01*
X79652857Y31024486D01*
X79795714Y31024486D01*
X79890952Y30976867D01*
X79938571Y30929248D01*
X79986190Y30834010D01*
X79986190Y30453058D01*
X79795714Y31881629D02*
X80462380Y31881629D01*
X79414761Y31643534D02*
X80129047Y31405439D01*
X80129047Y32024486D01*
%TO.C,C4*%
X74763333Y44423058D02*
X74715714Y44375439D01*
X74572857Y44327820D01*
X74477619Y44327820D01*
X74334761Y44375439D01*
X74239523Y44470677D01*
X74191904Y44565915D01*
X74144285Y44756391D01*
X74144285Y44899248D01*
X74191904Y45089724D01*
X74239523Y45184962D01*
X74334761Y45280200D01*
X74477619Y45327820D01*
X74572857Y45327820D01*
X74715714Y45280200D01*
X74763333Y45232581D01*
X75620476Y44994486D02*
X75620476Y44327820D01*
X75382380Y45375439D02*
X75144285Y44661153D01*
X75763333Y44661153D01*
%TO.C,X1*%
X86820476Y19757820D02*
X87487142Y18757820D01*
X87487142Y19757820D02*
X86820476Y18757820D01*
X88391904Y18757820D02*
X87820476Y18757820D01*
X88106190Y18757820D02*
X88106190Y19757820D01*
X88010952Y19614962D01*
X87915714Y19519724D01*
X87820476Y19472105D01*
%TO.C,U3*%
X8128095Y22217820D02*
X8128095Y21408296D01*
X8175714Y21313058D01*
X8223333Y21265439D01*
X8318571Y21217820D01*
X8509047Y21217820D01*
X8604285Y21265439D01*
X8651904Y21313058D01*
X8699523Y21408296D01*
X8699523Y22217820D01*
X9080476Y22217820D02*
X9699523Y22217820D01*
X9366190Y21836867D01*
X9509047Y21836867D01*
X9604285Y21789248D01*
X9651904Y21741629D01*
X9699523Y21646391D01*
X9699523Y21408296D01*
X9651904Y21313058D01*
X9604285Y21265439D01*
X9509047Y21217820D01*
X9223333Y21217820D01*
X9128095Y21265439D01*
X9080476Y21313058D01*
%TO.C,JP3*%
X74382380Y27436867D02*
X75096666Y27436867D01*
X75239523Y27389248D01*
X75334761Y27294010D01*
X75382380Y27151153D01*
X75382380Y27055915D01*
X75382380Y27913058D02*
X74382380Y27913058D01*
X74382380Y28294010D01*
X74430000Y28389248D01*
X74477619Y28436867D01*
X74572857Y28484486D01*
X74715714Y28484486D01*
X74810952Y28436867D01*
X74858571Y28389248D01*
X74906190Y28294010D01*
X74906190Y27913058D01*
X74382380Y28817820D02*
X74382380Y29436867D01*
X74763333Y29103534D01*
X74763333Y29246391D01*
X74810952Y29341629D01*
X74858571Y29389248D01*
X74953809Y29436867D01*
X75191904Y29436867D01*
X75287142Y29389248D01*
X75334761Y29341629D01*
X75382380Y29246391D01*
X75382380Y28960677D01*
X75334761Y28865439D01*
X75287142Y28817820D01*
%TO.C,JP2*%
X66762380Y29341867D02*
X67476666Y29341867D01*
X67619523Y29294248D01*
X67714761Y29199010D01*
X67762380Y29056153D01*
X67762380Y28960915D01*
X67762380Y29818058D02*
X66762380Y29818058D01*
X66762380Y30199010D01*
X66810000Y30294248D01*
X66857619Y30341867D01*
X66952857Y30389486D01*
X67095714Y30389486D01*
X67190952Y30341867D01*
X67238571Y30294248D01*
X67286190Y30199010D01*
X67286190Y29818058D01*
X66857619Y30770439D02*
X66810000Y30818058D01*
X66762380Y30913296D01*
X66762380Y31151391D01*
X66810000Y31246629D01*
X66857619Y31294248D01*
X66952857Y31341867D01*
X67048095Y31341867D01*
X67190952Y31294248D01*
X67762380Y30722820D01*
X67762380Y31341867D01*
%TO.C,JP1*%
X64222380Y29341867D02*
X64936666Y29341867D01*
X65079523Y29294248D01*
X65174761Y29199010D01*
X65222380Y29056153D01*
X65222380Y28960915D01*
X65222380Y29818058D02*
X64222380Y29818058D01*
X64222380Y30199010D01*
X64270000Y30294248D01*
X64317619Y30341867D01*
X64412857Y30389486D01*
X64555714Y30389486D01*
X64650952Y30341867D01*
X64698571Y30294248D01*
X64746190Y30199010D01*
X64746190Y29818058D01*
X65222380Y31341867D02*
X65222380Y30770439D01*
X65222380Y31056153D02*
X64222380Y31056153D01*
X64365238Y30960915D01*
X64460476Y30865677D01*
X64508095Y30770439D01*
%TO.C,C5*%
X4913333Y14578058D02*
X4865714Y14530439D01*
X4722857Y14482820D01*
X4627619Y14482820D01*
X4484761Y14530439D01*
X4389523Y14625677D01*
X4341904Y14720915D01*
X4294285Y14911391D01*
X4294285Y15054248D01*
X4341904Y15244724D01*
X4389523Y15339962D01*
X4484761Y15435200D01*
X4627619Y15482820D01*
X4722857Y15482820D01*
X4865714Y15435200D01*
X4913333Y15387581D01*
X5818095Y15482820D02*
X5341904Y15482820D01*
X5294285Y15006629D01*
X5341904Y15054248D01*
X5437142Y15101867D01*
X5675238Y15101867D01*
X5770476Y15054248D01*
X5818095Y15006629D01*
X5865714Y14911391D01*
X5865714Y14673296D01*
X5818095Y14578058D01*
X5770476Y14530439D01*
X5675238Y14482820D01*
X5437142Y14482820D01*
X5341904Y14530439D01*
X5294285Y14578058D01*
%TO.C,C1*%
X39203333Y7593058D02*
X39155714Y7545439D01*
X39012857Y7497820D01*
X38917619Y7497820D01*
X38774761Y7545439D01*
X38679523Y7640677D01*
X38631904Y7735915D01*
X38584285Y7926391D01*
X38584285Y8069248D01*
X38631904Y8259724D01*
X38679523Y8354962D01*
X38774761Y8450200D01*
X38917619Y8497820D01*
X39012857Y8497820D01*
X39155714Y8450200D01*
X39203333Y8402581D01*
X40155714Y7497820D02*
X39584285Y7497820D01*
X39870000Y7497820D02*
X39870000Y8497820D01*
X39774761Y8354962D01*
X39679523Y8259724D01*
X39584285Y8212105D01*
%TO.C,C2*%
X14962142Y44613534D02*
X15009761Y44565915D01*
X15057380Y44423058D01*
X15057380Y44327820D01*
X15009761Y44184962D01*
X14914523Y44089724D01*
X14819285Y44042105D01*
X14628809Y43994486D01*
X14485952Y43994486D01*
X14295476Y44042105D01*
X14200238Y44089724D01*
X14105000Y44184962D01*
X14057380Y44327820D01*
X14057380Y44423058D01*
X14105000Y44565915D01*
X14152619Y44613534D01*
X14152619Y44994486D02*
X14105000Y45042105D01*
X14057380Y45137343D01*
X14057380Y45375439D01*
X14105000Y45470677D01*
X14152619Y45518296D01*
X14247857Y45565915D01*
X14343095Y45565915D01*
X14485952Y45518296D01*
X15057380Y44946867D01*
X15057380Y45565915D01*
%TO.C,C3*%
X79843333Y19023058D02*
X79795714Y18975439D01*
X79652857Y18927820D01*
X79557619Y18927820D01*
X79414761Y18975439D01*
X79319523Y19070677D01*
X79271904Y19165915D01*
X79224285Y19356391D01*
X79224285Y19499248D01*
X79271904Y19689724D01*
X79319523Y19784962D01*
X79414761Y19880200D01*
X79557619Y19927820D01*
X79652857Y19927820D01*
X79795714Y19880200D01*
X79843333Y19832581D01*
X80176666Y19927820D02*
X80795714Y19927820D01*
X80462380Y19546867D01*
X80605238Y19546867D01*
X80700476Y19499248D01*
X80748095Y19451629D01*
X80795714Y19356391D01*
X80795714Y19118296D01*
X80748095Y19023058D01*
X80700476Y18975439D01*
X80605238Y18927820D01*
X80319523Y18927820D01*
X80224285Y18975439D01*
X80176666Y19023058D01*
%TO.C,U1*%
X16172380Y17348296D02*
X16981904Y17348296D01*
X17077142Y17395915D01*
X17124761Y17443534D01*
X17172380Y17538772D01*
X17172380Y17729248D01*
X17124761Y17824486D01*
X17077142Y17872105D01*
X16981904Y17919724D01*
X16172380Y17919724D01*
X17172380Y18919724D02*
X17172380Y18348296D01*
X17172380Y18634010D02*
X16172380Y18634010D01*
X16315238Y18538772D01*
X16410476Y18443534D01*
X16458095Y18348296D01*
%TO.C,J1*%
X-1607620Y1266867D02*
X-893334Y1266867D01*
X-750477Y1219248D01*
X-655239Y1124010D01*
X-607620Y981153D01*
X-607620Y885915D01*
X-607620Y2266867D02*
X-607620Y1695439D01*
X-607620Y1981153D02*
X-1607620Y1981153D01*
X-1464762Y1885915D01*
X-1369524Y1790677D01*
X-1321905Y1695439D01*
%TD*%
M02*
