%TF.GenerationSoftware,KiCad,Pcbnew,(5.1.6)-1*%
%TF.CreationDate,2020-11-22T17:12:32-08:00*%
%TF.ProjectId,rc-z80ram,72632d7a-3830-4726-916d-2e6b69636164,rev?*%
%TF.SameCoordinates,PX9157080PY9071968*%
%TF.FileFunction,Copper,L1,Top*%
%TF.FilePolarity,Positive*%
%FSLAX46Y46*%
G04 Gerber Fmt 4.6, Leading zero omitted, Abs format (unit mm)*
G04 Created by KiCad (PCBNEW (5.1.6)-1) date 2020-11-22 17:12:32*
%MOMM*%
%LPD*%
G01*
G04 APERTURE LIST*
%TA.AperFunction,ComponentPad*%
%ADD10O,1.600000X1.600000*%
%TD*%
%TA.AperFunction,ComponentPad*%
%ADD11R,1.600000X1.600000*%
%TD*%
%TA.AperFunction,ComponentPad*%
%ADD12O,1.600000X2.400000*%
%TD*%
%TA.AperFunction,ComponentPad*%
%ADD13R,1.600000X2.400000*%
%TD*%
%TA.AperFunction,ComponentPad*%
%ADD14O,1.700000X1.700000*%
%TD*%
%TA.AperFunction,ComponentPad*%
%ADD15C,1.700000*%
%TD*%
%TA.AperFunction,ComponentPad*%
%ADD16C,1.600000*%
%TD*%
%TA.AperFunction,ComponentPad*%
%ADD17C,1.300000*%
%TD*%
%TA.AperFunction,ComponentPad*%
%ADD18R,1.700000X1.700000*%
%TD*%
%TA.AperFunction,ViaPad*%
%ADD19C,0.600000*%
%TD*%
%TA.AperFunction,ViaPad*%
%ADD20C,0.900001*%
%TD*%
%TA.AperFunction,Conductor*%
%ADD21C,0.635000*%
%TD*%
%TA.AperFunction,Conductor*%
%ADD22C,0.508000*%
%TD*%
%TA.AperFunction,Conductor*%
%ADD23C,0.254000*%
%TD*%
%TA.AperFunction,Conductor*%
%ADD24C,0.250000*%
%TD*%
G04 APERTURE END LIST*
D10*
%TO.P,RN1,5*%
%TO.N,~NMI*%
X64770000Y6680200D03*
%TO.P,RN1,4*%
%TO.N,~WAIT*%
X62230000Y6680200D03*
%TO.P,RN1,3*%
%TO.N,~BUSRQ*%
X59690000Y6680200D03*
%TO.P,RN1,2*%
%TO.N,~INT*%
X57150000Y6680200D03*
D11*
%TO.P,RN1,1*%
%TO.N,+5V*%
X54610000Y6680200D03*
%TD*%
D12*
%TO.P,U4,16*%
%TO.N,+5V*%
X78740000Y28270200D03*
%TO.P,U4,8*%
%TO.N,GND*%
X96520000Y20650200D03*
%TO.P,U4,15*%
%TO.N,/DRESET*%
X81280000Y28270200D03*
%TO.P,U4,7*%
%TO.N,/DIV3*%
X93980000Y20650200D03*
%TO.P,U4,14*%
%TO.N,OSC*%
X83820000Y28270200D03*
%TO.P,U4,6*%
%TO.N,Net-(U4-Pad6)*%
X91440000Y20650200D03*
%TO.P,U4,13*%
%TO.N,GND*%
X86360000Y28270200D03*
%TO.P,U4,5*%
%TO.N,/DIV6*%
X88900000Y20650200D03*
%TO.P,U4,12*%
%TO.N,Net-(U4-Pad12)*%
X88900000Y28270200D03*
%TO.P,U4,4*%
%TO.N,/DIV2*%
X86360000Y20650200D03*
%TO.P,U4,11*%
%TO.N,Net-(U4-Pad11)*%
X91440000Y28270200D03*
%TO.P,U4,3*%
%TO.N,/CDIV*%
X83820000Y20650200D03*
%TO.P,U4,10*%
%TO.N,/DIV4*%
X93980000Y28270200D03*
%TO.P,U4,2*%
%TO.N,Net-(U4-Pad2)*%
X81280000Y20650200D03*
%TO.P,U4,9*%
%TO.N,/DIV8*%
X96520000Y28270200D03*
D13*
%TO.P,U4,1*%
%TO.N,Net-(U4-Pad1)*%
X78740000Y20650200D03*
%TD*%
D14*
%TO.P,JP5,10*%
%TO.N,/DIV8*%
X96520000Y13030200D03*
%TO.P,JP5,9*%
%TO.N,/DRESET*%
X96520000Y10490200D03*
%TO.P,JP5,8*%
%TO.N,/DIV6*%
X93980000Y13030200D03*
%TO.P,JP5,7*%
%TO.N,/DRESET*%
X93980000Y10490200D03*
%TO.P,JP5,6*%
%TO.N,/DIV4*%
X91440000Y13030200D03*
%TO.P,JP5,5*%
%TO.N,/DRESET*%
X91440000Y10490200D03*
%TO.P,JP5,4*%
%TO.N,/DIV3*%
X88900000Y13030200D03*
%TO.P,JP5,3*%
%TO.N,/DRESET*%
X88900000Y10490200D03*
%TO.P,JP5,2*%
%TO.N,/DIV2*%
X86360000Y13030200D03*
D15*
%TO.P,JP5,1*%
%TO.N,/DRESET*%
X86360000Y10490200D03*
%TD*%
D14*
%TO.P,JP4,3*%
%TO.N,OSC*%
X83820000Y10490200D03*
%TO.P,JP4,2*%
%TO.N,CLK2*%
X83820000Y13030200D03*
D15*
%TO.P,JP4,1*%
%TO.N,/CDIV*%
X83820000Y15570200D03*
%TD*%
D16*
%TO.P,C4,2*%
%TO.N,+5V*%
X78780000Y30810200D03*
%TO.P,C4,1*%
%TO.N,GND*%
X81280000Y30810200D03*
%TD*%
%TO.P,X1,4*%
%TO.N,GND*%
X87630000Y35890200D03*
%TO.P,X1,5*%
%TO.N,OSC*%
X87630000Y43510200D03*
%TO.P,X1,8*%
%TO.N,+5V*%
X80010000Y43510200D03*
D11*
%TO.P,X1,1*%
%TO.N,Net-(X1-Pad1)*%
X80010000Y35890200D03*
%TD*%
D17*
%TO.P,U3,1*%
%TO.N,GND*%
X6985000Y19380200D03*
%TO.P,U3,3*%
%TO.N,+5V*%
X9525000Y19380200D03*
%TO.P,U3,2*%
%TO.N,~RESET*%
X8255000Y20650200D03*
%TD*%
D14*
%TO.P,JP3,2*%
%TO.N,OSC*%
X78740000Y10490200D03*
D15*
%TO.P,JP3,1*%
%TO.N,CLK*%
X78740000Y13030200D03*
%TD*%
%TO.P,JP2,1*%
%TO.N,+5V*%
X69850000Y38430200D03*
D14*
%TO.P,JP2,2*%
%TO.N,/CS2*%
X69850000Y35890200D03*
%TO.P,JP2,3*%
%TO.N,PAGE*%
X69850000Y33350200D03*
%TD*%
%TO.P,JP1,3*%
%TO.N,~MREQ*%
X67310000Y33350200D03*
%TO.P,JP1,2*%
%TO.N,/~CS1*%
X67310000Y35890200D03*
D15*
%TO.P,JP1,1*%
%TO.N,+5V*%
X67310000Y38430200D03*
%TD*%
D16*
%TO.P,C5,2*%
%TO.N,~RESET*%
X9485000Y16205200D03*
%TO.P,C5,1*%
%TO.N,GND*%
X6985000Y16205200D03*
%TD*%
%TO.P,C1,2*%
%TO.N,+5V*%
X44410000Y7950200D03*
%TO.P,C1,1*%
%TO.N,GND*%
X41910000Y7950200D03*
%TD*%
%TO.P,C2,2*%
%TO.N,+5V*%
X21590000Y46010200D03*
%TO.P,C2,1*%
%TO.N,GND*%
X21590000Y43510200D03*
%TD*%
%TO.P,C3,2*%
%TO.N,GND*%
X82510000Y47320200D03*
%TO.P,C3,1*%
%TO.N,+5V*%
X80010000Y47320200D03*
%TD*%
D12*
%TO.P,U2,32*%
%TO.N,+5V*%
X24130000Y46050200D03*
%TO.P,U2,16*%
%TO.N,GND*%
X62230000Y30810200D03*
%TO.P,U2,31*%
%TO.N,A15*%
X26670000Y46050200D03*
%TO.P,U2,15*%
%TO.N,D2*%
X59690000Y30810200D03*
%TO.P,U2,30*%
%TO.N,/CS2*%
X29210000Y46050200D03*
%TO.P,U2,14*%
%TO.N,D1*%
X57150000Y30810200D03*
%TO.P,U2,29*%
%TO.N,~WR*%
X31750000Y46050200D03*
%TO.P,U2,13*%
%TO.N,D0*%
X54610000Y30810200D03*
%TO.P,U2,28*%
%TO.N,A13*%
X34290000Y46050200D03*
%TO.P,U2,12*%
%TO.N,A0*%
X52070000Y30810200D03*
%TO.P,U2,27*%
%TO.N,A8*%
X36830000Y46050200D03*
%TO.P,U2,11*%
%TO.N,A1*%
X49530000Y30810200D03*
%TO.P,U2,26*%
%TO.N,A9*%
X39370000Y46050200D03*
%TO.P,U2,10*%
%TO.N,A2*%
X46990000Y30810200D03*
%TO.P,U2,25*%
%TO.N,A11*%
X41910000Y46050200D03*
%TO.P,U2,9*%
%TO.N,A3*%
X44450000Y30810200D03*
%TO.P,U2,24*%
%TO.N,~RD*%
X44450000Y46050200D03*
%TO.P,U2,8*%
%TO.N,A4*%
X41910000Y30810200D03*
%TO.P,U2,23*%
%TO.N,A10*%
X46990000Y46050200D03*
%TO.P,U2,7*%
%TO.N,A5*%
X39370000Y30810200D03*
%TO.P,U2,22*%
%TO.N,/~CS1*%
X49530000Y46050200D03*
%TO.P,U2,6*%
%TO.N,A6*%
X36830000Y30810200D03*
%TO.P,U2,21*%
%TO.N,D7*%
X52070000Y46050200D03*
%TO.P,U2,5*%
%TO.N,A7*%
X34290000Y30810200D03*
%TO.P,U2,20*%
%TO.N,D6*%
X54610000Y46050200D03*
%TO.P,U2,4*%
%TO.N,A12*%
X31750000Y30810200D03*
%TO.P,U2,19*%
%TO.N,D5*%
X57150000Y46050200D03*
%TO.P,U2,3*%
%TO.N,A14*%
X29210000Y30810200D03*
%TO.P,U2,18*%
%TO.N,D4*%
X59690000Y46050200D03*
%TO.P,U2,2*%
%TO.N,GND*%
X26670000Y30810200D03*
%TO.P,U2,17*%
%TO.N,D3*%
X62230000Y46050200D03*
D13*
%TO.P,U2,1*%
%TO.N,Net-(U2-Pad1)*%
X24130000Y30810200D03*
%TD*%
D12*
%TO.P,U1,40*%
%TO.N,A10*%
X19050000Y25730200D03*
%TO.P,U1,20*%
%TO.N,~IOREQ*%
X67310000Y10490200D03*
%TO.P,U1,39*%
%TO.N,A9*%
X21590000Y25730200D03*
%TO.P,U1,19*%
%TO.N,~MREQ*%
X64770000Y10490200D03*
%TO.P,U1,38*%
%TO.N,A8*%
X24130000Y25730200D03*
%TO.P,U1,18*%
%TO.N,~HALT*%
X62230000Y10490200D03*
%TO.P,U1,37*%
%TO.N,A7*%
X26670000Y25730200D03*
%TO.P,U1,17*%
%TO.N,~NMI*%
X59690000Y10490200D03*
%TO.P,U1,36*%
%TO.N,A6*%
X29210000Y25730200D03*
%TO.P,U1,16*%
%TO.N,~INT*%
X57150000Y10490200D03*
%TO.P,U1,35*%
%TO.N,A5*%
X31750000Y25730200D03*
%TO.P,U1,15*%
%TO.N,D1*%
X54610000Y10490200D03*
%TO.P,U1,34*%
%TO.N,A4*%
X34290000Y25730200D03*
%TO.P,U1,14*%
%TO.N,D0*%
X52070000Y10490200D03*
%TO.P,U1,33*%
%TO.N,A3*%
X36830000Y25730200D03*
%TO.P,U1,13*%
%TO.N,D7*%
X49530000Y10490200D03*
%TO.P,U1,32*%
%TO.N,A2*%
X39370000Y25730200D03*
%TO.P,U1,12*%
%TO.N,D2*%
X46990000Y10490200D03*
%TO.P,U1,31*%
%TO.N,A1*%
X41910000Y25730200D03*
%TO.P,U1,11*%
%TO.N,+5V*%
X44450000Y10490200D03*
%TO.P,U1,30*%
%TO.N,A0*%
X44450000Y25730200D03*
%TO.P,U1,10*%
%TO.N,D6*%
X41910000Y10490200D03*
%TO.P,U1,29*%
%TO.N,GND*%
X46990000Y25730200D03*
%TO.P,U1,9*%
%TO.N,D5*%
X39370000Y10490200D03*
%TO.P,U1,28*%
%TO.N,~RFSH*%
X49530000Y25730200D03*
%TO.P,U1,8*%
%TO.N,D3*%
X36830000Y10490200D03*
%TO.P,U1,27*%
%TO.N,~M1*%
X52070000Y25730200D03*
%TO.P,U1,7*%
%TO.N,D4*%
X34290000Y10490200D03*
%TO.P,U1,26*%
%TO.N,~RESET*%
X54610000Y25730200D03*
%TO.P,U1,6*%
%TO.N,CLK*%
X31750000Y10490200D03*
%TO.P,U1,25*%
%TO.N,~BUSRQ*%
X57150000Y25730200D03*
%TO.P,U1,5*%
%TO.N,A15*%
X29210000Y10490200D03*
%TO.P,U1,24*%
%TO.N,~WAIT*%
X59690000Y25730200D03*
%TO.P,U1,4*%
%TO.N,A14*%
X26670000Y10490200D03*
%TO.P,U1,23*%
%TO.N,~BUSACK*%
X62230000Y25730200D03*
%TO.P,U1,3*%
%TO.N,A13*%
X24130000Y10490200D03*
%TO.P,U1,22*%
%TO.N,~WR*%
X64770000Y25730200D03*
%TO.P,U1,2*%
%TO.N,A12*%
X21590000Y10490200D03*
%TO.P,U1,21*%
%TO.N,~RD*%
X67310000Y25730200D03*
D13*
%TO.P,U1,1*%
%TO.N,A11*%
X19050000Y10490200D03*
%TD*%
D14*
%TO.P,J2,10*%
%TO.N,~NMI*%
X64770000Y4140200D03*
%TO.P,J2,9*%
%TO.N,~WAIT*%
X62230000Y4140200D03*
%TO.P,J2,8*%
%TO.N,~BUSRQ*%
X59690000Y4140200D03*
%TO.P,J2,7*%
%TO.N,~HALT*%
X57150000Y4140200D03*
%TO.P,J2,6*%
%TO.N,~BUSACK*%
X54610000Y4140200D03*
%TO.P,J2,5*%
%TO.N,CLK2*%
X52070000Y4140200D03*
%TO.P,J2,4*%
%TO.N,PAGE*%
X49530000Y4140200D03*
%TO.P,J2,3*%
%TO.N,~RFSH*%
X46990000Y4140200D03*
%TO.P,J2,2*%
%TO.N,+5V*%
X44450000Y4140200D03*
D15*
%TO.P,J2,1*%
%TO.N,GND*%
X41910000Y4140200D03*
%TD*%
D14*
%TO.P,J1,39*%
%TO.N,Net-(J1-Pad39)*%
X97790000Y1600200D03*
%TO.P,J1,38*%
%TO.N,Net-(J1-Pad38)*%
X95250000Y1600200D03*
%TO.P,J1,37*%
%TO.N,Net-(J1-Pad37)*%
X92710000Y1600200D03*
%TO.P,J1,36*%
%TO.N,Net-(J1-Pad36)*%
X90170000Y1600200D03*
%TO.P,J1,35*%
%TO.N,Net-(J1-Pad35)*%
X87630000Y1600200D03*
%TO.P,J1,34*%
%TO.N,D7*%
X85090000Y1600200D03*
%TO.P,J1,33*%
%TO.N,D6*%
X82550000Y1600200D03*
%TO.P,J1,32*%
%TO.N,D5*%
X80010000Y1600200D03*
%TO.P,J1,31*%
%TO.N,D4*%
X77470000Y1600200D03*
%TO.P,J1,30*%
%TO.N,D3*%
X74930000Y1600200D03*
%TO.P,J1,29*%
%TO.N,D2*%
X72390000Y1600200D03*
%TO.P,J1,28*%
%TO.N,D1*%
X69850000Y1600200D03*
%TO.P,J1,27*%
%TO.N,D0*%
X67310000Y1600200D03*
%TO.P,J1,26*%
%TO.N,~IOREQ*%
X64770000Y1600200D03*
%TO.P,J1,25*%
%TO.N,~RD*%
X62230000Y1600200D03*
%TO.P,J1,24*%
%TO.N,~WR*%
X59690000Y1600200D03*
%TO.P,J1,23*%
%TO.N,~MREQ*%
X57150000Y1600200D03*
%TO.P,J1,22*%
%TO.N,~INT*%
X54610000Y1600200D03*
%TO.P,J1,21*%
%TO.N,CLK*%
X52070000Y1600200D03*
%TO.P,J1,20*%
%TO.N,~RESET*%
X49530000Y1600200D03*
%TO.P,J1,19*%
%TO.N,~M1*%
X46990000Y1600200D03*
%TO.P,J1,18*%
%TO.N,+5V*%
X44450000Y1600200D03*
%TO.P,J1,17*%
%TO.N,GND*%
X41910000Y1600200D03*
%TO.P,J1,16*%
%TO.N,A0*%
X39370000Y1600200D03*
%TO.P,J1,15*%
%TO.N,A1*%
X36830000Y1600200D03*
%TO.P,J1,14*%
%TO.N,A2*%
X34290000Y1600200D03*
%TO.P,J1,13*%
%TO.N,A3*%
X31750000Y1600200D03*
%TO.P,J1,12*%
%TO.N,A4*%
X29210000Y1600200D03*
%TO.P,J1,11*%
%TO.N,A5*%
X26670000Y1600200D03*
%TO.P,J1,10*%
%TO.N,A6*%
X24130000Y1600200D03*
%TO.P,J1,9*%
%TO.N,A7*%
X21590000Y1600200D03*
%TO.P,J1,8*%
%TO.N,A8*%
X19050000Y1600200D03*
%TO.P,J1,7*%
%TO.N,A9*%
X16510000Y1600200D03*
%TO.P,J1,6*%
%TO.N,A10*%
X13970000Y1600200D03*
%TO.P,J1,5*%
%TO.N,A11*%
X11430000Y1600200D03*
%TO.P,J1,4*%
%TO.N,A12*%
X8890000Y1600200D03*
%TO.P,J1,3*%
%TO.N,A13*%
X6350000Y1600200D03*
%TO.P,J1,2*%
%TO.N,A14*%
X3810000Y1600200D03*
D18*
%TO.P,J1,1*%
%TO.N,A15*%
X1270000Y1600200D03*
%TD*%
D19*
%TO.N,GND*%
X43180000Y20015200D03*
%TO.N,CLK*%
X53340000Y19380200D03*
X53340000Y20650200D03*
X76200000Y20650200D03*
X31750000Y17475192D03*
%TO.N,D7*%
X49530000Y20015200D03*
X74929992Y20015200D03*
%TO.N,D6*%
X41910000Y18745200D03*
X74295000Y18745200D03*
%TO.N,D5*%
X39370000Y18110200D03*
X73660000Y18110200D03*
%TO.N,D4*%
X34290000Y17475200D03*
X73025000Y17475200D03*
%TO.N,D3*%
X36830000Y16840200D03*
X72390000Y16840200D03*
%TO.N,D2*%
X46990000Y16205200D03*
X71119992Y16205192D03*
%TO.N,D1*%
X55245000Y15570200D03*
X69850000Y15570200D03*
%TO.N,D0*%
X56515000Y13665200D03*
%TO.N,~RD*%
X67310000Y30175200D03*
%TO.N,~WR*%
X62865000Y33350200D03*
%TO.N,~MREQ*%
X59690000Y13030200D03*
X66674998Y23825200D03*
%TO.N,~RESET*%
X50800000Y20650200D03*
%TO.N,+5V*%
X77470000Y38430200D03*
D20*
X44450000Y21602700D03*
X14605000Y21602700D03*
D19*
%TO.N,A8*%
X34290000Y43510174D03*
%TO.N,A11*%
X16510000Y6680182D03*
X31115000Y42875200D03*
%TO.N,A12*%
X16510000Y9220202D03*
%TO.N,A13*%
X16510000Y11760200D03*
X26670000Y44145208D03*
%TO.N,A14*%
X27940000Y23190200D03*
X14985984Y12776200D03*
%TO.N,A15*%
X13461994Y13792200D03*
%TO.N,~BUSRQ*%
X55880000Y13030200D03*
%TO.N,PAGE*%
X52070000Y13030200D03*
X54610000Y19380200D03*
X49530000Y7950200D03*
X71755000Y19380200D03*
%TO.N,/CS2*%
X53340000Y44145200D03*
%TO.N,CLK2*%
X52070000Y7950200D03*
X54610000Y13030200D03*
X55880000Y21285200D03*
X81914988Y22555188D03*
%TD*%
D21*
%TO.N,GND*%
X41910000Y4140200D02*
X41910000Y7950200D01*
X41910000Y1600200D02*
X41910000Y4140200D01*
D22*
X41910000Y7950200D02*
X43180000Y9220200D01*
X43180000Y21920200D02*
X46990000Y25730200D01*
X43180000Y9220200D02*
X43180000Y20015200D01*
X43180000Y20015200D02*
X43180000Y21920200D01*
D23*
%TO.N,CLK*%
X53340000Y19380200D02*
X53340000Y2870200D01*
X53340000Y2870200D02*
X52070000Y1600200D01*
X53340000Y19380200D02*
X53340000Y20650200D01*
X78740000Y13030200D02*
X76200000Y15570200D01*
X76200000Y15570200D02*
X76200000Y20650200D01*
X31750000Y10490200D02*
X31750000Y17475192D01*
%TO.N,D7*%
X49530000Y10490200D02*
X49530000Y20015200D01*
X74929992Y11760208D02*
X74929992Y20015200D01*
X85090000Y1600200D02*
X74929992Y11760208D01*
X74929992Y40363480D02*
X74929992Y20015200D01*
X52070000Y46050200D02*
X55083030Y49063230D01*
X66230242Y49063230D02*
X74929992Y40363480D01*
X55083030Y49063230D02*
X66230242Y49063230D01*
%TO.N,D6*%
X41910000Y18745200D02*
X41910000Y10490200D01*
X74295000Y9855200D02*
X74295000Y18745200D01*
X82550000Y1600200D02*
X74295000Y9855200D01*
X74295000Y40356404D02*
X74295000Y18745200D01*
X66042184Y48609220D02*
X74295000Y40356404D01*
X54610000Y46050200D02*
X57169020Y48609220D01*
X57169020Y48609220D02*
X66042184Y48609220D01*
%TO.N,D5*%
X39370000Y18110200D02*
X39370000Y10490200D01*
X80010000Y1600200D02*
X73660000Y7950200D01*
X73660000Y7950200D02*
X73660000Y18110200D01*
X57150000Y46050200D02*
X59255010Y48155210D01*
X59255010Y48155210D02*
X65854126Y48155210D01*
X65854126Y48155210D02*
X73660000Y40349336D01*
X73660000Y40349336D02*
X73660000Y18110200D01*
%TO.N,D4*%
X34290000Y10490200D02*
X34290000Y17475200D01*
X73025000Y6045200D02*
X73025000Y17475200D01*
X77470000Y1600200D02*
X73025000Y6045200D01*
X73025000Y40342268D02*
X73025000Y17475200D01*
X65666068Y47701200D02*
X73025000Y40342268D01*
X59690000Y46050200D02*
X61341000Y47701200D01*
X61341000Y47701200D02*
X65666068Y47701200D01*
%TO.N,D3*%
X36830000Y10490200D02*
X36830000Y16840200D01*
X72390000Y40335200D02*
X72390000Y16840200D01*
X74930000Y1600200D02*
X72390000Y4140200D01*
X62230000Y46050200D02*
X66675000Y46050200D01*
X66675000Y46050200D02*
X72390000Y40335200D01*
X72390000Y4140200D02*
X72390000Y16840200D01*
%TO.N,D2*%
X46990000Y10490200D02*
X46990000Y16205200D01*
X61595000Y32715200D02*
X63507068Y32715200D01*
X72390000Y1600200D02*
X71119992Y2870208D01*
X71119992Y25102276D02*
X71119992Y16205192D01*
X63507068Y32715200D02*
X71119992Y25102276D01*
X71119992Y2870208D02*
X71119992Y16205192D01*
X59690000Y30810200D02*
X61595000Y32715200D01*
%TO.N,D1*%
X55245000Y12395200D02*
X55245000Y15570200D01*
X54610000Y10490200D02*
X54610000Y11760200D01*
X54610000Y11760200D02*
X55245000Y12395200D01*
X69850000Y1600200D02*
X69850000Y15570200D01*
X57150000Y30810200D02*
X59690000Y28270200D01*
X69850000Y25730200D02*
X69850000Y15570200D01*
X67310000Y28270200D02*
X69850000Y25730200D01*
X59690000Y28270200D02*
X67310000Y28270200D01*
%TO.N,D0*%
X58420000Y27000200D02*
X54610000Y30810200D01*
X56515000Y13665200D02*
X58420000Y15570200D01*
X58420000Y15570200D02*
X58420000Y27000200D01*
%TO.N,~IOREQ*%
X66040000Y7950200D02*
X67310000Y9220200D01*
X67310000Y9220200D02*
X67310000Y10490200D01*
X64770000Y1600200D02*
X66040000Y2870200D01*
X66040000Y2870200D02*
X66040000Y7950200D01*
%TO.N,~RD*%
X62865000Y34620200D02*
X67310000Y30175200D01*
X44450000Y46050200D02*
X55880000Y34620200D01*
X55880000Y34620200D02*
X62865000Y34620200D01*
X67310000Y13030200D02*
X66038347Y11758547D01*
X66038347Y11758547D02*
X66038347Y9560221D01*
X63500000Y2870200D02*
X62230000Y1600200D01*
X63500000Y7133369D02*
X63500000Y2870200D01*
X67310000Y25730200D02*
X67310000Y13030200D01*
X66038347Y9560221D02*
X63500000Y7133369D01*
%TO.N,~WR*%
X59690000Y1600200D02*
X60325000Y1600200D01*
X60960000Y21920200D02*
X64770000Y25730200D01*
X59690000Y1600200D02*
X60960000Y2870200D01*
X60960000Y2870200D02*
X60960000Y21920200D01*
X62440736Y33350200D02*
X62865000Y33350200D01*
X55245000Y33350200D02*
X62440736Y33350200D01*
X44450000Y44145200D02*
X55245000Y33350200D01*
X31750000Y46050200D02*
X33655000Y44145200D01*
X33655000Y44145200D02*
X44450000Y44145200D01*
%TO.N,~MREQ*%
X58420000Y11760200D02*
X58420000Y2870200D01*
X59690000Y13030200D02*
X58420000Y11760200D01*
X58420000Y2870200D02*
X57150000Y1600200D01*
X64770000Y10490200D02*
X64770000Y21920202D01*
X64770000Y21920202D02*
X66674998Y23825200D01*
%TO.N,~INT*%
X57150000Y6680200D02*
X57150000Y10490200D01*
X55880000Y4756987D02*
X57150000Y6038134D01*
X57150000Y6038134D02*
X57150000Y6680200D01*
X54610000Y1600200D02*
X55880000Y2870200D01*
X55880000Y2870200D02*
X55880000Y4756987D01*
%TO.N,~RESET*%
X50800000Y2870200D02*
X49530000Y1600200D01*
X54610000Y25730200D02*
X50800000Y21920200D01*
X50800000Y20650200D02*
X50800000Y2870200D01*
X50800000Y21920200D02*
X50800000Y20650200D01*
X8255000Y17435200D02*
X9485000Y16205200D01*
X8255000Y20650200D02*
X8255000Y17435200D01*
%TO.N,~M1*%
X46990000Y1600200D02*
X48260000Y2870200D01*
X48260000Y21920200D02*
X52070000Y25730200D01*
X48260000Y2870200D02*
X48260000Y21920200D01*
D21*
%TO.N,+5V*%
X44450000Y7910200D02*
X44410000Y7950200D01*
X44450000Y4140200D02*
X44450000Y6045200D01*
X44450000Y6045200D02*
X44450000Y7910200D01*
X44450000Y4140200D02*
X44450000Y1600200D01*
X44410000Y7950200D02*
X44410000Y10450200D01*
X24090000Y46010200D02*
X24130000Y46050200D01*
X21590000Y46010200D02*
X24090000Y46010200D01*
X77470000Y32120200D02*
X78780000Y30810200D01*
X77470000Y38430200D02*
X77470000Y32120200D01*
X78780000Y28310200D02*
X78740000Y28270200D01*
X78780000Y30810200D02*
X78780000Y28310200D01*
X80010000Y47320200D02*
X80010000Y43510200D01*
X77470000Y40970200D02*
X77470000Y38430200D01*
X80010000Y43510200D02*
X77470000Y40970200D01*
X44450000Y10490200D02*
X44450000Y21602700D01*
X21590000Y46010200D02*
X14605000Y39025200D01*
X9525000Y19380200D02*
X12382500Y19380200D01*
X12382500Y19380200D02*
X14605000Y21602700D01*
X14605000Y39025200D02*
X14605000Y21602700D01*
D23*
%TO.N,A0*%
X40640000Y21920200D02*
X44450000Y25730200D01*
X39370000Y1600200D02*
X40640000Y2870200D01*
X40640000Y2870200D02*
X40640000Y21920200D01*
X48768000Y27508200D02*
X52070000Y30810200D01*
X44450000Y25730200D02*
X46228000Y27508200D01*
X46228000Y27508200D02*
X48768000Y27508200D01*
%TO.N,A1*%
X38100000Y21920200D02*
X41910000Y25730200D01*
X36830000Y1600200D02*
X38100000Y2870200D01*
X38100000Y2870200D02*
X38100000Y21920200D01*
X46736000Y28016200D02*
X49530000Y30810200D01*
X41910000Y25730200D02*
X44196000Y28016200D01*
X44196000Y28016200D02*
X46736000Y28016200D01*
%TO.N,A2*%
X34290000Y1600200D02*
X35560000Y2870200D01*
X35560000Y21920200D02*
X39370000Y25730200D01*
X35560000Y2870200D02*
X35560000Y21920200D01*
X44704000Y28524200D02*
X46990000Y30810200D01*
X39370000Y25730200D02*
X42164000Y28524200D01*
X42164000Y28524200D02*
X44704000Y28524200D01*
%TO.N,A3*%
X33020000Y21920200D02*
X36830000Y25730200D01*
X31750000Y1600200D02*
X33020000Y2870200D01*
X33020000Y2870200D02*
X33020000Y21920200D01*
X39878000Y27508200D02*
X38608000Y27508200D01*
X38608000Y27508200D02*
X36830000Y25730200D01*
X44450000Y30810200D02*
X42672000Y29032200D01*
X42672000Y29032200D02*
X41402000Y29032200D01*
X41402000Y29032200D02*
X39878000Y27508200D01*
%TO.N,A4*%
X30480000Y21920200D02*
X34290000Y25730200D01*
X29210000Y1600200D02*
X30480000Y2870200D01*
X30480000Y2870200D02*
X30480000Y21920200D01*
X41910000Y30810200D02*
X39062011Y27962211D01*
X36522011Y27962211D02*
X34290000Y25730200D01*
X39062011Y27962211D02*
X36522011Y27962211D01*
%TO.N,A5*%
X27940000Y21920200D02*
X31750000Y25730200D01*
X26670000Y1600200D02*
X27940000Y2870200D01*
X27940000Y2870200D02*
X27940000Y21920200D01*
X36976022Y28416222D02*
X39370000Y30810200D01*
X34436022Y28416222D02*
X36976022Y28416222D01*
X31750000Y25730200D02*
X34436022Y28416222D01*
%TO.N,A6*%
X25400000Y21920200D02*
X29210000Y25730200D01*
X24130000Y1600200D02*
X25400000Y2870200D01*
X25400000Y2870200D02*
X25400000Y21920200D01*
X31115000Y27635200D02*
X32385000Y27635200D01*
X34925000Y28905200D02*
X36830000Y30810200D01*
X29210000Y25730200D02*
X31115000Y27635200D01*
X33655000Y28905200D02*
X34925000Y28905200D01*
X32385000Y27635200D02*
X33655000Y28905200D01*
%TO.N,A7*%
X22860000Y20650200D02*
X26670000Y24460200D01*
X21590000Y1600200D02*
X22860000Y2870200D01*
X26670000Y24460200D02*
X26670000Y25730200D01*
X22860000Y2870200D02*
X22860000Y20650200D01*
X29210000Y28270200D02*
X31750000Y28270200D01*
X26670000Y25730200D02*
X29210000Y28270200D01*
X31750000Y28270200D02*
X34290000Y30810200D01*
%TO.N,A8*%
X24130000Y24460200D02*
X24130000Y25730200D01*
X20320000Y20650200D02*
X24130000Y24460200D01*
X19050000Y1600200D02*
X20320000Y2870200D01*
X20320000Y2870200D02*
X20320000Y20650200D01*
X24130000Y25730200D02*
X24130000Y27635200D01*
D24*
X34289974Y43510174D02*
X34290000Y43510174D01*
X25400000Y28905200D02*
X25400000Y35255187D01*
X32385000Y41605200D02*
X34289974Y43510174D01*
X24130000Y27635200D02*
X25400000Y28905200D01*
X25400000Y35255187D02*
X31750013Y41605200D01*
X31750013Y41605200D02*
X32385000Y41605200D01*
D23*
%TO.N,A9*%
X21590000Y25730200D02*
X21297036Y25730200D01*
X21297036Y25730200D02*
X17780000Y22213164D01*
X17780000Y22213164D02*
X17780000Y2870200D01*
X17780000Y2870200D02*
X16510000Y1600200D01*
X37465000Y47955200D02*
X39370000Y46050200D01*
X21590000Y25730200D02*
X21590000Y35255200D01*
X30480000Y47320200D02*
X31115000Y47955200D01*
X21590000Y35255200D02*
X30480000Y44145200D01*
X30480000Y44145200D02*
X30480000Y47320200D01*
X31115000Y47955200D02*
X37465000Y47955200D01*
%TO.N,A10*%
X19050000Y25730200D02*
X17145000Y23825200D01*
X17145000Y4775200D02*
X13970000Y1600200D01*
X17145000Y23825200D02*
X17145000Y4775200D01*
X29210000Y48590200D02*
X27940000Y47320200D01*
X46990000Y46050200D02*
X44450000Y48590200D01*
X27940000Y47320200D02*
X27940000Y43510200D01*
X19050000Y34620200D02*
X19050000Y25730200D01*
X44450000Y48590200D02*
X29210000Y48590200D01*
X27940000Y43510200D02*
X19050000Y34620200D01*
%TO.N,A11*%
X11430000Y1600200D02*
X15875000Y6045200D01*
X16509982Y6680182D02*
X16510000Y6680182D01*
X15875000Y6045200D02*
X16509982Y6680182D01*
X22860000Y24460200D02*
X22860000Y27635200D01*
X19050000Y10490200D02*
X19050000Y20650200D01*
X19050000Y20650200D02*
X22860000Y24460200D01*
D24*
X31115000Y42875200D02*
X31115000Y42875200D01*
X22860000Y34620200D02*
X31115000Y42875200D01*
X22860000Y27635200D02*
X22860000Y34620200D01*
D23*
%TO.N,A12*%
X21590000Y10490200D02*
X21590000Y9855200D01*
X9739999Y2450201D02*
X16510000Y9220202D01*
X8890000Y1600200D02*
X9739999Y2450201D01*
X21590000Y20650200D02*
X25400000Y24460200D01*
X21590000Y10490200D02*
X21590000Y20650200D01*
D24*
X27305000Y28905200D02*
X29845000Y28905200D01*
X25400000Y24460200D02*
X25400000Y27000200D01*
X29845000Y28905200D02*
X31750000Y30810200D01*
X25400000Y27000200D02*
X27305000Y28905200D01*
D23*
%TO.N,A13*%
X6350000Y1600200D02*
X12700000Y7950200D01*
X12700000Y7950200D02*
X16510000Y11760200D01*
X17145000Y34620208D02*
X26670000Y44145208D01*
X17145000Y25730200D02*
X17145000Y34620208D01*
X16510000Y11760200D02*
X16510000Y25095200D01*
X16510000Y25095200D02*
X17145000Y25730200D01*
%TO.N,A14*%
X26670000Y10490200D02*
X26670000Y21920200D01*
X26670000Y21920200D02*
X27940000Y23190200D01*
X14985984Y12776184D02*
X14985984Y12776200D01*
X14605000Y12395200D02*
X14985984Y12776184D01*
X3810000Y1600200D02*
X14605000Y12395200D01*
%TO.N,A15*%
X1270000Y1600200D02*
X13461994Y13792194D01*
X13461994Y13792194D02*
X13461994Y13792200D01*
X15875000Y16205206D02*
X13461994Y13792200D01*
X15875000Y35255200D02*
X15875000Y16205206D01*
X26670000Y46050200D02*
X15875000Y35255200D01*
%TO.N,~NMI*%
X64770000Y4140200D02*
X64770000Y6680200D01*
%TO.N,~WAIT*%
X62230000Y4140200D02*
X62230000Y6680200D01*
X65405000Y27635200D02*
X61595000Y27635200D01*
X63500000Y7950200D02*
X63500000Y21920200D01*
X61595000Y27635200D02*
X59690000Y25730200D01*
X62230000Y6680200D02*
X63500000Y7950200D01*
X63500000Y21920200D02*
X66040000Y24460200D01*
X66040000Y24460200D02*
X66040000Y27000200D01*
X66040000Y27000200D02*
X65405000Y27635200D01*
%TO.N,~BUSRQ*%
X59690000Y4140200D02*
X59690000Y6680200D01*
X55880000Y13030200D02*
X55880000Y16840200D01*
X57150000Y18110200D02*
X57150000Y25730200D01*
X55880000Y16840200D02*
X57150000Y18110200D01*
%TO.N,~BUSACK*%
X59690000Y15570200D02*
X59690000Y23190200D01*
X59690000Y23190200D02*
X62230000Y25730200D01*
X55880000Y11760200D02*
X59690000Y15570200D01*
X54610000Y4140200D02*
X55880000Y5410200D01*
X55880000Y5410200D02*
X55880000Y11760200D01*
%TO.N,PAGE*%
X49530000Y4140200D02*
X49530000Y7950200D01*
X69850000Y33350200D02*
X71755000Y31445200D01*
X71755000Y31445200D02*
X71755000Y19380200D01*
X52070000Y21285200D02*
X52705000Y21920200D01*
X52070000Y13030200D02*
X52070000Y21285200D01*
X52705000Y21920200D02*
X53975000Y21920200D01*
X53975000Y21920200D02*
X54610000Y21285200D01*
X54610000Y21285200D02*
X54610000Y19380200D01*
%TO.N,~RFSH*%
X45720000Y5410200D02*
X46990000Y4140200D01*
X49530000Y25730200D02*
X45720000Y21920200D01*
X45720000Y21920200D02*
X45720000Y5410200D01*
%TO.N,/~CS1*%
X59690000Y35890200D02*
X49530000Y46050200D01*
X67310000Y35890200D02*
X59690000Y35890200D01*
%TO.N,/CS2*%
X60325000Y37160200D02*
X53340000Y44145200D01*
X69850000Y35890200D02*
X68580000Y37160200D01*
X68580000Y37160200D02*
X60325000Y37160200D01*
%TO.N,CLK2*%
X52070000Y4140200D02*
X52070000Y7950200D01*
X54610000Y13030200D02*
X54610000Y16840200D01*
X55880000Y18110200D02*
X55880000Y21285200D01*
X54610000Y16840200D02*
X55880000Y18110200D01*
X83820000Y13030200D02*
X82550000Y14300200D01*
X82550000Y14300200D02*
X82550000Y21920176D01*
X82550000Y21920176D02*
X81914988Y22555188D01*
%TO.N,OSC*%
X83820000Y10490200D02*
X78740000Y10490200D01*
X81280000Y13030200D02*
X83820000Y10490200D01*
X81280000Y16840200D02*
X81280000Y13030200D01*
X80010000Y18110200D02*
X81280000Y16840200D01*
X80010000Y24460200D02*
X80010000Y18110200D01*
X83820000Y28270200D02*
X80010000Y24460200D01*
%TO.N,/DRESET*%
X86360000Y10490200D02*
X88900000Y10490200D01*
X88900000Y10490200D02*
X91440000Y10490200D01*
X91440000Y10490200D02*
X93980000Y10490200D01*
X93980000Y10490200D02*
X96520000Y10490200D01*
X85090000Y29540200D02*
X84455000Y30175200D01*
X86360000Y10490200D02*
X85090000Y11760200D01*
X85090000Y11760200D02*
X85090000Y29540200D01*
X83185000Y30175200D02*
X81280000Y28270200D01*
X84455000Y30175200D02*
X83185000Y30175200D01*
%TO.N,/DIV8*%
X97790000Y27000200D02*
X96520000Y28270200D01*
X96520000Y13030200D02*
X97790000Y14300200D01*
X97790000Y14300200D02*
X97790000Y27000200D01*
%TO.N,/DIV6*%
X93980000Y13030200D02*
X92710000Y11760200D01*
X92710000Y11760200D02*
X88265000Y11760200D01*
X88265000Y11760200D02*
X87630000Y12395200D01*
X87630000Y12395200D02*
X87630000Y19380200D01*
X87630000Y19380200D02*
X88900000Y20650200D01*
%TO.N,/DIV4*%
X95250000Y27000200D02*
X93980000Y28270200D01*
X91440000Y13030200D02*
X95250000Y16840200D01*
X95250000Y16840200D02*
X95250000Y27000200D01*
%TO.N,/DIV3*%
X88900000Y13030200D02*
X93980000Y18110200D01*
X93980000Y18110200D02*
X93980000Y20650200D01*
%TO.N,/DIV2*%
X86360000Y13030200D02*
X86360000Y20650200D01*
%TO.N,/CDIV*%
X83820000Y20650200D02*
X83820000Y15570200D01*
%TD*%
M02*
