M48
; DRILL file {KiCad (5.1.6)-1} date 11/25/20 01:46:54
; FORMAT={-:-/ absolute / inch / decimal}
; #@! TF.CreationDate,2020-11-25T01:46:54-08:00
; #@! TF.GenerationSoftware,Kicad,Pcbnew,(5.1.6)-1
; #@! TF.FileFunction,Plated,1,2,PTH
FMAT,2
INCH
T1C0.0157
T2C0.0236
T3C0.0295
T4C0.0315
T5C0.0394
%
G90
G05
T1
X0.53Y0.543
X0.59Y0.503
X0.65Y0.463
X0.65Y0.363
X0.65Y0.263
X0.875Y1.738
X1.025Y1.288
X1.125Y1.738
X1.35Y0.663
X1.45Y0.638
X1.55Y0.713
X1.65Y0.738
X1.7Y0.803
X1.7Y0.6005
X1.8Y0.483
X1.9Y1.738
X1.9Y0.613
X1.95Y0.763
X2.0Y0.788
X2.05Y0.763
X2.15Y0.613
X2.2Y0.913
X2.2Y0.8505
X2.3Y0.483
X2.475Y1.188
X2.575Y1.188
X2.6Y0.938
X2.7Y1.163
X2.75Y0.613
X2.8Y0.638
X2.8Y0.763
X2.825Y0.8505
X2.85Y0.663
X2.875Y0.688
X2.9Y0.713
X2.925Y0.738
X2.95Y0.788
X2.975Y0.538
X3.2Y1.563
T2
X0.575Y0.8505
X1.75Y0.8505
X2.9875Y0.8505
X3.1625Y0.8505
T3
X0.3Y0.713
X0.35Y0.763
X0.4Y0.713
T4
X0.75Y1.813
X0.75Y1.213
X0.85Y1.813
X0.85Y1.213
X0.95Y1.813
X0.95Y1.213
X1.05Y1.813
X1.05Y1.213
X1.15Y1.813
X1.15Y1.213
X1.25Y1.813
X1.25Y1.213
X1.35Y1.813
X1.35Y1.213
X1.45Y1.813
X1.45Y1.213
X1.55Y1.813
X1.55Y1.213
X1.65Y1.813
X1.65Y1.213
X1.75Y1.813
X1.75Y1.213
X1.85Y1.813
X1.85Y1.213
X1.95Y1.813
X1.95Y1.213
X2.05Y1.813
X2.05Y1.213
X2.15Y1.813
X2.15Y1.213
X2.25Y1.813
X2.25Y1.213
X3.05Y1.663
X3.05Y1.363
X3.15Y1.663
X3.15Y1.363
X3.25Y1.663
X3.25Y1.363
X3.35Y1.663
X3.35Y1.363
X3.45Y1.663
X3.45Y1.363
X3.55Y1.663
X3.55Y1.363
X3.65Y1.663
X3.65Y1.363
X3.75Y1.663
X3.75Y1.363
X0.65Y1.8114
X0.65Y1.713
X1.65Y0.313
X1.7484Y0.313
X3.25Y0.613
X3.25Y0.313
X3.55Y0.613
X3.55Y0.313
X0.3Y0.588
X0.3984Y0.588
X2.15Y0.263
X2.25Y0.263
X2.35Y0.263
X2.45Y0.263
X2.55Y0.263
X3.25Y0.763
X3.3484Y0.763
X3.0516Y1.763
X3.15Y1.763
X0.75Y1.013
X0.75Y0.413
X0.85Y1.013
X0.85Y0.413
X0.95Y1.013
X0.95Y0.413
X1.05Y1.013
X1.05Y0.413
X1.15Y1.013
X1.15Y0.413
X1.25Y1.013
X1.25Y0.413
X1.35Y1.013
X1.35Y0.413
X1.45Y1.013
X1.45Y0.413
X1.55Y1.013
X1.55Y0.413
X1.65Y1.013
X1.65Y0.413
X1.75Y1.013
X1.75Y0.413
X1.85Y1.013
X1.85Y0.413
X1.95Y1.013
X1.95Y0.413
X2.05Y1.013
X2.05Y0.413
X2.15Y1.013
X2.15Y0.413
X2.25Y1.013
X2.25Y0.413
X2.35Y1.013
X2.35Y0.413
X2.45Y1.013
X2.45Y0.413
X2.55Y1.013
X2.55Y0.413
X2.65Y1.013
X2.65Y0.413
T5
X2.65Y1.513
X2.65Y1.413
X2.65Y1.313
X3.25Y1.213
X3.25Y1.113
X3.25Y1.013
X3.35Y1.113
X3.35Y1.013
X3.45Y1.113
X3.45Y1.013
X3.55Y1.113
X3.55Y1.013
X3.65Y1.113
X3.65Y1.013
X3.75Y1.113
X3.75Y1.013
X3.05Y1.113
X3.05Y1.013
X0.05Y0.063
X0.15Y0.063
X0.25Y0.063
X0.35Y0.063
X0.45Y0.063
X0.55Y0.063
X0.65Y0.063
X0.75Y0.063
X0.85Y0.063
X0.95Y0.063
X1.05Y0.063
X1.15Y0.063
X1.25Y0.063
X1.35Y0.063
X1.45Y0.063
X1.55Y0.063
X1.65Y0.063
X1.75Y0.063
X1.85Y0.063
X1.95Y0.063
X2.05Y0.063
X2.15Y0.063
X2.25Y0.063
X2.35Y0.063
X2.45Y0.063
X2.55Y0.063
X2.65Y0.063
X2.75Y0.063
X2.85Y0.063
X2.95Y0.063
X3.05Y0.063
X3.15Y0.063
X3.25Y0.063
X3.35Y0.063
X3.45Y0.063
X3.55Y0.063
X3.65Y0.063
X3.75Y0.063
X3.85Y0.063
X2.55Y1.513
X2.55Y1.413
X2.55Y1.313
X1.65Y0.163
X1.75Y0.163
X1.85Y0.163
X1.95Y0.163
X2.05Y0.163
X2.15Y0.163
X2.25Y0.163
X2.35Y0.163
X2.45Y0.163
X2.55Y0.163
T0
M30
