%TF.GenerationSoftware,KiCad,Pcbnew,(5.1.6)-1*%
%TF.CreationDate,2020-11-22T17:12:32-08:00*%
%TF.ProjectId,rc-z80ram,72632d7a-3830-4726-916d-2e6b69636164,rev?*%
%TF.SameCoordinates,PX9157080PY9071968*%
%TF.FileFunction,Legend,Top*%
%TF.FilePolarity,Positive*%
%FSLAX46Y46*%
G04 Gerber Fmt 4.6, Leading zero omitted, Abs format (unit mm)*
G04 Created by KiCad (PCBNEW (5.1.6)-1) date 2020-11-22 17:12:32*
%MOMM*%
%LPD*%
G01*
G04 APERTURE LIST*
%ADD10C,0.150000*%
%ADD11C,0.203200*%
%ADD12C,0.152400*%
%ADD13C,0.300000*%
%ADD14C,0.200000*%
%ADD15C,0.120000*%
%ADD16C,0.100000*%
G04 APERTURE END LIST*
D10*
X78135238Y7408343D02*
X78086857Y7359962D01*
X77941714Y7311581D01*
X77844952Y7311581D01*
X77699809Y7359962D01*
X77603047Y7456724D01*
X77554666Y7553486D01*
X77506285Y7747010D01*
X77506285Y7892153D01*
X77554666Y8085677D01*
X77603047Y8182439D01*
X77699809Y8279200D01*
X77844952Y8327581D01*
X77941714Y8327581D01*
X78086857Y8279200D01*
X78135238Y8230820D01*
X79054476Y7311581D02*
X78570666Y7311581D01*
X78570666Y8327581D01*
X79393142Y7311581D02*
X79393142Y8327581D01*
X79973714Y7311581D02*
X79538285Y7892153D01*
X79973714Y8327581D02*
X79393142Y7747010D01*
X76369333Y6314915D02*
X76756380Y6314915D01*
X76514476Y6653581D02*
X76514476Y5782724D01*
X76562857Y5685962D01*
X76659619Y5637581D01*
X76756380Y5637581D01*
X77240190Y5637581D02*
X77143428Y5685962D01*
X77095047Y5734343D01*
X77046666Y5831105D01*
X77046666Y6121391D01*
X77095047Y6218153D01*
X77143428Y6266534D01*
X77240190Y6314915D01*
X77385333Y6314915D01*
X77482095Y6266534D01*
X77530476Y6218153D01*
X77578857Y6121391D01*
X77578857Y5831105D01*
X77530476Y5734343D01*
X77482095Y5685962D01*
X77385333Y5637581D01*
X77240190Y5637581D01*
X78788380Y5637581D02*
X78788380Y6653581D01*
X78788380Y6266534D02*
X78885142Y6314915D01*
X79078666Y6314915D01*
X79175428Y6266534D01*
X79223809Y6218153D01*
X79272190Y6121391D01*
X79272190Y5831105D01*
X79223809Y5734343D01*
X79175428Y5685962D01*
X79078666Y5637581D01*
X78885142Y5637581D01*
X78788380Y5685962D01*
X80143047Y6314915D02*
X80143047Y5637581D01*
X79707619Y6314915D02*
X79707619Y5782724D01*
X79756000Y5685962D01*
X79852761Y5637581D01*
X79997904Y5637581D01*
X80094666Y5685962D01*
X80143047Y5734343D01*
X80578476Y5685962D02*
X80675238Y5637581D01*
X80868761Y5637581D01*
X80965523Y5685962D01*
X81013904Y5782724D01*
X81013904Y5831105D01*
X80965523Y5927867D01*
X80868761Y5976248D01*
X80723619Y5976248D01*
X80626857Y6024629D01*
X80578476Y6121391D01*
X80578476Y6169772D01*
X80626857Y6266534D01*
X80723619Y6314915D01*
X80868761Y6314915D01*
X80965523Y6266534D01*
X70302380Y40670796D02*
X69302380Y40670796D01*
X69302380Y41051748D01*
X69350000Y41146986D01*
X69397619Y41194605D01*
X69492857Y41242224D01*
X69635714Y41242224D01*
X69730952Y41194605D01*
X69778571Y41146986D01*
X69826190Y41051748D01*
X69826190Y40670796D01*
X70302380Y42099367D02*
X69778571Y42099367D01*
X69683333Y42051748D01*
X69635714Y41956510D01*
X69635714Y41766034D01*
X69683333Y41670796D01*
X70254761Y42099367D02*
X70302380Y42004129D01*
X70302380Y41766034D01*
X70254761Y41670796D01*
X70159523Y41623177D01*
X70064285Y41623177D01*
X69969047Y41670796D01*
X69921428Y41766034D01*
X69921428Y42004129D01*
X69873809Y42099367D01*
X69635714Y43004129D02*
X70445238Y43004129D01*
X70540476Y42956510D01*
X70588095Y42908891D01*
X70635714Y42813653D01*
X70635714Y42670796D01*
X70588095Y42575558D01*
X70254761Y43004129D02*
X70302380Y42908891D01*
X70302380Y42718415D01*
X70254761Y42623177D01*
X70207142Y42575558D01*
X70111904Y42527939D01*
X69826190Y42527939D01*
X69730952Y42575558D01*
X69683333Y42623177D01*
X69635714Y42718415D01*
X69635714Y42908891D01*
X69683333Y43004129D01*
X70302380Y43480320D02*
X69635714Y43480320D01*
X69302380Y43480320D02*
X69350000Y43432700D01*
X69397619Y43480320D01*
X69350000Y43527939D01*
X69302380Y43480320D01*
X69397619Y43480320D01*
X69635714Y43956510D02*
X70302380Y43956510D01*
X69730952Y43956510D02*
X69683333Y44004129D01*
X69635714Y44099367D01*
X69635714Y44242224D01*
X69683333Y44337462D01*
X69778571Y44385081D01*
X70302380Y44385081D01*
X69635714Y45289843D02*
X70445238Y45289843D01*
X70540476Y45242224D01*
X70588095Y45194605D01*
X70635714Y45099367D01*
X70635714Y44956510D01*
X70588095Y44861272D01*
X70254761Y45289843D02*
X70302380Y45194605D01*
X70302380Y45004129D01*
X70254761Y44908891D01*
X70207142Y44861272D01*
X70111904Y44813653D01*
X69826190Y44813653D01*
X69730952Y44861272D01*
X69683333Y44908891D01*
X69635714Y45004129D01*
X69635714Y45194605D01*
X69683333Y45289843D01*
X67762380Y41242224D02*
X67286190Y40908891D01*
X67762380Y40670796D02*
X66762380Y40670796D01*
X66762380Y41051748D01*
X66810000Y41146986D01*
X66857619Y41194605D01*
X66952857Y41242224D01*
X67095714Y41242224D01*
X67190952Y41194605D01*
X67238571Y41146986D01*
X67286190Y41051748D01*
X67286190Y40670796D01*
X67476666Y41623177D02*
X67476666Y42099367D01*
X67762380Y41527939D02*
X66762380Y41861272D01*
X67762380Y42194605D01*
X67762380Y42527939D02*
X66762380Y42527939D01*
X67476666Y42861272D01*
X66762380Y43194605D01*
X67762380Y43194605D01*
X72033095Y34056629D02*
X72366428Y34056629D01*
X72509285Y33532820D02*
X72033095Y33532820D01*
X72033095Y34532820D01*
X72509285Y34532820D01*
X72937857Y34199486D02*
X72937857Y33532820D01*
X72937857Y34104248D02*
X72985476Y34151867D01*
X73080714Y34199486D01*
X73223571Y34199486D01*
X73318809Y34151867D01*
X73366428Y34056629D01*
X73366428Y33532820D01*
X74271190Y33532820D02*
X74271190Y34056629D01*
X74223571Y34151867D01*
X74128333Y34199486D01*
X73937857Y34199486D01*
X73842619Y34151867D01*
X74271190Y33580439D02*
X74175952Y33532820D01*
X73937857Y33532820D01*
X73842619Y33580439D01*
X73795000Y33675677D01*
X73795000Y33770915D01*
X73842619Y33866153D01*
X73937857Y33913772D01*
X74175952Y33913772D01*
X74271190Y33961391D01*
X74747380Y33532820D02*
X74747380Y34532820D01*
X74747380Y34151867D02*
X74842619Y34199486D01*
X75033095Y34199486D01*
X75128333Y34151867D01*
X75175952Y34104248D01*
X75223571Y34009010D01*
X75223571Y33723296D01*
X75175952Y33628058D01*
X75128333Y33580439D01*
X75033095Y33532820D01*
X74842619Y33532820D01*
X74747380Y33580439D01*
X75795000Y33532820D02*
X75699761Y33580439D01*
X75652142Y33675677D01*
X75652142Y34532820D01*
X76556904Y33580439D02*
X76461666Y33532820D01*
X76271190Y33532820D01*
X76175952Y33580439D01*
X76128333Y33675677D01*
X76128333Y34056629D01*
X76175952Y34151867D01*
X76271190Y34199486D01*
X76461666Y34199486D01*
X76556904Y34151867D01*
X76604523Y34056629D01*
X76604523Y33961391D01*
X76128333Y33866153D01*
X71795000Y37342820D02*
X71795000Y38342820D01*
X72033095Y38342820D01*
X72175952Y38295200D01*
X72271190Y38199962D01*
X72318809Y38104724D01*
X72366428Y37914248D01*
X72366428Y37771391D01*
X72318809Y37580915D01*
X72271190Y37485677D01*
X72175952Y37390439D01*
X72033095Y37342820D01*
X71795000Y37342820D01*
X72795000Y37342820D02*
X72795000Y38009486D01*
X72795000Y38342820D02*
X72747380Y38295200D01*
X72795000Y38247581D01*
X72842619Y38295200D01*
X72795000Y38342820D01*
X72795000Y38247581D01*
X73223571Y37390439D02*
X73318809Y37342820D01*
X73509285Y37342820D01*
X73604523Y37390439D01*
X73652142Y37485677D01*
X73652142Y37533296D01*
X73604523Y37628534D01*
X73509285Y37676153D01*
X73366428Y37676153D01*
X73271190Y37723772D01*
X73223571Y37819010D01*
X73223571Y37866629D01*
X73271190Y37961867D01*
X73366428Y38009486D01*
X73509285Y38009486D01*
X73604523Y37961867D01*
X74509285Y37342820D02*
X74509285Y37866629D01*
X74461666Y37961867D01*
X74366428Y38009486D01*
X74175952Y38009486D01*
X74080714Y37961867D01*
X74509285Y37390439D02*
X74414047Y37342820D01*
X74175952Y37342820D01*
X74080714Y37390439D01*
X74033095Y37485677D01*
X74033095Y37580915D01*
X74080714Y37676153D01*
X74175952Y37723772D01*
X74414047Y37723772D01*
X74509285Y37771391D01*
X74985476Y37342820D02*
X74985476Y38342820D01*
X74985476Y37961867D02*
X75080714Y38009486D01*
X75271190Y38009486D01*
X75366428Y37961867D01*
X75414047Y37914248D01*
X75461666Y37819010D01*
X75461666Y37533296D01*
X75414047Y37438058D01*
X75366428Y37390439D01*
X75271190Y37342820D01*
X75080714Y37342820D01*
X74985476Y37390439D01*
X76033095Y37342820D02*
X75937857Y37390439D01*
X75890238Y37485677D01*
X75890238Y38342820D01*
X76795000Y37390439D02*
X76699761Y37342820D01*
X76509285Y37342820D01*
X76414047Y37390439D01*
X76366428Y37485677D01*
X76366428Y37866629D01*
X76414047Y37961867D01*
X76509285Y38009486D01*
X76699761Y38009486D01*
X76795000Y37961867D01*
X76842619Y37866629D01*
X76842619Y37771391D01*
X76366428Y37676153D01*
X86130190Y5682343D02*
X86081809Y5633962D01*
X85936666Y5585581D01*
X85839904Y5585581D01*
X85694761Y5633962D01*
X85598000Y5730724D01*
X85549619Y5827486D01*
X85501238Y6021010D01*
X85501238Y6166153D01*
X85549619Y6359677D01*
X85598000Y6456439D01*
X85694761Y6553200D01*
X85839904Y6601581D01*
X85936666Y6601581D01*
X86081809Y6553200D01*
X86130190Y6504820D01*
X87049428Y5585581D02*
X86565619Y5585581D01*
X86565619Y6601581D01*
X87388095Y5585581D02*
X87388095Y6601581D01*
X87968666Y5585581D02*
X87533238Y6166153D01*
X87968666Y6601581D02*
X87388095Y6021010D01*
X88355714Y6504820D02*
X88404095Y6553200D01*
X88500857Y6601581D01*
X88742761Y6601581D01*
X88839523Y6553200D01*
X88887904Y6504820D01*
X88936285Y6408058D01*
X88936285Y6311296D01*
X88887904Y6166153D01*
X88307333Y5585581D01*
X88936285Y5585581D01*
X90145809Y5585581D02*
X90145809Y6601581D01*
X90387714Y6601581D01*
X90532857Y6553200D01*
X90629619Y6456439D01*
X90678000Y6359677D01*
X90726380Y6166153D01*
X90726380Y6021010D01*
X90678000Y5827486D01*
X90629619Y5730724D01*
X90532857Y5633962D01*
X90387714Y5585581D01*
X90145809Y5585581D01*
X91161809Y5585581D02*
X91161809Y6262915D01*
X91161809Y6601581D02*
X91113428Y6553200D01*
X91161809Y6504820D01*
X91210190Y6553200D01*
X91161809Y6601581D01*
X91161809Y6504820D01*
X91548857Y6262915D02*
X91790761Y5585581D01*
X92032666Y6262915D01*
X92419714Y5585581D02*
X92419714Y6262915D01*
X92419714Y6601581D02*
X92371333Y6553200D01*
X92419714Y6504820D01*
X92468095Y6553200D01*
X92419714Y6601581D01*
X92419714Y6504820D01*
X92855142Y5633962D02*
X92951904Y5585581D01*
X93145428Y5585581D01*
X93242190Y5633962D01*
X93290571Y5730724D01*
X93290571Y5779105D01*
X93242190Y5875867D01*
X93145428Y5924248D01*
X93000285Y5924248D01*
X92903523Y5972629D01*
X92855142Y6069391D01*
X92855142Y6117772D01*
X92903523Y6214534D01*
X93000285Y6262915D01*
X93145428Y6262915D01*
X93242190Y6214534D01*
X93871142Y5585581D02*
X93774380Y5633962D01*
X93726000Y5682343D01*
X93677619Y5779105D01*
X93677619Y6069391D01*
X93726000Y6166153D01*
X93774380Y6214534D01*
X93871142Y6262915D01*
X94016285Y6262915D01*
X94113047Y6214534D01*
X94161428Y6166153D01*
X94209809Y6069391D01*
X94209809Y5779105D01*
X94161428Y5682343D01*
X94113047Y5633962D01*
X94016285Y5585581D01*
X93871142Y5585581D01*
X94645238Y5585581D02*
X94645238Y6262915D01*
X94645238Y6069391D02*
X94693619Y6166153D01*
X94742000Y6214534D01*
X94838761Y6262915D01*
X94935523Y6262915D01*
D11*
X84277200Y7283753D02*
X83435371Y7283753D01*
X83856285Y7283753D02*
X83856285Y8756953D01*
X83715980Y8546496D01*
X83575676Y8406191D01*
X83435371Y8336039D01*
X85960857Y8616648D02*
X86031009Y8686800D01*
X86171314Y8756953D01*
X86522076Y8756953D01*
X86662380Y8686800D01*
X86732533Y8616648D01*
X86802685Y8476343D01*
X86802685Y8336039D01*
X86732533Y8125581D01*
X85890704Y7283753D01*
X86802685Y7283753D01*
X88416190Y8756953D02*
X89328171Y8756953D01*
X88837104Y8195734D01*
X89047561Y8195734D01*
X89187866Y8125581D01*
X89258019Y8055429D01*
X89328171Y7915124D01*
X89328171Y7564362D01*
X89258019Y7424058D01*
X89187866Y7353905D01*
X89047561Y7283753D01*
X88626647Y7283753D01*
X88486342Y7353905D01*
X88416190Y7424058D01*
X91713352Y8265886D02*
X91713352Y7283753D01*
X91362590Y8827105D02*
X91011828Y7774820D01*
X91923809Y7774820D01*
X94238838Y8756953D02*
X93958228Y8756953D01*
X93817923Y8686800D01*
X93747771Y8616648D01*
X93607466Y8406191D01*
X93537314Y8125581D01*
X93537314Y7564362D01*
X93607466Y7424058D01*
X93677619Y7353905D01*
X93817923Y7283753D01*
X94098533Y7283753D01*
X94238838Y7353905D01*
X94308990Y7424058D01*
X94379142Y7564362D01*
X94379142Y7915124D01*
X94308990Y8055429D01*
X94238838Y8125581D01*
X94098533Y8195734D01*
X93817923Y8195734D01*
X93677619Y8125581D01*
X93607466Y8055429D01*
X93537314Y7915124D01*
X96343409Y8125581D02*
X96203104Y8195734D01*
X96132952Y8265886D01*
X96062800Y8406191D01*
X96062800Y8476343D01*
X96132952Y8616648D01*
X96203104Y8686800D01*
X96343409Y8756953D01*
X96624019Y8756953D01*
X96764323Y8686800D01*
X96834476Y8616648D01*
X96904628Y8476343D01*
X96904628Y8406191D01*
X96834476Y8265886D01*
X96764323Y8195734D01*
X96624019Y8125581D01*
X96343409Y8125581D01*
X96203104Y8055429D01*
X96132952Y7985277D01*
X96062800Y7844972D01*
X96062800Y7564362D01*
X96132952Y7424058D01*
X96203104Y7353905D01*
X96343409Y7283753D01*
X96624019Y7283753D01*
X96764323Y7353905D01*
X96834476Y7424058D01*
X96904628Y7564362D01*
X96904628Y7844972D01*
X96834476Y7985277D01*
X96764323Y8055429D01*
X96624019Y8125581D01*
D12*
X37548457Y39097858D02*
X37548457Y38227000D01*
X37490400Y38052829D01*
X37374285Y37936715D01*
X37200114Y37878658D01*
X37084000Y37878658D01*
X38709600Y37878658D02*
X38129028Y37878658D01*
X38129028Y39097858D01*
X39812685Y37994772D02*
X39754628Y37936715D01*
X39580457Y37878658D01*
X39464342Y37878658D01*
X39290171Y37936715D01*
X39174057Y38052829D01*
X39116000Y38168943D01*
X39057942Y38401172D01*
X39057942Y38575343D01*
X39116000Y38807572D01*
X39174057Y38923686D01*
X39290171Y39039800D01*
X39464342Y39097858D01*
X39580457Y39097858D01*
X39754628Y39039800D01*
X39812685Y38981743D01*
X40683542Y39097858D02*
X40683542Y38227000D01*
X40625485Y38052829D01*
X40509371Y37936715D01*
X40335200Y37878658D01*
X40219085Y37878658D01*
X41844685Y37878658D02*
X41264114Y37878658D01*
X41264114Y39097858D01*
X42947771Y37994772D02*
X42889714Y37936715D01*
X42715542Y37878658D01*
X42599428Y37878658D01*
X42425257Y37936715D01*
X42309142Y38052829D01*
X42251085Y38168943D01*
X42193028Y38401172D01*
X42193028Y38575343D01*
X42251085Y38807572D01*
X42309142Y38923686D01*
X42425257Y39039800D01*
X42599428Y39097858D01*
X42715542Y39097858D01*
X42889714Y39039800D01*
X42947771Y38981743D01*
X43818628Y39097858D02*
X43818628Y38227000D01*
X43760571Y38052829D01*
X43644457Y37936715D01*
X43470285Y37878658D01*
X43354171Y37878658D01*
X44979771Y37878658D02*
X44399200Y37878658D01*
X44399200Y39097858D01*
X46082857Y37994772D02*
X46024800Y37936715D01*
X45850628Y37878658D01*
X45734514Y37878658D01*
X45560342Y37936715D01*
X45444228Y38052829D01*
X45386171Y38168943D01*
X45328114Y38401172D01*
X45328114Y38575343D01*
X45386171Y38807572D01*
X45444228Y38923686D01*
X45560342Y39039800D01*
X45734514Y39097858D01*
X45850628Y39097858D01*
X46024800Y39039800D01*
X46082857Y38981743D01*
X46953714Y39097858D02*
X46953714Y38227000D01*
X46895657Y38052829D01*
X46779542Y37936715D01*
X46605371Y37878658D01*
X46489257Y37878658D01*
X48114857Y37878658D02*
X47534285Y37878658D01*
X47534285Y39097858D01*
X49217942Y37994772D02*
X49159885Y37936715D01*
X48985714Y37878658D01*
X48869600Y37878658D01*
X48695428Y37936715D01*
X48579314Y38052829D01*
X48521257Y38168943D01*
X48463200Y38401172D01*
X48463200Y38575343D01*
X48521257Y38807572D01*
X48579314Y38923686D01*
X48695428Y39039800D01*
X48869600Y39097858D01*
X48985714Y39097858D01*
X49159885Y39039800D01*
X49217942Y38981743D01*
D10*
X1866190Y28103058D02*
X1818571Y28055439D01*
X1675714Y28007820D01*
X1580476Y28007820D01*
X1437619Y28055439D01*
X1342380Y28150677D01*
X1294761Y28245915D01*
X1247142Y28436391D01*
X1247142Y28579248D01*
X1294761Y28769724D01*
X1342380Y28864962D01*
X1437619Y28960200D01*
X1580476Y29007820D01*
X1675714Y29007820D01*
X1818571Y28960200D01*
X1866190Y28912581D01*
X2294761Y28007820D02*
X2294761Y29007820D01*
X2675714Y29007820D01*
X2770952Y28960200D01*
X2818571Y28912581D01*
X2866190Y28817343D01*
X2866190Y28674486D01*
X2818571Y28579248D01*
X2770952Y28531629D01*
X2675714Y28484010D01*
X2294761Y28484010D01*
X3294761Y29007820D02*
X3294761Y28198296D01*
X3342380Y28103058D01*
X3390000Y28055439D01*
X3485238Y28007820D01*
X3675714Y28007820D01*
X3770952Y28055439D01*
X3818571Y28103058D01*
X3866190Y28198296D01*
X3866190Y29007820D01*
X5104285Y28388772D02*
X5866190Y28388772D01*
X5485238Y28007820D02*
X5485238Y28769724D01*
X7675714Y28007820D02*
X7342380Y28484010D01*
X7104285Y28007820D02*
X7104285Y29007820D01*
X7485238Y29007820D01*
X7580476Y28960200D01*
X7628095Y28912581D01*
X7675714Y28817343D01*
X7675714Y28674486D01*
X7628095Y28579248D01*
X7580476Y28531629D01*
X7485238Y28484010D01*
X7104285Y28484010D01*
X8056666Y28293534D02*
X8532857Y28293534D01*
X7961428Y28007820D02*
X8294761Y29007820D01*
X8628095Y28007820D01*
X8961428Y28007820D02*
X8961428Y29007820D01*
X9294761Y28293534D01*
X9628095Y29007820D01*
X9628095Y28007820D01*
X10866190Y28388772D02*
X11628095Y28388772D01*
X11247142Y28007820D02*
X11247142Y28769724D01*
X13437619Y28103058D02*
X13390000Y28055439D01*
X13247142Y28007820D01*
X13151904Y28007820D01*
X13009047Y28055439D01*
X12913809Y28150677D01*
X12866190Y28245915D01*
X12818571Y28436391D01*
X12818571Y28579248D01*
X12866190Y28769724D01*
X12913809Y28864962D01*
X13009047Y28960200D01*
X13151904Y29007820D01*
X13247142Y29007820D01*
X13390000Y28960200D01*
X13437619Y28912581D01*
X14009047Y28007820D02*
X13913809Y28055439D01*
X13866190Y28150677D01*
X13866190Y29007820D01*
X14532857Y28007820D02*
X14437619Y28055439D01*
X14390000Y28103058D01*
X14342380Y28198296D01*
X14342380Y28484010D01*
X14390000Y28579248D01*
X14437619Y28626867D01*
X14532857Y28674486D01*
X14675714Y28674486D01*
X14770952Y28626867D01*
X14818571Y28579248D01*
X14866190Y28484010D01*
X14866190Y28198296D01*
X14818571Y28103058D01*
X14770952Y28055439D01*
X14675714Y28007820D01*
X14532857Y28007820D01*
X15723333Y28055439D02*
X15628095Y28007820D01*
X15437619Y28007820D01*
X15342380Y28055439D01*
X15294761Y28103058D01*
X15247142Y28198296D01*
X15247142Y28484010D01*
X15294761Y28579248D01*
X15342380Y28626867D01*
X15437619Y28674486D01*
X15628095Y28674486D01*
X15723333Y28626867D01*
X16151904Y28007820D02*
X16151904Y29007820D01*
X16247142Y28388772D02*
X16532857Y28007820D01*
X16532857Y28674486D02*
X16151904Y28293534D01*
X4747142Y26357820D02*
X4747142Y27357820D01*
X5128095Y27357820D01*
X5223333Y27310200D01*
X5270952Y27262581D01*
X5318571Y27167343D01*
X5318571Y27024486D01*
X5270952Y26929248D01*
X5223333Y26881629D01*
X5128095Y26834010D01*
X4747142Y26834010D01*
X5747142Y26357820D02*
X5747142Y27357820D01*
X5985238Y27357820D01*
X6128095Y27310200D01*
X6223333Y27214962D01*
X6270952Y27119724D01*
X6318571Y26929248D01*
X6318571Y26786391D01*
X6270952Y26595915D01*
X6223333Y26500677D01*
X6128095Y26405439D01*
X5985238Y26357820D01*
X5747142Y26357820D01*
X7270952Y26357820D02*
X6699523Y26357820D01*
X6985238Y26357820D02*
X6985238Y27357820D01*
X6890000Y27214962D01*
X6794761Y27119724D01*
X6699523Y27072105D01*
X7890000Y27357820D02*
X7985238Y27357820D01*
X8080476Y27310200D01*
X8128095Y27262581D01*
X8175714Y27167343D01*
X8223333Y26976867D01*
X8223333Y26738772D01*
X8175714Y26548296D01*
X8128095Y26453058D01*
X8080476Y26405439D01*
X7985238Y26357820D01*
X7890000Y26357820D01*
X7794761Y26405439D01*
X7747142Y26453058D01*
X7699523Y26548296D01*
X7651904Y26738772D01*
X7651904Y26976867D01*
X7699523Y27167343D01*
X7747142Y27262581D01*
X7794761Y27310200D01*
X7890000Y27357820D01*
X9175714Y26357820D02*
X8604285Y26357820D01*
X8890000Y26357820D02*
X8890000Y27357820D01*
X8794761Y27214962D01*
X8699523Y27119724D01*
X8604285Y27072105D01*
X10270952Y27024486D02*
X10509047Y26357820D01*
X10747142Y27024486D01*
X11651904Y26357820D02*
X11080476Y26357820D01*
X11366190Y26357820D02*
X11366190Y27357820D01*
X11270952Y27214962D01*
X11175714Y27119724D01*
X11080476Y27072105D01*
X12080476Y26453058D02*
X12128095Y26405439D01*
X12080476Y26357820D01*
X12032857Y26405439D01*
X12080476Y26453058D01*
X12080476Y26357820D01*
X12747142Y27357820D02*
X12842380Y27357820D01*
X12937619Y27310200D01*
X12985238Y27262581D01*
X13032857Y27167343D01*
X13080476Y26976867D01*
X13080476Y26738772D01*
X13032857Y26548296D01*
X12985238Y26453058D01*
X12937619Y26405439D01*
X12842380Y26357820D01*
X12747142Y26357820D01*
X12651904Y26405439D01*
X12604285Y26453058D01*
X12556666Y26548296D01*
X12509047Y26738772D01*
X12509047Y26976867D01*
X12556666Y27167343D01*
X12604285Y27262581D01*
X12651904Y27310200D01*
X12747142Y27357820D01*
D13*
X1613333Y-4991942D02*
X1613333Y-4277657D01*
X2039047Y-5134800D02*
X549047Y-4634800D01*
X2039047Y-4134800D01*
X2039047Y-2849085D02*
X2039047Y-3706228D01*
X2039047Y-3277657D02*
X549047Y-3277657D01*
X761904Y-3420514D01*
X903809Y-3563371D01*
X974761Y-3706228D01*
X549047Y-1491942D02*
X549047Y-2206228D01*
X1258571Y-2277657D01*
X1187619Y-2206228D01*
X1116666Y-2063371D01*
X1116666Y-1706228D01*
X1187619Y-1563371D01*
X1258571Y-1491942D01*
X1400476Y-1420514D01*
X1755238Y-1420514D01*
X1897142Y-1491942D01*
X1968095Y-1563371D01*
X2039047Y-1706228D01*
X2039047Y-2063371D01*
X1968095Y-2206228D01*
X1897142Y-2277657D01*
X4148333Y-4991942D02*
X4148333Y-4277657D01*
X4574047Y-5134800D02*
X3084047Y-4634800D01*
X4574047Y-4134800D01*
X4574047Y-2849085D02*
X4574047Y-3706228D01*
X4574047Y-3277657D02*
X3084047Y-3277657D01*
X3296904Y-3420514D01*
X3438809Y-3563371D01*
X3509761Y-3706228D01*
X3580714Y-1563371D02*
X4574047Y-1563371D01*
X3013095Y-1920514D02*
X4077380Y-2277657D01*
X4077380Y-1349085D01*
X6683333Y-4991942D02*
X6683333Y-4277657D01*
X7109047Y-5134800D02*
X5619047Y-4634800D01*
X7109047Y-4134800D01*
X7109047Y-2849085D02*
X7109047Y-3706228D01*
X7109047Y-3277657D02*
X5619047Y-3277657D01*
X5831904Y-3420514D01*
X5973809Y-3563371D01*
X6044761Y-3706228D01*
X5619047Y-2349085D02*
X5619047Y-1420514D01*
X6186666Y-1920514D01*
X6186666Y-1706228D01*
X6257619Y-1563371D01*
X6328571Y-1491942D01*
X6470476Y-1420514D01*
X6825238Y-1420514D01*
X6967142Y-1491942D01*
X7038095Y-1563371D01*
X7109047Y-1706228D01*
X7109047Y-2134800D01*
X7038095Y-2277657D01*
X6967142Y-2349085D01*
X9218333Y-4991942D02*
X9218333Y-4277657D01*
X9644047Y-5134800D02*
X8154047Y-4634800D01*
X9644047Y-4134800D01*
X9644047Y-2849085D02*
X9644047Y-3706228D01*
X9644047Y-3277657D02*
X8154047Y-3277657D01*
X8366904Y-3420514D01*
X8508809Y-3563371D01*
X8579761Y-3706228D01*
X8295952Y-2277657D02*
X8225000Y-2206228D01*
X8154047Y-2063371D01*
X8154047Y-1706228D01*
X8225000Y-1563371D01*
X8295952Y-1491942D01*
X8437857Y-1420514D01*
X8579761Y-1420514D01*
X8792619Y-1491942D01*
X9644047Y-2349085D01*
X9644047Y-1420514D01*
X11753333Y-4991942D02*
X11753333Y-4277657D01*
X12179047Y-5134800D02*
X10689047Y-4634800D01*
X12179047Y-4134800D01*
X12179047Y-2849085D02*
X12179047Y-3706228D01*
X12179047Y-3277657D02*
X10689047Y-3277657D01*
X10901904Y-3420514D01*
X11043809Y-3563371D01*
X11114761Y-3706228D01*
X12179047Y-1420514D02*
X12179047Y-2277657D01*
X12179047Y-1849085D02*
X10689047Y-1849085D01*
X10901904Y-1991942D01*
X11043809Y-2134800D01*
X11114761Y-2277657D01*
X14288333Y-4991942D02*
X14288333Y-4277657D01*
X14714047Y-5134800D02*
X13224047Y-4634800D01*
X14714047Y-4134800D01*
X14714047Y-2849085D02*
X14714047Y-3706228D01*
X14714047Y-3277657D02*
X13224047Y-3277657D01*
X13436904Y-3420514D01*
X13578809Y-3563371D01*
X13649761Y-3706228D01*
X13224047Y-1920514D02*
X13224047Y-1777657D01*
X13295000Y-1634800D01*
X13365952Y-1563371D01*
X13507857Y-1491942D01*
X13791666Y-1420514D01*
X14146428Y-1420514D01*
X14430238Y-1491942D01*
X14572142Y-1563371D01*
X14643095Y-1634800D01*
X14714047Y-1777657D01*
X14714047Y-1920514D01*
X14643095Y-2063371D01*
X14572142Y-2134800D01*
X14430238Y-2206228D01*
X14146428Y-2277657D01*
X13791666Y-2277657D01*
X13507857Y-2206228D01*
X13365952Y-2134800D01*
X13295000Y-2063371D01*
X13224047Y-1920514D01*
X16823333Y-3563371D02*
X16823333Y-2849085D01*
X17249047Y-3706228D02*
X15759047Y-3206228D01*
X17249047Y-2706228D01*
X17249047Y-2134800D02*
X17249047Y-1849085D01*
X17178095Y-1706228D01*
X17107142Y-1634800D01*
X16894285Y-1491942D01*
X16610476Y-1420514D01*
X16042857Y-1420514D01*
X15900952Y-1491942D01*
X15830000Y-1563371D01*
X15759047Y-1706228D01*
X15759047Y-1991942D01*
X15830000Y-2134800D01*
X15900952Y-2206228D01*
X16042857Y-2277657D01*
X16397619Y-2277657D01*
X16539523Y-2206228D01*
X16610476Y-2134800D01*
X16681428Y-1991942D01*
X16681428Y-1706228D01*
X16610476Y-1563371D01*
X16539523Y-1491942D01*
X16397619Y-1420514D01*
X19358333Y-3563371D02*
X19358333Y-2849085D01*
X19784047Y-3706228D02*
X18294047Y-3206228D01*
X19784047Y-2706228D01*
X18932619Y-1991942D02*
X18861666Y-2134800D01*
X18790714Y-2206228D01*
X18648809Y-2277657D01*
X18577857Y-2277657D01*
X18435952Y-2206228D01*
X18365000Y-2134800D01*
X18294047Y-1991942D01*
X18294047Y-1706228D01*
X18365000Y-1563371D01*
X18435952Y-1491942D01*
X18577857Y-1420514D01*
X18648809Y-1420514D01*
X18790714Y-1491942D01*
X18861666Y-1563371D01*
X18932619Y-1706228D01*
X18932619Y-1991942D01*
X19003571Y-2134800D01*
X19074523Y-2206228D01*
X19216428Y-2277657D01*
X19500238Y-2277657D01*
X19642142Y-2206228D01*
X19713095Y-2134800D01*
X19784047Y-1991942D01*
X19784047Y-1706228D01*
X19713095Y-1563371D01*
X19642142Y-1491942D01*
X19500238Y-1420514D01*
X19216428Y-1420514D01*
X19074523Y-1491942D01*
X19003571Y-1563371D01*
X18932619Y-1706228D01*
X21893333Y-3563371D02*
X21893333Y-2849085D01*
X22319047Y-3706228D02*
X20829047Y-3206228D01*
X22319047Y-2706228D01*
X20829047Y-2349085D02*
X20829047Y-1349085D01*
X22319047Y-1991942D01*
X24428333Y-3563371D02*
X24428333Y-2849085D01*
X24854047Y-3706228D02*
X23364047Y-3206228D01*
X24854047Y-2706228D01*
X23364047Y-1563371D02*
X23364047Y-1849085D01*
X23435000Y-1991942D01*
X23505952Y-2063371D01*
X23718809Y-2206228D01*
X24002619Y-2277657D01*
X24570238Y-2277657D01*
X24712142Y-2206228D01*
X24783095Y-2134800D01*
X24854047Y-1991942D01*
X24854047Y-1706228D01*
X24783095Y-1563371D01*
X24712142Y-1491942D01*
X24570238Y-1420514D01*
X24215476Y-1420514D01*
X24073571Y-1491942D01*
X24002619Y-1563371D01*
X23931666Y-1706228D01*
X23931666Y-1991942D01*
X24002619Y-2134800D01*
X24073571Y-2206228D01*
X24215476Y-2277657D01*
X26963333Y-3563371D02*
X26963333Y-2849085D01*
X27389047Y-3706228D02*
X25899047Y-3206228D01*
X27389047Y-2706228D01*
X25899047Y-1491942D02*
X25899047Y-2206228D01*
X26608571Y-2277657D01*
X26537619Y-2206228D01*
X26466666Y-2063371D01*
X26466666Y-1706228D01*
X26537619Y-1563371D01*
X26608571Y-1491942D01*
X26750476Y-1420514D01*
X27105238Y-1420514D01*
X27247142Y-1491942D01*
X27318095Y-1563371D01*
X27389047Y-1706228D01*
X27389047Y-2063371D01*
X27318095Y-2206228D01*
X27247142Y-2277657D01*
X29498333Y-3563371D02*
X29498333Y-2849085D01*
X29924047Y-3706228D02*
X28434047Y-3206228D01*
X29924047Y-2706228D01*
X28930714Y-1563371D02*
X29924047Y-1563371D01*
X28363095Y-1920514D02*
X29427380Y-2277657D01*
X29427380Y-1349085D01*
X32033333Y-3563371D02*
X32033333Y-2849085D01*
X32459047Y-3706228D02*
X30969047Y-3206228D01*
X32459047Y-2706228D01*
X30969047Y-2349085D02*
X30969047Y-1420514D01*
X31536666Y-1920514D01*
X31536666Y-1706228D01*
X31607619Y-1563371D01*
X31678571Y-1491942D01*
X31820476Y-1420514D01*
X32175238Y-1420514D01*
X32317142Y-1491942D01*
X32388095Y-1563371D01*
X32459047Y-1706228D01*
X32459047Y-2134800D01*
X32388095Y-2277657D01*
X32317142Y-2349085D01*
X34568333Y-3563371D02*
X34568333Y-2849085D01*
X34994047Y-3706228D02*
X33504047Y-3206228D01*
X34994047Y-2706228D01*
X33645952Y-2277657D02*
X33575000Y-2206228D01*
X33504047Y-2063371D01*
X33504047Y-1706228D01*
X33575000Y-1563371D01*
X33645952Y-1491942D01*
X33787857Y-1420514D01*
X33929761Y-1420514D01*
X34142619Y-1491942D01*
X34994047Y-2349085D01*
X34994047Y-1420514D01*
X37103333Y-3563371D02*
X37103333Y-2849085D01*
X37529047Y-3706228D02*
X36039047Y-3206228D01*
X37529047Y-2706228D01*
X37529047Y-1420514D02*
X37529047Y-2277657D01*
X37529047Y-1849085D02*
X36039047Y-1849085D01*
X36251904Y-1991942D01*
X36393809Y-2134800D01*
X36464761Y-2277657D01*
X39638333Y-3563371D02*
X39638333Y-2849085D01*
X40064047Y-3706228D02*
X38574047Y-3206228D01*
X40064047Y-2706228D01*
X38574047Y-1920514D02*
X38574047Y-1777657D01*
X38645000Y-1634800D01*
X38715952Y-1563371D01*
X38857857Y-1491942D01*
X39141666Y-1420514D01*
X39496428Y-1420514D01*
X39780238Y-1491942D01*
X39922142Y-1563371D01*
X39993095Y-1634800D01*
X40064047Y-1777657D01*
X40064047Y-1920514D01*
X39993095Y-2063371D01*
X39922142Y-2134800D01*
X39780238Y-2206228D01*
X39496428Y-2277657D01*
X39141666Y-2277657D01*
X38857857Y-2206228D01*
X38715952Y-2134800D01*
X38645000Y-2063371D01*
X38574047Y-1920514D01*
X41180000Y-4206228D02*
X41109047Y-4349085D01*
X41109047Y-4563371D01*
X41180000Y-4777657D01*
X41321904Y-4920514D01*
X41463809Y-4991942D01*
X41747619Y-5063371D01*
X41960476Y-5063371D01*
X42244285Y-4991942D01*
X42386190Y-4920514D01*
X42528095Y-4777657D01*
X42599047Y-4563371D01*
X42599047Y-4420514D01*
X42528095Y-4206228D01*
X42457142Y-4134800D01*
X41960476Y-4134800D01*
X41960476Y-4420514D01*
X41605714Y-3491942D02*
X42599047Y-3491942D01*
X41747619Y-3491942D02*
X41676666Y-3420514D01*
X41605714Y-3277657D01*
X41605714Y-3063371D01*
X41676666Y-2920514D01*
X41818571Y-2849085D01*
X42599047Y-2849085D01*
X42599047Y-1491942D02*
X41109047Y-1491942D01*
X42528095Y-1491942D02*
X42599047Y-1634800D01*
X42599047Y-1920514D01*
X42528095Y-2063371D01*
X42457142Y-2134800D01*
X42315238Y-2206228D01*
X41889523Y-2206228D01*
X41747619Y-2134800D01*
X41676666Y-2063371D01*
X41605714Y-1920514D01*
X41605714Y-1634800D01*
X41676666Y-1491942D01*
X43644047Y-2634800D02*
X43644047Y-3349085D01*
X44353571Y-3420514D01*
X44282619Y-3349085D01*
X44211666Y-3206228D01*
X44211666Y-2849085D01*
X44282619Y-2706228D01*
X44353571Y-2634800D01*
X44495476Y-2563371D01*
X44850238Y-2563371D01*
X44992142Y-2634800D01*
X45063095Y-2706228D01*
X45134047Y-2849085D01*
X45134047Y-3206228D01*
X45063095Y-3349085D01*
X44992142Y-3420514D01*
X44140714Y-2063371D02*
X45134047Y-1706228D01*
X44140714Y-1349085D01*
X47669047Y-3920514D02*
X46179047Y-3920514D01*
X47243333Y-3420514D01*
X46179047Y-2920514D01*
X47669047Y-2920514D01*
X47669047Y-1420514D02*
X47669047Y-2277657D01*
X47669047Y-1849085D02*
X46179047Y-1849085D01*
X46391904Y-1991942D01*
X46533809Y-2134800D01*
X46604761Y-2277657D01*
X50204047Y-6063371D02*
X49494523Y-6563371D01*
X50204047Y-6920514D02*
X48714047Y-6920514D01*
X48714047Y-6349085D01*
X48785000Y-6206228D01*
X48855952Y-6134800D01*
X48997857Y-6063371D01*
X49210714Y-6063371D01*
X49352619Y-6134800D01*
X49423571Y-6206228D01*
X49494523Y-6349085D01*
X49494523Y-6920514D01*
X50133095Y-4849085D02*
X50204047Y-4991942D01*
X50204047Y-5277657D01*
X50133095Y-5420514D01*
X49991190Y-5491942D01*
X49423571Y-5491942D01*
X49281666Y-5420514D01*
X49210714Y-5277657D01*
X49210714Y-4991942D01*
X49281666Y-4849085D01*
X49423571Y-4777657D01*
X49565476Y-4777657D01*
X49707380Y-5491942D01*
X50133095Y-4206228D02*
X50204047Y-4063371D01*
X50204047Y-3777657D01*
X50133095Y-3634800D01*
X49991190Y-3563371D01*
X49920238Y-3563371D01*
X49778333Y-3634800D01*
X49707380Y-3777657D01*
X49707380Y-3991942D01*
X49636428Y-4134800D01*
X49494523Y-4206228D01*
X49423571Y-4206228D01*
X49281666Y-4134800D01*
X49210714Y-3991942D01*
X49210714Y-3777657D01*
X49281666Y-3634800D01*
X50133095Y-2349085D02*
X50204047Y-2491942D01*
X50204047Y-2777657D01*
X50133095Y-2920514D01*
X49991190Y-2991942D01*
X49423571Y-2991942D01*
X49281666Y-2920514D01*
X49210714Y-2777657D01*
X49210714Y-2491942D01*
X49281666Y-2349085D01*
X49423571Y-2277657D01*
X49565476Y-2277657D01*
X49707380Y-2991942D01*
X49210714Y-1849085D02*
X49210714Y-1277657D01*
X48714047Y-1634800D02*
X49991190Y-1634800D01*
X50133095Y-1563371D01*
X50204047Y-1420514D01*
X50204047Y-1277657D01*
X52597142Y-6063371D02*
X52668095Y-6134800D01*
X52739047Y-6349085D01*
X52739047Y-6491942D01*
X52668095Y-6706228D01*
X52526190Y-6849085D01*
X52384285Y-6920514D01*
X52100476Y-6991942D01*
X51887619Y-6991942D01*
X51603809Y-6920514D01*
X51461904Y-6849085D01*
X51320000Y-6706228D01*
X51249047Y-6491942D01*
X51249047Y-6349085D01*
X51320000Y-6134800D01*
X51390952Y-6063371D01*
X52739047Y-5206228D02*
X52668095Y-5349085D01*
X52526190Y-5420514D01*
X51249047Y-5420514D01*
X52739047Y-4420514D02*
X52668095Y-4563371D01*
X52597142Y-4634800D01*
X52455238Y-4706228D01*
X52029523Y-4706228D01*
X51887619Y-4634800D01*
X51816666Y-4563371D01*
X51745714Y-4420514D01*
X51745714Y-4206228D01*
X51816666Y-4063371D01*
X51887619Y-3991942D01*
X52029523Y-3920514D01*
X52455238Y-3920514D01*
X52597142Y-3991942D01*
X52668095Y-4063371D01*
X52739047Y-4206228D01*
X52739047Y-4420514D01*
X52668095Y-2634800D02*
X52739047Y-2777657D01*
X52739047Y-3063371D01*
X52668095Y-3206228D01*
X52597142Y-3277657D01*
X52455238Y-3349085D01*
X52029523Y-3349085D01*
X51887619Y-3277657D01*
X51816666Y-3206228D01*
X51745714Y-3063371D01*
X51745714Y-2777657D01*
X51816666Y-2634800D01*
X52739047Y-1991942D02*
X51249047Y-1991942D01*
X52171428Y-1849085D02*
X52739047Y-1420514D01*
X51745714Y-1420514D02*
X52313333Y-1991942D01*
X55274047Y-4206228D02*
X53784047Y-4206228D01*
X55274047Y-3491942D02*
X53784047Y-3491942D01*
X55274047Y-2634800D01*
X53784047Y-2634800D01*
X53784047Y-2134800D02*
X53784047Y-1277657D01*
X55274047Y-1706228D02*
X53784047Y-1706228D01*
X57809047Y-6063371D02*
X56319047Y-6063371D01*
X57383333Y-5563371D01*
X56319047Y-5063371D01*
X57809047Y-5063371D01*
X57809047Y-4349085D02*
X56815714Y-4349085D01*
X57099523Y-4349085D02*
X56957619Y-4277657D01*
X56886666Y-4206228D01*
X56815714Y-4063371D01*
X56815714Y-3920514D01*
X57738095Y-2849085D02*
X57809047Y-2991942D01*
X57809047Y-3277657D01*
X57738095Y-3420514D01*
X57596190Y-3491942D01*
X57028571Y-3491942D01*
X56886666Y-3420514D01*
X56815714Y-3277657D01*
X56815714Y-2991942D01*
X56886666Y-2849085D01*
X57028571Y-2777657D01*
X57170476Y-2777657D01*
X57312380Y-3491942D01*
X56815714Y-1491942D02*
X58305714Y-1491942D01*
X57738095Y-1491942D02*
X57809047Y-1634800D01*
X57809047Y-1920514D01*
X57738095Y-2063371D01*
X57667142Y-2134800D01*
X57525238Y-2206228D01*
X57099523Y-2206228D01*
X56957619Y-2134800D01*
X56886666Y-2063371D01*
X56815714Y-1920514D01*
X56815714Y-1634800D01*
X56886666Y-1491942D01*
X58854047Y-3563371D02*
X60344047Y-3206228D01*
X59279761Y-2920514D01*
X60344047Y-2634800D01*
X58854047Y-2277657D01*
X60344047Y-1706228D02*
X59350714Y-1706228D01*
X59634523Y-1706228D02*
X59492619Y-1634800D01*
X59421666Y-1563371D01*
X59350714Y-1420514D01*
X59350714Y-1277657D01*
X62879047Y-2777657D02*
X62169523Y-3277657D01*
X62879047Y-3634800D02*
X61389047Y-3634800D01*
X61389047Y-3063371D01*
X61460000Y-2920514D01*
X61530952Y-2849085D01*
X61672857Y-2777657D01*
X61885714Y-2777657D01*
X62027619Y-2849085D01*
X62098571Y-2920514D01*
X62169523Y-3063371D01*
X62169523Y-3634800D01*
X62879047Y-1920514D02*
X62808095Y-2063371D01*
X62737142Y-2134800D01*
X62595238Y-2206228D01*
X62169523Y-2206228D01*
X62027619Y-2134800D01*
X61956666Y-2063371D01*
X61885714Y-1920514D01*
X61885714Y-1706228D01*
X61956666Y-1563371D01*
X62027619Y-1491942D01*
X62169523Y-1420514D01*
X62595238Y-1420514D01*
X62737142Y-1491942D01*
X62808095Y-1563371D01*
X62879047Y-1706228D01*
X62879047Y-1920514D01*
X65414047Y-6134800D02*
X63924047Y-6134800D01*
X63924047Y-5134800D02*
X63924047Y-4849085D01*
X63995000Y-4706228D01*
X64136904Y-4563371D01*
X64420714Y-4491942D01*
X64917380Y-4491942D01*
X65201190Y-4563371D01*
X65343095Y-4706228D01*
X65414047Y-4849085D01*
X65414047Y-5134800D01*
X65343095Y-5277657D01*
X65201190Y-5420514D01*
X64917380Y-5491942D01*
X64420714Y-5491942D01*
X64136904Y-5420514D01*
X63995000Y-5277657D01*
X63924047Y-5134800D01*
X65414047Y-2991942D02*
X64704523Y-3491942D01*
X65414047Y-3849085D02*
X63924047Y-3849085D01*
X63924047Y-3277657D01*
X63995000Y-3134800D01*
X64065952Y-3063371D01*
X64207857Y-2991942D01*
X64420714Y-2991942D01*
X64562619Y-3063371D01*
X64633571Y-3134800D01*
X64704523Y-3277657D01*
X64704523Y-3849085D01*
X65555952Y-1349085D02*
X65485000Y-1491942D01*
X65343095Y-1634800D01*
X65130238Y-1849085D01*
X65059285Y-1991942D01*
X65059285Y-2134800D01*
X65414047Y-2063371D02*
X65343095Y-2206228D01*
X65201190Y-2349085D01*
X64917380Y-2420514D01*
X64420714Y-2420514D01*
X64136904Y-2349085D01*
X63995000Y-2206228D01*
X63924047Y-2063371D01*
X63924047Y-1777657D01*
X63995000Y-1634800D01*
X64136904Y-1491942D01*
X64420714Y-1420514D01*
X64917380Y-1420514D01*
X65201190Y-1491942D01*
X65343095Y-1634800D01*
X65414047Y-1777657D01*
X65414047Y-2063371D01*
X67949047Y-3706228D02*
X66459047Y-3706228D01*
X66459047Y-3349085D01*
X66530000Y-3134800D01*
X66671904Y-2991942D01*
X66813809Y-2920514D01*
X67097619Y-2849085D01*
X67310476Y-2849085D01*
X67594285Y-2920514D01*
X67736190Y-2991942D01*
X67878095Y-3134800D01*
X67949047Y-3349085D01*
X67949047Y-3706228D01*
X66459047Y-1920514D02*
X66459047Y-1777657D01*
X66530000Y-1634800D01*
X66600952Y-1563371D01*
X66742857Y-1491942D01*
X67026666Y-1420514D01*
X67381428Y-1420514D01*
X67665238Y-1491942D01*
X67807142Y-1563371D01*
X67878095Y-1634800D01*
X67949047Y-1777657D01*
X67949047Y-1920514D01*
X67878095Y-2063371D01*
X67807142Y-2134800D01*
X67665238Y-2206228D01*
X67381428Y-2277657D01*
X67026666Y-2277657D01*
X66742857Y-2206228D01*
X66600952Y-2134800D01*
X66530000Y-2063371D01*
X66459047Y-1920514D01*
X70484047Y-3706228D02*
X68994047Y-3706228D01*
X68994047Y-3349085D01*
X69065000Y-3134800D01*
X69206904Y-2991942D01*
X69348809Y-2920514D01*
X69632619Y-2849085D01*
X69845476Y-2849085D01*
X70129285Y-2920514D01*
X70271190Y-2991942D01*
X70413095Y-3134800D01*
X70484047Y-3349085D01*
X70484047Y-3706228D01*
X70484047Y-1420514D02*
X70484047Y-2277657D01*
X70484047Y-1849085D02*
X68994047Y-1849085D01*
X69206904Y-1991942D01*
X69348809Y-2134800D01*
X69419761Y-2277657D01*
X73019047Y-3706228D02*
X71529047Y-3706228D01*
X71529047Y-3349085D01*
X71600000Y-3134800D01*
X71741904Y-2991942D01*
X71883809Y-2920514D01*
X72167619Y-2849085D01*
X72380476Y-2849085D01*
X72664285Y-2920514D01*
X72806190Y-2991942D01*
X72948095Y-3134800D01*
X73019047Y-3349085D01*
X73019047Y-3706228D01*
X71670952Y-2277657D02*
X71600000Y-2206228D01*
X71529047Y-2063371D01*
X71529047Y-1706228D01*
X71600000Y-1563371D01*
X71670952Y-1491942D01*
X71812857Y-1420514D01*
X71954761Y-1420514D01*
X72167619Y-1491942D01*
X73019047Y-2349085D01*
X73019047Y-1420514D01*
X75554047Y-3706228D02*
X74064047Y-3706228D01*
X74064047Y-3349085D01*
X74135000Y-3134800D01*
X74276904Y-2991942D01*
X74418809Y-2920514D01*
X74702619Y-2849085D01*
X74915476Y-2849085D01*
X75199285Y-2920514D01*
X75341190Y-2991942D01*
X75483095Y-3134800D01*
X75554047Y-3349085D01*
X75554047Y-3706228D01*
X74064047Y-2349085D02*
X74064047Y-1420514D01*
X74631666Y-1920514D01*
X74631666Y-1706228D01*
X74702619Y-1563371D01*
X74773571Y-1491942D01*
X74915476Y-1420514D01*
X75270238Y-1420514D01*
X75412142Y-1491942D01*
X75483095Y-1563371D01*
X75554047Y-1706228D01*
X75554047Y-2134800D01*
X75483095Y-2277657D01*
X75412142Y-2349085D01*
X78089047Y-3706228D02*
X76599047Y-3706228D01*
X76599047Y-3349085D01*
X76670000Y-3134800D01*
X76811904Y-2991942D01*
X76953809Y-2920514D01*
X77237619Y-2849085D01*
X77450476Y-2849085D01*
X77734285Y-2920514D01*
X77876190Y-2991942D01*
X78018095Y-3134800D01*
X78089047Y-3349085D01*
X78089047Y-3706228D01*
X77095714Y-1563371D02*
X78089047Y-1563371D01*
X76528095Y-1920514D02*
X77592380Y-2277657D01*
X77592380Y-1349085D01*
X80624047Y-3706228D02*
X79134047Y-3706228D01*
X79134047Y-3349085D01*
X79205000Y-3134800D01*
X79346904Y-2991942D01*
X79488809Y-2920514D01*
X79772619Y-2849085D01*
X79985476Y-2849085D01*
X80269285Y-2920514D01*
X80411190Y-2991942D01*
X80553095Y-3134800D01*
X80624047Y-3349085D01*
X80624047Y-3706228D01*
X79134047Y-1491942D02*
X79134047Y-2206228D01*
X79843571Y-2277657D01*
X79772619Y-2206228D01*
X79701666Y-2063371D01*
X79701666Y-1706228D01*
X79772619Y-1563371D01*
X79843571Y-1491942D01*
X79985476Y-1420514D01*
X80340238Y-1420514D01*
X80482142Y-1491942D01*
X80553095Y-1563371D01*
X80624047Y-1706228D01*
X80624047Y-2063371D01*
X80553095Y-2206228D01*
X80482142Y-2277657D01*
X83159047Y-3706228D02*
X81669047Y-3706228D01*
X81669047Y-3349085D01*
X81740000Y-3134800D01*
X81881904Y-2991942D01*
X82023809Y-2920514D01*
X82307619Y-2849085D01*
X82520476Y-2849085D01*
X82804285Y-2920514D01*
X82946190Y-2991942D01*
X83088095Y-3134800D01*
X83159047Y-3349085D01*
X83159047Y-3706228D01*
X81669047Y-1563371D02*
X81669047Y-1849085D01*
X81740000Y-1991942D01*
X81810952Y-2063371D01*
X82023809Y-2206228D01*
X82307619Y-2277657D01*
X82875238Y-2277657D01*
X83017142Y-2206228D01*
X83088095Y-2134800D01*
X83159047Y-1991942D01*
X83159047Y-1706228D01*
X83088095Y-1563371D01*
X83017142Y-1491942D01*
X82875238Y-1420514D01*
X82520476Y-1420514D01*
X82378571Y-1491942D01*
X82307619Y-1563371D01*
X82236666Y-1706228D01*
X82236666Y-1991942D01*
X82307619Y-2134800D01*
X82378571Y-2206228D01*
X82520476Y-2277657D01*
X85694047Y-3706228D02*
X84204047Y-3706228D01*
X84204047Y-3349085D01*
X84275000Y-3134800D01*
X84416904Y-2991942D01*
X84558809Y-2920514D01*
X84842619Y-2849085D01*
X85055476Y-2849085D01*
X85339285Y-2920514D01*
X85481190Y-2991942D01*
X85623095Y-3134800D01*
X85694047Y-3349085D01*
X85694047Y-3706228D01*
X84204047Y-2349085D02*
X84204047Y-1349085D01*
X85694047Y-1991942D01*
X86739047Y-3349085D02*
X86739047Y-2491942D01*
X88229047Y-2920514D02*
X86739047Y-2920514D01*
X88229047Y-2134800D02*
X87235714Y-1349085D01*
X87235714Y-2134800D02*
X88229047Y-1349085D01*
X90764047Y-2634800D02*
X90054523Y-3134800D01*
X90764047Y-3491942D02*
X89274047Y-3491942D01*
X89274047Y-2920514D01*
X89345000Y-2777657D01*
X89415952Y-2706228D01*
X89557857Y-2634800D01*
X89770714Y-2634800D01*
X89912619Y-2706228D01*
X89983571Y-2777657D01*
X90054523Y-2920514D01*
X90054523Y-3491942D01*
X90764047Y-2134800D02*
X89770714Y-1349085D01*
X89770714Y-2134800D02*
X90764047Y-1349085D01*
X91809047Y-6706228D02*
X93015238Y-6706228D01*
X93157142Y-6634800D01*
X93228095Y-6563371D01*
X93299047Y-6420514D01*
X93299047Y-6134800D01*
X93228095Y-5991942D01*
X93157142Y-5920514D01*
X93015238Y-5849085D01*
X91809047Y-5849085D01*
X93228095Y-5206228D02*
X93299047Y-4991942D01*
X93299047Y-4634800D01*
X93228095Y-4491942D01*
X93157142Y-4420514D01*
X93015238Y-4349085D01*
X92873333Y-4349085D01*
X92731428Y-4420514D01*
X92660476Y-4491942D01*
X92589523Y-4634800D01*
X92518571Y-4920514D01*
X92447619Y-5063371D01*
X92376666Y-5134800D01*
X92234761Y-5206228D01*
X92092857Y-5206228D01*
X91950952Y-5134800D01*
X91880000Y-5063371D01*
X91809047Y-4920514D01*
X91809047Y-4563371D01*
X91880000Y-4349085D01*
X93299047Y-2849085D02*
X92589523Y-3349085D01*
X93299047Y-3706228D02*
X91809047Y-3706228D01*
X91809047Y-3134800D01*
X91880000Y-2991942D01*
X91950952Y-2920514D01*
X92092857Y-2849085D01*
X92305714Y-2849085D01*
X92447619Y-2920514D01*
X92518571Y-2991942D01*
X92589523Y-3134800D01*
X92589523Y-3706228D01*
X93299047Y-1420514D02*
X93299047Y-2277657D01*
X93299047Y-1849085D02*
X91809047Y-1849085D01*
X92021904Y-1991942D01*
X92163809Y-2134800D01*
X92234761Y-2277657D01*
X94344047Y-6706228D02*
X95550238Y-6706228D01*
X95692142Y-6634800D01*
X95763095Y-6563371D01*
X95834047Y-6420514D01*
X95834047Y-6134800D01*
X95763095Y-5991942D01*
X95692142Y-5920514D01*
X95550238Y-5849085D01*
X94344047Y-5849085D01*
X95763095Y-5206228D02*
X95834047Y-4991942D01*
X95834047Y-4634800D01*
X95763095Y-4491942D01*
X95692142Y-4420514D01*
X95550238Y-4349085D01*
X95408333Y-4349085D01*
X95266428Y-4420514D01*
X95195476Y-4491942D01*
X95124523Y-4634800D01*
X95053571Y-4920514D01*
X94982619Y-5063371D01*
X94911666Y-5134800D01*
X94769761Y-5206228D01*
X94627857Y-5206228D01*
X94485952Y-5134800D01*
X94415000Y-5063371D01*
X94344047Y-4920514D01*
X94344047Y-4563371D01*
X94415000Y-4349085D01*
X95834047Y-2849085D02*
X95124523Y-3349085D01*
X95834047Y-3706228D02*
X94344047Y-3706228D01*
X94344047Y-3134800D01*
X94415000Y-2991942D01*
X94485952Y-2920514D01*
X94627857Y-2849085D01*
X94840714Y-2849085D01*
X94982619Y-2920514D01*
X95053571Y-2991942D01*
X95124523Y-3134800D01*
X95124523Y-3706228D01*
X94485952Y-2277657D02*
X94415000Y-2206228D01*
X94344047Y-2063371D01*
X94344047Y-1706228D01*
X94415000Y-1563371D01*
X94485952Y-1491942D01*
X94627857Y-1420514D01*
X94769761Y-1420514D01*
X94982619Y-1491942D01*
X95834047Y-2349085D01*
X95834047Y-1420514D01*
X96879047Y-6706228D02*
X98085238Y-6706228D01*
X98227142Y-6634800D01*
X98298095Y-6563371D01*
X98369047Y-6420514D01*
X98369047Y-6134800D01*
X98298095Y-5991942D01*
X98227142Y-5920514D01*
X98085238Y-5849085D01*
X96879047Y-5849085D01*
X98298095Y-5206228D02*
X98369047Y-4991942D01*
X98369047Y-4634800D01*
X98298095Y-4491942D01*
X98227142Y-4420514D01*
X98085238Y-4349085D01*
X97943333Y-4349085D01*
X97801428Y-4420514D01*
X97730476Y-4491942D01*
X97659523Y-4634800D01*
X97588571Y-4920514D01*
X97517619Y-5063371D01*
X97446666Y-5134800D01*
X97304761Y-5206228D01*
X97162857Y-5206228D01*
X97020952Y-5134800D01*
X96950000Y-5063371D01*
X96879047Y-4920514D01*
X96879047Y-4563371D01*
X96950000Y-4349085D01*
X98369047Y-2849085D02*
X97659523Y-3349085D01*
X98369047Y-3706228D02*
X96879047Y-3706228D01*
X96879047Y-3134800D01*
X96950000Y-2991942D01*
X97020952Y-2920514D01*
X97162857Y-2849085D01*
X97375714Y-2849085D01*
X97517619Y-2920514D01*
X97588571Y-2991942D01*
X97659523Y-3134800D01*
X97659523Y-3706228D01*
X96879047Y-2349085D02*
X96879047Y-1420514D01*
X97446666Y-1920514D01*
X97446666Y-1706228D01*
X97517619Y-1563371D01*
X97588571Y-1491942D01*
X97730476Y-1420514D01*
X98085238Y-1420514D01*
X98227142Y-1491942D01*
X98298095Y-1563371D01*
X98369047Y-1706228D01*
X98369047Y-2134800D01*
X98298095Y-2277657D01*
X98227142Y-2349085D01*
D14*
X2743200Y10345420D02*
X2743200Y233680D01*
X1173480Y10345420D02*
X2743200Y10345420D01*
X-7620Y9164320D02*
X1173480Y10345420D01*
X-7620Y233680D02*
X-7620Y9164320D01*
D13*
X2207651Y4049735D02*
X707651Y4049735D01*
X707651Y4621163D01*
X779080Y4764020D01*
X850508Y4835449D01*
X993365Y4906878D01*
X1207651Y4906878D01*
X1350508Y4835449D01*
X1421937Y4764020D01*
X1493365Y4621163D01*
X1493365Y4049735D01*
X2207651Y5549735D02*
X1207651Y5549735D01*
X707651Y5549735D02*
X779080Y5478306D01*
X850508Y5549735D01*
X779080Y5621163D01*
X707651Y5549735D01*
X850508Y5549735D01*
X1207651Y6264020D02*
X2207651Y6264020D01*
X1350508Y6264020D02*
X1279080Y6335449D01*
X1207651Y6478306D01*
X1207651Y6692592D01*
X1279080Y6835449D01*
X1421937Y6906878D01*
X2207651Y6906878D01*
X2207651Y9549735D02*
X2207651Y8692592D01*
X2207651Y9121163D02*
X707651Y9121163D01*
X921937Y8978306D01*
X1064794Y8835449D01*
X1136222Y8692592D01*
D15*
%TO.C,RN1*%
X53170000Y8080200D02*
X53170000Y5280200D01*
X53170000Y5280200D02*
X66210000Y5280200D01*
X66210000Y5280200D02*
X66210000Y8080200D01*
X66210000Y8080200D02*
X53170000Y8080200D01*
X55880000Y8080200D02*
X55880000Y5280200D01*
%TO.C,U4*%
X77410000Y23460200D02*
X77410000Y22210200D01*
X77410000Y22210200D02*
X97850000Y22210200D01*
X97850000Y22210200D02*
X97850000Y26710200D01*
X97850000Y26710200D02*
X77410000Y26710200D01*
X77410000Y26710200D02*
X77410000Y25460200D01*
X77410000Y25460200D02*
G75*
G02*
X77410000Y23460200I0J-1000000D01*
G01*
%TO.C,JP5*%
X97850000Y9160200D02*
X97850000Y14360200D01*
X87630000Y9160200D02*
X97850000Y9160200D01*
X85030000Y14360200D02*
X97850000Y14360200D01*
X87630000Y9160200D02*
X87630000Y11760200D01*
X87630000Y11760200D02*
X85030000Y11760200D01*
X85030000Y11760200D02*
X85030000Y14360200D01*
X86360000Y9160200D02*
X85030000Y9160200D01*
X85030000Y9160200D02*
X85030000Y10490200D01*
%TO.C,JP4*%
X82490000Y9160200D02*
X85150000Y9160200D01*
X82490000Y14300200D02*
X82490000Y9160200D01*
X85150000Y14300200D02*
X85150000Y9160200D01*
X82490000Y14300200D02*
X85150000Y14300200D01*
X82490000Y15570200D02*
X82490000Y16900200D01*
X82490000Y16900200D02*
X83820000Y16900200D01*
%TO.C,C4*%
X80659000Y29890200D02*
X79401000Y29890200D01*
X80659000Y31730200D02*
X79401000Y31730200D01*
%TO.C,X1*%
X77370000Y45400200D02*
X77370000Y33250200D01*
X89520000Y46150200D02*
X78120000Y46150200D01*
X90270000Y34000200D02*
X90270000Y45400200D01*
X77370000Y33250200D02*
X89520000Y33250200D01*
X78120000Y46150200D02*
G75*
G03*
X77370000Y45400200I0J-750000D01*
G01*
X90270000Y45400200D02*
G75*
G03*
X89520000Y46150200I-750000J0D01*
G01*
X89520000Y33250200D02*
G75*
G03*
X90270000Y34000200I0J750000D01*
G01*
%TO.C,U3*%
X6455000Y17530200D02*
X10055000Y17530200D01*
X10093478Y17541722D02*
G75*
G03*
X8255000Y21980200I-1838478J1838478D01*
G01*
X6416522Y17541722D02*
G75*
G02*
X8255000Y21980200I1838478J1838478D01*
G01*
%TO.C,JP3*%
X77410000Y9160200D02*
X80070000Y9160200D01*
X77410000Y11760200D02*
X77410000Y9160200D01*
X80070000Y11760200D02*
X80070000Y9160200D01*
X77410000Y11760200D02*
X80070000Y11760200D01*
X77410000Y13030200D02*
X77410000Y14360200D01*
X77410000Y14360200D02*
X78740000Y14360200D01*
%TO.C,JP2*%
X68520000Y39760200D02*
X69850000Y39760200D01*
X68520000Y38430200D02*
X68520000Y39760200D01*
X68520000Y37160200D02*
X71180000Y37160200D01*
X71180000Y37160200D02*
X71180000Y32020200D01*
X68520000Y37160200D02*
X68520000Y32020200D01*
X68520000Y32020200D02*
X71180000Y32020200D01*
%TO.C,JP1*%
X65980000Y32020200D02*
X68640000Y32020200D01*
X65980000Y37160200D02*
X65980000Y32020200D01*
X68640000Y37160200D02*
X68640000Y32020200D01*
X65980000Y37160200D02*
X68640000Y37160200D01*
X65980000Y38430200D02*
X65980000Y39760200D01*
X65980000Y39760200D02*
X67310000Y39760200D01*
%TO.C,C5*%
X7606000Y17125200D02*
X8864000Y17125200D01*
X7606000Y15285200D02*
X8864000Y15285200D01*
%TO.C,C1*%
X42531000Y8870200D02*
X43789000Y8870200D01*
X42531000Y7030200D02*
X43789000Y7030200D01*
%TO.C,C2*%
X20670000Y44131200D02*
X20670000Y45389200D01*
X22510000Y44131200D02*
X22510000Y45389200D01*
%TO.C,C3*%
X80631000Y48240200D02*
X81889000Y48240200D01*
X80631000Y46400200D02*
X81889000Y46400200D01*
%TO.C,U2*%
X22800000Y37430200D02*
X22800000Y32370200D01*
X22800000Y32370200D02*
X63560000Y32370200D01*
X63560000Y32370200D02*
X63560000Y44490200D01*
X63560000Y44490200D02*
X22800000Y44490200D01*
X22800000Y44490200D02*
X22800000Y39430200D01*
X22800000Y39430200D02*
G75*
G02*
X22800000Y37430200I0J-1000000D01*
G01*
%TO.C,U1*%
X17720000Y17110200D02*
X17720000Y12050200D01*
X17720000Y12050200D02*
X68640000Y12050200D01*
X68640000Y12050200D02*
X68640000Y24170200D01*
X68640000Y24170200D02*
X17720000Y24170200D01*
X17720000Y24170200D02*
X17720000Y19110200D01*
X17720000Y19110200D02*
G75*
G02*
X17720000Y17110200I0J-1000000D01*
G01*
%TO.C,J2*%
X66100000Y2810200D02*
X66100000Y5470200D01*
X43180000Y2810200D02*
X66100000Y2810200D01*
X43180000Y5470200D02*
X66100000Y5470200D01*
X43180000Y2810200D02*
X43180000Y5470200D01*
X41910000Y2810200D02*
X40580000Y2810200D01*
X40580000Y2810200D02*
X40580000Y4140200D01*
%TO.C,J1*%
X99120000Y270200D02*
X99120000Y2930200D01*
X2540000Y270200D02*
X99120000Y270200D01*
X2540000Y2930200D02*
X99120000Y2930200D01*
X2540000Y270200D02*
X2540000Y2930200D01*
X1270000Y270200D02*
X-60000Y270200D01*
X-60000Y270200D02*
X-60000Y1600200D01*
%TD*%
D16*
%TO.C,*%
X6630000Y33350200D02*
G75*
G03*
X6630000Y33350200I-1550000J0D01*
G01*
%TD*%
%TO.C,RN1*%
D10*
X50744523Y6227820D02*
X50411190Y6704010D01*
X50173095Y6227820D02*
X50173095Y7227820D01*
X50554047Y7227820D01*
X50649285Y7180200D01*
X50696904Y7132581D01*
X50744523Y7037343D01*
X50744523Y6894486D01*
X50696904Y6799248D01*
X50649285Y6751629D01*
X50554047Y6704010D01*
X50173095Y6704010D01*
X51173095Y6227820D02*
X51173095Y7227820D01*
X51744523Y6227820D01*
X51744523Y7227820D01*
X52744523Y6227820D02*
X52173095Y6227820D01*
X52458809Y6227820D02*
X52458809Y7227820D01*
X52363571Y7084962D01*
X52268333Y6989724D01*
X52173095Y6942105D01*
%TO.C,U4*%
X75862380Y23698296D02*
X76671904Y23698296D01*
X76767142Y23745915D01*
X76814761Y23793534D01*
X76862380Y23888772D01*
X76862380Y24079248D01*
X76814761Y24174486D01*
X76767142Y24222105D01*
X76671904Y24269724D01*
X75862380Y24269724D01*
X76195714Y25174486D02*
X76862380Y25174486D01*
X75814761Y24936391D02*
X76529047Y24698296D01*
X76529047Y25317343D01*
%TO.C,JP5*%
X90606666Y16117820D02*
X90606666Y15403534D01*
X90559047Y15260677D01*
X90463809Y15165439D01*
X90320952Y15117820D01*
X90225714Y15117820D01*
X91082857Y15117820D02*
X91082857Y16117820D01*
X91463809Y16117820D01*
X91559047Y16070200D01*
X91606666Y16022581D01*
X91654285Y15927343D01*
X91654285Y15784486D01*
X91606666Y15689248D01*
X91559047Y15641629D01*
X91463809Y15594010D01*
X91082857Y15594010D01*
X92559047Y16117820D02*
X92082857Y16117820D01*
X92035238Y15641629D01*
X92082857Y15689248D01*
X92178095Y15736867D01*
X92416190Y15736867D01*
X92511428Y15689248D01*
X92559047Y15641629D01*
X92606666Y15546391D01*
X92606666Y15308296D01*
X92559047Y15213058D01*
X92511428Y15165439D01*
X92416190Y15117820D01*
X92178095Y15117820D01*
X92082857Y15165439D01*
X92035238Y15213058D01*
%TO.C,JP4*%
X82986666Y18447820D02*
X82986666Y17733534D01*
X82939047Y17590677D01*
X82843809Y17495439D01*
X82700952Y17447820D01*
X82605714Y17447820D01*
X83462857Y17447820D02*
X83462857Y18447820D01*
X83843809Y18447820D01*
X83939047Y18400200D01*
X83986666Y18352581D01*
X84034285Y18257343D01*
X84034285Y18114486D01*
X83986666Y18019248D01*
X83939047Y17971629D01*
X83843809Y17924010D01*
X83462857Y17924010D01*
X84891428Y18114486D02*
X84891428Y17447820D01*
X84653333Y18495439D02*
X84415238Y17781153D01*
X85034285Y17781153D01*
%TO.C,C4*%
X76033333Y30453058D02*
X75985714Y30405439D01*
X75842857Y30357820D01*
X75747619Y30357820D01*
X75604761Y30405439D01*
X75509523Y30500677D01*
X75461904Y30595915D01*
X75414285Y30786391D01*
X75414285Y30929248D01*
X75461904Y31119724D01*
X75509523Y31214962D01*
X75604761Y31310200D01*
X75747619Y31357820D01*
X75842857Y31357820D01*
X75985714Y31310200D01*
X76033333Y31262581D01*
X76890476Y31024486D02*
X76890476Y30357820D01*
X76652380Y31405439D02*
X76414285Y30691153D01*
X77033333Y30691153D01*
%TO.C,X1*%
X84280476Y47697820D02*
X84947142Y46697820D01*
X84947142Y47697820D02*
X84280476Y46697820D01*
X85851904Y46697820D02*
X85280476Y46697820D01*
X85566190Y46697820D02*
X85566190Y47697820D01*
X85470952Y47554962D01*
X85375714Y47459724D01*
X85280476Y47412105D01*
%TO.C,U3*%
X7493095Y23487820D02*
X7493095Y22678296D01*
X7540714Y22583058D01*
X7588333Y22535439D01*
X7683571Y22487820D01*
X7874047Y22487820D01*
X7969285Y22535439D01*
X8016904Y22583058D01*
X8064523Y22678296D01*
X8064523Y23487820D01*
X8445476Y23487820D02*
X9064523Y23487820D01*
X8731190Y23106867D01*
X8874047Y23106867D01*
X8969285Y23059248D01*
X9016904Y23011629D01*
X9064523Y22916391D01*
X9064523Y22678296D01*
X9016904Y22583058D01*
X8969285Y22535439D01*
X8874047Y22487820D01*
X8588333Y22487820D01*
X8493095Y22535439D01*
X8445476Y22583058D01*
%TO.C,JP3*%
X77906666Y15907820D02*
X77906666Y15193534D01*
X77859047Y15050677D01*
X77763809Y14955439D01*
X77620952Y14907820D01*
X77525714Y14907820D01*
X78382857Y14907820D02*
X78382857Y15907820D01*
X78763809Y15907820D01*
X78859047Y15860200D01*
X78906666Y15812581D01*
X78954285Y15717343D01*
X78954285Y15574486D01*
X78906666Y15479248D01*
X78859047Y15431629D01*
X78763809Y15384010D01*
X78382857Y15384010D01*
X79287619Y15907820D02*
X79906666Y15907820D01*
X79573333Y15526867D01*
X79716190Y15526867D01*
X79811428Y15479248D01*
X79859047Y15431629D01*
X79906666Y15336391D01*
X79906666Y15098296D01*
X79859047Y15003058D01*
X79811428Y14955439D01*
X79716190Y14907820D01*
X79430476Y14907820D01*
X79335238Y14955439D01*
X79287619Y15003058D01*
%TO.C,JP2*%
X69302380Y29341867D02*
X70016666Y29341867D01*
X70159523Y29294248D01*
X70254761Y29199010D01*
X70302380Y29056153D01*
X70302380Y28960915D01*
X70302380Y29818058D02*
X69302380Y29818058D01*
X69302380Y30199010D01*
X69350000Y30294248D01*
X69397619Y30341867D01*
X69492857Y30389486D01*
X69635714Y30389486D01*
X69730952Y30341867D01*
X69778571Y30294248D01*
X69826190Y30199010D01*
X69826190Y29818058D01*
X69397619Y30770439D02*
X69350000Y30818058D01*
X69302380Y30913296D01*
X69302380Y31151391D01*
X69350000Y31246629D01*
X69397619Y31294248D01*
X69492857Y31341867D01*
X69588095Y31341867D01*
X69730952Y31294248D01*
X70302380Y30722820D01*
X70302380Y31341867D01*
%TO.C,JP1*%
X66762380Y29341867D02*
X67476666Y29341867D01*
X67619523Y29294248D01*
X67714761Y29199010D01*
X67762380Y29056153D01*
X67762380Y28960915D01*
X67762380Y29818058D02*
X66762380Y29818058D01*
X66762380Y30199010D01*
X66810000Y30294248D01*
X66857619Y30341867D01*
X66952857Y30389486D01*
X67095714Y30389486D01*
X67190952Y30341867D01*
X67238571Y30294248D01*
X67286190Y30199010D01*
X67286190Y29818058D01*
X67762380Y31341867D02*
X67762380Y30770439D01*
X67762380Y31056153D02*
X66762380Y31056153D01*
X66905238Y30960915D01*
X67000476Y30865677D01*
X67048095Y30770439D01*
%TO.C,C5*%
X4278333Y15848058D02*
X4230714Y15800439D01*
X4087857Y15752820D01*
X3992619Y15752820D01*
X3849761Y15800439D01*
X3754523Y15895677D01*
X3706904Y15990915D01*
X3659285Y16181391D01*
X3659285Y16324248D01*
X3706904Y16514724D01*
X3754523Y16609962D01*
X3849761Y16705200D01*
X3992619Y16752820D01*
X4087857Y16752820D01*
X4230714Y16705200D01*
X4278333Y16657581D01*
X5183095Y16752820D02*
X4706904Y16752820D01*
X4659285Y16276629D01*
X4706904Y16324248D01*
X4802142Y16371867D01*
X5040238Y16371867D01*
X5135476Y16324248D01*
X5183095Y16276629D01*
X5230714Y16181391D01*
X5230714Y15943296D01*
X5183095Y15848058D01*
X5135476Y15800439D01*
X5040238Y15752820D01*
X4802142Y15752820D01*
X4706904Y15800439D01*
X4659285Y15848058D01*
%TO.C,C1*%
X39203333Y7593058D02*
X39155714Y7545439D01*
X39012857Y7497820D01*
X38917619Y7497820D01*
X38774761Y7545439D01*
X38679523Y7640677D01*
X38631904Y7735915D01*
X38584285Y7926391D01*
X38584285Y8069248D01*
X38631904Y8259724D01*
X38679523Y8354962D01*
X38774761Y8450200D01*
X38917619Y8497820D01*
X39012857Y8497820D01*
X39155714Y8450200D01*
X39203333Y8402581D01*
X40155714Y7497820D02*
X39584285Y7497820D01*
X39870000Y7497820D02*
X39870000Y8497820D01*
X39774761Y8354962D01*
X39679523Y8259724D01*
X39584285Y8212105D01*
%TO.C,C2*%
X20042142Y44613534D02*
X20089761Y44565915D01*
X20137380Y44423058D01*
X20137380Y44327820D01*
X20089761Y44184962D01*
X19994523Y44089724D01*
X19899285Y44042105D01*
X19708809Y43994486D01*
X19565952Y43994486D01*
X19375476Y44042105D01*
X19280238Y44089724D01*
X19185000Y44184962D01*
X19137380Y44327820D01*
X19137380Y44423058D01*
X19185000Y44565915D01*
X19232619Y44613534D01*
X19232619Y44994486D02*
X19185000Y45042105D01*
X19137380Y45137343D01*
X19137380Y45375439D01*
X19185000Y45470677D01*
X19232619Y45518296D01*
X19327857Y45565915D01*
X19423095Y45565915D01*
X19565952Y45518296D01*
X20137380Y44946867D01*
X20137380Y45565915D01*
%TO.C,C3*%
X77303333Y46963058D02*
X77255714Y46915439D01*
X77112857Y46867820D01*
X77017619Y46867820D01*
X76874761Y46915439D01*
X76779523Y47010677D01*
X76731904Y47105915D01*
X76684285Y47296391D01*
X76684285Y47439248D01*
X76731904Y47629724D01*
X76779523Y47724962D01*
X76874761Y47820200D01*
X77017619Y47867820D01*
X77112857Y47867820D01*
X77255714Y47820200D01*
X77303333Y47772581D01*
X77636666Y47867820D02*
X78255714Y47867820D01*
X77922380Y47486867D01*
X78065238Y47486867D01*
X78160476Y47439248D01*
X78208095Y47391629D01*
X78255714Y47296391D01*
X78255714Y47058296D01*
X78208095Y46963058D01*
X78160476Y46915439D01*
X78065238Y46867820D01*
X77779523Y46867820D01*
X77684285Y46915439D01*
X77636666Y46963058D01*
%TO.C,U2*%
X21252380Y37668296D02*
X22061904Y37668296D01*
X22157142Y37715915D01*
X22204761Y37763534D01*
X22252380Y37858772D01*
X22252380Y38049248D01*
X22204761Y38144486D01*
X22157142Y38192105D01*
X22061904Y38239724D01*
X21252380Y38239724D01*
X21347619Y38668296D02*
X21300000Y38715915D01*
X21252380Y38811153D01*
X21252380Y39049248D01*
X21300000Y39144486D01*
X21347619Y39192105D01*
X21442857Y39239724D01*
X21538095Y39239724D01*
X21680952Y39192105D01*
X22252380Y38620677D01*
X22252380Y39239724D01*
%TO.C,U1*%
X16172380Y17348296D02*
X16981904Y17348296D01*
X17077142Y17395915D01*
X17124761Y17443534D01*
X17172380Y17538772D01*
X17172380Y17729248D01*
X17124761Y17824486D01*
X17077142Y17872105D01*
X16981904Y17919724D01*
X16172380Y17919724D01*
X17172380Y18919724D02*
X17172380Y18348296D01*
X17172380Y18634010D02*
X16172380Y18634010D01*
X16315238Y18538772D01*
X16410476Y18443534D01*
X16458095Y18348296D01*
%TO.C,J1*%
X-1607620Y1266867D02*
X-893334Y1266867D01*
X-750477Y1219248D01*
X-655239Y1124010D01*
X-607620Y981153D01*
X-607620Y885915D01*
X-607620Y2266867D02*
X-607620Y1695439D01*
X-607620Y1981153D02*
X-1607620Y1981153D01*
X-1464762Y1885915D01*
X-1369524Y1790677D01*
X-1321905Y1695439D01*
%TD*%
M02*
