%TF.GenerationSoftware,KiCad,Pcbnew,(5.1.6)-1*%
%TF.CreationDate,2020-11-22T17:12:32-08:00*%
%TF.ProjectId,rc-z80ram,72632d7a-3830-4726-916d-2e6b69636164,rev?*%
%TF.SameCoordinates,PX9157080PY9071968*%
%TF.FileFunction,Legend,Bot*%
%TF.FilePolarity,Positive*%
%FSLAX46Y46*%
G04 Gerber Fmt 4.6, Leading zero omitted, Abs format (unit mm)*
G04 Created by KiCad (PCBNEW (5.1.6)-1) date 2020-11-22 17:12:32*
%MOMM*%
%LPD*%
G01*
G04 APERTURE LIST*
%ADD10C,0.150000*%
%ADD11C,0.381000*%
G04 APERTURE END LIST*
D10*
X24018809Y34850439D02*
X24114047Y34802820D01*
X24304523Y34802820D01*
X24399761Y34850439D01*
X24447380Y34945677D01*
X24447380Y35326629D01*
X24399761Y35421867D01*
X24304523Y35469486D01*
X24114047Y35469486D01*
X24018809Y35421867D01*
X23971190Y35326629D01*
X23971190Y35231391D01*
X24447380Y35136153D01*
X23685476Y35469486D02*
X23304523Y35469486D01*
X23542619Y35802820D02*
X23542619Y34945677D01*
X23495000Y34850439D01*
X23399761Y34802820D01*
X23304523Y34802820D01*
X22542619Y34850439D02*
X22637857Y34802820D01*
X22828333Y34802820D01*
X22923571Y34850439D01*
X22971190Y34898058D01*
X23018809Y34993296D01*
X23018809Y35279010D01*
X22971190Y35374248D01*
X22923571Y35421867D01*
X22828333Y35469486D01*
X22637857Y35469486D01*
X22542619Y35421867D01*
X96718333Y44692820D02*
X96718333Y43978534D01*
X96765952Y43835677D01*
X96861190Y43740439D01*
X97004047Y43692820D01*
X97099285Y43692820D01*
X96242142Y43692820D02*
X96242142Y44692820D01*
X95861190Y44692820D01*
X95765952Y44645200D01*
X95718333Y44597581D01*
X95670714Y44502343D01*
X95670714Y44359486D01*
X95718333Y44264248D01*
X95765952Y44216629D01*
X95861190Y44169010D01*
X96242142Y44169010D01*
X95337380Y44692820D02*
X94718333Y44692820D01*
X95051666Y44311867D01*
X94908809Y44311867D01*
X94813571Y44264248D01*
X94765952Y44216629D01*
X94718333Y44121391D01*
X94718333Y43883296D01*
X94765952Y43788058D01*
X94813571Y43740439D01*
X94908809Y43692820D01*
X95194523Y43692820D01*
X95289761Y43740439D01*
X95337380Y43788058D01*
X94342976Y38073058D02*
X94390595Y38025439D01*
X94533452Y37977820D01*
X94628690Y37977820D01*
X94771547Y38025439D01*
X94866785Y38120677D01*
X94914404Y38215915D01*
X94962023Y38406391D01*
X94962023Y38549248D01*
X94914404Y38739724D01*
X94866785Y38834962D01*
X94771547Y38930200D01*
X94628690Y38977820D01*
X94533452Y38977820D01*
X94390595Y38930200D01*
X94342976Y38882581D01*
X93438214Y37977820D02*
X93914404Y37977820D01*
X93914404Y38977820D01*
X93104880Y37977820D02*
X93104880Y38977820D01*
X92533452Y37977820D02*
X92962023Y38549248D01*
X92533452Y38977820D02*
X93104880Y38406391D01*
X91485833Y38644486D02*
X91104880Y38644486D01*
X91342976Y38977820D02*
X91342976Y38120677D01*
X91295357Y38025439D01*
X91200119Y37977820D01*
X91104880Y37977820D01*
X90628690Y37977820D02*
X90723928Y38025439D01*
X90771547Y38073058D01*
X90819166Y38168296D01*
X90819166Y38454010D01*
X90771547Y38549248D01*
X90723928Y38596867D01*
X90628690Y38644486D01*
X90485833Y38644486D01*
X90390595Y38596867D01*
X90342976Y38549248D01*
X90295357Y38454010D01*
X90295357Y38168296D01*
X90342976Y38073058D01*
X90390595Y38025439D01*
X90485833Y37977820D01*
X90628690Y37977820D01*
X89104880Y37977820D02*
X89104880Y38977820D01*
X89104880Y38596867D02*
X89009642Y38644486D01*
X88819166Y38644486D01*
X88723928Y38596867D01*
X88676309Y38549248D01*
X88628690Y38454010D01*
X88628690Y38168296D01*
X88676309Y38073058D01*
X88723928Y38025439D01*
X88819166Y37977820D01*
X89009642Y37977820D01*
X89104880Y38025439D01*
X87771547Y38644486D02*
X87771547Y37977820D01*
X88200119Y38644486D02*
X88200119Y38120677D01*
X88152500Y38025439D01*
X88057261Y37977820D01*
X87914404Y37977820D01*
X87819166Y38025439D01*
X87771547Y38073058D01*
X87342976Y38025439D02*
X87247738Y37977820D01*
X87057261Y37977820D01*
X86962023Y38025439D01*
X86914404Y38120677D01*
X86914404Y38168296D01*
X86962023Y38263534D01*
X87057261Y38311153D01*
X87200119Y38311153D01*
X87295357Y38358772D01*
X87342976Y38454010D01*
X87342976Y38501629D01*
X87295357Y38596867D01*
X87200119Y38644486D01*
X87057261Y38644486D01*
X86962023Y38596867D01*
X94342976Y41248058D02*
X94390595Y41200439D01*
X94533452Y41152820D01*
X94628690Y41152820D01*
X94771547Y41200439D01*
X94866785Y41295677D01*
X94914404Y41390915D01*
X94962023Y41581391D01*
X94962023Y41724248D01*
X94914404Y41914724D01*
X94866785Y42009962D01*
X94771547Y42105200D01*
X94628690Y42152820D01*
X94533452Y42152820D01*
X94390595Y42105200D01*
X94342976Y42057581D01*
X93438214Y41152820D02*
X93914404Y41152820D01*
X93914404Y42152820D01*
X93104880Y41152820D02*
X93104880Y42152820D01*
X92533452Y41152820D02*
X92962023Y41724248D01*
X92533452Y42152820D02*
X93104880Y41581391D01*
X91485833Y41819486D02*
X91104880Y41819486D01*
X91342976Y41152820D02*
X91342976Y42009962D01*
X91295357Y42105200D01*
X91200119Y42152820D01*
X91104880Y42152820D01*
X90771547Y41152820D02*
X90771547Y41819486D01*
X90771547Y41629010D02*
X90723928Y41724248D01*
X90676309Y41771867D01*
X90581071Y41819486D01*
X90485833Y41819486D01*
X90009642Y41152820D02*
X90104880Y41200439D01*
X90152500Y41248058D01*
X90200119Y41343296D01*
X90200119Y41629010D01*
X90152500Y41724248D01*
X90104880Y41771867D01*
X90009642Y41819486D01*
X89866785Y41819486D01*
X89771547Y41771867D01*
X89723928Y41724248D01*
X89676309Y41629010D01*
X89676309Y41343296D01*
X89723928Y41248058D01*
X89771547Y41200439D01*
X89866785Y41152820D01*
X90009642Y41152820D01*
X89247738Y41152820D02*
X89247738Y41819486D01*
X89247738Y41724248D02*
X89200119Y41771867D01*
X89104880Y41819486D01*
X88962023Y41819486D01*
X88866785Y41771867D01*
X88819166Y41676629D01*
X88819166Y41152820D01*
X88819166Y41676629D02*
X88771547Y41771867D01*
X88676309Y41819486D01*
X88533452Y41819486D01*
X88438214Y41771867D01*
X88390595Y41676629D01*
X88390595Y41152820D01*
X87152500Y41152820D02*
X87152500Y42152820D01*
X87152500Y41771867D02*
X87057261Y41819486D01*
X86866785Y41819486D01*
X86771547Y41771867D01*
X86723928Y41724248D01*
X86676309Y41629010D01*
X86676309Y41343296D01*
X86723928Y41248058D01*
X86771547Y41200439D01*
X86866785Y41152820D01*
X87057261Y41152820D01*
X87152500Y41200439D01*
X85819166Y41819486D02*
X85819166Y41152820D01*
X86247738Y41819486D02*
X86247738Y41295677D01*
X86200119Y41200439D01*
X86104880Y41152820D01*
X85962023Y41152820D01*
X85866785Y41200439D01*
X85819166Y41248058D01*
X85390595Y41200439D02*
X85295357Y41152820D01*
X85104880Y41152820D01*
X85009642Y41200439D01*
X84962023Y41295677D01*
X84962023Y41343296D01*
X85009642Y41438534D01*
X85104880Y41486153D01*
X85247738Y41486153D01*
X85342976Y41533772D01*
X85390595Y41629010D01*
X85390595Y41676629D01*
X85342976Y41771867D01*
X85247738Y41819486D01*
X85104880Y41819486D01*
X85009642Y41771867D01*
X30646428Y35723058D02*
X30694047Y35675439D01*
X30836904Y35627820D01*
X30932142Y35627820D01*
X31075000Y35675439D01*
X31170238Y35770677D01*
X31217857Y35865915D01*
X31265476Y36056391D01*
X31265476Y36199248D01*
X31217857Y36389724D01*
X31170238Y36484962D01*
X31075000Y36580200D01*
X30932142Y36627820D01*
X30836904Y36627820D01*
X30694047Y36580200D01*
X30646428Y36532581D01*
X29741666Y35627820D02*
X30217857Y35627820D01*
X30217857Y36627820D01*
X29408333Y35627820D02*
X29408333Y36627820D01*
X28836904Y35627820D02*
X29265476Y36199248D01*
X28836904Y36627820D02*
X29408333Y36056391D01*
X28455952Y36532581D02*
X28408333Y36580200D01*
X28313095Y36627820D01*
X28075000Y36627820D01*
X27979761Y36580200D01*
X27932142Y36532581D01*
X27884523Y36437343D01*
X27884523Y36342105D01*
X27932142Y36199248D01*
X28503571Y35627820D01*
X27884523Y35627820D01*
X26694047Y36151629D02*
X25932142Y36151629D01*
X25932142Y35865915D02*
X26694047Y35865915D01*
X30932142Y34073058D02*
X30979761Y34025439D01*
X31122619Y33977820D01*
X31217857Y33977820D01*
X31360714Y34025439D01*
X31455952Y34120677D01*
X31503571Y34215915D01*
X31551190Y34406391D01*
X31551190Y34549248D01*
X31503571Y34739724D01*
X31455952Y34834962D01*
X31360714Y34930200D01*
X31217857Y34977820D01*
X31122619Y34977820D01*
X30979761Y34930200D01*
X30932142Y34882581D01*
X30027380Y33977820D02*
X30503571Y33977820D01*
X30503571Y34977820D01*
X29694047Y33977820D02*
X29694047Y34977820D01*
X29122619Y33977820D02*
X29551190Y34549248D01*
X29122619Y34977820D02*
X29694047Y34406391D01*
X27217857Y35025439D02*
X28075000Y33739724D01*
X26217857Y34977820D02*
X25598809Y34977820D01*
X25932142Y34596867D01*
X25789285Y34596867D01*
X25694047Y34549248D01*
X25646428Y34501629D01*
X25598809Y34406391D01*
X25598809Y34168296D01*
X25646428Y34073058D01*
X25694047Y34025439D01*
X25789285Y33977820D01*
X26075000Y33977820D01*
X26170238Y34025439D01*
X26217857Y34073058D01*
X28575000Y39700200D02*
X29845000Y39700200D01*
X29845000Y37160200D02*
X28575000Y37160200D01*
X29845000Y39700200D02*
X29845000Y37160200D01*
X28575000Y37160200D02*
X28575000Y39700200D01*
X95885000Y39700200D02*
X97155000Y39700200D01*
X97155000Y37160200D02*
X95885000Y37160200D01*
D11*
X96520000Y42240073D02*
X96520000Y42239819D01*
D10*
X97155000Y39700200D02*
X97155000Y37160200D01*
X95885000Y37160200D02*
X95885000Y39700200D01*
D11*
X96520000Y40970454D02*
X96520000Y40970200D01*
X96520000Y39065454D02*
X96520000Y39065200D01*
X96520000Y37795073D02*
X96520000Y37794819D01*
D10*
X40171428Y35723058D02*
X40219047Y35675439D01*
X40361904Y35627820D01*
X40457142Y35627820D01*
X40600000Y35675439D01*
X40695238Y35770677D01*
X40742857Y35865915D01*
X40790476Y36056391D01*
X40790476Y36199248D01*
X40742857Y36389724D01*
X40695238Y36484962D01*
X40600000Y36580200D01*
X40457142Y36627820D01*
X40361904Y36627820D01*
X40219047Y36580200D01*
X40171428Y36532581D01*
X39266666Y35627820D02*
X39742857Y35627820D01*
X39742857Y36627820D01*
X38933333Y35627820D02*
X38933333Y36627820D01*
X38361904Y35627820D02*
X38790476Y36199248D01*
X38361904Y36627820D02*
X38933333Y36056391D01*
X37980952Y36532581D02*
X37933333Y36580200D01*
X37838095Y36627820D01*
X37600000Y36627820D01*
X37504761Y36580200D01*
X37457142Y36532581D01*
X37409523Y36437343D01*
X37409523Y36342105D01*
X37457142Y36199248D01*
X38028571Y35627820D01*
X37409523Y35627820D01*
X36219047Y36151629D02*
X35457142Y36151629D01*
X35457142Y35865915D02*
X36219047Y35865915D01*
X40457142Y34073058D02*
X40504761Y34025439D01*
X40647619Y33977820D01*
X40742857Y33977820D01*
X40885714Y34025439D01*
X40980952Y34120677D01*
X41028571Y34215915D01*
X41076190Y34406391D01*
X41076190Y34549248D01*
X41028571Y34739724D01*
X40980952Y34834962D01*
X40885714Y34930200D01*
X40742857Y34977820D01*
X40647619Y34977820D01*
X40504761Y34930200D01*
X40457142Y34882581D01*
X39552380Y33977820D02*
X40028571Y33977820D01*
X40028571Y34977820D01*
X39219047Y33977820D02*
X39219047Y34977820D01*
X38647619Y33977820D02*
X39076190Y34549248D01*
X38647619Y34977820D02*
X39219047Y34406391D01*
X36742857Y35025439D02*
X37600000Y33739724D01*
X35695238Y34882581D02*
X35647619Y34930200D01*
X35552380Y34977820D01*
X35314285Y34977820D01*
X35219047Y34930200D01*
X35171428Y34882581D01*
X35123809Y34787343D01*
X35123809Y34692105D01*
X35171428Y34549248D01*
X35742857Y33977820D01*
X35123809Y33977820D01*
X49696428Y35723058D02*
X49744047Y35675439D01*
X49886904Y35627820D01*
X49982142Y35627820D01*
X50125000Y35675439D01*
X50220238Y35770677D01*
X50267857Y35865915D01*
X50315476Y36056391D01*
X50315476Y36199248D01*
X50267857Y36389724D01*
X50220238Y36484962D01*
X50125000Y36580200D01*
X49982142Y36627820D01*
X49886904Y36627820D01*
X49744047Y36580200D01*
X49696428Y36532581D01*
X48791666Y35627820D02*
X49267857Y35627820D01*
X49267857Y36627820D01*
X48458333Y35627820D02*
X48458333Y36627820D01*
X47886904Y35627820D02*
X48315476Y36199248D01*
X47886904Y36627820D02*
X48458333Y36056391D01*
X47505952Y36532581D02*
X47458333Y36580200D01*
X47363095Y36627820D01*
X47125000Y36627820D01*
X47029761Y36580200D01*
X46982142Y36532581D01*
X46934523Y36437343D01*
X46934523Y36342105D01*
X46982142Y36199248D01*
X47553571Y35627820D01*
X46934523Y35627820D01*
X45744047Y36151629D02*
X44982142Y36151629D01*
X44982142Y35865915D02*
X45744047Y35865915D01*
X49982142Y34073058D02*
X50029761Y34025439D01*
X50172619Y33977820D01*
X50267857Y33977820D01*
X50410714Y34025439D01*
X50505952Y34120677D01*
X50553571Y34215915D01*
X50601190Y34406391D01*
X50601190Y34549248D01*
X50553571Y34739724D01*
X50505952Y34834962D01*
X50410714Y34930200D01*
X50267857Y34977820D01*
X50172619Y34977820D01*
X50029761Y34930200D01*
X49982142Y34882581D01*
X49077380Y33977820D02*
X49553571Y33977820D01*
X49553571Y34977820D01*
X48744047Y33977820D02*
X48744047Y34977820D01*
X48172619Y33977820D02*
X48601190Y34549248D01*
X48172619Y34977820D02*
X48744047Y34406391D01*
X46267857Y35025439D02*
X47125000Y33739724D01*
X44648809Y33977820D02*
X45220238Y33977820D01*
X44934523Y33977820D02*
X44934523Y34977820D01*
X45029761Y34834962D01*
X45125000Y34739724D01*
X45220238Y34692105D01*
X60150000Y34802820D02*
X60150000Y35802820D01*
X59578571Y34802820D01*
X59578571Y35802820D01*
X58959523Y34802820D02*
X59054761Y34850439D01*
X59102380Y34898058D01*
X59150000Y34993296D01*
X59150000Y35279010D01*
X59102380Y35374248D01*
X59054761Y35421867D01*
X58959523Y35469486D01*
X58816666Y35469486D01*
X58721428Y35421867D01*
X58673809Y35374248D01*
X58626190Y35279010D01*
X58626190Y34993296D01*
X58673809Y34898058D01*
X58721428Y34850439D01*
X58816666Y34802820D01*
X58959523Y34802820D01*
X56864285Y34898058D02*
X56911904Y34850439D01*
X57054761Y34802820D01*
X57150000Y34802820D01*
X57292857Y34850439D01*
X57388095Y34945677D01*
X57435714Y35040915D01*
X57483333Y35231391D01*
X57483333Y35374248D01*
X57435714Y35564724D01*
X57388095Y35659962D01*
X57292857Y35755200D01*
X57150000Y35802820D01*
X57054761Y35802820D01*
X56911904Y35755200D01*
X56864285Y35707581D01*
X55959523Y34802820D02*
X56435714Y34802820D01*
X56435714Y35802820D01*
X55626190Y34802820D02*
X55626190Y35802820D01*
X55054761Y34802820D02*
X55483333Y35374248D01*
X55054761Y35802820D02*
X55626190Y35231391D01*
X54673809Y35707581D02*
X54626190Y35755200D01*
X54530952Y35802820D01*
X54292857Y35802820D01*
X54197619Y35755200D01*
X54150000Y35707581D01*
X54102380Y35612343D01*
X54102380Y35517105D01*
X54150000Y35374248D01*
X54721428Y34802820D01*
X54102380Y34802820D01*
X46751428Y42787820D02*
X46751428Y42073534D01*
X46799047Y41930677D01*
X46894285Y41835439D01*
X47037142Y41787820D01*
X47132380Y41787820D01*
X46275238Y41787820D02*
X46275238Y42787820D01*
X45894285Y42787820D01*
X45799047Y42740200D01*
X45751428Y42692581D01*
X45703809Y42597343D01*
X45703809Y42454486D01*
X45751428Y42359248D01*
X45799047Y42311629D01*
X45894285Y42264010D01*
X46275238Y42264010D01*
X44846666Y42454486D02*
X44846666Y41787820D01*
X45084761Y42835439D02*
X45322857Y42121153D01*
X44703809Y42121153D01*
X42751428Y41787820D02*
X42799047Y41787820D01*
X42894285Y41835439D01*
X43037142Y41978296D01*
X43275238Y42264010D01*
X43370476Y42406867D01*
X43418095Y42549724D01*
X43418095Y42644962D01*
X43370476Y42740200D01*
X43275238Y42787820D01*
X43227619Y42787820D01*
X43132380Y42740200D01*
X43084761Y42644962D01*
X43084761Y42597343D01*
X43132380Y42502105D01*
X43180000Y42454486D01*
X43465714Y42264010D01*
X43513333Y42216391D01*
X43560952Y42121153D01*
X43560952Y41978296D01*
X43513333Y41883058D01*
X43465714Y41835439D01*
X43370476Y41787820D01*
X43227619Y41787820D01*
X43132380Y41835439D01*
X43084761Y41883058D01*
X42941904Y42073534D01*
X42894285Y42216391D01*
X42894285Y42311629D01*
X41275238Y42787820D02*
X41275238Y42073534D01*
X41322857Y41930677D01*
X41418095Y41835439D01*
X41560952Y41787820D01*
X41656190Y41787820D01*
X40799047Y41787820D02*
X40799047Y42787820D01*
X40418095Y42787820D01*
X40322857Y42740200D01*
X40275238Y42692581D01*
X40227619Y42597343D01*
X40227619Y42454486D01*
X40275238Y42359248D01*
X40322857Y42311629D01*
X40418095Y42264010D01*
X40799047Y42264010D01*
X39322857Y42787820D02*
X39799047Y42787820D01*
X39846666Y42311629D01*
X39799047Y42359248D01*
X39703809Y42406867D01*
X39465714Y42406867D01*
X39370476Y42359248D01*
X39322857Y42311629D01*
X39275238Y42216391D01*
X39275238Y41978296D01*
X39322857Y41883058D01*
X39370476Y41835439D01*
X39465714Y41787820D01*
X39703809Y41787820D01*
X39799047Y41835439D01*
X39846666Y41883058D01*
X39370000Y39700200D02*
X40640000Y39700200D01*
X40640000Y37160200D02*
X39370000Y37160200D01*
X40640000Y39700200D02*
X40640000Y37160200D01*
X39370000Y37160200D02*
X39370000Y39700200D01*
D11*
X30480000Y37795073D02*
X30480000Y37794819D01*
X27940000Y37795073D02*
X27940000Y37794819D01*
X27940000Y39065454D02*
X27940000Y39065200D01*
X26670000Y37795454D02*
X26670000Y37795200D01*
X25400000Y39065454D02*
X25400000Y39065200D01*
X31750000Y40335454D02*
X31750000Y40335200D01*
X30480000Y39065454D02*
X30480000Y39065200D01*
X29210000Y37795454D02*
X29210000Y37795200D01*
X31750000Y37795454D02*
X31750000Y37795200D01*
X25400000Y37795073D02*
X25400000Y37794819D01*
D10*
X31115000Y40970200D02*
X32385000Y40970200D01*
D11*
X26670000Y39065073D02*
X26670000Y39064819D01*
D10*
X32385000Y38430200D02*
X31115000Y38430200D01*
D11*
X31750000Y39065073D02*
X31750000Y39064819D01*
X29210000Y39065073D02*
X29210000Y39064819D01*
D10*
X32385000Y40970200D02*
X32385000Y38430200D01*
X31115000Y38430200D02*
X31115000Y40970200D01*
D11*
X37465000Y37795073D02*
X37465000Y37794819D01*
X37465000Y39065454D02*
X37465000Y39065200D01*
X41275000Y37795454D02*
X41275000Y37795200D01*
X36195000Y37795454D02*
X36195000Y37795200D01*
X41275000Y40335454D02*
X41275000Y40335200D01*
X34925000Y37795073D02*
X34925000Y37794819D01*
X34925000Y39065454D02*
X34925000Y39065200D01*
D10*
X41910000Y38430200D02*
X40640000Y38430200D01*
D11*
X41275000Y39065073D02*
X41275000Y39064819D01*
D10*
X40640000Y40970200D02*
X41910000Y40970200D01*
D11*
X40005000Y39065454D02*
X40005000Y39065200D01*
D10*
X41910000Y40970200D02*
X41910000Y38430200D01*
D11*
X38735000Y39065073D02*
X38735000Y39064819D01*
X36195000Y39065073D02*
X36195000Y39064819D01*
X40005000Y37795073D02*
X40005000Y37794819D01*
X38735000Y37795454D02*
X38735000Y37795200D01*
D10*
X40640000Y38430200D02*
X40640000Y40970200D01*
D11*
X44450000Y37795073D02*
X44450000Y37794819D01*
X48260000Y39065073D02*
X48260000Y39064819D01*
X44450000Y39065454D02*
X44450000Y39065200D01*
X46990000Y39065454D02*
X46990000Y39065200D01*
X45720000Y39065073D02*
X45720000Y39064819D01*
X46990000Y37795073D02*
X46990000Y37794819D01*
X45720000Y37795454D02*
X45720000Y37795200D01*
X48260000Y37795454D02*
X48260000Y37795200D01*
X50800000Y39065073D02*
X50800000Y39064819D01*
D10*
X51435000Y37160200D02*
X50165000Y37160200D01*
D11*
X50800000Y40335454D02*
X50800000Y40335200D01*
D10*
X50165000Y39700200D02*
X51435000Y39700200D01*
D11*
X50800000Y37795454D02*
X50800000Y37795200D01*
D10*
X51435000Y39700200D02*
X51435000Y37160200D01*
D11*
X49530000Y37795073D02*
X49530000Y37794819D01*
X49530000Y39065454D02*
X49530000Y39065200D01*
D10*
X50165000Y37160200D02*
X50165000Y39700200D01*
D11*
X55245000Y39065073D02*
X55245000Y39064819D01*
X53975000Y39065454D02*
X53975000Y39065200D01*
X53975000Y37795073D02*
X53975000Y37794819D01*
X55245000Y37795454D02*
X55245000Y37795200D01*
X57785000Y39065073D02*
X57785000Y39064819D01*
X57785000Y37795454D02*
X57785000Y37795200D01*
X56515000Y37795073D02*
X56515000Y37794819D01*
X56515000Y39065454D02*
X56515000Y39065200D01*
D10*
X16809404Y30722820D02*
X16809404Y29913296D01*
X16761785Y29818058D01*
X16714166Y29770439D01*
X16618928Y29722820D01*
X16428452Y29722820D01*
X16333214Y29770439D01*
X16285595Y29818058D01*
X16237976Y29913296D01*
X16237976Y30722820D01*
X15809404Y29770439D02*
X15714166Y29722820D01*
X15523690Y29722820D01*
X15428452Y29770439D01*
X15380833Y29865677D01*
X15380833Y29913296D01*
X15428452Y30008534D01*
X15523690Y30056153D01*
X15666547Y30056153D01*
X15761785Y30103772D01*
X15809404Y30199010D01*
X15809404Y30246629D01*
X15761785Y30341867D01*
X15666547Y30389486D01*
X15523690Y30389486D01*
X15428452Y30341867D01*
X14571309Y29770439D02*
X14666547Y29722820D01*
X14857023Y29722820D01*
X14952261Y29770439D01*
X14999880Y29865677D01*
X14999880Y30246629D01*
X14952261Y30341867D01*
X14857023Y30389486D01*
X14666547Y30389486D01*
X14571309Y30341867D01*
X14523690Y30246629D01*
X14523690Y30151391D01*
X14999880Y30056153D01*
X13333214Y29722820D02*
X13333214Y30722820D01*
X12952261Y30722820D01*
X12857023Y30675200D01*
X12809404Y30627581D01*
X12761785Y30532343D01*
X12761785Y30389486D01*
X12809404Y30294248D01*
X12857023Y30246629D01*
X12952261Y30199010D01*
X13333214Y30199010D01*
X12380833Y30008534D02*
X11904642Y30008534D01*
X12476071Y29722820D02*
X12142738Y30722820D01*
X11809404Y29722820D01*
X10952261Y30675200D02*
X11047500Y30722820D01*
X11190357Y30722820D01*
X11333214Y30675200D01*
X11428452Y30579962D01*
X11476071Y30484724D01*
X11523690Y30294248D01*
X11523690Y30151391D01*
X11476071Y29960915D01*
X11428452Y29865677D01*
X11333214Y29770439D01*
X11190357Y29722820D01*
X11095119Y29722820D01*
X10952261Y29770439D01*
X10904642Y29818058D01*
X10904642Y30151391D01*
X11095119Y30151391D01*
X10476071Y30246629D02*
X10142738Y30246629D01*
X9999880Y29722820D02*
X10476071Y29722820D01*
X10476071Y30722820D01*
X9999880Y30722820D01*
X8857023Y29770439D02*
X8761785Y29722820D01*
X8571309Y29722820D01*
X8476071Y29770439D01*
X8428452Y29865677D01*
X8428452Y29913296D01*
X8476071Y30008534D01*
X8571309Y30056153D01*
X8714166Y30056153D01*
X8809404Y30103772D01*
X8857023Y30199010D01*
X8857023Y30246629D01*
X8809404Y30341867D01*
X8714166Y30389486D01*
X8571309Y30389486D01*
X8476071Y30341867D01*
X7999880Y29722820D02*
X7999880Y30389486D01*
X7999880Y30722820D02*
X8047500Y30675200D01*
X7999880Y30627581D01*
X7952261Y30675200D01*
X7999880Y30722820D01*
X7999880Y30627581D01*
X7095119Y30389486D02*
X7095119Y29579962D01*
X7142738Y29484724D01*
X7190357Y29437105D01*
X7285595Y29389486D01*
X7428452Y29389486D01*
X7523690Y29437105D01*
X7095119Y29770439D02*
X7190357Y29722820D01*
X7380833Y29722820D01*
X7476071Y29770439D01*
X7523690Y29818058D01*
X7571309Y29913296D01*
X7571309Y30199010D01*
X7523690Y30294248D01*
X7476071Y30341867D01*
X7380833Y30389486D01*
X7190357Y30389486D01*
X7095119Y30341867D01*
X6618928Y30389486D02*
X6618928Y29722820D01*
X6618928Y30294248D02*
X6571309Y30341867D01*
X6476071Y30389486D01*
X6333214Y30389486D01*
X6237976Y30341867D01*
X6190357Y30246629D01*
X6190357Y29722820D01*
X5285595Y29722820D02*
X5285595Y30246629D01*
X5333214Y30341867D01*
X5428452Y30389486D01*
X5618928Y30389486D01*
X5714166Y30341867D01*
X5285595Y29770439D02*
X5380833Y29722820D01*
X5618928Y29722820D01*
X5714166Y29770439D01*
X5761785Y29865677D01*
X5761785Y29960915D01*
X5714166Y30056153D01*
X5618928Y30103772D01*
X5380833Y30103772D01*
X5285595Y30151391D01*
X4666547Y29722820D02*
X4761785Y29770439D01*
X4809404Y29865677D01*
X4809404Y30722820D01*
X16380833Y35802820D02*
X16571309Y35802820D01*
X16666547Y35755200D01*
X16714166Y35707581D01*
X16809404Y35564724D01*
X16857023Y35374248D01*
X16857023Y34993296D01*
X16809404Y34898058D01*
X16761785Y34850439D01*
X16666547Y34802820D01*
X16476071Y34802820D01*
X16380833Y34850439D01*
X16333214Y34898058D01*
X16285595Y34993296D01*
X16285595Y35231391D01*
X16333214Y35326629D01*
X16380833Y35374248D01*
X16476071Y35421867D01*
X16666547Y35421867D01*
X16761785Y35374248D01*
X16809404Y35326629D01*
X16857023Y35231391D01*
X15428452Y35469486D02*
X15428452Y34802820D01*
X15666547Y35850439D02*
X15904642Y35136153D01*
X15285595Y35136153D01*
X14904642Y34802820D02*
X14904642Y35802820D01*
X14333214Y34802820D02*
X14761785Y35374248D01*
X14333214Y35802820D02*
X14904642Y35231391D01*
X12571309Y34802820D02*
X12904642Y35279010D01*
X13142738Y34802820D02*
X13142738Y35802820D01*
X12761785Y35802820D01*
X12666547Y35755200D01*
X12618928Y35707581D01*
X12571309Y35612343D01*
X12571309Y35469486D01*
X12618928Y35374248D01*
X12666547Y35326629D01*
X12761785Y35279010D01*
X13142738Y35279010D01*
X12190357Y35088534D02*
X11714166Y35088534D01*
X12285595Y34802820D02*
X11952261Y35802820D01*
X11618928Y34802820D01*
X11285595Y34802820D02*
X11285595Y35802820D01*
X10952261Y35088534D01*
X10618928Y35802820D01*
X10618928Y34802820D01*
X16809404Y39882820D02*
X16809404Y40882820D01*
X16237976Y39882820D01*
X16237976Y40882820D01*
X15618928Y39882820D02*
X15714166Y39930439D01*
X15761785Y39978058D01*
X15809404Y40073296D01*
X15809404Y40359010D01*
X15761785Y40454248D01*
X15714166Y40501867D01*
X15618928Y40549486D01*
X15476071Y40549486D01*
X15380833Y40501867D01*
X15333214Y40454248D01*
X15285595Y40359010D01*
X15285595Y40073296D01*
X15333214Y39978058D01*
X15380833Y39930439D01*
X15476071Y39882820D01*
X15618928Y39882820D01*
X13523690Y39882820D02*
X13857023Y40359010D01*
X14095119Y39882820D02*
X14095119Y40882820D01*
X13714166Y40882820D01*
X13618928Y40835200D01*
X13571309Y40787581D01*
X13523690Y40692343D01*
X13523690Y40549486D01*
X13571309Y40454248D01*
X13618928Y40406629D01*
X13714166Y40359010D01*
X14095119Y40359010D01*
X13142738Y40168534D02*
X12666547Y40168534D01*
X13237976Y39882820D02*
X12904642Y40882820D01*
X12571309Y39882820D01*
X12237976Y39882820D02*
X12237976Y40882820D01*
X11904642Y40168534D01*
X11571309Y40882820D01*
X11571309Y39882820D01*
X19446428Y44692820D02*
X19446428Y43978534D01*
X19494047Y43835677D01*
X19589285Y43740439D01*
X19732142Y43692820D01*
X19827380Y43692820D01*
X18970238Y43692820D02*
X18970238Y44692820D01*
X18589285Y44692820D01*
X18494047Y44645200D01*
X18446428Y44597581D01*
X18398809Y44502343D01*
X18398809Y44359486D01*
X18446428Y44264248D01*
X18494047Y44216629D01*
X18589285Y44169010D01*
X18970238Y44169010D01*
X17446428Y43692820D02*
X18017857Y43692820D01*
X17732142Y43692820D02*
X17732142Y44692820D01*
X17827380Y44549962D01*
X17922619Y44454724D01*
X18017857Y44407105D01*
X15446428Y43692820D02*
X15494047Y43692820D01*
X15589285Y43740439D01*
X15732142Y43883296D01*
X15970238Y44169010D01*
X16065476Y44311867D01*
X16113095Y44454724D01*
X16113095Y44549962D01*
X16065476Y44645200D01*
X15970238Y44692820D01*
X15922619Y44692820D01*
X15827380Y44645200D01*
X15779761Y44549962D01*
X15779761Y44502343D01*
X15827380Y44407105D01*
X15875000Y44359486D01*
X16160714Y44169010D01*
X16208333Y44121391D01*
X16255952Y44026153D01*
X16255952Y43883296D01*
X16208333Y43788058D01*
X16160714Y43740439D01*
X16065476Y43692820D01*
X15922619Y43692820D01*
X15827380Y43740439D01*
X15779761Y43788058D01*
X15636904Y43978534D01*
X15589285Y44121391D01*
X15589285Y44216629D01*
X13970238Y44692820D02*
X13970238Y43978534D01*
X14017857Y43835677D01*
X14113095Y43740439D01*
X14255952Y43692820D01*
X14351190Y43692820D01*
X13494047Y43692820D02*
X13494047Y44692820D01*
X13113095Y44692820D01*
X13017857Y44645200D01*
X12970238Y44597581D01*
X12922619Y44502343D01*
X12922619Y44359486D01*
X12970238Y44264248D01*
X13017857Y44216629D01*
X13113095Y44169010D01*
X13494047Y44169010D01*
X12541666Y44597581D02*
X12494047Y44645200D01*
X12398809Y44692820D01*
X12160714Y44692820D01*
X12065476Y44645200D01*
X12017857Y44597581D01*
X11970238Y44502343D01*
X11970238Y44407105D01*
X12017857Y44264248D01*
X12589285Y43692820D01*
X11970238Y43692820D01*
X20320000Y30810200D02*
X20320000Y28270200D01*
X20320000Y28270200D02*
X19050000Y28270200D01*
X19050000Y30810200D02*
X20320000Y30810200D01*
X19050000Y28270200D02*
X19050000Y30810200D01*
D11*
X19685000Y30175073D02*
X19685000Y30174819D01*
D10*
X19050000Y28270200D02*
X17780000Y28270200D01*
D11*
X19685000Y31445454D02*
X19685000Y31445200D01*
D10*
X17780000Y30810200D02*
X19050000Y30810200D01*
D11*
X18415000Y31445200D02*
X18415000Y31444946D01*
X19685000Y28905454D02*
X19685000Y28905200D01*
D10*
X19050000Y30810200D02*
X19050000Y28270200D01*
D11*
X18415000Y28905073D02*
X18415000Y28904819D01*
X18415000Y30175454D02*
X18415000Y30175200D01*
D10*
X17780000Y28270200D02*
X17780000Y30810200D01*
X20320000Y42240200D02*
X20320000Y39700200D01*
X20320000Y39700200D02*
X19050000Y39700200D01*
X19050000Y39700200D02*
X19050000Y42240200D01*
X19050000Y42240200D02*
X20320000Y42240200D01*
D11*
X19685000Y40335073D02*
X19685000Y40334819D01*
D10*
X19050000Y39700200D02*
X17780000Y39700200D01*
D11*
X19685000Y41605454D02*
X19685000Y41605200D01*
D10*
X17780000Y42240200D02*
X19050000Y42240200D01*
D11*
X18415000Y41605200D02*
X18415000Y41604946D01*
X19685000Y39065454D02*
X19685000Y39065200D01*
D10*
X19050000Y42240200D02*
X19050000Y39700200D01*
D11*
X18415000Y39065073D02*
X18415000Y39064819D01*
X18415000Y40335454D02*
X18415000Y40335200D01*
D10*
X17780000Y39700200D02*
X17780000Y42240200D01*
X19050000Y35890200D02*
X19050000Y33350200D01*
X19050000Y33350200D02*
X17780000Y33350200D01*
X17780000Y33350200D02*
X17780000Y35890200D01*
X17780000Y35890200D02*
X19050000Y35890200D01*
D11*
X19685000Y35255073D02*
X19685000Y35254819D01*
D10*
X20320000Y34620200D02*
X19050000Y34620200D01*
D11*
X19685000Y36525454D02*
X19685000Y36525200D01*
D10*
X19050000Y37160200D02*
X20320000Y37160200D01*
D11*
X18415000Y36525200D02*
X18415000Y36524946D01*
X19685000Y33985454D02*
X19685000Y33985200D01*
D10*
X20320000Y37160200D02*
X20320000Y34620200D01*
D11*
X18415000Y33985073D02*
X18415000Y33984819D01*
X18415000Y35255454D02*
X18415000Y35255200D01*
D10*
X19050000Y34620200D02*
X19050000Y37160200D01*
D11*
X59055000Y37795073D02*
X59055000Y37794819D01*
X60325000Y37795454D02*
X60325000Y37795200D01*
X60325000Y40335454D02*
X60325000Y40335200D01*
X60325000Y39065073D02*
X60325000Y39064819D01*
X59055000Y39065454D02*
X59055000Y39065200D01*
D10*
X36591714Y23131629D02*
X36448857Y23084010D01*
X36401238Y23036391D01*
X36353619Y22941153D01*
X36353619Y22798296D01*
X36401238Y22703058D01*
X36448857Y22655439D01*
X36544095Y22607820D01*
X36925047Y22607820D01*
X36925047Y23607820D01*
X36591714Y23607820D01*
X36496476Y23560200D01*
X36448857Y23512581D01*
X36401238Y23417343D01*
X36401238Y23322105D01*
X36448857Y23226867D01*
X36496476Y23179248D01*
X36591714Y23131629D01*
X36925047Y23131629D01*
X35496476Y22607820D02*
X35496476Y23131629D01*
X35544095Y23226867D01*
X35639333Y23274486D01*
X35829809Y23274486D01*
X35925047Y23226867D01*
X35496476Y22655439D02*
X35591714Y22607820D01*
X35829809Y22607820D01*
X35925047Y22655439D01*
X35972666Y22750677D01*
X35972666Y22845915D01*
X35925047Y22941153D01*
X35829809Y22988772D01*
X35591714Y22988772D01*
X35496476Y23036391D01*
X34591714Y23274486D02*
X34591714Y22607820D01*
X35020285Y23274486D02*
X35020285Y22750677D01*
X34972666Y22655439D01*
X34877428Y22607820D01*
X34734571Y22607820D01*
X34639333Y22655439D01*
X34591714Y22703058D01*
X33686952Y22607820D02*
X33686952Y23607820D01*
X33686952Y22655439D02*
X33782190Y22607820D01*
X33972666Y22607820D01*
X34067904Y22655439D01*
X34115523Y22703058D01*
X34163142Y22798296D01*
X34163142Y23084010D01*
X34115523Y23179248D01*
X34067904Y23226867D01*
X33972666Y23274486D01*
X33782190Y23274486D01*
X33686952Y23226867D01*
X37401238Y20957820D02*
X37972666Y20957820D01*
X37686952Y20957820D02*
X37686952Y21957820D01*
X37782190Y21814962D01*
X37877428Y21719724D01*
X37972666Y21672105D01*
X36448857Y20957820D02*
X37020285Y20957820D01*
X36734571Y20957820D02*
X36734571Y21957820D01*
X36829809Y21814962D01*
X36925047Y21719724D01*
X37020285Y21672105D01*
X35544095Y21957820D02*
X36020285Y21957820D01*
X36067904Y21481629D01*
X36020285Y21529248D01*
X35925047Y21576867D01*
X35686952Y21576867D01*
X35591714Y21529248D01*
X35544095Y21481629D01*
X35496476Y21386391D01*
X35496476Y21148296D01*
X35544095Y21053058D01*
X35591714Y21005439D01*
X35686952Y20957820D01*
X35925047Y20957820D01*
X36020285Y21005439D01*
X36067904Y21053058D01*
X35115523Y21862581D02*
X35067904Y21910200D01*
X34972666Y21957820D01*
X34734571Y21957820D01*
X34639333Y21910200D01*
X34591714Y21862581D01*
X34544095Y21767343D01*
X34544095Y21672105D01*
X34591714Y21529248D01*
X35163142Y20957820D01*
X34544095Y20957820D01*
X33925047Y21957820D02*
X33829809Y21957820D01*
X33734571Y21910200D01*
X33686952Y21862581D01*
X33639333Y21767343D01*
X33591714Y21576867D01*
X33591714Y21338772D01*
X33639333Y21148296D01*
X33686952Y21053058D01*
X33734571Y21005439D01*
X33829809Y20957820D01*
X33925047Y20957820D01*
X34020285Y21005439D01*
X34067904Y21053058D01*
X34115523Y21148296D01*
X34163142Y21338772D01*
X34163142Y21576867D01*
X34115523Y21767343D01*
X34067904Y21862581D01*
X34020285Y21910200D01*
X33925047Y21957820D01*
X32972666Y21957820D02*
X32877428Y21957820D01*
X32782190Y21910200D01*
X32734571Y21862581D01*
X32686952Y21767343D01*
X32639333Y21576867D01*
X32639333Y21338772D01*
X32686952Y21148296D01*
X32734571Y21053058D01*
X32782190Y21005439D01*
X32877428Y20957820D01*
X32972666Y20957820D01*
X33067904Y21005439D01*
X33115523Y21053058D01*
X33163142Y21148296D01*
X33210761Y21338772D01*
X33210761Y21576867D01*
X33163142Y21767343D01*
X33115523Y21862581D01*
X33067904Y21910200D01*
X32972666Y21957820D01*
X36591714Y20307820D02*
X37067904Y20307820D01*
X37115523Y19831629D01*
X37067904Y19879248D01*
X36972666Y19926867D01*
X36734571Y19926867D01*
X36639333Y19879248D01*
X36591714Y19831629D01*
X36544095Y19736391D01*
X36544095Y19498296D01*
X36591714Y19403058D01*
X36639333Y19355439D01*
X36734571Y19307820D01*
X36972666Y19307820D01*
X37067904Y19355439D01*
X37115523Y19403058D01*
X36210761Y20307820D02*
X35544095Y20307820D01*
X35972666Y19307820D01*
X34734571Y20307820D02*
X34925047Y20307820D01*
X35020285Y20260200D01*
X35067904Y20212581D01*
X35163142Y20069724D01*
X35210761Y19879248D01*
X35210761Y19498296D01*
X35163142Y19403058D01*
X35115523Y19355439D01*
X35020285Y19307820D01*
X34829809Y19307820D01*
X34734571Y19355439D01*
X34686952Y19403058D01*
X34639333Y19498296D01*
X34639333Y19736391D01*
X34686952Y19831629D01*
X34734571Y19879248D01*
X34829809Y19926867D01*
X35020285Y19926867D01*
X35115523Y19879248D01*
X35163142Y19831629D01*
X35210761Y19736391D01*
X34020285Y20307820D02*
X33925047Y20307820D01*
X33829809Y20260200D01*
X33782190Y20212581D01*
X33734571Y20117343D01*
X33686952Y19926867D01*
X33686952Y19688772D01*
X33734571Y19498296D01*
X33782190Y19403058D01*
X33829809Y19355439D01*
X33925047Y19307820D01*
X34020285Y19307820D01*
X34115523Y19355439D01*
X34163142Y19403058D01*
X34210761Y19498296D01*
X34258380Y19688772D01*
X34258380Y19926867D01*
X34210761Y20117343D01*
X34163142Y20212581D01*
X34115523Y20260200D01*
X34020285Y20307820D01*
X33067904Y20307820D02*
X32972666Y20307820D01*
X32877428Y20260200D01*
X32829809Y20212581D01*
X32782190Y20117343D01*
X32734571Y19926867D01*
X32734571Y19688772D01*
X32782190Y19498296D01*
X32829809Y19403058D01*
X32877428Y19355439D01*
X32972666Y19307820D01*
X33067904Y19307820D01*
X33163142Y19355439D01*
X33210761Y19403058D01*
X33258380Y19498296D01*
X33306000Y19688772D01*
X33306000Y19926867D01*
X33258380Y20117343D01*
X33210761Y20212581D01*
X33163142Y20260200D01*
X33067904Y20307820D01*
X37163142Y18657820D02*
X36544095Y18657820D01*
X36877428Y18276867D01*
X36734571Y18276867D01*
X36639333Y18229248D01*
X36591714Y18181629D01*
X36544095Y18086391D01*
X36544095Y17848296D01*
X36591714Y17753058D01*
X36639333Y17705439D01*
X36734571Y17657820D01*
X37020285Y17657820D01*
X37115523Y17705439D01*
X37163142Y17753058D01*
X35972666Y18229248D02*
X36067904Y18276867D01*
X36115523Y18324486D01*
X36163142Y18419724D01*
X36163142Y18467343D01*
X36115523Y18562581D01*
X36067904Y18610200D01*
X35972666Y18657820D01*
X35782190Y18657820D01*
X35686952Y18610200D01*
X35639333Y18562581D01*
X35591714Y18467343D01*
X35591714Y18419724D01*
X35639333Y18324486D01*
X35686952Y18276867D01*
X35782190Y18229248D01*
X35972666Y18229248D01*
X36067904Y18181629D01*
X36115523Y18134010D01*
X36163142Y18038772D01*
X36163142Y17848296D01*
X36115523Y17753058D01*
X36067904Y17705439D01*
X35972666Y17657820D01*
X35782190Y17657820D01*
X35686952Y17705439D01*
X35639333Y17753058D01*
X35591714Y17848296D01*
X35591714Y18038772D01*
X35639333Y18134010D01*
X35686952Y18181629D01*
X35782190Y18229248D01*
X34734571Y18324486D02*
X34734571Y17657820D01*
X34972666Y18705439D02*
X35210761Y17991153D01*
X34591714Y17991153D01*
X34020285Y18657820D02*
X33925047Y18657820D01*
X33829809Y18610200D01*
X33782190Y18562581D01*
X33734571Y18467343D01*
X33686952Y18276867D01*
X33686952Y18038772D01*
X33734571Y17848296D01*
X33782190Y17753058D01*
X33829809Y17705439D01*
X33925047Y17657820D01*
X34020285Y17657820D01*
X34115523Y17705439D01*
X34163142Y17753058D01*
X34210761Y17848296D01*
X34258380Y18038772D01*
X34258380Y18276867D01*
X34210761Y18467343D01*
X34163142Y18562581D01*
X34115523Y18610200D01*
X34020285Y18657820D01*
X33067904Y18657820D02*
X32972666Y18657820D01*
X32877428Y18610200D01*
X32829809Y18562581D01*
X32782190Y18467343D01*
X32734571Y18276867D01*
X32734571Y18038772D01*
X32782190Y17848296D01*
X32829809Y17753058D01*
X32877428Y17705439D01*
X32972666Y17657820D01*
X33067904Y17657820D01*
X33163142Y17705439D01*
X33210761Y17753058D01*
X33258380Y17848296D01*
X33306000Y18038772D01*
X33306000Y18276867D01*
X33258380Y18467343D01*
X33210761Y18562581D01*
X33163142Y18610200D01*
X33067904Y18657820D01*
X37115523Y16912581D02*
X37067904Y16960200D01*
X36972666Y17007820D01*
X36734571Y17007820D01*
X36639333Y16960200D01*
X36591714Y16912581D01*
X36544095Y16817343D01*
X36544095Y16722105D01*
X36591714Y16579248D01*
X37163142Y16007820D01*
X36544095Y16007820D01*
X35972666Y16579248D02*
X36067904Y16626867D01*
X36115523Y16674486D01*
X36163142Y16769724D01*
X36163142Y16817343D01*
X36115523Y16912581D01*
X36067904Y16960200D01*
X35972666Y17007820D01*
X35782190Y17007820D01*
X35686952Y16960200D01*
X35639333Y16912581D01*
X35591714Y16817343D01*
X35591714Y16769724D01*
X35639333Y16674486D01*
X35686952Y16626867D01*
X35782190Y16579248D01*
X35972666Y16579248D01*
X36067904Y16531629D01*
X36115523Y16484010D01*
X36163142Y16388772D01*
X36163142Y16198296D01*
X36115523Y16103058D01*
X36067904Y16055439D01*
X35972666Y16007820D01*
X35782190Y16007820D01*
X35686952Y16055439D01*
X35639333Y16103058D01*
X35591714Y16198296D01*
X35591714Y16388772D01*
X35639333Y16484010D01*
X35686952Y16531629D01*
X35782190Y16579248D01*
X35020285Y16579248D02*
X35115523Y16626867D01*
X35163142Y16674486D01*
X35210761Y16769724D01*
X35210761Y16817343D01*
X35163142Y16912581D01*
X35115523Y16960200D01*
X35020285Y17007820D01*
X34829809Y17007820D01*
X34734571Y16960200D01*
X34686952Y16912581D01*
X34639333Y16817343D01*
X34639333Y16769724D01*
X34686952Y16674486D01*
X34734571Y16626867D01*
X34829809Y16579248D01*
X35020285Y16579248D01*
X35115523Y16531629D01*
X35163142Y16484010D01*
X35210761Y16388772D01*
X35210761Y16198296D01*
X35163142Y16103058D01*
X35115523Y16055439D01*
X35020285Y16007820D01*
X34829809Y16007820D01*
X34734571Y16055439D01*
X34686952Y16103058D01*
X34639333Y16198296D01*
X34639333Y16388772D01*
X34686952Y16484010D01*
X34734571Y16531629D01*
X34829809Y16579248D01*
X34020285Y17007820D02*
X33925047Y17007820D01*
X33829809Y16960200D01*
X33782190Y16912581D01*
X33734571Y16817343D01*
X33686952Y16626867D01*
X33686952Y16388772D01*
X33734571Y16198296D01*
X33782190Y16103058D01*
X33829809Y16055439D01*
X33925047Y16007820D01*
X34020285Y16007820D01*
X34115523Y16055439D01*
X34163142Y16103058D01*
X34210761Y16198296D01*
X34258380Y16388772D01*
X34258380Y16626867D01*
X34210761Y16817343D01*
X34163142Y16912581D01*
X34115523Y16960200D01*
X34020285Y17007820D01*
X33067904Y17007820D02*
X32972666Y17007820D01*
X32877428Y16960200D01*
X32829809Y16912581D01*
X32782190Y16817343D01*
X32734571Y16626867D01*
X32734571Y16388772D01*
X32782190Y16198296D01*
X32829809Y16103058D01*
X32877428Y16055439D01*
X32972666Y16007820D01*
X33067904Y16007820D01*
X33163142Y16055439D01*
X33210761Y16103058D01*
X33258380Y16198296D01*
X33306000Y16388772D01*
X33306000Y16626867D01*
X33258380Y16817343D01*
X33210761Y16912581D01*
X33163142Y16960200D01*
X33067904Y17007820D01*
X36544095Y14357820D02*
X37115523Y14357820D01*
X36829809Y14357820D02*
X36829809Y15357820D01*
X36925047Y15214962D01*
X37020285Y15119724D01*
X37115523Y15072105D01*
X36067904Y14357820D02*
X35877428Y14357820D01*
X35782190Y14405439D01*
X35734571Y14453058D01*
X35639333Y14595915D01*
X35591714Y14786391D01*
X35591714Y15167343D01*
X35639333Y15262581D01*
X35686952Y15310200D01*
X35782190Y15357820D01*
X35972666Y15357820D01*
X36067904Y15310200D01*
X36115523Y15262581D01*
X36163142Y15167343D01*
X36163142Y14929248D01*
X36115523Y14834010D01*
X36067904Y14786391D01*
X35972666Y14738772D01*
X35782190Y14738772D01*
X35686952Y14786391D01*
X35639333Y14834010D01*
X35591714Y14929248D01*
X35210761Y15262581D02*
X35163142Y15310200D01*
X35067904Y15357820D01*
X34829809Y15357820D01*
X34734571Y15310200D01*
X34686952Y15262581D01*
X34639333Y15167343D01*
X34639333Y15072105D01*
X34686952Y14929248D01*
X35258380Y14357820D01*
X34639333Y14357820D01*
X34020285Y15357820D02*
X33925047Y15357820D01*
X33829809Y15310200D01*
X33782190Y15262581D01*
X33734571Y15167343D01*
X33686952Y14976867D01*
X33686952Y14738772D01*
X33734571Y14548296D01*
X33782190Y14453058D01*
X33829809Y14405439D01*
X33925047Y14357820D01*
X34020285Y14357820D01*
X34115523Y14405439D01*
X34163142Y14453058D01*
X34210761Y14548296D01*
X34258380Y14738772D01*
X34258380Y14976867D01*
X34210761Y15167343D01*
X34163142Y15262581D01*
X34115523Y15310200D01*
X34020285Y15357820D01*
X33067904Y15357820D02*
X32972666Y15357820D01*
X32877428Y15310200D01*
X32829809Y15262581D01*
X32782190Y15167343D01*
X32734571Y14976867D01*
X32734571Y14738772D01*
X32782190Y14548296D01*
X32829809Y14453058D01*
X32877428Y14405439D01*
X32972666Y14357820D01*
X33067904Y14357820D01*
X33163142Y14405439D01*
X33210761Y14453058D01*
X33258380Y14548296D01*
X33306000Y14738772D01*
X33306000Y14976867D01*
X33258380Y15167343D01*
X33210761Y15262581D01*
X33163142Y15310200D01*
X33067904Y15357820D01*
X36544095Y12707820D02*
X37115523Y12707820D01*
X36829809Y12707820D02*
X36829809Y13707820D01*
X36925047Y13564962D01*
X37020285Y13469724D01*
X37115523Y13422105D01*
X35686952Y13374486D02*
X35686952Y12707820D01*
X35925047Y13755439D02*
X36163142Y13041153D01*
X35544095Y13041153D01*
X34734571Y13374486D02*
X34734571Y12707820D01*
X34972666Y13755439D02*
X35210761Y13041153D01*
X34591714Y13041153D01*
X34020285Y13707820D02*
X33925047Y13707820D01*
X33829809Y13660200D01*
X33782190Y13612581D01*
X33734571Y13517343D01*
X33686952Y13326867D01*
X33686952Y13088772D01*
X33734571Y12898296D01*
X33782190Y12803058D01*
X33829809Y12755439D01*
X33925047Y12707820D01*
X34020285Y12707820D01*
X34115523Y12755439D01*
X34163142Y12803058D01*
X34210761Y12898296D01*
X34258380Y13088772D01*
X34258380Y13326867D01*
X34210761Y13517343D01*
X34163142Y13612581D01*
X34115523Y13660200D01*
X34020285Y13707820D01*
X33067904Y13707820D02*
X32972666Y13707820D01*
X32877428Y13660200D01*
X32829809Y13612581D01*
X32782190Y13517343D01*
X32734571Y13326867D01*
X32734571Y13088772D01*
X32782190Y12898296D01*
X32829809Y12803058D01*
X32877428Y12755439D01*
X32972666Y12707820D01*
X33067904Y12707820D01*
X33163142Y12755439D01*
X33210761Y12803058D01*
X33258380Y12898296D01*
X33306000Y13088772D01*
X33306000Y13326867D01*
X33258380Y13517343D01*
X33210761Y13612581D01*
X33163142Y13660200D01*
X33067904Y13707820D01*
X45180095Y22703058D02*
X45227714Y22655439D01*
X45370571Y22607820D01*
X45465809Y22607820D01*
X45608666Y22655439D01*
X45703904Y22750677D01*
X45751523Y22845915D01*
X45799142Y23036391D01*
X45799142Y23179248D01*
X45751523Y23369724D01*
X45703904Y23464962D01*
X45608666Y23560200D01*
X45465809Y23607820D01*
X45370571Y23607820D01*
X45227714Y23560200D01*
X45180095Y23512581D01*
X44608666Y22607820D02*
X44703904Y22655439D01*
X44751523Y22750677D01*
X44751523Y23607820D01*
X44084857Y22607820D02*
X44180095Y22655439D01*
X44227714Y22703058D01*
X44275333Y22798296D01*
X44275333Y23084010D01*
X44227714Y23179248D01*
X44180095Y23226867D01*
X44084857Y23274486D01*
X43942000Y23274486D01*
X43846761Y23226867D01*
X43799142Y23179248D01*
X43751523Y23084010D01*
X43751523Y22798296D01*
X43799142Y22703058D01*
X43846761Y22655439D01*
X43942000Y22607820D01*
X44084857Y22607820D01*
X42894380Y22655439D02*
X42989619Y22607820D01*
X43180095Y22607820D01*
X43275333Y22655439D01*
X43322952Y22703058D01*
X43370571Y22798296D01*
X43370571Y23084010D01*
X43322952Y23179248D01*
X43275333Y23226867D01*
X43180095Y23274486D01*
X42989619Y23274486D01*
X42894380Y23226867D01*
X42465809Y22607820D02*
X42465809Y23607820D01*
X42370571Y22988772D02*
X42084857Y22607820D01*
X42084857Y23274486D02*
X42465809Y22893534D01*
X48299142Y21957820D02*
X47632476Y21957820D01*
X48061047Y20957820D01*
X47251523Y21053058D02*
X47203904Y21005439D01*
X47251523Y20957820D01*
X47299142Y21005439D01*
X47251523Y21053058D01*
X47251523Y20957820D01*
X46870571Y21957820D02*
X46251523Y21957820D01*
X46584857Y21576867D01*
X46442000Y21576867D01*
X46346761Y21529248D01*
X46299142Y21481629D01*
X46251523Y21386391D01*
X46251523Y21148296D01*
X46299142Y21053058D01*
X46346761Y21005439D01*
X46442000Y20957820D01*
X46727714Y20957820D01*
X46822952Y21005439D01*
X46870571Y21053058D01*
X45870571Y21862581D02*
X45822952Y21910200D01*
X45727714Y21957820D01*
X45489619Y21957820D01*
X45394380Y21910200D01*
X45346761Y21862581D01*
X45299142Y21767343D01*
X45299142Y21672105D01*
X45346761Y21529248D01*
X45918190Y20957820D01*
X45299142Y20957820D01*
X44965809Y21957820D02*
X44299142Y21957820D01*
X44727714Y20957820D01*
X43775333Y21529248D02*
X43870571Y21576867D01*
X43918190Y21624486D01*
X43965809Y21719724D01*
X43965809Y21767343D01*
X43918190Y21862581D01*
X43870571Y21910200D01*
X43775333Y21957820D01*
X43584857Y21957820D01*
X43489619Y21910200D01*
X43442000Y21862581D01*
X43394380Y21767343D01*
X43394380Y21719724D01*
X43442000Y21624486D01*
X43489619Y21576867D01*
X43584857Y21529248D01*
X43775333Y21529248D01*
X43870571Y21481629D01*
X43918190Y21434010D01*
X43965809Y21338772D01*
X43965809Y21148296D01*
X43918190Y21053058D01*
X43870571Y21005439D01*
X43775333Y20957820D01*
X43584857Y20957820D01*
X43489619Y21005439D01*
X43442000Y21053058D01*
X43394380Y21148296D01*
X43394380Y21338772D01*
X43442000Y21434010D01*
X43489619Y21481629D01*
X43584857Y21529248D01*
X42203904Y20957820D02*
X42203904Y21957820D01*
X41870571Y21243534D01*
X41537238Y21957820D01*
X41537238Y20957820D01*
X41061047Y20957820D02*
X41061047Y21957820D01*
X41061047Y21481629D02*
X40489619Y21481629D01*
X40489619Y20957820D02*
X40489619Y21957820D01*
X40108666Y21624486D02*
X39584857Y21624486D01*
X40108666Y20957820D01*
X39584857Y20957820D01*
X48299142Y20307820D02*
X47680095Y20307820D01*
X48013428Y19926867D01*
X47870571Y19926867D01*
X47775333Y19879248D01*
X47727714Y19831629D01*
X47680095Y19736391D01*
X47680095Y19498296D01*
X47727714Y19403058D01*
X47775333Y19355439D01*
X47870571Y19307820D01*
X48156285Y19307820D01*
X48251523Y19355439D01*
X48299142Y19403058D01*
X47251523Y19403058D02*
X47203904Y19355439D01*
X47251523Y19307820D01*
X47299142Y19355439D01*
X47251523Y19403058D01*
X47251523Y19307820D01*
X46346761Y20307820D02*
X46537238Y20307820D01*
X46632476Y20260200D01*
X46680095Y20212581D01*
X46775333Y20069724D01*
X46822952Y19879248D01*
X46822952Y19498296D01*
X46775333Y19403058D01*
X46727714Y19355439D01*
X46632476Y19307820D01*
X46442000Y19307820D01*
X46346761Y19355439D01*
X46299142Y19403058D01*
X46251523Y19498296D01*
X46251523Y19736391D01*
X46299142Y19831629D01*
X46346761Y19879248D01*
X46442000Y19926867D01*
X46632476Y19926867D01*
X46727714Y19879248D01*
X46775333Y19831629D01*
X46822952Y19736391D01*
X45680095Y19879248D02*
X45775333Y19926867D01*
X45822952Y19974486D01*
X45870571Y20069724D01*
X45870571Y20117343D01*
X45822952Y20212581D01*
X45775333Y20260200D01*
X45680095Y20307820D01*
X45489619Y20307820D01*
X45394380Y20260200D01*
X45346761Y20212581D01*
X45299142Y20117343D01*
X45299142Y20069724D01*
X45346761Y19974486D01*
X45394380Y19926867D01*
X45489619Y19879248D01*
X45680095Y19879248D01*
X45775333Y19831629D01*
X45822952Y19784010D01*
X45870571Y19688772D01*
X45870571Y19498296D01*
X45822952Y19403058D01*
X45775333Y19355439D01*
X45680095Y19307820D01*
X45489619Y19307820D01*
X45394380Y19355439D01*
X45346761Y19403058D01*
X45299142Y19498296D01*
X45299142Y19688772D01*
X45346761Y19784010D01*
X45394380Y19831629D01*
X45489619Y19879248D01*
X44442000Y20307820D02*
X44632476Y20307820D01*
X44727714Y20260200D01*
X44775333Y20212581D01*
X44870571Y20069724D01*
X44918190Y19879248D01*
X44918190Y19498296D01*
X44870571Y19403058D01*
X44822952Y19355439D01*
X44727714Y19307820D01*
X44537238Y19307820D01*
X44442000Y19355439D01*
X44394380Y19403058D01*
X44346761Y19498296D01*
X44346761Y19736391D01*
X44394380Y19831629D01*
X44442000Y19879248D01*
X44537238Y19926867D01*
X44727714Y19926867D01*
X44822952Y19879248D01*
X44870571Y19831629D01*
X44918190Y19736391D01*
X43489619Y19974486D02*
X43489619Y19307820D01*
X43727714Y20355439D02*
X43965809Y19641153D01*
X43346761Y19641153D01*
X42203904Y19307820D02*
X42203904Y20307820D01*
X41870571Y19593534D01*
X41537238Y20307820D01*
X41537238Y19307820D01*
X41061047Y19307820D02*
X41061047Y20307820D01*
X41061047Y19831629D02*
X40489619Y19831629D01*
X40489619Y19307820D02*
X40489619Y20307820D01*
X40108666Y19974486D02*
X39584857Y19974486D01*
X40108666Y19307820D01*
X39584857Y19307820D01*
X48251523Y18562581D02*
X48203904Y18610200D01*
X48108666Y18657820D01*
X47870571Y18657820D01*
X47775333Y18610200D01*
X47727714Y18562581D01*
X47680095Y18467343D01*
X47680095Y18372105D01*
X47727714Y18229248D01*
X48299142Y17657820D01*
X47680095Y17657820D01*
X47251523Y17753058D02*
X47203904Y17705439D01*
X47251523Y17657820D01*
X47299142Y17705439D01*
X47251523Y17753058D01*
X47251523Y17657820D01*
X46346761Y18324486D02*
X46346761Y17657820D01*
X46584857Y18705439D02*
X46822952Y17991153D01*
X46203904Y17991153D01*
X45346761Y18657820D02*
X45822952Y18657820D01*
X45870571Y18181629D01*
X45822952Y18229248D01*
X45727714Y18276867D01*
X45489619Y18276867D01*
X45394380Y18229248D01*
X45346761Y18181629D01*
X45299142Y18086391D01*
X45299142Y17848296D01*
X45346761Y17753058D01*
X45394380Y17705439D01*
X45489619Y17657820D01*
X45727714Y17657820D01*
X45822952Y17705439D01*
X45870571Y17753058D01*
X44965809Y18657820D02*
X44299142Y18657820D01*
X44727714Y17657820D01*
X43489619Y18657820D02*
X43680095Y18657820D01*
X43775333Y18610200D01*
X43822952Y18562581D01*
X43918190Y18419724D01*
X43965809Y18229248D01*
X43965809Y17848296D01*
X43918190Y17753058D01*
X43870571Y17705439D01*
X43775333Y17657820D01*
X43584857Y17657820D01*
X43489619Y17705439D01*
X43442000Y17753058D01*
X43394380Y17848296D01*
X43394380Y18086391D01*
X43442000Y18181629D01*
X43489619Y18229248D01*
X43584857Y18276867D01*
X43775333Y18276867D01*
X43870571Y18229248D01*
X43918190Y18181629D01*
X43965809Y18086391D01*
X42203904Y17657820D02*
X42203904Y18657820D01*
X41870571Y17943534D01*
X41537238Y18657820D01*
X41537238Y17657820D01*
X41061047Y17657820D02*
X41061047Y18657820D01*
X41061047Y18181629D02*
X40489619Y18181629D01*
X40489619Y17657820D02*
X40489619Y18657820D01*
X40108666Y18324486D02*
X39584857Y18324486D01*
X40108666Y17657820D01*
X39584857Y17657820D01*
X47680095Y16007820D02*
X48251523Y16007820D01*
X47965809Y16007820D02*
X47965809Y17007820D01*
X48061047Y16864962D01*
X48156285Y16769724D01*
X48251523Y16722105D01*
X47251523Y16103058D02*
X47203904Y16055439D01*
X47251523Y16007820D01*
X47299142Y16055439D01*
X47251523Y16103058D01*
X47251523Y16007820D01*
X46632476Y16579248D02*
X46727714Y16626867D01*
X46775333Y16674486D01*
X46822952Y16769724D01*
X46822952Y16817343D01*
X46775333Y16912581D01*
X46727714Y16960200D01*
X46632476Y17007820D01*
X46442000Y17007820D01*
X46346761Y16960200D01*
X46299142Y16912581D01*
X46251523Y16817343D01*
X46251523Y16769724D01*
X46299142Y16674486D01*
X46346761Y16626867D01*
X46442000Y16579248D01*
X46632476Y16579248D01*
X46727714Y16531629D01*
X46775333Y16484010D01*
X46822952Y16388772D01*
X46822952Y16198296D01*
X46775333Y16103058D01*
X46727714Y16055439D01*
X46632476Y16007820D01*
X46442000Y16007820D01*
X46346761Y16055439D01*
X46299142Y16103058D01*
X46251523Y16198296D01*
X46251523Y16388772D01*
X46299142Y16484010D01*
X46346761Y16531629D01*
X46442000Y16579248D01*
X45394380Y16674486D02*
X45394380Y16007820D01*
X45632476Y17055439D02*
X45870571Y16341153D01*
X45251523Y16341153D01*
X44965809Y17007820D02*
X44346761Y17007820D01*
X44680095Y16626867D01*
X44537238Y16626867D01*
X44442000Y16579248D01*
X44394380Y16531629D01*
X44346761Y16436391D01*
X44346761Y16198296D01*
X44394380Y16103058D01*
X44442000Y16055439D01*
X44537238Y16007820D01*
X44822952Y16007820D01*
X44918190Y16055439D01*
X44965809Y16103058D01*
X43965809Y16912581D02*
X43918190Y16960200D01*
X43822952Y17007820D01*
X43584857Y17007820D01*
X43489619Y16960200D01*
X43442000Y16912581D01*
X43394380Y16817343D01*
X43394380Y16722105D01*
X43442000Y16579248D01*
X44013428Y16007820D01*
X43394380Y16007820D01*
X42203904Y16007820D02*
X42203904Y17007820D01*
X41870571Y16293534D01*
X41537238Y17007820D01*
X41537238Y16007820D01*
X41061047Y16007820D02*
X41061047Y17007820D01*
X41061047Y16531629D02*
X40489619Y16531629D01*
X40489619Y16007820D02*
X40489619Y17007820D01*
X40108666Y16674486D02*
X39584857Y16674486D01*
X40108666Y16007820D01*
X39584857Y16007820D01*
X47680095Y14357820D02*
X48251523Y14357820D01*
X47965809Y14357820D02*
X47965809Y15357820D01*
X48061047Y15214962D01*
X48156285Y15119724D01*
X48251523Y15072105D01*
X47251523Y14453058D02*
X47203904Y14405439D01*
X47251523Y14357820D01*
X47299142Y14405439D01*
X47251523Y14453058D01*
X47251523Y14357820D01*
X46822952Y15262581D02*
X46775333Y15310200D01*
X46680095Y15357820D01*
X46442000Y15357820D01*
X46346761Y15310200D01*
X46299142Y15262581D01*
X46251523Y15167343D01*
X46251523Y15072105D01*
X46299142Y14929248D01*
X46870571Y14357820D01*
X46251523Y14357820D01*
X45870571Y15262581D02*
X45822952Y15310200D01*
X45727714Y15357820D01*
X45489619Y15357820D01*
X45394380Y15310200D01*
X45346761Y15262581D01*
X45299142Y15167343D01*
X45299142Y15072105D01*
X45346761Y14929248D01*
X45918190Y14357820D01*
X45299142Y14357820D01*
X44727714Y14929248D02*
X44822952Y14976867D01*
X44870571Y15024486D01*
X44918190Y15119724D01*
X44918190Y15167343D01*
X44870571Y15262581D01*
X44822952Y15310200D01*
X44727714Y15357820D01*
X44537238Y15357820D01*
X44442000Y15310200D01*
X44394380Y15262581D01*
X44346761Y15167343D01*
X44346761Y15119724D01*
X44394380Y15024486D01*
X44442000Y14976867D01*
X44537238Y14929248D01*
X44727714Y14929248D01*
X44822952Y14881629D01*
X44870571Y14834010D01*
X44918190Y14738772D01*
X44918190Y14548296D01*
X44870571Y14453058D01*
X44822952Y14405439D01*
X44727714Y14357820D01*
X44537238Y14357820D01*
X44442000Y14405439D01*
X44394380Y14453058D01*
X44346761Y14548296D01*
X44346761Y14738772D01*
X44394380Y14834010D01*
X44442000Y14881629D01*
X44537238Y14929248D01*
X43775333Y14929248D02*
X43870571Y14976867D01*
X43918190Y15024486D01*
X43965809Y15119724D01*
X43965809Y15167343D01*
X43918190Y15262581D01*
X43870571Y15310200D01*
X43775333Y15357820D01*
X43584857Y15357820D01*
X43489619Y15310200D01*
X43442000Y15262581D01*
X43394380Y15167343D01*
X43394380Y15119724D01*
X43442000Y15024486D01*
X43489619Y14976867D01*
X43584857Y14929248D01*
X43775333Y14929248D01*
X43870571Y14881629D01*
X43918190Y14834010D01*
X43965809Y14738772D01*
X43965809Y14548296D01*
X43918190Y14453058D01*
X43870571Y14405439D01*
X43775333Y14357820D01*
X43584857Y14357820D01*
X43489619Y14405439D01*
X43442000Y14453058D01*
X43394380Y14548296D01*
X43394380Y14738772D01*
X43442000Y14834010D01*
X43489619Y14881629D01*
X43584857Y14929248D01*
X42203904Y14357820D02*
X42203904Y15357820D01*
X41870571Y14643534D01*
X41537238Y15357820D01*
X41537238Y14357820D01*
X41061047Y14357820D02*
X41061047Y15357820D01*
X41061047Y14881629D02*
X40489619Y14881629D01*
X40489619Y14357820D02*
X40489619Y15357820D01*
X40108666Y15024486D02*
X39584857Y15024486D01*
X40108666Y14357820D01*
X39584857Y14357820D01*
X48013428Y13707820D02*
X47918190Y13707820D01*
X47822952Y13660200D01*
X47775333Y13612581D01*
X47727714Y13517343D01*
X47680095Y13326867D01*
X47680095Y13088772D01*
X47727714Y12898296D01*
X47775333Y12803058D01*
X47822952Y12755439D01*
X47918190Y12707820D01*
X48013428Y12707820D01*
X48108666Y12755439D01*
X48156285Y12803058D01*
X48203904Y12898296D01*
X48251523Y13088772D01*
X48251523Y13326867D01*
X48203904Y13517343D01*
X48156285Y13612581D01*
X48108666Y13660200D01*
X48013428Y13707820D01*
X47251523Y12803058D02*
X47203904Y12755439D01*
X47251523Y12707820D01*
X47299142Y12755439D01*
X47251523Y12803058D01*
X47251523Y12707820D01*
X46727714Y12707820D02*
X46537238Y12707820D01*
X46442000Y12755439D01*
X46394380Y12803058D01*
X46299142Y12945915D01*
X46251523Y13136391D01*
X46251523Y13517343D01*
X46299142Y13612581D01*
X46346761Y13660200D01*
X46442000Y13707820D01*
X46632476Y13707820D01*
X46727714Y13660200D01*
X46775333Y13612581D01*
X46822952Y13517343D01*
X46822952Y13279248D01*
X46775333Y13184010D01*
X46727714Y13136391D01*
X46632476Y13088772D01*
X46442000Y13088772D01*
X46346761Y13136391D01*
X46299142Y13184010D01*
X46251523Y13279248D01*
X45870571Y13612581D02*
X45822952Y13660200D01*
X45727714Y13707820D01*
X45489619Y13707820D01*
X45394380Y13660200D01*
X45346761Y13612581D01*
X45299142Y13517343D01*
X45299142Y13422105D01*
X45346761Y13279248D01*
X45918190Y12707820D01*
X45299142Y12707820D01*
X44346761Y12707820D02*
X44918190Y12707820D01*
X44632476Y12707820D02*
X44632476Y13707820D01*
X44727714Y13564962D01*
X44822952Y13469724D01*
X44918190Y13422105D01*
X43489619Y13707820D02*
X43680095Y13707820D01*
X43775333Y13660200D01*
X43822952Y13612581D01*
X43918190Y13469724D01*
X43965809Y13279248D01*
X43965809Y12898296D01*
X43918190Y12803058D01*
X43870571Y12755439D01*
X43775333Y12707820D01*
X43584857Y12707820D01*
X43489619Y12755439D01*
X43442000Y12803058D01*
X43394380Y12898296D01*
X43394380Y13136391D01*
X43442000Y13231629D01*
X43489619Y13279248D01*
X43584857Y13326867D01*
X43775333Y13326867D01*
X43870571Y13279248D01*
X43918190Y13231629D01*
X43965809Y13136391D01*
X42203904Y12707820D02*
X42203904Y13707820D01*
X41870571Y12993534D01*
X41537238Y13707820D01*
X41537238Y12707820D01*
X41061047Y12707820D02*
X41061047Y13707820D01*
X41061047Y13231629D02*
X40489619Y13231629D01*
X40489619Y12707820D02*
X40489619Y13707820D01*
X40108666Y13374486D02*
X39584857Y13374486D01*
X40108666Y12707820D01*
X39584857Y12707820D01*
X52173047Y22607820D02*
X52506380Y23084010D01*
X52744476Y22607820D02*
X52744476Y23607820D01*
X52363523Y23607820D01*
X52268285Y23560200D01*
X52220666Y23512581D01*
X52173047Y23417343D01*
X52173047Y23274486D01*
X52220666Y23179248D01*
X52268285Y23131629D01*
X52363523Y23084010D01*
X52744476Y23084010D01*
X51315904Y22607820D02*
X51315904Y23131629D01*
X51363523Y23226867D01*
X51458761Y23274486D01*
X51649238Y23274486D01*
X51744476Y23226867D01*
X51315904Y22655439D02*
X51411142Y22607820D01*
X51649238Y22607820D01*
X51744476Y22655439D01*
X51792095Y22750677D01*
X51792095Y22845915D01*
X51744476Y22941153D01*
X51649238Y22988772D01*
X51411142Y22988772D01*
X51315904Y23036391D01*
X50982571Y23274486D02*
X50601619Y23274486D01*
X50839714Y23607820D02*
X50839714Y22750677D01*
X50792095Y22655439D01*
X50696857Y22607820D01*
X50601619Y22607820D01*
X50268285Y22607820D02*
X50268285Y23274486D01*
X50268285Y23607820D02*
X50315904Y23560200D01*
X50268285Y23512581D01*
X50220666Y23560200D01*
X50268285Y23607820D01*
X50268285Y23512581D01*
X49649238Y22607820D02*
X49744476Y22655439D01*
X49792095Y22703058D01*
X49839714Y22798296D01*
X49839714Y23084010D01*
X49792095Y23179248D01*
X49744476Y23226867D01*
X49649238Y23274486D01*
X49506380Y23274486D01*
X49411142Y23226867D01*
X49363523Y23179248D01*
X49315904Y23084010D01*
X49315904Y22798296D01*
X49363523Y22703058D01*
X49411142Y22655439D01*
X49506380Y22607820D01*
X49649238Y22607820D01*
X50768285Y20957820D02*
X51339714Y20957820D01*
X51054000Y20957820D02*
X51054000Y21957820D01*
X51149238Y21814962D01*
X51244476Y21719724D01*
X51339714Y21672105D01*
X51339714Y20212581D02*
X51292095Y20260200D01*
X51196857Y20307820D01*
X50958761Y20307820D01*
X50863523Y20260200D01*
X50815904Y20212581D01*
X50768285Y20117343D01*
X50768285Y20022105D01*
X50815904Y19879248D01*
X51387333Y19307820D01*
X50768285Y19307820D01*
X51387333Y18657820D02*
X50768285Y18657820D01*
X51101619Y18276867D01*
X50958761Y18276867D01*
X50863523Y18229248D01*
X50815904Y18181629D01*
X50768285Y18086391D01*
X50768285Y17848296D01*
X50815904Y17753058D01*
X50863523Y17705439D01*
X50958761Y17657820D01*
X51244476Y17657820D01*
X51339714Y17705439D01*
X51387333Y17753058D01*
X50863523Y16674486D02*
X50863523Y16007820D01*
X51101619Y17055439D02*
X51339714Y16341153D01*
X50720666Y16341153D01*
X50863523Y15357820D02*
X51054000Y15357820D01*
X51149238Y15310200D01*
X51196857Y15262581D01*
X51292095Y15119724D01*
X51339714Y14929248D01*
X51339714Y14548296D01*
X51292095Y14453058D01*
X51244476Y14405439D01*
X51149238Y14357820D01*
X50958761Y14357820D01*
X50863523Y14405439D01*
X50815904Y14453058D01*
X50768285Y14548296D01*
X50768285Y14786391D01*
X50815904Y14881629D01*
X50863523Y14929248D01*
X50958761Y14976867D01*
X51149238Y14976867D01*
X51244476Y14929248D01*
X51292095Y14881629D01*
X51339714Y14786391D01*
X51149238Y13279248D02*
X51244476Y13326867D01*
X51292095Y13374486D01*
X51339714Y13469724D01*
X51339714Y13517343D01*
X51292095Y13612581D01*
X51244476Y13660200D01*
X51149238Y13707820D01*
X50958761Y13707820D01*
X50863523Y13660200D01*
X50815904Y13612581D01*
X50768285Y13517343D01*
X50768285Y13469724D01*
X50815904Y13374486D01*
X50863523Y13326867D01*
X50958761Y13279248D01*
X51149238Y13279248D01*
X51244476Y13231629D01*
X51292095Y13184010D01*
X51339714Y13088772D01*
X51339714Y12898296D01*
X51292095Y12803058D01*
X51244476Y12755439D01*
X51149238Y12707820D01*
X50958761Y12707820D01*
X50863523Y12755439D01*
X50815904Y12803058D01*
X50768285Y12898296D01*
X50768285Y13088772D01*
X50815904Y13184010D01*
X50863523Y13231629D01*
X50958761Y13279248D01*
M02*
