%TF.GenerationSoftware,KiCad,Pcbnew,(5.1.6)-1*%
%TF.CreationDate,2020-12-07T03:46:56-08:00*%
%TF.ProjectId,rc-z80ram,72632d7a-3830-4726-916d-2e6b69636164,rev?*%
%TF.SameCoordinates,PX9157080PY9071968*%
%TF.FileFunction,Legend,Bot*%
%TF.FilePolarity,Positive*%
%FSLAX46Y46*%
G04 Gerber Fmt 4.6, Leading zero omitted, Abs format (unit mm)*
G04 Created by KiCad (PCBNEW (5.1.6)-1) date 2020-12-07 03:46:56*
%MOMM*%
%LPD*%
G01*
G04 APERTURE LIST*
%ADD10C,0.300000*%
%ADD11C,0.150000*%
%ADD12C,0.381000*%
G04 APERTURE END LIST*
D10*
X74202857Y46159486D02*
X74274285Y46088058D01*
X74488571Y46016629D01*
X74631428Y46016629D01*
X74845714Y46088058D01*
X74988571Y46230915D01*
X75060000Y46373772D01*
X75131428Y46659486D01*
X75131428Y46873772D01*
X75060000Y47159486D01*
X74988571Y47302343D01*
X74845714Y47445200D01*
X74631428Y47516629D01*
X74488571Y47516629D01*
X74274285Y47445200D01*
X74202857Y47373772D01*
X73560000Y46016629D02*
X73560000Y47516629D01*
X72988571Y47516629D01*
X72845714Y47445200D01*
X72774285Y47373772D01*
X72702857Y47230915D01*
X72702857Y47016629D01*
X72774285Y46873772D01*
X72845714Y46802343D01*
X72988571Y46730915D01*
X73560000Y46730915D01*
X72060000Y47516629D02*
X72060000Y46302343D01*
X71988571Y46159486D01*
X71917142Y46088058D01*
X71774285Y46016629D01*
X71488571Y46016629D01*
X71345714Y46088058D01*
X71274285Y46159486D01*
X71202857Y46302343D01*
X71202857Y47516629D01*
X69345714Y46588058D02*
X68202857Y46588058D01*
X68774285Y46016629D02*
X68774285Y47159486D01*
X65488571Y46016629D02*
X65988571Y46730915D01*
X66345714Y46016629D02*
X66345714Y47516629D01*
X65774285Y47516629D01*
X65631428Y47445200D01*
X65560000Y47373772D01*
X65488571Y47230915D01*
X65488571Y47016629D01*
X65560000Y46873772D01*
X65631428Y46802343D01*
X65774285Y46730915D01*
X66345714Y46730915D01*
X64917142Y46445200D02*
X64202857Y46445200D01*
X65060000Y46016629D02*
X64560000Y47516629D01*
X64060000Y46016629D01*
X63560000Y46016629D02*
X63560000Y47516629D01*
X63060000Y46445200D01*
X62560000Y47516629D01*
X62560000Y46016629D01*
X60702857Y46588058D02*
X59560000Y46588058D01*
X60131428Y46016629D02*
X60131428Y47159486D01*
X74310000Y43609486D02*
X74381428Y43538058D01*
X74595714Y43466629D01*
X74738571Y43466629D01*
X74952857Y43538058D01*
X75095714Y43680915D01*
X75167142Y43823772D01*
X75238571Y44109486D01*
X75238571Y44323772D01*
X75167142Y44609486D01*
X75095714Y44752343D01*
X74952857Y44895200D01*
X74738571Y44966629D01*
X74595714Y44966629D01*
X74381428Y44895200D01*
X74310000Y44823772D01*
X73452857Y43466629D02*
X73595714Y43538058D01*
X73667142Y43680915D01*
X73667142Y44966629D01*
X72667142Y43466629D02*
X72810000Y43538058D01*
X72881428Y43609486D01*
X72952857Y43752343D01*
X72952857Y44180915D01*
X72881428Y44323772D01*
X72810000Y44395200D01*
X72667142Y44466629D01*
X72452857Y44466629D01*
X72310000Y44395200D01*
X72238571Y44323772D01*
X72167142Y44180915D01*
X72167142Y43752343D01*
X72238571Y43609486D01*
X72310000Y43538058D01*
X72452857Y43466629D01*
X72667142Y43466629D01*
X70881428Y43538058D02*
X71024285Y43466629D01*
X71310000Y43466629D01*
X71452857Y43538058D01*
X71524285Y43609486D01*
X71595714Y43752343D01*
X71595714Y44180915D01*
X71524285Y44323772D01*
X71452857Y44395200D01*
X71310000Y44466629D01*
X71024285Y44466629D01*
X70881428Y44395200D01*
X70238571Y43466629D02*
X70238571Y44966629D01*
X70095714Y44038058D02*
X69667142Y43466629D01*
X69667142Y44466629D02*
X70238571Y43895200D01*
X67881428Y44038058D02*
X66738571Y44038058D01*
X67310000Y43466629D02*
X67310000Y44609486D01*
X64024285Y43466629D02*
X64524285Y44180915D01*
X64881428Y43466629D02*
X64881428Y44966629D01*
X64310000Y44966629D01*
X64167142Y44895200D01*
X64095714Y44823772D01*
X64024285Y44680915D01*
X64024285Y44466629D01*
X64095714Y44323772D01*
X64167142Y44252343D01*
X64310000Y44180915D01*
X64881428Y44180915D01*
X62810000Y43538058D02*
X62952857Y43466629D01*
X63238571Y43466629D01*
X63381428Y43538058D01*
X63452857Y43680915D01*
X63452857Y44252343D01*
X63381428Y44395200D01*
X63238571Y44466629D01*
X62952857Y44466629D01*
X62810000Y44395200D01*
X62738571Y44252343D01*
X62738571Y44109486D01*
X63452857Y43966629D01*
X62167142Y43538058D02*
X62024285Y43466629D01*
X61738571Y43466629D01*
X61595714Y43538058D01*
X61524285Y43680915D01*
X61524285Y43752343D01*
X61595714Y43895200D01*
X61738571Y43966629D01*
X61952857Y43966629D01*
X62095714Y44038058D01*
X62167142Y44180915D01*
X62167142Y44252343D01*
X62095714Y44395200D01*
X61952857Y44466629D01*
X61738571Y44466629D01*
X61595714Y44395200D01*
X60310000Y43538058D02*
X60452857Y43466629D01*
X60738571Y43466629D01*
X60881428Y43538058D01*
X60952857Y43680915D01*
X60952857Y44252343D01*
X60881428Y44395200D01*
X60738571Y44466629D01*
X60452857Y44466629D01*
X60310000Y44395200D01*
X60238571Y44252343D01*
X60238571Y44109486D01*
X60952857Y43966629D01*
X59810000Y44466629D02*
X59238571Y44466629D01*
X59595714Y44966629D02*
X59595714Y43680915D01*
X59524285Y43538058D01*
X59381428Y43466629D01*
X59238571Y43466629D01*
X73524285Y40916629D02*
X73524285Y42416629D01*
X72952857Y42416629D01*
X72810000Y42345200D01*
X72738571Y42273772D01*
X72667142Y42130915D01*
X72667142Y41916629D01*
X72738571Y41773772D01*
X72810000Y41702343D01*
X72952857Y41630915D01*
X73524285Y41630915D01*
X72024285Y40916629D02*
X72024285Y42416629D01*
X71667142Y42416629D01*
X71452857Y42345200D01*
X71310000Y42202343D01*
X71238571Y42059486D01*
X71167142Y41773772D01*
X71167142Y41559486D01*
X71238571Y41273772D01*
X71310000Y41130915D01*
X71452857Y40988058D01*
X71667142Y40916629D01*
X72024285Y40916629D01*
X69738571Y40916629D02*
X70595714Y40916629D01*
X70167142Y40916629D02*
X70167142Y42416629D01*
X70310000Y42202343D01*
X70452857Y42059486D01*
X70595714Y41988058D01*
X68810000Y42416629D02*
X68667142Y42416629D01*
X68524285Y42345200D01*
X68452857Y42273772D01*
X68381428Y42130915D01*
X68310000Y41845200D01*
X68310000Y41488058D01*
X68381428Y41202343D01*
X68452857Y41059486D01*
X68524285Y40988058D01*
X68667142Y40916629D01*
X68810000Y40916629D01*
X68952857Y40988058D01*
X69024285Y41059486D01*
X69095714Y41202343D01*
X69167142Y41488058D01*
X69167142Y41845200D01*
X69095714Y42130915D01*
X69024285Y42273772D01*
X68952857Y42345200D01*
X68810000Y42416629D01*
X66881428Y40916629D02*
X67738571Y40916629D01*
X67310000Y40916629D02*
X67310000Y42416629D01*
X67452857Y42202343D01*
X67595714Y42059486D01*
X67738571Y41988058D01*
X65238571Y41916629D02*
X64881428Y40916629D01*
X64524285Y41916629D01*
X63167142Y40916629D02*
X64024285Y40916629D01*
X63595714Y40916629D02*
X63595714Y42416629D01*
X63738571Y42202343D01*
X63881428Y42059486D01*
X64024285Y41988058D01*
X62524285Y41059486D02*
X62452857Y40988058D01*
X62524285Y40916629D01*
X62595714Y40988058D01*
X62524285Y41059486D01*
X62524285Y40916629D01*
X61024285Y40916629D02*
X61881428Y40916629D01*
X61452857Y40916629D02*
X61452857Y42416629D01*
X61595714Y42202343D01*
X61738571Y42059486D01*
X61881428Y41988058D01*
D11*
X20843809Y34850439D02*
X20939047Y34802820D01*
X21129523Y34802820D01*
X21224761Y34850439D01*
X21272380Y34945677D01*
X21272380Y35326629D01*
X21224761Y35421867D01*
X21129523Y35469486D01*
X20939047Y35469486D01*
X20843809Y35421867D01*
X20796190Y35326629D01*
X20796190Y35231391D01*
X21272380Y35136153D01*
X20510476Y35469486D02*
X20129523Y35469486D01*
X20367619Y35802820D02*
X20367619Y34945677D01*
X20320000Y34850439D01*
X20224761Y34802820D01*
X20129523Y34802820D01*
X19367619Y34850439D02*
X19462857Y34802820D01*
X19653333Y34802820D01*
X19748571Y34850439D01*
X19796190Y34898058D01*
X19843809Y34993296D01*
X19843809Y35279010D01*
X19796190Y35374248D01*
X19748571Y35421867D01*
X19653333Y35469486D01*
X19462857Y35469486D01*
X19367619Y35421867D01*
X14168333Y12307820D02*
X14168333Y11593534D01*
X14215952Y11450677D01*
X14311190Y11355439D01*
X14454047Y11307820D01*
X14549285Y11307820D01*
X13692142Y11307820D02*
X13692142Y12307820D01*
X13311190Y12307820D01*
X13215952Y12260200D01*
X13168333Y12212581D01*
X13120714Y12117343D01*
X13120714Y11974486D01*
X13168333Y11879248D01*
X13215952Y11831629D01*
X13311190Y11784010D01*
X13692142Y11784010D01*
X12787380Y12307820D02*
X12168333Y12307820D01*
X12501666Y11926867D01*
X12358809Y11926867D01*
X12263571Y11879248D01*
X12215952Y11831629D01*
X12168333Y11736391D01*
X12168333Y11498296D01*
X12215952Y11403058D01*
X12263571Y11355439D01*
X12358809Y11307820D01*
X12644523Y11307820D01*
X12739761Y11355439D01*
X12787380Y11403058D01*
X11792976Y5688058D02*
X11840595Y5640439D01*
X11983452Y5592820D01*
X12078690Y5592820D01*
X12221547Y5640439D01*
X12316785Y5735677D01*
X12364404Y5830915D01*
X12412023Y6021391D01*
X12412023Y6164248D01*
X12364404Y6354724D01*
X12316785Y6449962D01*
X12221547Y6545200D01*
X12078690Y6592820D01*
X11983452Y6592820D01*
X11840595Y6545200D01*
X11792976Y6497581D01*
X10888214Y5592820D02*
X11364404Y5592820D01*
X11364404Y6592820D01*
X10554880Y5592820D02*
X10554880Y6592820D01*
X9983452Y5592820D02*
X10412023Y6164248D01*
X9983452Y6592820D02*
X10554880Y6021391D01*
X8935833Y6259486D02*
X8554880Y6259486D01*
X8792976Y6592820D02*
X8792976Y5735677D01*
X8745357Y5640439D01*
X8650119Y5592820D01*
X8554880Y5592820D01*
X8078690Y5592820D02*
X8173928Y5640439D01*
X8221547Y5688058D01*
X8269166Y5783296D01*
X8269166Y6069010D01*
X8221547Y6164248D01*
X8173928Y6211867D01*
X8078690Y6259486D01*
X7935833Y6259486D01*
X7840595Y6211867D01*
X7792976Y6164248D01*
X7745357Y6069010D01*
X7745357Y5783296D01*
X7792976Y5688058D01*
X7840595Y5640439D01*
X7935833Y5592820D01*
X8078690Y5592820D01*
X6554880Y5592820D02*
X6554880Y6592820D01*
X6554880Y6211867D02*
X6459642Y6259486D01*
X6269166Y6259486D01*
X6173928Y6211867D01*
X6126309Y6164248D01*
X6078690Y6069010D01*
X6078690Y5783296D01*
X6126309Y5688058D01*
X6173928Y5640439D01*
X6269166Y5592820D01*
X6459642Y5592820D01*
X6554880Y5640439D01*
X5221547Y6259486D02*
X5221547Y5592820D01*
X5650119Y6259486D02*
X5650119Y5735677D01*
X5602500Y5640439D01*
X5507261Y5592820D01*
X5364404Y5592820D01*
X5269166Y5640439D01*
X5221547Y5688058D01*
X4792976Y5640439D02*
X4697738Y5592820D01*
X4507261Y5592820D01*
X4412023Y5640439D01*
X4364404Y5735677D01*
X4364404Y5783296D01*
X4412023Y5878534D01*
X4507261Y5926153D01*
X4650119Y5926153D01*
X4745357Y5973772D01*
X4792976Y6069010D01*
X4792976Y6116629D01*
X4745357Y6211867D01*
X4650119Y6259486D01*
X4507261Y6259486D01*
X4412023Y6211867D01*
X11792976Y8863058D02*
X11840595Y8815439D01*
X11983452Y8767820D01*
X12078690Y8767820D01*
X12221547Y8815439D01*
X12316785Y8910677D01*
X12364404Y9005915D01*
X12412023Y9196391D01*
X12412023Y9339248D01*
X12364404Y9529724D01*
X12316785Y9624962D01*
X12221547Y9720200D01*
X12078690Y9767820D01*
X11983452Y9767820D01*
X11840595Y9720200D01*
X11792976Y9672581D01*
X10888214Y8767820D02*
X11364404Y8767820D01*
X11364404Y9767820D01*
X10554880Y8767820D02*
X10554880Y9767820D01*
X9983452Y8767820D02*
X10412023Y9339248D01*
X9983452Y9767820D02*
X10554880Y9196391D01*
X8935833Y9434486D02*
X8554880Y9434486D01*
X8792976Y8767820D02*
X8792976Y9624962D01*
X8745357Y9720200D01*
X8650119Y9767820D01*
X8554880Y9767820D01*
X8221547Y8767820D02*
X8221547Y9434486D01*
X8221547Y9244010D02*
X8173928Y9339248D01*
X8126309Y9386867D01*
X8031071Y9434486D01*
X7935833Y9434486D01*
X7459642Y8767820D02*
X7554880Y8815439D01*
X7602500Y8863058D01*
X7650119Y8958296D01*
X7650119Y9244010D01*
X7602500Y9339248D01*
X7554880Y9386867D01*
X7459642Y9434486D01*
X7316785Y9434486D01*
X7221547Y9386867D01*
X7173928Y9339248D01*
X7126309Y9244010D01*
X7126309Y8958296D01*
X7173928Y8863058D01*
X7221547Y8815439D01*
X7316785Y8767820D01*
X7459642Y8767820D01*
X6697738Y8767820D02*
X6697738Y9434486D01*
X6697738Y9339248D02*
X6650119Y9386867D01*
X6554880Y9434486D01*
X6412023Y9434486D01*
X6316785Y9386867D01*
X6269166Y9291629D01*
X6269166Y8767820D01*
X6269166Y9291629D02*
X6221547Y9386867D01*
X6126309Y9434486D01*
X5983452Y9434486D01*
X5888214Y9386867D01*
X5840595Y9291629D01*
X5840595Y8767820D01*
X4602500Y8767820D02*
X4602500Y9767820D01*
X4602500Y9386867D02*
X4507261Y9434486D01*
X4316785Y9434486D01*
X4221547Y9386867D01*
X4173928Y9339248D01*
X4126309Y9244010D01*
X4126309Y8958296D01*
X4173928Y8863058D01*
X4221547Y8815439D01*
X4316785Y8767820D01*
X4507261Y8767820D01*
X4602500Y8815439D01*
X3269166Y9434486D02*
X3269166Y8767820D01*
X3697738Y9434486D02*
X3697738Y8910677D01*
X3650119Y8815439D01*
X3554880Y8767820D01*
X3412023Y8767820D01*
X3316785Y8815439D01*
X3269166Y8863058D01*
X2840595Y8815439D02*
X2745357Y8767820D01*
X2554880Y8767820D01*
X2459642Y8815439D01*
X2412023Y8910677D01*
X2412023Y8958296D01*
X2459642Y9053534D01*
X2554880Y9101153D01*
X2697738Y9101153D01*
X2792976Y9148772D01*
X2840595Y9244010D01*
X2840595Y9291629D01*
X2792976Y9386867D01*
X2697738Y9434486D01*
X2554880Y9434486D01*
X2459642Y9386867D01*
X27471428Y35723058D02*
X27519047Y35675439D01*
X27661904Y35627820D01*
X27757142Y35627820D01*
X27900000Y35675439D01*
X27995238Y35770677D01*
X28042857Y35865915D01*
X28090476Y36056391D01*
X28090476Y36199248D01*
X28042857Y36389724D01*
X27995238Y36484962D01*
X27900000Y36580200D01*
X27757142Y36627820D01*
X27661904Y36627820D01*
X27519047Y36580200D01*
X27471428Y36532581D01*
X26566666Y35627820D02*
X27042857Y35627820D01*
X27042857Y36627820D01*
X26233333Y35627820D02*
X26233333Y36627820D01*
X25661904Y35627820D02*
X26090476Y36199248D01*
X25661904Y36627820D02*
X26233333Y36056391D01*
X25280952Y36532581D02*
X25233333Y36580200D01*
X25138095Y36627820D01*
X24900000Y36627820D01*
X24804761Y36580200D01*
X24757142Y36532581D01*
X24709523Y36437343D01*
X24709523Y36342105D01*
X24757142Y36199248D01*
X25328571Y35627820D01*
X24709523Y35627820D01*
X23519047Y36151629D02*
X22757142Y36151629D01*
X22757142Y35865915D02*
X23519047Y35865915D01*
X27757142Y34073058D02*
X27804761Y34025439D01*
X27947619Y33977820D01*
X28042857Y33977820D01*
X28185714Y34025439D01*
X28280952Y34120677D01*
X28328571Y34215915D01*
X28376190Y34406391D01*
X28376190Y34549248D01*
X28328571Y34739724D01*
X28280952Y34834962D01*
X28185714Y34930200D01*
X28042857Y34977820D01*
X27947619Y34977820D01*
X27804761Y34930200D01*
X27757142Y34882581D01*
X26852380Y33977820D02*
X27328571Y33977820D01*
X27328571Y34977820D01*
X26519047Y33977820D02*
X26519047Y34977820D01*
X25947619Y33977820D02*
X26376190Y34549248D01*
X25947619Y34977820D02*
X26519047Y34406391D01*
X24042857Y35025439D02*
X24900000Y33739724D01*
X23042857Y34977820D02*
X22423809Y34977820D01*
X22757142Y34596867D01*
X22614285Y34596867D01*
X22519047Y34549248D01*
X22471428Y34501629D01*
X22423809Y34406391D01*
X22423809Y34168296D01*
X22471428Y34073058D01*
X22519047Y34025439D01*
X22614285Y33977820D01*
X22900000Y33977820D01*
X22995238Y34025439D01*
X23042857Y34073058D01*
X25400000Y39700200D02*
X26670000Y39700200D01*
X26670000Y37160200D02*
X25400000Y37160200D01*
X26670000Y39700200D02*
X26670000Y37160200D01*
X25400000Y37160200D02*
X25400000Y39700200D01*
X13335000Y7315200D02*
X14605000Y7315200D01*
X14605000Y4775200D02*
X13335000Y4775200D01*
D12*
X13970000Y9855073D02*
X13970000Y9854819D01*
D11*
X14605000Y7315200D02*
X14605000Y4775200D01*
X13335000Y4775200D02*
X13335000Y7315200D01*
D12*
X13970000Y8585454D02*
X13970000Y8585200D01*
X13970000Y6680454D02*
X13970000Y6680200D01*
X13970000Y5410073D02*
X13970000Y5409819D01*
D11*
X36996428Y35723058D02*
X37044047Y35675439D01*
X37186904Y35627820D01*
X37282142Y35627820D01*
X37425000Y35675439D01*
X37520238Y35770677D01*
X37567857Y35865915D01*
X37615476Y36056391D01*
X37615476Y36199248D01*
X37567857Y36389724D01*
X37520238Y36484962D01*
X37425000Y36580200D01*
X37282142Y36627820D01*
X37186904Y36627820D01*
X37044047Y36580200D01*
X36996428Y36532581D01*
X36091666Y35627820D02*
X36567857Y35627820D01*
X36567857Y36627820D01*
X35758333Y35627820D02*
X35758333Y36627820D01*
X35186904Y35627820D02*
X35615476Y36199248D01*
X35186904Y36627820D02*
X35758333Y36056391D01*
X34805952Y36532581D02*
X34758333Y36580200D01*
X34663095Y36627820D01*
X34425000Y36627820D01*
X34329761Y36580200D01*
X34282142Y36532581D01*
X34234523Y36437343D01*
X34234523Y36342105D01*
X34282142Y36199248D01*
X34853571Y35627820D01*
X34234523Y35627820D01*
X33044047Y36151629D02*
X32282142Y36151629D01*
X32282142Y35865915D02*
X33044047Y35865915D01*
X37282142Y34073058D02*
X37329761Y34025439D01*
X37472619Y33977820D01*
X37567857Y33977820D01*
X37710714Y34025439D01*
X37805952Y34120677D01*
X37853571Y34215915D01*
X37901190Y34406391D01*
X37901190Y34549248D01*
X37853571Y34739724D01*
X37805952Y34834962D01*
X37710714Y34930200D01*
X37567857Y34977820D01*
X37472619Y34977820D01*
X37329761Y34930200D01*
X37282142Y34882581D01*
X36377380Y33977820D02*
X36853571Y33977820D01*
X36853571Y34977820D01*
X36044047Y33977820D02*
X36044047Y34977820D01*
X35472619Y33977820D02*
X35901190Y34549248D01*
X35472619Y34977820D02*
X36044047Y34406391D01*
X33567857Y35025439D02*
X34425000Y33739724D01*
X32520238Y34882581D02*
X32472619Y34930200D01*
X32377380Y34977820D01*
X32139285Y34977820D01*
X32044047Y34930200D01*
X31996428Y34882581D01*
X31948809Y34787343D01*
X31948809Y34692105D01*
X31996428Y34549248D01*
X32567857Y33977820D01*
X31948809Y33977820D01*
X46521428Y35723058D02*
X46569047Y35675439D01*
X46711904Y35627820D01*
X46807142Y35627820D01*
X46950000Y35675439D01*
X47045238Y35770677D01*
X47092857Y35865915D01*
X47140476Y36056391D01*
X47140476Y36199248D01*
X47092857Y36389724D01*
X47045238Y36484962D01*
X46950000Y36580200D01*
X46807142Y36627820D01*
X46711904Y36627820D01*
X46569047Y36580200D01*
X46521428Y36532581D01*
X45616666Y35627820D02*
X46092857Y35627820D01*
X46092857Y36627820D01*
X45283333Y35627820D02*
X45283333Y36627820D01*
X44711904Y35627820D02*
X45140476Y36199248D01*
X44711904Y36627820D02*
X45283333Y36056391D01*
X44330952Y36532581D02*
X44283333Y36580200D01*
X44188095Y36627820D01*
X43950000Y36627820D01*
X43854761Y36580200D01*
X43807142Y36532581D01*
X43759523Y36437343D01*
X43759523Y36342105D01*
X43807142Y36199248D01*
X44378571Y35627820D01*
X43759523Y35627820D01*
X42569047Y36151629D02*
X41807142Y36151629D01*
X41807142Y35865915D02*
X42569047Y35865915D01*
X46807142Y34073058D02*
X46854761Y34025439D01*
X46997619Y33977820D01*
X47092857Y33977820D01*
X47235714Y34025439D01*
X47330952Y34120677D01*
X47378571Y34215915D01*
X47426190Y34406391D01*
X47426190Y34549248D01*
X47378571Y34739724D01*
X47330952Y34834962D01*
X47235714Y34930200D01*
X47092857Y34977820D01*
X46997619Y34977820D01*
X46854761Y34930200D01*
X46807142Y34882581D01*
X45902380Y33977820D02*
X46378571Y33977820D01*
X46378571Y34977820D01*
X45569047Y33977820D02*
X45569047Y34977820D01*
X44997619Y33977820D02*
X45426190Y34549248D01*
X44997619Y34977820D02*
X45569047Y34406391D01*
X43092857Y35025439D02*
X43950000Y33739724D01*
X41473809Y33977820D02*
X42045238Y33977820D01*
X41759523Y33977820D02*
X41759523Y34977820D01*
X41854761Y34834962D01*
X41950000Y34739724D01*
X42045238Y34692105D01*
X56975000Y34802820D02*
X56975000Y35802820D01*
X56403571Y34802820D01*
X56403571Y35802820D01*
X55784523Y34802820D02*
X55879761Y34850439D01*
X55927380Y34898058D01*
X55975000Y34993296D01*
X55975000Y35279010D01*
X55927380Y35374248D01*
X55879761Y35421867D01*
X55784523Y35469486D01*
X55641666Y35469486D01*
X55546428Y35421867D01*
X55498809Y35374248D01*
X55451190Y35279010D01*
X55451190Y34993296D01*
X55498809Y34898058D01*
X55546428Y34850439D01*
X55641666Y34802820D01*
X55784523Y34802820D01*
X53689285Y34898058D02*
X53736904Y34850439D01*
X53879761Y34802820D01*
X53975000Y34802820D01*
X54117857Y34850439D01*
X54213095Y34945677D01*
X54260714Y35040915D01*
X54308333Y35231391D01*
X54308333Y35374248D01*
X54260714Y35564724D01*
X54213095Y35659962D01*
X54117857Y35755200D01*
X53975000Y35802820D01*
X53879761Y35802820D01*
X53736904Y35755200D01*
X53689285Y35707581D01*
X52784523Y34802820D02*
X53260714Y34802820D01*
X53260714Y35802820D01*
X52451190Y34802820D02*
X52451190Y35802820D01*
X51879761Y34802820D02*
X52308333Y35374248D01*
X51879761Y35802820D02*
X52451190Y35231391D01*
X51498809Y35707581D02*
X51451190Y35755200D01*
X51355952Y35802820D01*
X51117857Y35802820D01*
X51022619Y35755200D01*
X50975000Y35707581D01*
X50927380Y35612343D01*
X50927380Y35517105D01*
X50975000Y35374248D01*
X51546428Y34802820D01*
X50927380Y34802820D01*
X41671428Y42787820D02*
X41671428Y42073534D01*
X41719047Y41930677D01*
X41814285Y41835439D01*
X41957142Y41787820D01*
X42052380Y41787820D01*
X41195238Y41787820D02*
X41195238Y42787820D01*
X40814285Y42787820D01*
X40719047Y42740200D01*
X40671428Y42692581D01*
X40623809Y42597343D01*
X40623809Y42454486D01*
X40671428Y42359248D01*
X40719047Y42311629D01*
X40814285Y42264010D01*
X41195238Y42264010D01*
X39766666Y42454486D02*
X39766666Y41787820D01*
X40004761Y42835439D02*
X40242857Y42121153D01*
X39623809Y42121153D01*
X37671428Y41787820D02*
X37719047Y41787820D01*
X37814285Y41835439D01*
X37957142Y41978296D01*
X38195238Y42264010D01*
X38290476Y42406867D01*
X38338095Y42549724D01*
X38338095Y42644962D01*
X38290476Y42740200D01*
X38195238Y42787820D01*
X38147619Y42787820D01*
X38052380Y42740200D01*
X38004761Y42644962D01*
X38004761Y42597343D01*
X38052380Y42502105D01*
X38100000Y42454486D01*
X38385714Y42264010D01*
X38433333Y42216391D01*
X38480952Y42121153D01*
X38480952Y41978296D01*
X38433333Y41883058D01*
X38385714Y41835439D01*
X38290476Y41787820D01*
X38147619Y41787820D01*
X38052380Y41835439D01*
X38004761Y41883058D01*
X37861904Y42073534D01*
X37814285Y42216391D01*
X37814285Y42311629D01*
X36195238Y42787820D02*
X36195238Y42073534D01*
X36242857Y41930677D01*
X36338095Y41835439D01*
X36480952Y41787820D01*
X36576190Y41787820D01*
X35719047Y41787820D02*
X35719047Y42787820D01*
X35338095Y42787820D01*
X35242857Y42740200D01*
X35195238Y42692581D01*
X35147619Y42597343D01*
X35147619Y42454486D01*
X35195238Y42359248D01*
X35242857Y42311629D01*
X35338095Y42264010D01*
X35719047Y42264010D01*
X34242857Y42787820D02*
X34719047Y42787820D01*
X34766666Y42311629D01*
X34719047Y42359248D01*
X34623809Y42406867D01*
X34385714Y42406867D01*
X34290476Y42359248D01*
X34242857Y42311629D01*
X34195238Y42216391D01*
X34195238Y41978296D01*
X34242857Y41883058D01*
X34290476Y41835439D01*
X34385714Y41787820D01*
X34623809Y41787820D01*
X34719047Y41835439D01*
X34766666Y41883058D01*
X36195000Y39700200D02*
X37465000Y39700200D01*
X37465000Y37160200D02*
X36195000Y37160200D01*
X37465000Y39700200D02*
X37465000Y37160200D01*
X36195000Y37160200D02*
X36195000Y39700200D01*
D12*
X27305000Y37795073D02*
X27305000Y37794819D01*
X24765000Y37795073D02*
X24765000Y37794819D01*
X24765000Y39065454D02*
X24765000Y39065200D01*
X23495000Y37795454D02*
X23495000Y37795200D01*
X22225000Y39065454D02*
X22225000Y39065200D01*
X28575000Y40335454D02*
X28575000Y40335200D01*
X27305000Y39065454D02*
X27305000Y39065200D01*
X26035000Y37795454D02*
X26035000Y37795200D01*
X28575000Y37795454D02*
X28575000Y37795200D01*
X22225000Y37795073D02*
X22225000Y37794819D01*
D11*
X27940000Y40970200D02*
X29210000Y40970200D01*
D12*
X23495000Y39065073D02*
X23495000Y39064819D01*
D11*
X29210000Y38430200D02*
X27940000Y38430200D01*
D12*
X28575000Y39065073D02*
X28575000Y39064819D01*
X26035000Y39065073D02*
X26035000Y39064819D01*
D11*
X29210000Y40970200D02*
X29210000Y38430200D01*
X27940000Y38430200D02*
X27940000Y40970200D01*
D12*
X34290000Y37795073D02*
X34290000Y37794819D01*
X34290000Y39065454D02*
X34290000Y39065200D01*
X38100000Y37795454D02*
X38100000Y37795200D01*
X33020000Y37795454D02*
X33020000Y37795200D01*
X38100000Y40335454D02*
X38100000Y40335200D01*
X31750000Y37795073D02*
X31750000Y37794819D01*
X31750000Y39065454D02*
X31750000Y39065200D01*
D11*
X38735000Y38430200D02*
X37465000Y38430200D01*
D12*
X38100000Y39065073D02*
X38100000Y39064819D01*
D11*
X37465000Y40970200D02*
X38735000Y40970200D01*
D12*
X36830000Y39065454D02*
X36830000Y39065200D01*
D11*
X38735000Y40970200D02*
X38735000Y38430200D01*
D12*
X35560000Y39065073D02*
X35560000Y39064819D01*
X33020000Y39065073D02*
X33020000Y39064819D01*
X36830000Y37795073D02*
X36830000Y37794819D01*
X35560000Y37795454D02*
X35560000Y37795200D01*
D11*
X37465000Y38430200D02*
X37465000Y40970200D01*
D12*
X41275000Y37795073D02*
X41275000Y37794819D01*
X45085000Y39065073D02*
X45085000Y39064819D01*
X41275000Y39065454D02*
X41275000Y39065200D01*
X43815000Y39065454D02*
X43815000Y39065200D01*
X42545000Y39065073D02*
X42545000Y39064819D01*
X43815000Y37795073D02*
X43815000Y37794819D01*
X42545000Y37795454D02*
X42545000Y37795200D01*
X45085000Y37795454D02*
X45085000Y37795200D01*
X47625000Y39065073D02*
X47625000Y39064819D01*
D11*
X48260000Y37160200D02*
X46990000Y37160200D01*
D12*
X47625000Y40335454D02*
X47625000Y40335200D01*
D11*
X46990000Y39700200D02*
X48260000Y39700200D01*
D12*
X47625000Y37795454D02*
X47625000Y37795200D01*
D11*
X48260000Y39700200D02*
X48260000Y37160200D01*
D12*
X46355000Y37795073D02*
X46355000Y37794819D01*
X46355000Y39065454D02*
X46355000Y39065200D01*
D11*
X46990000Y37160200D02*
X46990000Y39700200D01*
D12*
X52070000Y39065073D02*
X52070000Y39064819D01*
X50800000Y39065454D02*
X50800000Y39065200D01*
X50800000Y37795073D02*
X50800000Y37794819D01*
X52070000Y37795454D02*
X52070000Y37795200D01*
X54610000Y39065073D02*
X54610000Y39064819D01*
X54610000Y37795454D02*
X54610000Y37795200D01*
X53340000Y37795073D02*
X53340000Y37794819D01*
X53340000Y39065454D02*
X53340000Y39065200D01*
D11*
X13634404Y26912820D02*
X13634404Y26103296D01*
X13586785Y26008058D01*
X13539166Y25960439D01*
X13443928Y25912820D01*
X13253452Y25912820D01*
X13158214Y25960439D01*
X13110595Y26008058D01*
X13062976Y26103296D01*
X13062976Y26912820D01*
X12634404Y25960439D02*
X12539166Y25912820D01*
X12348690Y25912820D01*
X12253452Y25960439D01*
X12205833Y26055677D01*
X12205833Y26103296D01*
X12253452Y26198534D01*
X12348690Y26246153D01*
X12491547Y26246153D01*
X12586785Y26293772D01*
X12634404Y26389010D01*
X12634404Y26436629D01*
X12586785Y26531867D01*
X12491547Y26579486D01*
X12348690Y26579486D01*
X12253452Y26531867D01*
X11396309Y25960439D02*
X11491547Y25912820D01*
X11682023Y25912820D01*
X11777261Y25960439D01*
X11824880Y26055677D01*
X11824880Y26436629D01*
X11777261Y26531867D01*
X11682023Y26579486D01*
X11491547Y26579486D01*
X11396309Y26531867D01*
X11348690Y26436629D01*
X11348690Y26341391D01*
X11824880Y26246153D01*
X10158214Y25912820D02*
X10158214Y26912820D01*
X9777261Y26912820D01*
X9682023Y26865200D01*
X9634404Y26817581D01*
X9586785Y26722343D01*
X9586785Y26579486D01*
X9634404Y26484248D01*
X9682023Y26436629D01*
X9777261Y26389010D01*
X10158214Y26389010D01*
X9205833Y26198534D02*
X8729642Y26198534D01*
X9301071Y25912820D02*
X8967738Y26912820D01*
X8634404Y25912820D01*
X7777261Y26865200D02*
X7872500Y26912820D01*
X8015357Y26912820D01*
X8158214Y26865200D01*
X8253452Y26769962D01*
X8301071Y26674724D01*
X8348690Y26484248D01*
X8348690Y26341391D01*
X8301071Y26150915D01*
X8253452Y26055677D01*
X8158214Y25960439D01*
X8015357Y25912820D01*
X7920119Y25912820D01*
X7777261Y25960439D01*
X7729642Y26008058D01*
X7729642Y26341391D01*
X7920119Y26341391D01*
X7301071Y26436629D02*
X6967738Y26436629D01*
X6824880Y25912820D02*
X7301071Y25912820D01*
X7301071Y26912820D01*
X6824880Y26912820D01*
X5682023Y25960439D02*
X5586785Y25912820D01*
X5396309Y25912820D01*
X5301071Y25960439D01*
X5253452Y26055677D01*
X5253452Y26103296D01*
X5301071Y26198534D01*
X5396309Y26246153D01*
X5539166Y26246153D01*
X5634404Y26293772D01*
X5682023Y26389010D01*
X5682023Y26436629D01*
X5634404Y26531867D01*
X5539166Y26579486D01*
X5396309Y26579486D01*
X5301071Y26531867D01*
X4824880Y25912820D02*
X4824880Y26579486D01*
X4824880Y26912820D02*
X4872500Y26865200D01*
X4824880Y26817581D01*
X4777261Y26865200D01*
X4824880Y26912820D01*
X4824880Y26817581D01*
X3920119Y26579486D02*
X3920119Y25769962D01*
X3967738Y25674724D01*
X4015357Y25627105D01*
X4110595Y25579486D01*
X4253452Y25579486D01*
X4348690Y25627105D01*
X3920119Y25960439D02*
X4015357Y25912820D01*
X4205833Y25912820D01*
X4301071Y25960439D01*
X4348690Y26008058D01*
X4396309Y26103296D01*
X4396309Y26389010D01*
X4348690Y26484248D01*
X4301071Y26531867D01*
X4205833Y26579486D01*
X4015357Y26579486D01*
X3920119Y26531867D01*
X3443928Y26579486D02*
X3443928Y25912820D01*
X3443928Y26484248D02*
X3396309Y26531867D01*
X3301071Y26579486D01*
X3158214Y26579486D01*
X3062976Y26531867D01*
X3015357Y26436629D01*
X3015357Y25912820D01*
X2110595Y25912820D02*
X2110595Y26436629D01*
X2158214Y26531867D01*
X2253452Y26579486D01*
X2443928Y26579486D01*
X2539166Y26531867D01*
X2110595Y25960439D02*
X2205833Y25912820D01*
X2443928Y25912820D01*
X2539166Y25960439D01*
X2586785Y26055677D01*
X2586785Y26150915D01*
X2539166Y26246153D01*
X2443928Y26293772D01*
X2205833Y26293772D01*
X2110595Y26341391D01*
X1491547Y25912820D02*
X1586785Y25960439D01*
X1634404Y26055677D01*
X1634404Y26912820D01*
X13205833Y31992820D02*
X13396309Y31992820D01*
X13491547Y31945200D01*
X13539166Y31897581D01*
X13634404Y31754724D01*
X13682023Y31564248D01*
X13682023Y31183296D01*
X13634404Y31088058D01*
X13586785Y31040439D01*
X13491547Y30992820D01*
X13301071Y30992820D01*
X13205833Y31040439D01*
X13158214Y31088058D01*
X13110595Y31183296D01*
X13110595Y31421391D01*
X13158214Y31516629D01*
X13205833Y31564248D01*
X13301071Y31611867D01*
X13491547Y31611867D01*
X13586785Y31564248D01*
X13634404Y31516629D01*
X13682023Y31421391D01*
X12253452Y31659486D02*
X12253452Y30992820D01*
X12491547Y32040439D02*
X12729642Y31326153D01*
X12110595Y31326153D01*
X11729642Y30992820D02*
X11729642Y31992820D01*
X11158214Y30992820D02*
X11586785Y31564248D01*
X11158214Y31992820D02*
X11729642Y31421391D01*
X9396309Y30992820D02*
X9729642Y31469010D01*
X9967738Y30992820D02*
X9967738Y31992820D01*
X9586785Y31992820D01*
X9491547Y31945200D01*
X9443928Y31897581D01*
X9396309Y31802343D01*
X9396309Y31659486D01*
X9443928Y31564248D01*
X9491547Y31516629D01*
X9586785Y31469010D01*
X9967738Y31469010D01*
X9015357Y31278534D02*
X8539166Y31278534D01*
X9110595Y30992820D02*
X8777261Y31992820D01*
X8443928Y30992820D01*
X8110595Y30992820D02*
X8110595Y31992820D01*
X7777261Y31278534D01*
X7443928Y31992820D01*
X7443928Y30992820D01*
X13634404Y36072820D02*
X13634404Y37072820D01*
X13062976Y36072820D01*
X13062976Y37072820D01*
X12443928Y36072820D02*
X12539166Y36120439D01*
X12586785Y36168058D01*
X12634404Y36263296D01*
X12634404Y36549010D01*
X12586785Y36644248D01*
X12539166Y36691867D01*
X12443928Y36739486D01*
X12301071Y36739486D01*
X12205833Y36691867D01*
X12158214Y36644248D01*
X12110595Y36549010D01*
X12110595Y36263296D01*
X12158214Y36168058D01*
X12205833Y36120439D01*
X12301071Y36072820D01*
X12443928Y36072820D01*
X10348690Y36072820D02*
X10682023Y36549010D01*
X10920119Y36072820D02*
X10920119Y37072820D01*
X10539166Y37072820D01*
X10443928Y37025200D01*
X10396309Y36977581D01*
X10348690Y36882343D01*
X10348690Y36739486D01*
X10396309Y36644248D01*
X10443928Y36596629D01*
X10539166Y36549010D01*
X10920119Y36549010D01*
X9967738Y36358534D02*
X9491547Y36358534D01*
X10062976Y36072820D02*
X9729642Y37072820D01*
X9396309Y36072820D01*
X9062976Y36072820D02*
X9062976Y37072820D01*
X8729642Y36358534D01*
X8396309Y37072820D01*
X8396309Y36072820D01*
X16271428Y40882820D02*
X16271428Y40168534D01*
X16319047Y40025677D01*
X16414285Y39930439D01*
X16557142Y39882820D01*
X16652380Y39882820D01*
X15795238Y39882820D02*
X15795238Y40882820D01*
X15414285Y40882820D01*
X15319047Y40835200D01*
X15271428Y40787581D01*
X15223809Y40692343D01*
X15223809Y40549486D01*
X15271428Y40454248D01*
X15319047Y40406629D01*
X15414285Y40359010D01*
X15795238Y40359010D01*
X14271428Y39882820D02*
X14842857Y39882820D01*
X14557142Y39882820D02*
X14557142Y40882820D01*
X14652380Y40739962D01*
X14747619Y40644724D01*
X14842857Y40597105D01*
X12271428Y39882820D02*
X12319047Y39882820D01*
X12414285Y39930439D01*
X12557142Y40073296D01*
X12795238Y40359010D01*
X12890476Y40501867D01*
X12938095Y40644724D01*
X12938095Y40739962D01*
X12890476Y40835200D01*
X12795238Y40882820D01*
X12747619Y40882820D01*
X12652380Y40835200D01*
X12604761Y40739962D01*
X12604761Y40692343D01*
X12652380Y40597105D01*
X12700000Y40549486D01*
X12985714Y40359010D01*
X13033333Y40311391D01*
X13080952Y40216153D01*
X13080952Y40073296D01*
X13033333Y39978058D01*
X12985714Y39930439D01*
X12890476Y39882820D01*
X12747619Y39882820D01*
X12652380Y39930439D01*
X12604761Y39978058D01*
X12461904Y40168534D01*
X12414285Y40311391D01*
X12414285Y40406629D01*
X10795238Y40882820D02*
X10795238Y40168534D01*
X10842857Y40025677D01*
X10938095Y39930439D01*
X11080952Y39882820D01*
X11176190Y39882820D01*
X10319047Y39882820D02*
X10319047Y40882820D01*
X9938095Y40882820D01*
X9842857Y40835200D01*
X9795238Y40787581D01*
X9747619Y40692343D01*
X9747619Y40549486D01*
X9795238Y40454248D01*
X9842857Y40406629D01*
X9938095Y40359010D01*
X10319047Y40359010D01*
X9366666Y40787581D02*
X9319047Y40835200D01*
X9223809Y40882820D01*
X8985714Y40882820D01*
X8890476Y40835200D01*
X8842857Y40787581D01*
X8795238Y40692343D01*
X8795238Y40597105D01*
X8842857Y40454248D01*
X9414285Y39882820D01*
X8795238Y39882820D01*
X17145000Y27000200D02*
X17145000Y24460200D01*
X17145000Y24460200D02*
X15875000Y24460200D01*
X15875000Y27000200D02*
X17145000Y27000200D01*
X15875000Y24460200D02*
X15875000Y27000200D01*
D12*
X16510000Y26365073D02*
X16510000Y26364819D01*
D11*
X15875000Y24460200D02*
X14605000Y24460200D01*
D12*
X16510000Y27635454D02*
X16510000Y27635200D01*
D11*
X14605000Y27000200D02*
X15875000Y27000200D01*
D12*
X15240000Y27635200D02*
X15240000Y27634946D01*
X16510000Y25095454D02*
X16510000Y25095200D01*
D11*
X15875000Y27000200D02*
X15875000Y24460200D01*
D12*
X15240000Y25095073D02*
X15240000Y25094819D01*
X15240000Y26365454D02*
X15240000Y26365200D01*
D11*
X14605000Y24460200D02*
X14605000Y27000200D01*
X17145000Y38430200D02*
X17145000Y35890200D01*
X17145000Y35890200D02*
X15875000Y35890200D01*
X15875000Y35890200D02*
X15875000Y38430200D01*
X15875000Y38430200D02*
X17145000Y38430200D01*
D12*
X16510000Y36525073D02*
X16510000Y36524819D01*
D11*
X15875000Y35890200D02*
X14605000Y35890200D01*
D12*
X16510000Y37795454D02*
X16510000Y37795200D01*
D11*
X14605000Y38430200D02*
X15875000Y38430200D01*
D12*
X15240000Y37795200D02*
X15240000Y37794946D01*
X16510000Y35255454D02*
X16510000Y35255200D01*
D11*
X15875000Y38430200D02*
X15875000Y35890200D01*
D12*
X15240000Y35255073D02*
X15240000Y35254819D01*
X15240000Y36525454D02*
X15240000Y36525200D01*
D11*
X14605000Y35890200D02*
X14605000Y38430200D01*
X15875000Y32080200D02*
X15875000Y29540200D01*
X15875000Y29540200D02*
X14605000Y29540200D01*
X14605000Y29540200D02*
X14605000Y32080200D01*
X14605000Y32080200D02*
X15875000Y32080200D01*
D12*
X16510000Y31445073D02*
X16510000Y31444819D01*
D11*
X17145000Y30810200D02*
X15875000Y30810200D01*
D12*
X16510000Y32715454D02*
X16510000Y32715200D01*
D11*
X15875000Y33350200D02*
X17145000Y33350200D01*
D12*
X15240000Y32715200D02*
X15240000Y32714946D01*
X16510000Y30175454D02*
X16510000Y30175200D01*
D11*
X17145000Y33350200D02*
X17145000Y30810200D01*
D12*
X15240000Y30175073D02*
X15240000Y30174819D01*
X15240000Y31445454D02*
X15240000Y31445200D01*
D11*
X15875000Y30810200D02*
X15875000Y33350200D01*
D12*
X55880000Y37795073D02*
X55880000Y37794819D01*
X57150000Y37795454D02*
X57150000Y37795200D01*
X57150000Y40335454D02*
X57150000Y40335200D01*
X57150000Y39065073D02*
X57150000Y39064819D01*
X55880000Y39065454D02*
X55880000Y39065200D01*
D11*
X35752261Y23131629D02*
X35609404Y23084010D01*
X35561785Y23036391D01*
X35514166Y22941153D01*
X35514166Y22798296D01*
X35561785Y22703058D01*
X35609404Y22655439D01*
X35704642Y22607820D01*
X36085595Y22607820D01*
X36085595Y23607820D01*
X35752261Y23607820D01*
X35657023Y23560200D01*
X35609404Y23512581D01*
X35561785Y23417343D01*
X35561785Y23322105D01*
X35609404Y23226867D01*
X35657023Y23179248D01*
X35752261Y23131629D01*
X36085595Y23131629D01*
X34657023Y22607820D02*
X34657023Y23131629D01*
X34704642Y23226867D01*
X34799880Y23274486D01*
X34990357Y23274486D01*
X35085595Y23226867D01*
X34657023Y22655439D02*
X34752261Y22607820D01*
X34990357Y22607820D01*
X35085595Y22655439D01*
X35133214Y22750677D01*
X35133214Y22845915D01*
X35085595Y22941153D01*
X34990357Y22988772D01*
X34752261Y22988772D01*
X34657023Y23036391D01*
X33752261Y23274486D02*
X33752261Y22607820D01*
X34180833Y23274486D02*
X34180833Y22750677D01*
X34133214Y22655439D01*
X34037976Y22607820D01*
X33895119Y22607820D01*
X33799880Y22655439D01*
X33752261Y22703058D01*
X32847500Y22607820D02*
X32847500Y23607820D01*
X32847500Y22655439D02*
X32942738Y22607820D01*
X33133214Y22607820D01*
X33228452Y22655439D01*
X33276071Y22703058D01*
X33323690Y22798296D01*
X33323690Y23084010D01*
X33276071Y23179248D01*
X33228452Y23226867D01*
X33133214Y23274486D01*
X32942738Y23274486D01*
X32847500Y23226867D01*
X36799880Y20957820D02*
X37371309Y20957820D01*
X37085595Y20957820D02*
X37085595Y21957820D01*
X37180833Y21814962D01*
X37276071Y21719724D01*
X37371309Y21672105D01*
X35847500Y20957820D02*
X36418928Y20957820D01*
X36133214Y20957820D02*
X36133214Y21957820D01*
X36228452Y21814962D01*
X36323690Y21719724D01*
X36418928Y21672105D01*
X34942738Y21957820D02*
X35418928Y21957820D01*
X35466547Y21481629D01*
X35418928Y21529248D01*
X35323690Y21576867D01*
X35085595Y21576867D01*
X34990357Y21529248D01*
X34942738Y21481629D01*
X34895119Y21386391D01*
X34895119Y21148296D01*
X34942738Y21053058D01*
X34990357Y21005439D01*
X35085595Y20957820D01*
X35323690Y20957820D01*
X35418928Y21005439D01*
X35466547Y21053058D01*
X34514166Y21862581D02*
X34466547Y21910200D01*
X34371309Y21957820D01*
X34133214Y21957820D01*
X34037976Y21910200D01*
X33990357Y21862581D01*
X33942738Y21767343D01*
X33942738Y21672105D01*
X33990357Y21529248D01*
X34561785Y20957820D01*
X33942738Y20957820D01*
X33323690Y21957820D02*
X33228452Y21957820D01*
X33133214Y21910200D01*
X33085595Y21862581D01*
X33037976Y21767343D01*
X32990357Y21576867D01*
X32990357Y21338772D01*
X33037976Y21148296D01*
X33085595Y21053058D01*
X33133214Y21005439D01*
X33228452Y20957820D01*
X33323690Y20957820D01*
X33418928Y21005439D01*
X33466547Y21053058D01*
X33514166Y21148296D01*
X33561785Y21338772D01*
X33561785Y21576867D01*
X33514166Y21767343D01*
X33466547Y21862581D01*
X33418928Y21910200D01*
X33323690Y21957820D01*
X32371309Y21957820D02*
X32276071Y21957820D01*
X32180833Y21910200D01*
X32133214Y21862581D01*
X32085595Y21767343D01*
X32037976Y21576867D01*
X32037976Y21338772D01*
X32085595Y21148296D01*
X32133214Y21053058D01*
X32180833Y21005439D01*
X32276071Y20957820D01*
X32371309Y20957820D01*
X32466547Y21005439D01*
X32514166Y21053058D01*
X32561785Y21148296D01*
X32609404Y21338772D01*
X32609404Y21576867D01*
X32561785Y21767343D01*
X32514166Y21862581D01*
X32466547Y21910200D01*
X32371309Y21957820D01*
X35895119Y20307820D02*
X36371309Y20307820D01*
X36418928Y19831629D01*
X36371309Y19879248D01*
X36276071Y19926867D01*
X36037976Y19926867D01*
X35942738Y19879248D01*
X35895119Y19831629D01*
X35847500Y19736391D01*
X35847500Y19498296D01*
X35895119Y19403058D01*
X35942738Y19355439D01*
X36037976Y19307820D01*
X36276071Y19307820D01*
X36371309Y19355439D01*
X36418928Y19403058D01*
X35514166Y20307820D02*
X34847500Y20307820D01*
X35276071Y19307820D01*
X34037976Y20307820D02*
X34228452Y20307820D01*
X34323690Y20260200D01*
X34371309Y20212581D01*
X34466547Y20069724D01*
X34514166Y19879248D01*
X34514166Y19498296D01*
X34466547Y19403058D01*
X34418928Y19355439D01*
X34323690Y19307820D01*
X34133214Y19307820D01*
X34037976Y19355439D01*
X33990357Y19403058D01*
X33942738Y19498296D01*
X33942738Y19736391D01*
X33990357Y19831629D01*
X34037976Y19879248D01*
X34133214Y19926867D01*
X34323690Y19926867D01*
X34418928Y19879248D01*
X34466547Y19831629D01*
X34514166Y19736391D01*
X33323690Y20307820D02*
X33228452Y20307820D01*
X33133214Y20260200D01*
X33085595Y20212581D01*
X33037976Y20117343D01*
X32990357Y19926867D01*
X32990357Y19688772D01*
X33037976Y19498296D01*
X33085595Y19403058D01*
X33133214Y19355439D01*
X33228452Y19307820D01*
X33323690Y19307820D01*
X33418928Y19355439D01*
X33466547Y19403058D01*
X33514166Y19498296D01*
X33561785Y19688772D01*
X33561785Y19926867D01*
X33514166Y20117343D01*
X33466547Y20212581D01*
X33418928Y20260200D01*
X33323690Y20307820D01*
X32371309Y20307820D02*
X32276071Y20307820D01*
X32180833Y20260200D01*
X32133214Y20212581D01*
X32085595Y20117343D01*
X32037976Y19926867D01*
X32037976Y19688772D01*
X32085595Y19498296D01*
X32133214Y19403058D01*
X32180833Y19355439D01*
X32276071Y19307820D01*
X32371309Y19307820D01*
X32466547Y19355439D01*
X32514166Y19403058D01*
X32561785Y19498296D01*
X32609404Y19688772D01*
X32609404Y19926867D01*
X32561785Y20117343D01*
X32514166Y20212581D01*
X32466547Y20260200D01*
X32371309Y20307820D01*
X36466547Y18657820D02*
X35847500Y18657820D01*
X36180833Y18276867D01*
X36037976Y18276867D01*
X35942738Y18229248D01*
X35895119Y18181629D01*
X35847500Y18086391D01*
X35847500Y17848296D01*
X35895119Y17753058D01*
X35942738Y17705439D01*
X36037976Y17657820D01*
X36323690Y17657820D01*
X36418928Y17705439D01*
X36466547Y17753058D01*
X35276071Y18229248D02*
X35371309Y18276867D01*
X35418928Y18324486D01*
X35466547Y18419724D01*
X35466547Y18467343D01*
X35418928Y18562581D01*
X35371309Y18610200D01*
X35276071Y18657820D01*
X35085595Y18657820D01*
X34990357Y18610200D01*
X34942738Y18562581D01*
X34895119Y18467343D01*
X34895119Y18419724D01*
X34942738Y18324486D01*
X34990357Y18276867D01*
X35085595Y18229248D01*
X35276071Y18229248D01*
X35371309Y18181629D01*
X35418928Y18134010D01*
X35466547Y18038772D01*
X35466547Y17848296D01*
X35418928Y17753058D01*
X35371309Y17705439D01*
X35276071Y17657820D01*
X35085595Y17657820D01*
X34990357Y17705439D01*
X34942738Y17753058D01*
X34895119Y17848296D01*
X34895119Y18038772D01*
X34942738Y18134010D01*
X34990357Y18181629D01*
X35085595Y18229248D01*
X34037976Y18324486D02*
X34037976Y17657820D01*
X34276071Y18705439D02*
X34514166Y17991153D01*
X33895119Y17991153D01*
X33323690Y18657820D02*
X33228452Y18657820D01*
X33133214Y18610200D01*
X33085595Y18562581D01*
X33037976Y18467343D01*
X32990357Y18276867D01*
X32990357Y18038772D01*
X33037976Y17848296D01*
X33085595Y17753058D01*
X33133214Y17705439D01*
X33228452Y17657820D01*
X33323690Y17657820D01*
X33418928Y17705439D01*
X33466547Y17753058D01*
X33514166Y17848296D01*
X33561785Y18038772D01*
X33561785Y18276867D01*
X33514166Y18467343D01*
X33466547Y18562581D01*
X33418928Y18610200D01*
X33323690Y18657820D01*
X32371309Y18657820D02*
X32276071Y18657820D01*
X32180833Y18610200D01*
X32133214Y18562581D01*
X32085595Y18467343D01*
X32037976Y18276867D01*
X32037976Y18038772D01*
X32085595Y17848296D01*
X32133214Y17753058D01*
X32180833Y17705439D01*
X32276071Y17657820D01*
X32371309Y17657820D01*
X32466547Y17705439D01*
X32514166Y17753058D01*
X32561785Y17848296D01*
X32609404Y18038772D01*
X32609404Y18276867D01*
X32561785Y18467343D01*
X32514166Y18562581D01*
X32466547Y18610200D01*
X32371309Y18657820D01*
X36418928Y16912581D02*
X36371309Y16960200D01*
X36276071Y17007820D01*
X36037976Y17007820D01*
X35942738Y16960200D01*
X35895119Y16912581D01*
X35847500Y16817343D01*
X35847500Y16722105D01*
X35895119Y16579248D01*
X36466547Y16007820D01*
X35847500Y16007820D01*
X35276071Y16579248D02*
X35371309Y16626867D01*
X35418928Y16674486D01*
X35466547Y16769724D01*
X35466547Y16817343D01*
X35418928Y16912581D01*
X35371309Y16960200D01*
X35276071Y17007820D01*
X35085595Y17007820D01*
X34990357Y16960200D01*
X34942738Y16912581D01*
X34895119Y16817343D01*
X34895119Y16769724D01*
X34942738Y16674486D01*
X34990357Y16626867D01*
X35085595Y16579248D01*
X35276071Y16579248D01*
X35371309Y16531629D01*
X35418928Y16484010D01*
X35466547Y16388772D01*
X35466547Y16198296D01*
X35418928Y16103058D01*
X35371309Y16055439D01*
X35276071Y16007820D01*
X35085595Y16007820D01*
X34990357Y16055439D01*
X34942738Y16103058D01*
X34895119Y16198296D01*
X34895119Y16388772D01*
X34942738Y16484010D01*
X34990357Y16531629D01*
X35085595Y16579248D01*
X34323690Y16579248D02*
X34418928Y16626867D01*
X34466547Y16674486D01*
X34514166Y16769724D01*
X34514166Y16817343D01*
X34466547Y16912581D01*
X34418928Y16960200D01*
X34323690Y17007820D01*
X34133214Y17007820D01*
X34037976Y16960200D01*
X33990357Y16912581D01*
X33942738Y16817343D01*
X33942738Y16769724D01*
X33990357Y16674486D01*
X34037976Y16626867D01*
X34133214Y16579248D01*
X34323690Y16579248D01*
X34418928Y16531629D01*
X34466547Y16484010D01*
X34514166Y16388772D01*
X34514166Y16198296D01*
X34466547Y16103058D01*
X34418928Y16055439D01*
X34323690Y16007820D01*
X34133214Y16007820D01*
X34037976Y16055439D01*
X33990357Y16103058D01*
X33942738Y16198296D01*
X33942738Y16388772D01*
X33990357Y16484010D01*
X34037976Y16531629D01*
X34133214Y16579248D01*
X33323690Y17007820D02*
X33228452Y17007820D01*
X33133214Y16960200D01*
X33085595Y16912581D01*
X33037976Y16817343D01*
X32990357Y16626867D01*
X32990357Y16388772D01*
X33037976Y16198296D01*
X33085595Y16103058D01*
X33133214Y16055439D01*
X33228452Y16007820D01*
X33323690Y16007820D01*
X33418928Y16055439D01*
X33466547Y16103058D01*
X33514166Y16198296D01*
X33561785Y16388772D01*
X33561785Y16626867D01*
X33514166Y16817343D01*
X33466547Y16912581D01*
X33418928Y16960200D01*
X33323690Y17007820D01*
X32371309Y17007820D02*
X32276071Y17007820D01*
X32180833Y16960200D01*
X32133214Y16912581D01*
X32085595Y16817343D01*
X32037976Y16626867D01*
X32037976Y16388772D01*
X32085595Y16198296D01*
X32133214Y16103058D01*
X32180833Y16055439D01*
X32276071Y16007820D01*
X32371309Y16007820D01*
X32466547Y16055439D01*
X32514166Y16103058D01*
X32561785Y16198296D01*
X32609404Y16388772D01*
X32609404Y16626867D01*
X32561785Y16817343D01*
X32514166Y16912581D01*
X32466547Y16960200D01*
X32371309Y17007820D01*
X35847500Y14357820D02*
X36418928Y14357820D01*
X36133214Y14357820D02*
X36133214Y15357820D01*
X36228452Y15214962D01*
X36323690Y15119724D01*
X36418928Y15072105D01*
X35371309Y14357820D02*
X35180833Y14357820D01*
X35085595Y14405439D01*
X35037976Y14453058D01*
X34942738Y14595915D01*
X34895119Y14786391D01*
X34895119Y15167343D01*
X34942738Y15262581D01*
X34990357Y15310200D01*
X35085595Y15357820D01*
X35276071Y15357820D01*
X35371309Y15310200D01*
X35418928Y15262581D01*
X35466547Y15167343D01*
X35466547Y14929248D01*
X35418928Y14834010D01*
X35371309Y14786391D01*
X35276071Y14738772D01*
X35085595Y14738772D01*
X34990357Y14786391D01*
X34942738Y14834010D01*
X34895119Y14929248D01*
X34514166Y15262581D02*
X34466547Y15310200D01*
X34371309Y15357820D01*
X34133214Y15357820D01*
X34037976Y15310200D01*
X33990357Y15262581D01*
X33942738Y15167343D01*
X33942738Y15072105D01*
X33990357Y14929248D01*
X34561785Y14357820D01*
X33942738Y14357820D01*
X33323690Y15357820D02*
X33228452Y15357820D01*
X33133214Y15310200D01*
X33085595Y15262581D01*
X33037976Y15167343D01*
X32990357Y14976867D01*
X32990357Y14738772D01*
X33037976Y14548296D01*
X33085595Y14453058D01*
X33133214Y14405439D01*
X33228452Y14357820D01*
X33323690Y14357820D01*
X33418928Y14405439D01*
X33466547Y14453058D01*
X33514166Y14548296D01*
X33561785Y14738772D01*
X33561785Y14976867D01*
X33514166Y15167343D01*
X33466547Y15262581D01*
X33418928Y15310200D01*
X33323690Y15357820D01*
X32371309Y15357820D02*
X32276071Y15357820D01*
X32180833Y15310200D01*
X32133214Y15262581D01*
X32085595Y15167343D01*
X32037976Y14976867D01*
X32037976Y14738772D01*
X32085595Y14548296D01*
X32133214Y14453058D01*
X32180833Y14405439D01*
X32276071Y14357820D01*
X32371309Y14357820D01*
X32466547Y14405439D01*
X32514166Y14453058D01*
X32561785Y14548296D01*
X32609404Y14738772D01*
X32609404Y14976867D01*
X32561785Y15167343D01*
X32514166Y15262581D01*
X32466547Y15310200D01*
X32371309Y15357820D01*
X35847500Y12707820D02*
X36418928Y12707820D01*
X36133214Y12707820D02*
X36133214Y13707820D01*
X36228452Y13564962D01*
X36323690Y13469724D01*
X36418928Y13422105D01*
X34990357Y13374486D02*
X34990357Y12707820D01*
X35228452Y13755439D02*
X35466547Y13041153D01*
X34847500Y13041153D01*
X34037976Y13374486D02*
X34037976Y12707820D01*
X34276071Y13755439D02*
X34514166Y13041153D01*
X33895119Y13041153D01*
X33323690Y13707820D02*
X33228452Y13707820D01*
X33133214Y13660200D01*
X33085595Y13612581D01*
X33037976Y13517343D01*
X32990357Y13326867D01*
X32990357Y13088772D01*
X33037976Y12898296D01*
X33085595Y12803058D01*
X33133214Y12755439D01*
X33228452Y12707820D01*
X33323690Y12707820D01*
X33418928Y12755439D01*
X33466547Y12803058D01*
X33514166Y12898296D01*
X33561785Y13088772D01*
X33561785Y13326867D01*
X33514166Y13517343D01*
X33466547Y13612581D01*
X33418928Y13660200D01*
X33323690Y13707820D01*
X32371309Y13707820D02*
X32276071Y13707820D01*
X32180833Y13660200D01*
X32133214Y13612581D01*
X32085595Y13517343D01*
X32037976Y13326867D01*
X32037976Y13088772D01*
X32085595Y12898296D01*
X32133214Y12803058D01*
X32180833Y12755439D01*
X32276071Y12707820D01*
X32371309Y12707820D01*
X32466547Y12755439D01*
X32514166Y12803058D01*
X32561785Y12898296D01*
X32609404Y13088772D01*
X32609404Y13326867D01*
X32561785Y13517343D01*
X32514166Y13612581D01*
X32466547Y13660200D01*
X32371309Y13707820D01*
X44418095Y22703058D02*
X44465714Y22655439D01*
X44608571Y22607820D01*
X44703809Y22607820D01*
X44846666Y22655439D01*
X44941904Y22750677D01*
X44989523Y22845915D01*
X45037142Y23036391D01*
X45037142Y23179248D01*
X44989523Y23369724D01*
X44941904Y23464962D01*
X44846666Y23560200D01*
X44703809Y23607820D01*
X44608571Y23607820D01*
X44465714Y23560200D01*
X44418095Y23512581D01*
X43846666Y22607820D02*
X43941904Y22655439D01*
X43989523Y22750677D01*
X43989523Y23607820D01*
X43322857Y22607820D02*
X43418095Y22655439D01*
X43465714Y22703058D01*
X43513333Y22798296D01*
X43513333Y23084010D01*
X43465714Y23179248D01*
X43418095Y23226867D01*
X43322857Y23274486D01*
X43180000Y23274486D01*
X43084761Y23226867D01*
X43037142Y23179248D01*
X42989523Y23084010D01*
X42989523Y22798296D01*
X43037142Y22703058D01*
X43084761Y22655439D01*
X43180000Y22607820D01*
X43322857Y22607820D01*
X42132380Y22655439D02*
X42227619Y22607820D01*
X42418095Y22607820D01*
X42513333Y22655439D01*
X42560952Y22703058D01*
X42608571Y22798296D01*
X42608571Y23084010D01*
X42560952Y23179248D01*
X42513333Y23226867D01*
X42418095Y23274486D01*
X42227619Y23274486D01*
X42132380Y23226867D01*
X41703809Y22607820D02*
X41703809Y23607820D01*
X41608571Y22988772D02*
X41322857Y22607820D01*
X41322857Y23274486D02*
X41703809Y22893534D01*
X47537142Y21957820D02*
X46870476Y21957820D01*
X47299047Y20957820D01*
X46489523Y21053058D02*
X46441904Y21005439D01*
X46489523Y20957820D01*
X46537142Y21005439D01*
X46489523Y21053058D01*
X46489523Y20957820D01*
X46108571Y21957820D02*
X45489523Y21957820D01*
X45822857Y21576867D01*
X45680000Y21576867D01*
X45584761Y21529248D01*
X45537142Y21481629D01*
X45489523Y21386391D01*
X45489523Y21148296D01*
X45537142Y21053058D01*
X45584761Y21005439D01*
X45680000Y20957820D01*
X45965714Y20957820D01*
X46060952Y21005439D01*
X46108571Y21053058D01*
X45156190Y21957820D02*
X44489523Y21957820D01*
X44918095Y20957820D01*
X44156190Y21862581D02*
X44108571Y21910200D01*
X44013333Y21957820D01*
X43775238Y21957820D01*
X43680000Y21910200D01*
X43632380Y21862581D01*
X43584761Y21767343D01*
X43584761Y21672105D01*
X43632380Y21529248D01*
X44203809Y20957820D01*
X43584761Y20957820D01*
X43013333Y21529248D02*
X43108571Y21576867D01*
X43156190Y21624486D01*
X43203809Y21719724D01*
X43203809Y21767343D01*
X43156190Y21862581D01*
X43108571Y21910200D01*
X43013333Y21957820D01*
X42822857Y21957820D01*
X42727619Y21910200D01*
X42680000Y21862581D01*
X42632380Y21767343D01*
X42632380Y21719724D01*
X42680000Y21624486D01*
X42727619Y21576867D01*
X42822857Y21529248D01*
X43013333Y21529248D01*
X43108571Y21481629D01*
X43156190Y21434010D01*
X43203809Y21338772D01*
X43203809Y21148296D01*
X43156190Y21053058D01*
X43108571Y21005439D01*
X43013333Y20957820D01*
X42822857Y20957820D01*
X42727619Y21005439D01*
X42680000Y21053058D01*
X42632380Y21148296D01*
X42632380Y21338772D01*
X42680000Y21434010D01*
X42727619Y21481629D01*
X42822857Y21529248D01*
X41441904Y20957820D02*
X41441904Y21957820D01*
X41108571Y21243534D01*
X40775238Y21957820D01*
X40775238Y20957820D01*
X40299047Y20957820D02*
X40299047Y21957820D01*
X40299047Y21481629D02*
X39727619Y21481629D01*
X39727619Y20957820D02*
X39727619Y21957820D01*
X39346666Y21624486D02*
X38822857Y21624486D01*
X39346666Y20957820D01*
X38822857Y20957820D01*
X47537142Y20307820D02*
X46918095Y20307820D01*
X47251428Y19926867D01*
X47108571Y19926867D01*
X47013333Y19879248D01*
X46965714Y19831629D01*
X46918095Y19736391D01*
X46918095Y19498296D01*
X46965714Y19403058D01*
X47013333Y19355439D01*
X47108571Y19307820D01*
X47394285Y19307820D01*
X47489523Y19355439D01*
X47537142Y19403058D01*
X46489523Y19403058D02*
X46441904Y19355439D01*
X46489523Y19307820D01*
X46537142Y19355439D01*
X46489523Y19403058D01*
X46489523Y19307820D01*
X45584761Y20307820D02*
X45775238Y20307820D01*
X45870476Y20260200D01*
X45918095Y20212581D01*
X46013333Y20069724D01*
X46060952Y19879248D01*
X46060952Y19498296D01*
X46013333Y19403058D01*
X45965714Y19355439D01*
X45870476Y19307820D01*
X45680000Y19307820D01*
X45584761Y19355439D01*
X45537142Y19403058D01*
X45489523Y19498296D01*
X45489523Y19736391D01*
X45537142Y19831629D01*
X45584761Y19879248D01*
X45680000Y19926867D01*
X45870476Y19926867D01*
X45965714Y19879248D01*
X46013333Y19831629D01*
X46060952Y19736391D01*
X44918095Y19879248D02*
X45013333Y19926867D01*
X45060952Y19974486D01*
X45108571Y20069724D01*
X45108571Y20117343D01*
X45060952Y20212581D01*
X45013333Y20260200D01*
X44918095Y20307820D01*
X44727619Y20307820D01*
X44632380Y20260200D01*
X44584761Y20212581D01*
X44537142Y20117343D01*
X44537142Y20069724D01*
X44584761Y19974486D01*
X44632380Y19926867D01*
X44727619Y19879248D01*
X44918095Y19879248D01*
X45013333Y19831629D01*
X45060952Y19784010D01*
X45108571Y19688772D01*
X45108571Y19498296D01*
X45060952Y19403058D01*
X45013333Y19355439D01*
X44918095Y19307820D01*
X44727619Y19307820D01*
X44632380Y19355439D01*
X44584761Y19403058D01*
X44537142Y19498296D01*
X44537142Y19688772D01*
X44584761Y19784010D01*
X44632380Y19831629D01*
X44727619Y19879248D01*
X43680000Y20307820D02*
X43870476Y20307820D01*
X43965714Y20260200D01*
X44013333Y20212581D01*
X44108571Y20069724D01*
X44156190Y19879248D01*
X44156190Y19498296D01*
X44108571Y19403058D01*
X44060952Y19355439D01*
X43965714Y19307820D01*
X43775238Y19307820D01*
X43680000Y19355439D01*
X43632380Y19403058D01*
X43584761Y19498296D01*
X43584761Y19736391D01*
X43632380Y19831629D01*
X43680000Y19879248D01*
X43775238Y19926867D01*
X43965714Y19926867D01*
X44060952Y19879248D01*
X44108571Y19831629D01*
X44156190Y19736391D01*
X42727619Y19974486D02*
X42727619Y19307820D01*
X42965714Y20355439D02*
X43203809Y19641153D01*
X42584761Y19641153D01*
X41441904Y19307820D02*
X41441904Y20307820D01*
X41108571Y19593534D01*
X40775238Y20307820D01*
X40775238Y19307820D01*
X40299047Y19307820D02*
X40299047Y20307820D01*
X40299047Y19831629D02*
X39727619Y19831629D01*
X39727619Y19307820D02*
X39727619Y20307820D01*
X39346666Y19974486D02*
X38822857Y19974486D01*
X39346666Y19307820D01*
X38822857Y19307820D01*
X47489523Y18562581D02*
X47441904Y18610200D01*
X47346666Y18657820D01*
X47108571Y18657820D01*
X47013333Y18610200D01*
X46965714Y18562581D01*
X46918095Y18467343D01*
X46918095Y18372105D01*
X46965714Y18229248D01*
X47537142Y17657820D01*
X46918095Y17657820D01*
X46489523Y17753058D02*
X46441904Y17705439D01*
X46489523Y17657820D01*
X46537142Y17705439D01*
X46489523Y17753058D01*
X46489523Y17657820D01*
X45584761Y18324486D02*
X45584761Y17657820D01*
X45822857Y18705439D02*
X46060952Y17991153D01*
X45441904Y17991153D01*
X44584761Y18657820D02*
X45060952Y18657820D01*
X45108571Y18181629D01*
X45060952Y18229248D01*
X44965714Y18276867D01*
X44727619Y18276867D01*
X44632380Y18229248D01*
X44584761Y18181629D01*
X44537142Y18086391D01*
X44537142Y17848296D01*
X44584761Y17753058D01*
X44632380Y17705439D01*
X44727619Y17657820D01*
X44965714Y17657820D01*
X45060952Y17705439D01*
X45108571Y17753058D01*
X44203809Y18657820D02*
X43537142Y18657820D01*
X43965714Y17657820D01*
X42727619Y18657820D02*
X42918095Y18657820D01*
X43013333Y18610200D01*
X43060952Y18562581D01*
X43156190Y18419724D01*
X43203809Y18229248D01*
X43203809Y17848296D01*
X43156190Y17753058D01*
X43108571Y17705439D01*
X43013333Y17657820D01*
X42822857Y17657820D01*
X42727619Y17705439D01*
X42680000Y17753058D01*
X42632380Y17848296D01*
X42632380Y18086391D01*
X42680000Y18181629D01*
X42727619Y18229248D01*
X42822857Y18276867D01*
X43013333Y18276867D01*
X43108571Y18229248D01*
X43156190Y18181629D01*
X43203809Y18086391D01*
X41441904Y17657820D02*
X41441904Y18657820D01*
X41108571Y17943534D01*
X40775238Y18657820D01*
X40775238Y17657820D01*
X40299047Y17657820D02*
X40299047Y18657820D01*
X40299047Y18181629D02*
X39727619Y18181629D01*
X39727619Y17657820D02*
X39727619Y18657820D01*
X39346666Y18324486D02*
X38822857Y18324486D01*
X39346666Y17657820D01*
X38822857Y17657820D01*
X46918095Y16007820D02*
X47489523Y16007820D01*
X47203809Y16007820D02*
X47203809Y17007820D01*
X47299047Y16864962D01*
X47394285Y16769724D01*
X47489523Y16722105D01*
X46489523Y16103058D02*
X46441904Y16055439D01*
X46489523Y16007820D01*
X46537142Y16055439D01*
X46489523Y16103058D01*
X46489523Y16007820D01*
X45870476Y16579248D02*
X45965714Y16626867D01*
X46013333Y16674486D01*
X46060952Y16769724D01*
X46060952Y16817343D01*
X46013333Y16912581D01*
X45965714Y16960200D01*
X45870476Y17007820D01*
X45680000Y17007820D01*
X45584761Y16960200D01*
X45537142Y16912581D01*
X45489523Y16817343D01*
X45489523Y16769724D01*
X45537142Y16674486D01*
X45584761Y16626867D01*
X45680000Y16579248D01*
X45870476Y16579248D01*
X45965714Y16531629D01*
X46013333Y16484010D01*
X46060952Y16388772D01*
X46060952Y16198296D01*
X46013333Y16103058D01*
X45965714Y16055439D01*
X45870476Y16007820D01*
X45680000Y16007820D01*
X45584761Y16055439D01*
X45537142Y16103058D01*
X45489523Y16198296D01*
X45489523Y16388772D01*
X45537142Y16484010D01*
X45584761Y16531629D01*
X45680000Y16579248D01*
X44632380Y16674486D02*
X44632380Y16007820D01*
X44870476Y17055439D02*
X45108571Y16341153D01*
X44489523Y16341153D01*
X44203809Y17007820D02*
X43584761Y17007820D01*
X43918095Y16626867D01*
X43775238Y16626867D01*
X43680000Y16579248D01*
X43632380Y16531629D01*
X43584761Y16436391D01*
X43584761Y16198296D01*
X43632380Y16103058D01*
X43680000Y16055439D01*
X43775238Y16007820D01*
X44060952Y16007820D01*
X44156190Y16055439D01*
X44203809Y16103058D01*
X43203809Y16912581D02*
X43156190Y16960200D01*
X43060952Y17007820D01*
X42822857Y17007820D01*
X42727619Y16960200D01*
X42680000Y16912581D01*
X42632380Y16817343D01*
X42632380Y16722105D01*
X42680000Y16579248D01*
X43251428Y16007820D01*
X42632380Y16007820D01*
X41441904Y16007820D02*
X41441904Y17007820D01*
X41108571Y16293534D01*
X40775238Y17007820D01*
X40775238Y16007820D01*
X40299047Y16007820D02*
X40299047Y17007820D01*
X40299047Y16531629D02*
X39727619Y16531629D01*
X39727619Y16007820D02*
X39727619Y17007820D01*
X39346666Y16674486D02*
X38822857Y16674486D01*
X39346666Y16007820D01*
X38822857Y16007820D01*
X46918095Y14357820D02*
X47489523Y14357820D01*
X47203809Y14357820D02*
X47203809Y15357820D01*
X47299047Y15214962D01*
X47394285Y15119724D01*
X47489523Y15072105D01*
X46489523Y14453058D02*
X46441904Y14405439D01*
X46489523Y14357820D01*
X46537142Y14405439D01*
X46489523Y14453058D01*
X46489523Y14357820D01*
X46060952Y15262581D02*
X46013333Y15310200D01*
X45918095Y15357820D01*
X45680000Y15357820D01*
X45584761Y15310200D01*
X45537142Y15262581D01*
X45489523Y15167343D01*
X45489523Y15072105D01*
X45537142Y14929248D01*
X46108571Y14357820D01*
X45489523Y14357820D01*
X45108571Y15262581D02*
X45060952Y15310200D01*
X44965714Y15357820D01*
X44727619Y15357820D01*
X44632380Y15310200D01*
X44584761Y15262581D01*
X44537142Y15167343D01*
X44537142Y15072105D01*
X44584761Y14929248D01*
X45156190Y14357820D01*
X44537142Y14357820D01*
X43965714Y14929248D02*
X44060952Y14976867D01*
X44108571Y15024486D01*
X44156190Y15119724D01*
X44156190Y15167343D01*
X44108571Y15262581D01*
X44060952Y15310200D01*
X43965714Y15357820D01*
X43775238Y15357820D01*
X43680000Y15310200D01*
X43632380Y15262581D01*
X43584761Y15167343D01*
X43584761Y15119724D01*
X43632380Y15024486D01*
X43680000Y14976867D01*
X43775238Y14929248D01*
X43965714Y14929248D01*
X44060952Y14881629D01*
X44108571Y14834010D01*
X44156190Y14738772D01*
X44156190Y14548296D01*
X44108571Y14453058D01*
X44060952Y14405439D01*
X43965714Y14357820D01*
X43775238Y14357820D01*
X43680000Y14405439D01*
X43632380Y14453058D01*
X43584761Y14548296D01*
X43584761Y14738772D01*
X43632380Y14834010D01*
X43680000Y14881629D01*
X43775238Y14929248D01*
X43013333Y14929248D02*
X43108571Y14976867D01*
X43156190Y15024486D01*
X43203809Y15119724D01*
X43203809Y15167343D01*
X43156190Y15262581D01*
X43108571Y15310200D01*
X43013333Y15357820D01*
X42822857Y15357820D01*
X42727619Y15310200D01*
X42680000Y15262581D01*
X42632380Y15167343D01*
X42632380Y15119724D01*
X42680000Y15024486D01*
X42727619Y14976867D01*
X42822857Y14929248D01*
X43013333Y14929248D01*
X43108571Y14881629D01*
X43156190Y14834010D01*
X43203809Y14738772D01*
X43203809Y14548296D01*
X43156190Y14453058D01*
X43108571Y14405439D01*
X43013333Y14357820D01*
X42822857Y14357820D01*
X42727619Y14405439D01*
X42680000Y14453058D01*
X42632380Y14548296D01*
X42632380Y14738772D01*
X42680000Y14834010D01*
X42727619Y14881629D01*
X42822857Y14929248D01*
X41441904Y14357820D02*
X41441904Y15357820D01*
X41108571Y14643534D01*
X40775238Y15357820D01*
X40775238Y14357820D01*
X40299047Y14357820D02*
X40299047Y15357820D01*
X40299047Y14881629D02*
X39727619Y14881629D01*
X39727619Y14357820D02*
X39727619Y15357820D01*
X39346666Y15024486D02*
X38822857Y15024486D01*
X39346666Y14357820D01*
X38822857Y14357820D01*
X47251428Y13707820D02*
X47156190Y13707820D01*
X47060952Y13660200D01*
X47013333Y13612581D01*
X46965714Y13517343D01*
X46918095Y13326867D01*
X46918095Y13088772D01*
X46965714Y12898296D01*
X47013333Y12803058D01*
X47060952Y12755439D01*
X47156190Y12707820D01*
X47251428Y12707820D01*
X47346666Y12755439D01*
X47394285Y12803058D01*
X47441904Y12898296D01*
X47489523Y13088772D01*
X47489523Y13326867D01*
X47441904Y13517343D01*
X47394285Y13612581D01*
X47346666Y13660200D01*
X47251428Y13707820D01*
X46489523Y12803058D02*
X46441904Y12755439D01*
X46489523Y12707820D01*
X46537142Y12755439D01*
X46489523Y12803058D01*
X46489523Y12707820D01*
X45965714Y12707820D02*
X45775238Y12707820D01*
X45680000Y12755439D01*
X45632380Y12803058D01*
X45537142Y12945915D01*
X45489523Y13136391D01*
X45489523Y13517343D01*
X45537142Y13612581D01*
X45584761Y13660200D01*
X45680000Y13707820D01*
X45870476Y13707820D01*
X45965714Y13660200D01*
X46013333Y13612581D01*
X46060952Y13517343D01*
X46060952Y13279248D01*
X46013333Y13184010D01*
X45965714Y13136391D01*
X45870476Y13088772D01*
X45680000Y13088772D01*
X45584761Y13136391D01*
X45537142Y13184010D01*
X45489523Y13279248D01*
X45108571Y13612581D02*
X45060952Y13660200D01*
X44965714Y13707820D01*
X44727619Y13707820D01*
X44632380Y13660200D01*
X44584761Y13612581D01*
X44537142Y13517343D01*
X44537142Y13422105D01*
X44584761Y13279248D01*
X45156190Y12707820D01*
X44537142Y12707820D01*
X43584761Y12707820D02*
X44156190Y12707820D01*
X43870476Y12707820D02*
X43870476Y13707820D01*
X43965714Y13564962D01*
X44060952Y13469724D01*
X44156190Y13422105D01*
X42727619Y13707820D02*
X42918095Y13707820D01*
X43013333Y13660200D01*
X43060952Y13612581D01*
X43156190Y13469724D01*
X43203809Y13279248D01*
X43203809Y12898296D01*
X43156190Y12803058D01*
X43108571Y12755439D01*
X43013333Y12707820D01*
X42822857Y12707820D01*
X42727619Y12755439D01*
X42680000Y12803058D01*
X42632380Y12898296D01*
X42632380Y13136391D01*
X42680000Y13231629D01*
X42727619Y13279248D01*
X42822857Y13326867D01*
X43013333Y13326867D01*
X43108571Y13279248D01*
X43156190Y13231629D01*
X43203809Y13136391D01*
X41441904Y12707820D02*
X41441904Y13707820D01*
X41108571Y12993534D01*
X40775238Y13707820D01*
X40775238Y12707820D01*
X40299047Y12707820D02*
X40299047Y13707820D01*
X40299047Y13231629D02*
X39727619Y13231629D01*
X39727619Y12707820D02*
X39727619Y13707820D01*
X39346666Y13374486D02*
X38822857Y13374486D01*
X39346666Y12707820D01*
X38822857Y12707820D01*
X53085714Y22607820D02*
X53085714Y23607820D01*
X52847619Y23607820D01*
X52704761Y23560200D01*
X52609523Y23464962D01*
X52561904Y23369724D01*
X52514285Y23179248D01*
X52514285Y23036391D01*
X52561904Y22845915D01*
X52609523Y22750677D01*
X52704761Y22655439D01*
X52847619Y22607820D01*
X53085714Y22607820D01*
X52085714Y22607820D02*
X52085714Y23274486D01*
X52085714Y23607820D02*
X52133333Y23560200D01*
X52085714Y23512581D01*
X52038095Y23560200D01*
X52085714Y23607820D01*
X52085714Y23512581D01*
X51704761Y23274486D02*
X51466666Y22607820D01*
X51228571Y23274486D01*
X50847619Y22607820D02*
X50847619Y23274486D01*
X50847619Y23607820D02*
X50895238Y23560200D01*
X50847619Y23512581D01*
X50800000Y23560200D01*
X50847619Y23607820D01*
X50847619Y23512581D01*
X50419047Y22655439D02*
X50323809Y22607820D01*
X50133333Y22607820D01*
X50038095Y22655439D01*
X49990476Y22750677D01*
X49990476Y22798296D01*
X50038095Y22893534D01*
X50133333Y22941153D01*
X50276190Y22941153D01*
X50371428Y22988772D01*
X50419047Y23084010D01*
X50419047Y23131629D01*
X50371428Y23226867D01*
X50276190Y23274486D01*
X50133333Y23274486D01*
X50038095Y23226867D01*
X49419047Y22607820D02*
X49514285Y22655439D01*
X49561904Y22703058D01*
X49609523Y22798296D01*
X49609523Y23084010D01*
X49561904Y23179248D01*
X49514285Y23226867D01*
X49419047Y23274486D01*
X49276190Y23274486D01*
X49180952Y23226867D01*
X49133333Y23179248D01*
X49085714Y23084010D01*
X49085714Y22798296D01*
X49133333Y22703058D01*
X49180952Y22655439D01*
X49276190Y22607820D01*
X49419047Y22607820D01*
X48657142Y22607820D02*
X48657142Y23274486D01*
X48657142Y23084010D02*
X48609523Y23179248D01*
X48561904Y23226867D01*
X48466666Y23274486D01*
X48371428Y23274486D01*
X50847619Y22005439D02*
X51704761Y20719724D01*
X49990476Y20957820D02*
X50561904Y20957820D01*
X50276190Y20957820D02*
X50276190Y21957820D01*
X50371428Y21814962D01*
X50466666Y21719724D01*
X50561904Y21672105D01*
X50847619Y20355439D02*
X51704761Y19069724D01*
X50561904Y20212581D02*
X50514285Y20260200D01*
X50419047Y20307820D01*
X50180952Y20307820D01*
X50085714Y20260200D01*
X50038095Y20212581D01*
X49990476Y20117343D01*
X49990476Y20022105D01*
X50038095Y19879248D01*
X50609523Y19307820D01*
X49990476Y19307820D01*
X50847619Y18705439D02*
X51704761Y17419724D01*
X50609523Y18657820D02*
X49990476Y18657820D01*
X50323809Y18276867D01*
X50180952Y18276867D01*
X50085714Y18229248D01*
X50038095Y18181629D01*
X49990476Y18086391D01*
X49990476Y17848296D01*
X50038095Y17753058D01*
X50085714Y17705439D01*
X50180952Y17657820D01*
X50466666Y17657820D01*
X50561904Y17705439D01*
X50609523Y17753058D01*
X50847619Y17055439D02*
X51704761Y15769724D01*
X50085714Y16674486D02*
X50085714Y16007820D01*
X50323809Y17055439D02*
X50561904Y16341153D01*
X49942857Y16341153D01*
X50847619Y15405439D02*
X51704761Y14119724D01*
X50085714Y15357820D02*
X50276190Y15357820D01*
X50371428Y15310200D01*
X50419047Y15262581D01*
X50514285Y15119724D01*
X50561904Y14929248D01*
X50561904Y14548296D01*
X50514285Y14453058D01*
X50466666Y14405439D01*
X50371428Y14357820D01*
X50180952Y14357820D01*
X50085714Y14405439D01*
X50038095Y14453058D01*
X49990476Y14548296D01*
X49990476Y14786391D01*
X50038095Y14881629D01*
X50085714Y14929248D01*
X50180952Y14976867D01*
X50371428Y14976867D01*
X50466666Y14929248D01*
X50514285Y14881629D01*
X50561904Y14786391D01*
X50847619Y13755439D02*
X51704761Y12469724D01*
X50371428Y13279248D02*
X50466666Y13326867D01*
X50514285Y13374486D01*
X50561904Y13469724D01*
X50561904Y13517343D01*
X50514285Y13612581D01*
X50466666Y13660200D01*
X50371428Y13707820D01*
X50180952Y13707820D01*
X50085714Y13660200D01*
X50038095Y13612581D01*
X49990476Y13517343D01*
X49990476Y13469724D01*
X50038095Y13374486D01*
X50085714Y13326867D01*
X50180952Y13279248D01*
X50371428Y13279248D01*
X50466666Y13231629D01*
X50514285Y13184010D01*
X50561904Y13088772D01*
X50561904Y12898296D01*
X50514285Y12803058D01*
X50466666Y12755439D01*
X50371428Y12707820D01*
X50180952Y12707820D01*
X50085714Y12755439D01*
X50038095Y12803058D01*
X49990476Y12898296D01*
X49990476Y13088772D01*
X50038095Y13184010D01*
X50085714Y13231629D01*
X50180952Y13279248D01*
M02*
